<svg width="271" height="196" viewBox="0 0 271 196" fill="none" xmlns="http://www.w3.org/2000/svg">
<g clip-path="url(#clip0_19683_24103)">
<path d="M213.615 32.8075L206.764 34.1084C205.924 34.2677 205.268 34.9241 205.109 35.7634L203.808 42.6151L202.507 35.7634C202.348 34.9241 201.691 34.2677 200.852 34.1084L194 32.8075L200.852 31.5067C201.691 31.3474 202.348 30.6909 202.507 29.8517L203.808 23L205.109 29.8517C205.268 30.6909 205.924 31.3474 206.764 31.5067L213.615 32.8075Z" fill="white"/>
<path d="M70.6152 158.808L63.7635 160.108C62.9243 160.268 62.2679 160.924 62.1085 161.763L60.8077 168.615L59.5069 161.763C59.3475 160.924 58.6911 160.268 57.8519 160.108L51.0002 158.808L57.8519 157.507C58.6911 157.347 59.3475 156.691 59.5069 155.852L60.8077 149L62.1085 155.852C62.2679 156.691 62.9243 157.347 63.7635 157.507L70.6152 158.808Z" fill="white"/>
<path d="M198 12L194.348 12.6933C193.509 12.8526 192.853 13.509 192.693 14.3483L192 18L191.307 14.3483C191.147 13.509 190.491 12.8526 189.652 12.6933L186 12L189.652 11.3067C190.491 11.1474 191.147 10.491 191.307 9.65171L192 6L192.693 9.65171C192.853 10.491 193.509 11.1474 194.348 11.3067L198 12Z" fill="white"/>
<path opacity="0.4" d="M267 6L263.348 6.6933C262.509 6.85264 261.853 7.50905 261.693 8.34829L261 12L260.307 8.34829C260.147 7.50905 259.491 6.85263 258.652 6.6933L255 6L258.652 5.3067C259.491 5.14736 260.147 4.49095 260.307 3.65171L261 -2.62268e-07L261.693 3.65171C261.853 4.49095 262.509 5.14736 263.348 5.3067L267 6Z" fill="white"/>
<path opacity="0.4" d="M12 182L8.34829 182.693C7.50905 182.853 6.85264 183.509 6.6933 184.348L6 188L5.3067 184.348C5.14737 183.509 4.49095 182.853 3.65171 182.693L6.91406e-07 182L3.65171 181.307C4.49096 181.147 5.14737 180.491 5.3067 179.652L6 176L6.6933 179.652C6.85264 180.491 7.50905 181.147 8.34829 181.307L12 182Z" fill="white"/>
<g opacity="0.05">
<rect x="39" y="3" width="193" height="193" rx="90.6706" fill="url(#paint0_linear_19683_24103)"/>
</g>
<g opacity="0.1">
<rect x="56" y="20" width="159" height="159" rx="79.5" fill="url(#paint1_linear_19683_24103)"/>
</g>
<g opacity="0.2">
<rect x="71" y="35" width="129" height="129" rx="64.5" fill="url(#paint2_linear_19683_24103)"/>
</g>
<rect x="81" y="45" width="109" height="109" rx="54.5" fill="url(#paint3_linear_19683_24103)"/>
<path d="M154.252 93.7338C155.193 88.11 150.953 85.0046 145.113 82.8782L147.152 75.2701L142.524 74.0301L140.54 81.4351C139.325 81.1096 138.074 80.799 136.833 80.4944L138.83 73.0403L134.202 71.8003L132.162 79.4009C131.155 79.152 130.164 78.9075 129.204 78.6504L129.21 78.6275L122.828 76.9138L121.503 81.8592C121.503 81.8592 124.939 82.7099 124.864 82.7563C126.74 83.2592 127.058 84.5097 126.983 85.4971L124.661 94.163C124.792 94.1981 124.958 94.2494 125.14 94.3265L124.652 94.1957L121.396 106.336C121.156 106.903 120.557 107.75 119.246 107.402C119.291 107.471 115.883 106.501 115.883 106.501L113.481 111.783L119.507 113.398C120.627 113.698 121.726 114.013 122.805 114.309L120.747 122.003L125.371 123.242L127.411 115.631C128.671 115.997 129.897 116.336 131.099 116.658L129.066 124.232L133.693 125.472L135.75 117.796C143.651 119.435 149.63 118.935 152.263 111.805C154.387 106.067 152.324 102.695 148.191 100.45C151.245 99.8081 153.57 97.8511 154.252 93.7338ZM143.366 108.446C141.826 114.193 132.159 110.905 129.019 110.063L131.75 99.8676C134.889 100.716 144.972 102.452 143.366 108.446ZM145.065 93.4872C143.663 98.7175 135.614 95.9041 132.999 95.2071L135.476 85.9648C138.092 86.666 146.529 88.035 145.065 93.4872Z" fill="white" fill-opacity="0.5"/>
</g>
<defs>
<linearGradient id="paint0_linear_19683_24103" x1="207.655" y1="2.16531" x2="168.764" y2="202.459" gradientUnits="userSpaceOnUse">
<stop stop-color="#E57D33"/>
<stop offset="1" stop-color="#FA601E"/>
</linearGradient>
<linearGradient id="paint1_linear_19683_24103" x1="194.943" y1="19.3124" x2="162.904" y2="184.321" gradientUnits="userSpaceOnUse">
<stop stop-color="#E57D33"/>
<stop offset="1" stop-color="#FA601E"/>
</linearGradient>
<linearGradient id="paint2_linear_19683_24103" x1="183.728" y1="34.4421" x2="157.734" y2="168.317" gradientUnits="userSpaceOnUse">
<stop stop-color="#E57D33"/>
<stop offset="1" stop-color="#FA601E"/>
</linearGradient>
<linearGradient id="paint3_linear_19683_24103" x1="176.251" y1="44.5286" x2="154.286" y2="157.648" gradientUnits="userSpaceOnUse">
<stop stop-color="#E57D33"/>
<stop offset="1" stop-color="#FA601E"/>
</linearGradient>
<clipPath id="clip0_19683_24103">
<rect width="271" height="196" fill="white"/>
</clipPath>
</defs>
</svg>
