<svg width="32" height="32" viewBox="0 0 32 32" fill="none" xmlns="http://www.w3.org/2000/svg">
<path d="M29.0612 10.0611L13.0612 26.0611C12.9218 26.201 12.7563 26.3119 12.5739 26.3876C12.3916 26.4633 12.1961 26.5023 11.9987 26.5023C11.8013 26.5023 11.6058 26.4633 11.4235 26.3876C11.2411 26.3119 11.0756 26.201 10.9362 26.0611L3.9362 19.0611C3.79667 18.9216 3.68599 18.756 3.61047 18.5737C3.53496 18.3914 3.49609 18.196 3.49609 17.9986C3.49609 17.8013 3.53496 17.6059 3.61047 17.4236C3.68599 17.2413 3.79667 17.0757 3.9362 16.9361C4.07573 16.7966 4.24137 16.6859 4.42367 16.6104C4.60598 16.5349 4.80137 16.496 4.9987 16.496C5.19602 16.496 5.39141 16.5349 5.57372 16.6104C5.75602 16.6859 5.92167 16.7966 6.0612 16.9361L11.9999 22.8749L26.9387 7.93864C27.2205 7.65684 27.6027 7.49854 28.0012 7.49854C28.3997 7.49854 28.7819 7.65684 29.0637 7.93864C29.3455 8.22043 29.5038 8.60262 29.5038 9.00114C29.5038 9.39965 29.3455 9.78184 29.0637 10.0636L29.0612 10.0611Z" fill="#181818"/>
</svg>
