<svg width="24" height="24" viewBox="0 0 24 24" fill="none" xmlns="http://www.w3.org/2000/svg">
<path d="M20.8397 11.5368L12.5897 1.03681C12.5195 0.947515 12.43 0.875322 12.3278 0.82568C12.2257 0.776038 12.1136 0.750244 12 0.750244C11.8864 0.750244 11.7743 0.776038 11.6722 0.82568C11.57 0.875322 11.4805 0.947515 11.4103 1.03681L3.16032 11.5368C3.05661 11.6689 3.00024 11.832 3.00024 11.9999C3.00024 12.1679 3.05661 12.331 3.16032 12.4631L11.4103 22.9631C11.4805 23.0524 11.57 23.1246 11.6722 23.1742C11.7743 23.2238 11.8864 23.2496 12 23.2496C12.1136 23.2496 12.2257 23.2238 12.3278 23.1742C12.43 23.1246 12.5195 23.0524 12.5897 22.9631L20.8397 12.4631C20.9434 12.331 20.9998 12.1679 20.9998 11.9999C20.9998 11.832 20.9434 11.6689 20.8397 11.5368ZM12.75 3.66838L19.0706 11.7121L12.75 14.5856V3.66838ZM11.25 14.5856L4.92938 11.7121L11.25 3.66838V14.5856ZM11.25 16.2327V20.3315L6.24094 13.9565L11.25 16.2327ZM12.75 16.2327L17.7591 13.9556L12.75 20.3306V16.2327Z" fill="#4C525F"/>
</svg>
