<svg width="103" height="78" viewBox="0 0 103 78" fill="none" xmlns="http://www.w3.org/2000/svg">
<circle cx="64.4726" cy="54.9418" r="0.725463" transform="rotate(-180 64.4726 54.9418)" fill="#4C507C"/>
<circle cx="64.4726" cy="37.3396" r="0.725463" transform="rotate(-180 64.4726 37.3396)" fill="#4C507C"/>
<circle cx="55.6718" cy="54.9418" r="0.725463" transform="rotate(-180 55.6718 54.9418)" fill="#4C507C"/>
<circle cx="55.6718" cy="37.3396" r="0.725463" transform="rotate(-180 55.6718 37.3396)" fill="#4C507C"/>
<circle cx="64.4726" cy="54.9418" r="0.725463" transform="rotate(-180 64.4726 54.9418)" fill="#4C507C"/>
<circle cx="64.4726" cy="37.3396" r="0.725463" transform="rotate(-180 64.4726 37.3396)" fill="#4C507C"/>
<circle cx="46.8706" cy="54.9418" r="0.725463" transform="rotate(-180 46.8706 54.9418)" fill="#4C507C"/>
<circle cx="46.8706" cy="37.3396" r="0.725463" transform="rotate(-180 46.8706 37.3396)" fill="#4C507C"/>
<circle cx="38.0695" cy="54.9418" r="0.725463" transform="rotate(-180 38.0695 54.9418)" fill="#4C507C"/>
<circle cx="38.0694" cy="37.3396" r="0.725463" transform="rotate(-180 38.0694 37.3396)" fill="#4C507C"/>
<circle cx="29.2687" cy="54.9418" r="0.725463" transform="rotate(-180 29.2687 54.9418)" fill="#4C507C"/>
<circle cx="29.2687" cy="37.3396" r="0.725463" transform="rotate(-180 29.2687 37.3396)" fill="#4C507C"/>
<circle cx="38.0695" cy="54.9418" r="0.725463" transform="rotate(-180 38.0695 54.9418)" fill="#4C507C"/>
<circle cx="38.0694" cy="37.3396" r="0.725463" transform="rotate(-180 38.0694 37.3396)" fill="#4C507C"/>
<circle cx="20.4675" cy="54.9418" r="0.725463" transform="rotate(-180 20.4675 54.9418)" fill="#4C507C"/>
<circle cx="20.4675" cy="37.3396" r="0.725463" transform="rotate(-180 20.4675 37.3396)" fill="#4C507C"/>
<circle cx="29.2687" cy="54.9418" r="0.725463" transform="rotate(-180 29.2687 54.9418)" fill="#4C507C"/>
<circle cx="29.2687" cy="37.3396" r="0.725463" transform="rotate(-180 29.2687 37.3396)" fill="#4C507C"/>
<circle cx="11.6659" cy="54.9418" r="0.725463" transform="rotate(-180 11.6659 54.9418)" fill="#4C507C"/>
<circle cx="73.2737" cy="46.141" r="0.725463" transform="rotate(-180 73.2737 46.141)" fill="#4C507C"/>
<circle cx="64.4726" cy="46.141" r="0.725463" transform="rotate(-180 64.4726 46.141)" fill="#4C507C"/>
<circle cx="73.2737" cy="46.141" r="0.725463" transform="rotate(-180 73.2737 46.141)" fill="#4C507C"/>
<circle cx="55.6718" cy="46.141" r="0.725463" transform="rotate(-180 55.6718 46.141)" fill="#4C507C"/>
<circle cx="55.6718" cy="28.5387" r="0.725463" transform="rotate(-180 55.6718 28.5387)" fill="#4C507C"/>
<circle cx="64.4726" cy="46.141" r="0.725463" transform="rotate(-180 64.4726 46.141)" fill="#4C507C"/>
<circle cx="46.8706" cy="46.141" r="0.725463" transform="rotate(-180 46.8706 46.141)" fill="#4C507C"/>
<circle cx="46.8706" cy="28.5387" r="0.725463" transform="rotate(-180 46.8706 28.5387)" fill="#4C507C"/>
<circle cx="38.0694" cy="46.141" r="0.725463" transform="rotate(-180 38.0694 46.141)" fill="#4C507C"/>
<circle cx="38.0694" cy="28.5387" r="0.725463" transform="rotate(-180 38.0694 28.5387)" fill="#4C507C"/>
<circle cx="29.2687" cy="46.141" r="0.725463" transform="rotate(-180 29.2687 46.141)" fill="#4C507C"/>
<circle cx="29.2687" cy="28.5387" r="0.725463" transform="rotate(-180 29.2687 28.5387)" fill="#4C507C"/>
<circle cx="38.0694" cy="46.141" r="0.725463" transform="rotate(-180 38.0694 46.141)" fill="#4C507C"/>
<circle cx="38.0694" cy="28.5387" r="0.725463" transform="rotate(-180 38.0694 28.5387)" fill="#4C507C"/>
<circle cx="20.4675" cy="46.141" r="0.725463" transform="rotate(-180 20.4675 46.141)" fill="#4C507C"/>
<circle cx="29.2687" cy="46.141" r="0.725463" transform="rotate(-180 29.2687 46.141)" fill="#4C507C"/>
<circle cx="29.2687" cy="28.5387" r="0.725463" transform="rotate(-180 29.2687 28.5387)" fill="#4C507C"/>
<circle cx="11.6659" cy="46.141" r="0.725463" transform="rotate(-180 11.6659 46.141)" fill="#4C507C"/>
<rect x="61.5486" y="31.7932" width="13.4356" height="45.6811" rx="1" fill="url(#paint0_linear_8546_44377)"/>
<rect x="44.2743" y="42.5417" width="13.4356" height="34.9326" rx="1" fill="url(#paint1_linear_8546_44377)"/>
<rect x="27" y="53.2902" width="13.4356" height="24.1841" rx="1" fill="url(#paint2_linear_8546_44377)"/>
<path d="M97.9844 15.0256L94.3568 15.7144C92.7423 16.0209 91.4796 17.2836 91.1731 18.8981L90.4844 22.5256L89.7957 18.8981C89.4891 17.2836 88.2264 16.0209 86.612 15.7144L82.9844 15.0256L86.612 14.3369C88.2264 14.0304 89.4891 12.7677 89.7957 11.1532L90.4844 7.52563L91.1731 11.1532C91.4796 12.7677 92.7423 14.0304 94.3568 14.3369L97.9844 15.0256Z" fill="white"/>
<path d="M85.75 22.2903L80.9847 29.2891C80.0598 30.6474 80.0598 32.4332 80.9847 33.7915L85.75 40.7903L78.7512 36.025C77.3929 35.1001 75.6071 35.1001 74.2488 36.025L67.25 40.7903L72.0153 33.7915C72.9402 32.4332 72.9402 30.6474 72.0153 29.2891L67.25 22.2903L74.2488 27.0556C75.6071 27.9804 77.3929 27.9804 78.7512 27.0556L85.75 22.2903Z" fill="white"/>
<defs>
<linearGradient id="paint0_linear_8546_44377" x1="68.2664" y1="31.7932" x2="68.2664" y2="77.4743" gradientUnits="userSpaceOnUse">
<stop stop-color="#EC9A5E"/>
<stop offset="1" stop-color="#EE7A30"/>
</linearGradient>
<linearGradient id="paint1_linear_8546_44377" x1="50.9921" y1="42.5417" x2="50.9921" y2="77.4743" gradientUnits="userSpaceOnUse">
<stop stop-color="#6E54CB"/>
<stop offset="1" stop-color="#4F34BA"/>
</linearGradient>
<linearGradient id="paint2_linear_8546_44377" x1="33.7178" y1="53.2902" x2="33.7178" y2="77.4743" gradientUnits="userSpaceOnUse">
<stop stop-color="#55B86E"/>
<stop offset="1" stop-color="#3E8A51"/>
</linearGradient>
</defs>
</svg>
