<svg fill="none" height="80" viewBox="0 0 300 80" width="300" xmlns="http://www.w3.org/2000/svg" xmlns:xlink="http://www.w3.org/1999/xlink"><linearGradient id="a" gradientUnits="userSpaceOnUse" x1="11.8936" x2="82.5557" y1="68.5632" y2="-2.09887"><stop offset="0" stop-color="#5565f7"/><stop offset="1" stop-color="#9ea7fa"/></linearGradient><clipPath id="b"><path d="m0 0h300v80h-300z"/></clipPath><g clip-path="url(#b)"><g fill="#fff"><path d="m116.196 39.6408-16.196 23.5755h7.51l12.67-18.6775c1.567 2.7428 3.33 5.6163 5.159 8.2939l7.249 10.3836h7.575l-16-23.6408 15.804-23.5755h-7.379l-12.474 18.8082c-1.371-2.6123-2.938-5.2245-5.028-8.2939l-7.38-10.5143h-7.641z"/><path d="m154.146 63.2163h6.074l13.322-31.9347h-6.4l-7.118 17.8286c-1.11 2.8082-2.155 5.551-2.678 7.6408-.522-1.9592-1.436-4.6367-2.547-7.6408l-6.987-17.8286h-6.531z"/><path d="m192.045 64c7.902 0 13.258-3.8531 14.825-10.7102h-5.747c-1.045 3.6571-4.18 5.6163-8.947 5.6163-6.073 0-9.6-3.7224-10.057-10.449l24.686-.0653v-2.2857c0-9.4694-5.943-15.7388-15.021-15.7388-9.273 0-15.608 6.9225-15.608 16.9143 0 9.9266 6.465 16.7184 15.869 16.7184zm-.261-28.4735c5.421 0 8.882 3.5266 8.882 8.8164h-18.417c.784-5.6164 4.18-8.8164 9.535-8.8164z"/><path d="m233.253 31.0204c-1.241-.2612-2.155-.3918-3.265-.3918-4.376 0-7.576 2.2204-8.882 5.551l-.392-4.8327h-5.747v31.8694h6.139v-16.9143c0-6.1387 3.592-9.6653 9.404-9.6653h2.743z"/><path d="m237.705 53.9429c0 6.0734 4.767 10.0571 12.277 10.0571 7.576 0 12.8-3.8531 12.8-9.9265 0-4.7674-2.677-7.249-8.098-8.5551l-5.616-1.3715c-3.135-.7836-4.702-2.2204-4.702-4.3755 0-2.9387 2.155-4.6367 6.008-4.6367 3.722 0 5.878 2.0245 6.008 5.2245h5.878c-.131-6.0735-4.702-9.9919-11.69-9.9919-7.053 0-12.016 3.7225-12.016 9.6 0 4.7021 2.677 7.5103 8.359 8.8817l5.616 1.3061c3.331.849 4.376 2.1551 4.376 4.3102 0 2.9388-2.482 4.702-6.792 4.702-4.049 0-6.531-1.9591-6.531-5.2244z"/><path d="m284.675 64c7.903 0 13.258-3.8531 14.825-10.7102h-5.747c-1.045 3.6571-4.18 5.6163-8.947 5.6163-6.073 0-9.6-3.7224-10.057-10.449l24.686-.0653v-2.2857c0-9.4694-5.943-15.7388-15.021-15.7388-9.273 0-15.608 6.9225-15.608 16.9143 0 9.9266 6.465 16.7184 15.869 16.7184zm-.261-28.4735c5.421 0 8.882 3.5266 8.882 8.8164h-18.416c.783-5.6164 4.179-8.8164 9.534-8.8164z"/></g><path clip-rule="evenodd" d="m13.1645 10.3364c15.2094-13.78198 38.4621-13.78188 53.6714.0004l-3.5456 3.5455c-13.2461-11.83346-33.334-11.83356-46.5802-.0003zm56.4997 2.8288-3.5455 3.5456c11.8324 13.2461 11.8322 33.3333-.0007 46.5791l3.5456 3.5456c13.7817-15.2091 13.7819-38.461.0006-53.6703zm-52.9534 52.9534c13.246 11.8324 33.3329 11.8323 46.5788-.0003l3.5456 3.5456c-15.2091 13.7814-38.4608 13.7815-53.67.0003zm-2.8285-2.8283-3.5456 3.5456c-13.78206-15.2092-13.78228-38.4616-.0006-53.671l3.5456 3.5456c-11.83296 13.2462-11.83274 33.3338.0006 46.5798zm51.0458-39.9919c-1.0691-1.5917-2.3071-3.1037-3.7141-4.5107-9.3205-9.32047-23.248-11.22602-34.4523-5.7166l2.511 4.349c9.2815-4.4094 20.7192-2.7733 28.4007 4.9082 1.0903 1.0903 2.0589 2.2563 2.9056 3.4811zm-2.3468 5.9737 4.349-2.5109c5.5098 11.2044 3.6044 25.1323-5.7163 34.4529-1.4073 1.4073-2.9196 2.6455-4.5116 3.7147l-2.511-4.3491c1.2251-.8468 2.3914-1.8156 3.482-2.9062 7.6817-7.6817 9.3177-19.1197 4.9079-28.4014zm-11.8527 33.3098c-9.2815 4.4092-20.719 2.7731-28.4004-4.9084-1.0909-1.0909-2.0599-2.2575-2.9069-3.483l-4.3491 2.5109c1.0694 1.5925 2.3078 3.1051 3.7154 4.5127 9.3204 9.3204 23.2477 11.226 34.4519 5.7168zm-37.6584-9.3434 4.3491-2.511c-4.4085-9.2812-2.7722-20.7181 4.9089-28.3992 1.0905-1.0905 2.2567-2.0592 3.4816-2.906l-2.5109-4.349c-1.592 1.0691-3.1041 2.3072-4.5113 3.7144-9.32007 9.3201-11.22586 23.2468-5.7174 34.4508zm41.0721-27.3808c2.953 2.953 4.7895 6.5997 5.5096 10.4155l-5.0217.4394c-.5996-2.6805-1.9425-5.2283-4.0285-7.3144-2.7502-2.7502-6.3031-4.2086-9.9045-4.3752l-.4394-5.0215c5.0323.0644 10.0448 2.0165 13.8845 5.8562zm-17.8694-5.5095c-3.8156.7201-7.462 2.5566-10.4149 5.5095-3.8395 3.8395-5.7916 8.8517-5.8562 13.8836l5.0216-.4393c.1668-3.6012 1.6252-7.1537 4.3752-9.9038 2.0858-2.0858 4.6334-3.4286 7.3136-4.0283zm-15.9245 23.3781c.72 3.8159 2.5566 7.4626 5.5096 10.4156 3.8395 3.8395 8.8516 5.7916 13.8835 5.8562l-.4393-5.0216c-3.6012-.1668-7.1536-1.6252-9.9036-4.3751-2.086-2.0861-3.4289-4.6339-4.0285-7.3145zm33.7939 10.4156c-2.9531 2.9531-6.5999 4.7897-10.4158 5.5097l-.4394-5.0217c2.6807-.5996 5.2285-1.9425 7.3146-4.0285 2.7501-2.7501 4.2084-6.3026 4.3752-9.9039l5.0216-.4393c-.0646 5.032-2.0167 10.0442-5.8562 13.8837z" fill="url(#a)" fill-rule="evenodd"/></g></svg>