<svg fill="none" height="75" viewBox="0 0 98 75" width="98" xmlns="http://www.w3.org/2000/svg" xmlns:xlink="http://www.w3.org/1999/xlink"><linearGradient id="a" gradientUnits="userSpaceOnUse" x1="34.0673" x2="70.3233" y1="35.179" y2="-1.0769"><stop offset="0" stop-color="#5565f7"/><stop offset="1" stop-color="#9ea7fa"/></linearGradient><clipPath id="b"><path d="m0 0h98v74.3979h-98z"/></clipPath><g clip-path="url(#b)"><g fill="#fff"><path d="m7.69808 62.6807-7.955892 11.3403h3.689222l6.22356-8.9843c.76993 1.3194 1.63613 2.7016 2.53433 3.9895l3.5609 4.9948h3.7213l-7.8596-11.3717 7.7634-11.3403h-3.6251l-6.12731 9.0471c-.67368-1.2566-1.44361-2.5131-2.47018-3.9895l-3.62506-5.0576h-3.753382z"/><path d="m26.3404 74.021h2.9835l6.5444-15.3613h-3.1439l-3.4967 8.576c-.5454 1.3507-1.0587 2.6701-1.3153 3.6754-.2567-.9425-.7058-2.2304-1.2512-3.6754l-3.4325-8.576h-3.2081z"/><path d="m44.9575 74.398c3.8817 0 6.5123-1.8534 7.2822-5.1519h-2.8231c-.5133 1.7592-2.0531 2.7016-4.395 2.7016-2.9834 0-4.7157-1.7906-4.9403-5.0262l12.1263-.0314v-1.0995c0-4.5549-2.9193-7.5706-7.3784-7.5706-4.5554 0-7.6672 3.3298-7.6672 8.1361 0 4.7749 3.1759 8.0419 7.7955 8.0419zm-.1283-13.6964c2.6626 0 4.3629 1.6964 4.3629 4.2409h-9.0467c.385-2.7016 2.0532-4.2409 4.6838-4.2409z"/><path d="m65.1998 58.5341c-.6095-.1257-1.0586-.1885-1.604-.1885-2.1494 0-3.7213 1.0681-4.3629 2.6702l-.1925-2.3246h-2.823v15.3298h3.0155v-8.1361c0-2.9529 1.7644-4.6492 4.6196-4.6492h1.3473z"/><path d="m67.3866 69.5603c0 2.9214 2.3418 4.8377 6.031 4.8377 3.7213 0 6.2878-1.8534 6.2878-4.7749 0-2.2932-1.3153-3.4869-3.978-4.1152l-2.7589-.6597c-1.5398-.3769-2.3098-1.068-2.3098-2.1047 0-1.4136 1.0587-2.2303 2.9514-2.2303 1.8286 0 2.8872.9738 2.9514 2.513h2.8872c-.0641-2.9214-2.3098-4.8062-5.7423-4.8062-3.4647 0-5.9028 1.7905-5.9028 4.6178 0 2.2617 1.3153 3.6125 4.1063 4.2722l2.7589.6283c1.636.4084 2.1493 1.0366 2.1493 2.0733 0 1.4136-1.219 2.2618-3.3363 2.2618-1.989 0-3.208-.9424-3.208-2.5131z"/><path d="m90.46 74.398c3.8817 0 6.5123-1.8534 7.2822-5.1519h-2.8231c-.5133 1.7592-2.0531 2.7016-4.395 2.7016-2.9834 0-4.7157-1.7906-4.9403-5.0262l12.1263-.0314v-1.0995c0-4.5549-2.9193-7.5706-7.3784-7.5706-4.5554 0-7.6672 3.3298-7.6672 8.1361 0 4.7749 3.1759 8.0419 7.7955 8.0419zm-.1283-13.6964c2.6626 0 4.3629 1.6964 4.3629 4.2409h-9.0466c.3849-2.7016 2.0531-4.2409 4.6837-4.2409z"/></g><path clip-rule="evenodd" d="m34.7194 5.30351c7.8038-7.0714 19.7345-7.07135 27.5382.00017l-1.8192 1.81919c-6.7964-6.07163-17.1033-6.07169-23.8998-.00017zm28.9894 1.45143-1.8192 1.81919c6.0711 6.79647 6.071 17.10297-.0003 23.89927l1.8192 1.8192c7.0712-7.8036 7.0713-19.7339.0003-27.53766zm-27.1698 27.16986c6.7964 6.071 17.1027 6.071 23.899-.0002l1.8192 1.8192c-7.8036 7.0711-19.7338 7.0711-27.5374.0002zm-1.4513-1.4513-1.8192 1.8192c-7.0714-7.8036-7.0715-19.7342-.0003-27.53795l1.8192 1.8192c-6.0714 6.79645-6.0713 17.10325.0003 23.89955zm26.191-20.5193c-.5485-.8167-1.1837-1.5925-1.9056-2.31443-4.7823-4.78224-11.9283-5.75995-17.6771-2.93315l1.2883 2.23147c4.7623-2.26243 10.6308-1.42299 14.5721 2.51831.5595.5594 1.0564 1.1577 1.4909 1.7861zm-1.2041 3.065 2.2315-1.2883c2.827 5.7488 1.8493 12.8951-2.933 17.6774-.7221.722-1.498 1.3574-2.3149 1.906l-1.2883-2.2315c.6286-.4345 1.227-.9316 1.7865-1.4911 3.9414-3.9414 4.7808-9.8102 2.5182-14.5725zm-6.0815 17.0909c-4.7622 2.2623-10.6307 1.4228-14.5719-2.5184-.5597-.5598-1.0569-1.1584-1.4915-1.7871l-2.2315 1.2883c.5487.8171 1.1841 1.5932 1.9064 2.3154 4.7821 4.7822 11.9281 5.7599 17.6768 2.9332zm-19.3221-4.794 2.2315-1.2884c-2.262-4.7621-1.4224-10.6302 2.5187-14.5713.5595-.5595 1.1579-1.0565 1.7864-1.49101l-1.2884-2.23146c-.8168.54856-1.5926 1.18384-2.3146 1.90584-4.7821 4.78203-5.7599 11.92763-2.9336 17.67633zm21.0737-14.0488c1.5151 1.5151 2.4574 3.3862 2.8269 5.3441l-2.5766.2254c-.3077-1.3753-.9967-2.6826-2.067-3.7529-1.4111-1.4111-3.234-2.1594-5.0819-2.2448l-.2254-2.5766c2.582.0331 5.1538 1.0347 7.124 3.0048zm-9.1686-2.8269c-1.9578.3695-3.8287 1.3118-5.3438 2.8269-1.97 1.97-2.9716 4.5417-3.0047 7.1235l2.5765-.2254c.0856-1.8477.8338-3.6705 2.2448-5.0815 1.0703-1.0702 2.3774-1.7592 3.7526-2.0669zm-8.1707 11.9951c.3694 1.9579 1.3117 3.829 2.8269 5.3441 1.97 1.97 4.5417 2.9716 7.1235 3.0048l-.2254-2.5765c-1.8477-.0856-3.6705-.8339-5.0815-2.2449-1.0703-1.0703-1.7593-2.3776-2.0669-3.7529zm17.3393 5.3441c-1.5152 1.5152-3.3864 2.4575-5.3443 2.827l-.2254-2.5766c1.3754-.3076 2.6827-.9966 3.753-2.067 1.411-1.411 2.1593-3.2338 2.2449-5.0815l2.5765-.2255c-.0331 2.5819-1.0347 5.1536-3.0047 7.1236z" fill="url(#a)" fill-rule="evenodd"/></g></svg>