<svg width="31" height="32" viewBox="0 0 31 32" fill="none" xmlns="http://www.w3.org/2000/svg">
<circle cx="15.4262" cy="16.112" r="15.3149" fill="#F2A90A"/>
<path d="M20.4653 12.7548C20.2934 10.9669 18.75 10.3677 16.7996 10.1968V7.71558H15.2904V10.1305C14.8942 10.1305 14.4883 10.138 14.0856 10.1466V7.71558H12.5764L12.5753 10.1946C12.2485 10.201 11.927 10.2074 11.614 10.2074V10.2L9.53232 10.1989V11.8117C9.53232 11.8117 10.6474 11.7904 10.6282 11.8106C11.2402 11.8106 11.4389 12.1653 11.4965 12.4718V15.298C11.5393 15.298 11.5937 15.3001 11.6557 15.3087H11.4965L11.4955 19.2681C11.4688 19.4603 11.3556 19.7669 10.9283 19.768C10.9475 19.785 9.83138 19.768 9.83138 19.768L9.53125 21.5709H11.4965C11.8618 21.5709 12.2218 21.5773 12.5743 21.5794L12.5753 24.0884H14.0835V21.6061C14.4968 21.6147 14.8974 21.6179 15.2893 21.6179L15.2883 24.0884H16.7975V21.5848C19.3353 21.4395 21.1137 20.7997 21.3337 18.4157C21.5121 16.4964 20.6095 15.6387 19.1687 15.2926C20.0456 14.8483 20.5935 14.0633 20.4653 12.7548ZM18.3526 18.1188C18.3526 19.9933 15.143 19.7808 14.1187 19.7808V16.4558C15.143 16.4579 18.3526 16.1642 18.3526 18.1188ZM17.6498 13.4288C17.6498 15.1346 14.9711 14.9348 14.1187 14.9359V11.9217C14.9721 11.9217 17.6509 11.6504 17.6498 13.4288Z" fill="white"/>
<path d="M20.4653 12.7548C20.2934 10.9669 18.75 10.3677 16.7996 10.1968V7.71558H15.2904V10.1305C14.8942 10.1305 14.4883 10.138 14.0856 10.1466V7.71558H12.5764L12.5753 10.1946C12.2485 10.201 11.927 10.2074 11.614 10.2074V10.2L9.53232 10.1989V11.8117C9.53232 11.8117 10.6474 11.7904 10.6282 11.8106C11.2402 11.8106 11.4389 12.1653 11.4965 12.4718V15.298C11.5393 15.298 11.5937 15.3001 11.6557 15.3087H11.4965L11.4955 19.2681C11.4688 19.4603 11.3556 19.7669 10.9283 19.768C10.9475 19.785 9.83138 19.768 9.83138 19.768L9.53125 21.5709H11.4965C11.8618 21.5709 12.2218 21.5773 12.5743 21.5794L12.5753 24.0884H14.0835V21.6061C14.4968 21.6147 14.8974 21.6179 15.2893 21.6179L15.2883 24.0884H16.7975V21.5848C19.3353 21.4395 21.1137 20.7997 21.3337 18.4157C21.5121 16.4964 20.6095 15.6387 19.1687 15.2926C20.0456 14.8483 20.5935 14.0633 20.4653 12.7548ZM18.3526 18.1188C18.3526 19.9933 15.143 19.7808 14.1187 19.7808V16.4558C15.143 16.4579 18.3526 16.1642 18.3526 18.1188ZM17.6498 13.4288C17.6498 15.1346 14.9711 14.9348 14.1187 14.9359V11.9217C14.9721 11.9217 17.6509 11.6504 17.6498 13.4288Z" fill="white"/>
</svg>
