<svg width="31" height="31" viewBox="0 0 31 31" fill="none" xmlns="http://www.w3.org/2000/svg">
<circle cx="15.3716" cy="15.5746" r="15.3149" fill="#5546FF"/>
<path d="M23.0818 16.5868V18.431H18.4342L21.617 23.2318H19.2132L15.3847 17.439L11.5695 23.2318H9.16567L12.3418 18.431H7.76758V16.5735H23.0818V16.5868Z" fill="white"/>
<path d="M23.0837 14.5623V12.718H18.4362L21.619 7.91722H19.2151L15.3867 13.71L11.5714 7.91722H9.16762L12.3438 12.718H7.76953V14.5756H23.0837V14.5623Z" fill="white"/>
<path d="M23.0837 14.5623V12.718H18.4362L21.619 7.91722H19.2151L15.3867 13.71L11.5714 7.91722H9.16762L12.3438 12.718H7.76953V14.5756H23.0837V14.5623Z" fill="url(#paint0_linear_13534_25564)"/>
<defs>
<linearGradient id="paint0_linear_13534_25564" x1="7.76953" y1="11.2321" x2="23.0837" y2="11.2321" gradientUnits="userSpaceOnUse">
<stop stop-color="white"/>
<stop offset="1" stop-color="white"/>
</linearGradient>
</defs>
</svg>
