<svg xmlns="http://www.w3.org/2000/svg" width="20" height="20" viewBox="0 0 20 20" fill="none">
  <path d="M17.9422 8.56705L14.1922 12.317C14.0749 12.4343 13.9159 12.5002 13.75 12.5002C13.5841 12.5002 13.4251 12.4343 13.3078 12.317C13.1905 12.1998 13.1247 12.0407 13.1247 11.8749C13.1247 11.709 13.1905 11.5499 13.3078 11.4327L15.9914 8.74986H12.8906C11.3661 8.74944 9.88475 9.25572 8.67941 10.1891C7.47407 11.1225 6.61315 12.43 6.23203 13.9061C6.19059 14.0667 6.08706 14.2042 5.94421 14.2885C5.80136 14.3727 5.63089 14.3968 5.47031 14.3553C5.30973 14.3139 5.17219 14.2104 5.08795 14.0675C5.0037 13.9247 4.97965 13.7542 5.02109 13.5936C5.47079 11.8487 6.48809 10.3029 7.91281 9.19972C9.33752 8.0965 11.0887 7.49849 12.8906 7.49986H15.993L13.3078 4.81705C13.2497 4.75898 13.2037 4.69004 13.1723 4.61417C13.1408 4.5383 13.1247 4.45698 13.1247 4.37486C13.1247 4.29274 13.1408 4.21142 13.1723 4.13555C13.2037 4.05968 13.2497 3.99074 13.3078 3.93267C13.4251 3.8154 13.5841 3.74951 13.75 3.74951C13.8321 3.74951 13.9134 3.76569 13.9893 3.79711C14.0652 3.82854 14.1341 3.8746 14.1922 3.93267L17.9422 7.68267C18.0003 7.74072 18.0464 7.80965 18.0779 7.88552C18.1093 7.96139 18.1255 8.04272 18.1255 8.12486C18.1255 8.20699 18.1093 8.28832 18.0779 8.3642C18.0464 8.44007 18.0003 8.509 17.9422 8.56705ZM15 16.2499H3.125V6.87486C3.125 6.7091 3.05915 6.55013 2.94194 6.43292C2.82473 6.31571 2.66576 6.24986 2.5 6.24986C2.33424 6.24986 2.17527 6.31571 2.05806 6.43292C1.94085 6.55013 1.875 6.7091 1.875 6.87486V16.2499C1.875 16.5814 2.0067 16.8993 2.24112 17.1337C2.47554 17.3682 2.79348 17.4999 3.125 17.4999H15C15.1658 17.4999 15.3247 17.434 15.4419 17.3168C15.5592 17.1996 15.625 17.0406 15.625 16.8749C15.625 16.7091 15.5592 16.5501 15.4419 16.4329C15.3247 16.3157 15.1658 16.2499 15 16.2499Z" fill="white"/>
</svg>
