<svg width="32" height="32" viewBox="0 0 32 32" fill="none" xmlns="http://www.w3.org/2000/svg">
<g clip-path="url(#clip0_22178_2880)">
<path d="M15.9739 0.0317383H16C24.8098 0.0317383 31.9543 6.99158 31.9543 15.5737V16.4389C31.9543 25.021 24.8098 31.9808 16 31.9808H15.9739C7.16408 31.9808 0.0195923 25.021 0.0195923 16.4389V15.5737C0.0195923 6.99158 7.16408 0.0317383 15.9739 0.0317383Z" fill="#232323"/>
<path d="M22.8114 12.0557C22.7592 12.113 22.6939 12.1575 22.622 12.183C22.5502 12.2148 22.4718 12.2275 22.3935 12.2275H7.60163C7.07918 12.2275 6.81142 11.5913 7.17714 11.2096L9.60653 8.69669C9.65877 8.63943 9.72408 8.5949 9.80244 8.56309C9.87428 8.53128 9.95265 8.51855 10.031 8.51855H24.8816C25.4106 8.51855 25.6718 9.1611 25.2996 9.54281L22.8114 12.0557ZM22.8114 23.2907C22.7004 23.3989 22.5502 23.4625 22.3935 23.4625H7.60163C7.07918 23.4625 6.81142 22.839 7.17714 22.47L9.60653 20.0144C9.65877 19.9571 9.73061 19.9126 9.80244 19.8871C9.87428 19.8553 9.95265 19.8426 10.031 19.8426H24.8816C25.4106 19.8426 25.6718 20.4724 25.2996 20.8414L22.8114 23.2907ZM22.8114 14.3524C22.7004 14.2442 22.5502 14.1806 22.3935 14.1806H7.60163C7.07918 14.1806 6.81142 14.804 7.17714 15.173L9.60653 17.6287C9.65877 17.686 9.73061 17.7305 9.80244 17.7559C9.87428 17.7877 9.95265 17.8005 10.031 17.8005H24.8816C25.4106 17.8005 25.6718 17.1706 25.2996 16.8017L22.8114 14.3524Z" fill="url(#paint0_linear_22178_2880)"/>
</g>
<defs>
<linearGradient id="paint0_linear_22178_2880" x1="8.1374" y1="23.649" x2="23.8844" y2="7.91124" gradientUnits="userSpaceOnUse">
<stop stop-color="#CF41E8"/>
<stop offset="1" stop-color="#10F2B0"/>
</linearGradient>
<clipPath id="clip0_22178_2880">
<rect width="32" height="32" fill="white"/>
</clipPath>
</defs>
</svg>
