<svg width="103" height="103" viewBox="0 0 103 103" fill="none" xmlns="http://www.w3.org/2000/svg">
<rect width="103" height="103" rx="16" fill="#272A44"/>
<path fill-rule="evenodd" clip-rule="evenodd" d="M62.2101 32.8724L61.2909 31.9531L59.4524 33.7916L60.3716 34.7108L63.6941 38.0333H46.2492C43.3849 38.0333 40.6379 39.1711 38.6125 41.1965C36.5871 43.2219 35.4492 45.9689 35.4492 48.8333V50.1333H38.0492V48.8333C38.0492 46.6585 38.9131 44.5728 40.4509 43.035C41.9887 41.4972 44.0744 40.6333 46.2492 40.6333H63.6941L60.3716 43.9557L59.4524 44.8749L61.2909 46.7134L62.2101 45.7942L67.7518 40.2525L68.671 39.3333L67.7518 38.414L62.2101 32.8724Z" fill="url(#paint0_linear_1142_62238)"/>
<path fill-rule="evenodd" clip-rule="evenodd" d="M66.5506 52.0002V50.7002H63.9506V52.0002C63.9506 54.175 63.0867 56.2607 61.5489 57.7985C60.0111 59.3363 57.9254 60.2002 55.7506 60.2002H37.5141L41.6282 56.0861L42.5474 55.1669L40.7089 53.3284L39.7897 54.2476L33.4563 60.581L32.5371 61.5002L33.4563 62.4194L39.7897 68.7528L40.7089 69.672L42.5474 67.8335L41.6282 66.9143L37.5141 62.8002H55.7506C58.6149 62.8002 61.3619 61.6623 63.3873 59.6369C65.4127 57.6116 66.5506 54.8645 66.5506 52.0002Z" fill="url(#paint1_linear_1142_62238)"/>
<defs>
<linearGradient id="paint0_linear_1142_62238" x1="61.5" y1="36.5" x2="36.526" y2="48.0561" gradientUnits="userSpaceOnUse">
<stop offset="0.427982" stop-color="white"/>
<stop offset="0.915346" stop-color="white" stop-opacity="0"/>
</linearGradient>
<linearGradient id="paint1_linear_1142_62238" x1="41.5" y1="60" x2="64.9184" y2="53.6969" gradientUnits="userSpaceOnUse">
<stop stop-color="#5565F7"/>
<stop offset="1" stop-color="#5565F7" stop-opacity="0"/>
</linearGradient>
</defs>
</svg>