<svg width="24" height="24" viewBox="0 0 24 24" fill="none" xmlns="http://www.w3.org/2000/svg">
<path fill-rule="evenodd" clip-rule="evenodd" d="M5.487 2.57152C5.24949 2.30234 4.83874 2.27666 4.56956 2.51418C4.30037 2.75169 4.2747 3.16244 4.51221 3.43162L5.65678 4.72879C3.63106 6.49696 2.34961 9.09975 2.34961 12.0016C2.34961 14.8309 3.56725 17.3759 5.5071 19.141C5.53164 19.1671 5.55856 19.1914 5.58774 19.2135C7.29242 20.7302 9.53841 21.6516 11.9996 21.6516C14.4594 21.6516 16.7052 20.7305 18.4092 19.2156C18.4152 19.211 18.4212 19.2064 18.427 19.2017L19.5122 20.4316C19.7497 20.7008 20.1605 20.7265 20.4297 20.489C20.6988 20.2515 20.7245 19.8407 20.487 19.5715L5.487 2.57152ZM13.6988 13.843L9.6382 9.24108C9.17706 9.7825 8.89961 10.4834 8.89961 11.2497C8.89961 12.9617 10.2875 14.3497 11.9996 14.3497C12.6274 14.3497 13.2108 14.1636 13.6988 13.843ZM8.77194 8.25931L6.51689 5.70359C4.759 7.23521 3.64961 9.4887 3.64961 12.0016C3.64961 14.1769 4.48148 16.158 5.84446 17.644C6.43612 16.7574 7.21441 16.0061 8.12872 15.4448C8.53988 15.1925 8.97288 14.982 9.42117 14.8154C8.31752 14.0159 7.59961 12.7166 7.59961 11.2497C7.59961 10.095 8.04502 9.04371 8.77194 8.25931ZM9.24821 4.1153C10.1089 3.81505 11.0345 3.65157 11.9996 3.65157C16.6112 3.65157 20.3496 7.38999 20.3496 12.0016C20.3496 13.2057 20.0951 14.3488 19.6376 15.3811C19.4921 15.7093 19.6403 16.0933 19.9685 16.2388C20.2967 16.3842 20.6807 16.2361 20.8261 15.9079C21.3557 14.7128 21.6496 13.3906 21.6496 12.0016C21.6496 6.67202 17.3292 2.35157 11.9996 2.35157C10.8867 2.35157 9.81647 2.54023 8.82002 2.88784C8.48107 3.00609 8.30215 3.37672 8.42039 3.71567C8.53863 4.05462 8.90926 4.23354 9.24821 4.1153ZM11.9996 20.3516C10.0388 20.3516 8.23588 19.6757 6.81105 18.5443C7.31097 17.7355 7.99442 17.0526 8.80878 16.5528C9.76884 15.9635 10.8733 15.6516 11.9998 15.6516C13.1263 15.6516 14.2308 15.9635 15.1908 16.5528C16.0051 17.0526 16.6885 17.7354 17.1885 18.5441C15.7633 19.6761 13.9608 20.3516 11.9996 20.3516ZM12.5855 6.88839C12.2296 6.84098 11.9027 7.09101 11.8553 7.44685C11.8079 7.80269 12.0579 8.12959 12.4138 8.177C13.863 8.3701 14.9964 9.5665 15.0929 11.0439C15.1163 11.4022 15.4257 11.6736 15.7839 11.6502C16.1421 11.6268 16.4135 11.3174 16.3902 10.9592C16.253 8.85936 14.6447 7.16276 12.5855 6.88839Z" fill="white" fill-opacity="0.8"/>
</svg>
