<svg xmlns="http://www.w3.org/2000/svg" width="18" height="18" viewBox="0 0 18 18" fill="none">
  <path d="M3.9375 5.6625H15.1875C15.3267 5.6625 15.4603 5.71781 15.5587 5.81627C15.6572 5.91473 15.7125 6.04826 15.7125 6.1875V14.0625C15.7125 14.2017 15.6572 14.3353 15.5587 14.4337C15.4603 14.5322 15.3267 14.5875 15.1875 14.5875H3.93877C3.65049 14.586 3.37443 14.4708 3.17057 14.2669C2.96667 14.063 2.85148 13.7869 2.85 13.4986V4.91079C2.90776 5.06371 2.99768 5.2042 3.11549 5.32201C3.3335 5.54002 3.62919 5.6625 3.9375 5.6625ZM11.8541 11.3254C12.0916 11.4841 12.3707 11.5688 12.6562 11.5688C13.0392 11.5688 13.4064 11.4166 13.6771 11.1459C13.9479 10.8751 14.1 10.5079 14.1 10.125C14.1 9.83945 14.0153 9.56032 13.8567 9.3229C13.698 9.08547 13.4726 8.90042 13.2087 8.79115C12.9449 8.68188 12.6547 8.65328 12.3746 8.70899C12.0945 8.7647 11.8373 8.9022 11.6354 9.10411C11.4335 9.30603 11.2959 9.56328 11.2402 9.84334C11.1845 10.1234 11.2131 10.4137 11.3224 10.6775C11.4317 10.9413 11.6167 11.1668 11.8541 11.3254Z" fill="white" stroke="white" stroke-width="1.2"/>
</svg>
