<svg width="176" height="176" viewBox="0 0 176 176" fill="none" xmlns="http://www.w3.org/2000/svg">
<g clip-path="url(#clip0_5600_166142)">
<circle cx="88" cy="88" r="88" fill="#F2A900" fill-opacity="0.1"/>
<path d="M88 56.75C81.8193 56.75 75.7775 58.5828 70.6384 62.0166C65.4994 65.4504 61.494 70.331 59.1288 76.0411C56.7635 81.7513 56.1447 88.0347 57.3505 94.0966C58.5563 100.158 61.5325 105.727 65.9029 110.097C70.2733 114.467 75.8415 117.444 81.9034 118.65C87.9653 119.855 94.2487 119.236 99.9589 116.871C105.669 114.506 110.55 110.501 113.983 105.362C117.417 100.223 119.25 94.1807 119.25 88C119.241 79.7148 115.946 71.7715 110.087 65.913C104.229 60.0544 96.2852 56.7591 88 56.75ZM88 116.75C82.3138 116.75 76.7553 115.064 72.0274 111.905C67.2995 108.746 63.6145 104.256 61.4385 99.0021C59.2625 93.7488 58.6931 87.9681 59.8024 82.3912C60.9118 76.8142 63.6499 71.6914 67.6707 67.6707C71.6915 63.6499 76.8142 60.9117 82.3912 59.8024C87.9681 58.6931 93.7488 59.2624 99.0022 61.4385C104.256 63.6145 108.746 67.2994 111.905 72.0274C115.064 76.7553 116.75 82.3138 116.75 88C116.742 95.6224 113.71 102.93 108.32 108.32C102.93 113.71 95.6224 116.742 88 116.75ZM86.75 90.5V73C86.75 72.6685 86.8817 72.3505 87.1161 72.1161C87.3506 71.8817 87.6685 71.75 88 71.75C88.3315 71.75 88.6495 71.8817 88.8839 72.1161C89.1183 72.3505 89.25 72.6685 89.25 73V90.5C89.25 90.8315 89.1183 91.1495 88.8839 91.3839C88.6495 91.6183 88.3315 91.75 88 91.75C87.6685 91.75 87.3506 91.6183 87.1161 91.3839C86.8817 91.1495 86.75 90.8315 86.75 90.5ZM90.5 101.75C90.5 102.244 90.3534 102.728 90.0787 103.139C89.804 103.55 89.4135 103.87 88.9567 104.06C88.4999 104.249 87.9972 104.298 87.5123 104.202C87.0273 104.106 86.5819 103.867 86.2322 103.518C85.8826 103.168 85.6445 102.723 85.5481 102.238C85.4516 101.753 85.5011 101.25 85.6903 100.793C85.8795 100.336 86.2 99.946 86.6111 99.6713C87.0222 99.3966 87.5056 99.25 88 99.25C88.6631 99.25 89.2989 99.5134 89.7678 99.9822C90.2366 100.451 90.5 101.087 90.5 101.75Z" fill="#F2A900"/>
</g>
<defs>
<clipPath id="clip0_5600_166142">
<rect width="176" height="176" fill="white"/>
</clipPath>
</defs>
</svg>
