<svg width="69" height="70" viewBox="0 0 69 70" fill="none" xmlns="http://www.w3.org/2000/svg">
<path id="Vector" d="M34.5 0.625C27.7013 0.625 21.0552 2.64106 15.4023 6.41823C9.74935 10.1954 5.34342 15.564 2.74166 21.8453C0.139894 28.1265 -0.540845 35.0381 0.785522 41.7062C2.11189 48.3743 5.38579 54.4994 10.1932 59.3068C15.0007 64.1142 21.1257 67.3881 27.7938 68.7145C34.4619 70.0409 41.3735 69.3601 47.6548 66.7584C53.936 64.1566 59.3046 59.7507 63.0818 54.0977C66.859 48.4448 68.875 41.7987 68.875 35C68.865 25.8863 65.2402 17.1487 58.7958 10.7043C52.3514 4.25986 43.6138 0.635009 34.5 0.625ZM34.5 66.625C28.2452 66.625 22.1308 64.7702 16.9301 61.2952C11.7294 57.8202 7.67595 52.8811 5.28232 47.1024C2.8887 41.3237 2.26242 34.9649 3.48268 28.8303C4.70294 22.6956 7.71493 17.0606 12.1378 12.6377C16.5606 8.21491 22.1956 5.20292 28.3303 3.98267C34.4649 2.76241 40.8237 3.38869 46.6024 5.78231C52.3811 8.17593 57.3202 12.2294 60.7952 17.4301C64.2702 22.6308 66.125 28.7452 66.125 35C66.1159 43.3847 62.7811 51.4233 56.8522 57.3522C50.9233 63.2811 42.8847 66.6159 34.5 66.625ZM33.125 37.75V18.5C33.125 18.1353 33.2699 17.7856 33.5277 17.5277C33.7856 17.2699 34.1353 17.125 34.5 17.125C34.8647 17.125 35.2144 17.2699 35.4723 17.5277C35.7302 17.7856 35.875 18.1353 35.875 18.5V37.75C35.875 38.1147 35.7302 38.4644 35.4723 38.7223C35.2144 38.9801 34.8647 39.125 34.5 39.125C34.1353 39.125 33.7856 38.9801 33.5277 38.7223C33.2699 38.4644 33.125 38.1147 33.125 37.75ZM37.25 50.125C37.25 50.6689 37.0887 51.2006 36.7866 51.6528C36.4844 52.1051 36.0549 52.4575 35.5524 52.6657C35.0499 52.8738 34.497 52.9283 33.9635 52.8222C33.4301 52.7161 32.9401 52.4541 32.5555 52.0695C32.1709 51.685 31.909 51.1949 31.8029 50.6615C31.6967 50.1281 31.7512 49.5751 31.9593 49.0726C32.1675 48.5701 32.52 48.1406 32.9722 47.8385C33.4244 47.5363 33.9561 47.375 34.5 47.375C35.2294 47.375 35.9288 47.6647 36.4446 48.1805C36.9603 48.6962 37.25 49.3957 37.25 50.125Z" fill="#F2A900"/>
</svg>
