<svg width="57" height="57" viewBox="0 0 57 57" fill="none" xmlns="http://www.w3.org/2000/svg">
<g clip-path="url(#clip0_10280_371492)">
<path d="M56.6995 55.7863V45.4658C56.6995 45.0566 56.5368 44.6663 56.2468 44.3763L12.334 0.463341C12.044 0.173353 11.6537 0.0107422 11.2445 0.0107422H0.924169C0.414657 0.0107422 0 0.425399 0 0.934911V10.5235C0 10.9328 0.16261 11.323 0.452599 11.613L16.215 27.3754C16.5754 27.7359 16.5754 28.3212 16.215 28.6817L0.271018 44.6257C0.0975663 44.7991 0 45.0349 0 45.2788V55.7863C0 56.2955 0.414657 56.7105 0.924169 56.7105H18.169C18.6785 56.7105 19.0932 56.2955 19.0932 55.7863V49.5961C19.0932 49.3522 19.1907 49.1164 19.3642 48.943L27.9175 40.3896C28.278 40.0292 28.8634 40.0292 29.2238 40.3896L45.0946 56.2606C45.3846 56.5506 45.7749 56.7133 46.1841 56.7133H55.7726C56.2822 56.7133 56.6967 56.2982 56.6967 55.7891L56.6995 55.7863Z" fill="white"/>
<path d="M33.6956 13.6786H42.3329C42.8451 13.6786 43.2625 14.096 43.2625 14.6082V23.2455C43.2625 24.0749 44.2653 24.4895 44.8507 23.9014L56.6996 12.0336C56.8728 11.8601 56.9707 11.6243 56.9707 11.3777V0.984154C56.9707 0.471933 56.5557 0.0545666 56.041 0.0545666L45.493 0.0410156C45.2464 0.0410156 45.0106 0.138582 44.8344 0.312033L33.037 12.0905C32.4516 12.6758 32.8663 13.6786 33.6929 13.6786H33.6956Z" fill="#EE7A30"/>
</g>
<defs>
<clipPath id="clip0_10280_371492">
<rect width="57" height="57" fill="white"/>
</clipPath>
</defs>
</svg>
