<svg width="173" height="33" viewBox="0 0 173 33" fill="none" xmlns="http://www.w3.org/2000/svg">
<g clip-path="url(#clip0_10009_368807)">
<path d="M42.542 30.754L32.2907 1.58973C32.181 1.26081 32.4003 0.931885 32.7841 0.931885H39.9107C40.1299 0.931885 40.2944 1.09634 40.404 1.2608L45.1734 16.5556L46.5439 21.3249C46.5439 21.3798 46.5987 21.3798 46.5987 21.3798C46.6535 21.3798 46.6535 21.3798 46.6535 21.3249C46.9276 20.0641 47.3662 18.4743 47.9692 16.5556L52.8482 1.2608C52.903 1.04152 53.1223 0.931885 53.3416 0.931885H60.3585C60.6875 0.931885 60.9616 1.26081 60.8519 1.58973L50.4909 30.754C50.4361 30.9733 50.2168 31.0829 49.9975 31.0829H42.9806C42.7613 31.0829 42.5968 30.9733 42.542 30.754Z" fill="white"/>
<path d="M77.1326 32.015C72.2536 32.015 68.4162 30.5349 65.6204 27.5198C62.8246 24.5047 61.4541 20.6673 61.4541 15.9527C61.4541 11.293 62.8246 7.6201 65.6204 4.60499C68.4162 1.53507 71.9796 0.0549316 76.3652 0.0549316C81.1345 0.0549316 84.8074 1.69953 87.384 4.98874C89.9057 8.22312 91.2214 12.4443 91.2762 17.7618C91.2762 18.0359 91.0569 18.2552 90.7828 18.2552H69.8964C69.5675 18.2552 69.3482 18.5293 69.403 18.8582C69.7867 20.9962 70.5542 22.6408 71.7603 23.8468C73.0759 25.1625 74.8302 25.8203 77.0778 25.8203C79.9284 25.8203 81.7923 24.6691 82.7791 22.3667C82.8339 22.2022 83.0532 22.0926 83.2177 22.0926H90.1798C90.5087 22.0926 90.728 22.4215 90.6732 22.6956C90.0153 25.2722 88.5352 27.4101 86.3424 29.1644C83.9303 31.0831 80.8604 32.015 77.1326 32.015ZM76.5296 6.19478C72.8018 6.19478 70.4994 8.1683 69.6223 12.1153C69.5675 12.4443 69.7867 12.7184 70.1157 12.7184H82.3954C82.6695 12.7184 82.9436 12.4443 82.8887 12.1702C82.6695 10.4707 82.0664 9.10024 80.97 8.00384C79.8188 6.7978 78.2838 6.19478 76.5296 6.19478Z" fill="white"/>
<path d="M111.561 7.34583C111.561 7.61993 111.342 7.83921 111.068 7.83921H102.955C102.68 7.83921 102.461 8.05849 102.461 8.33259V30.6443C102.461 30.9184 102.242 31.1377 101.968 31.1377H95.2249C94.9508 31.1377 94.7316 30.9184 94.7316 30.6443V10.5254C94.7316 5.20785 99.0624 0.931885 104.325 0.931885H111.013C111.287 0.931885 111.506 1.15116 111.506 1.42527L111.561 7.34583Z" fill="white"/>
<path d="M127.621 32.0149C123.235 32.0149 119.837 31.083 117.37 29.1643C115.067 27.3552 114.081 24.9431 113.752 21.8732C113.752 21.5991 113.971 21.325 114.245 21.325H120.769C120.988 21.325 121.207 21.4895 121.262 21.7087C121.865 24.7787 123.674 26.3136 127.457 26.3136C129.266 26.3136 130.636 25.9847 131.623 25.3817C132.61 24.7238 133.103 23.9015 133.103 22.86C133.103 22.4762 133.048 22.0925 132.884 21.8184C132.719 21.4895 132.5 21.2154 132.171 20.9413C131.842 20.6672 131.513 20.5027 131.294 20.3382C131.02 20.1738 130.581 20.0093 129.978 19.8449C129.32 19.6804 128.882 19.5708 128.498 19.5159C128.169 19.4611 127.566 19.3515 126.744 19.187C125.922 19.0226 125.373 18.9677 125.045 18.8581C123.4 18.5292 122.029 18.2003 120.988 17.8713C119.946 17.5424 118.85 17.049 117.699 16.3912C116.547 15.7334 115.67 14.8562 115.122 13.7598C114.519 12.6634 114.245 11.2929 114.245 9.70315C114.245 6.5784 115.396 4.16632 117.753 2.52172C120.111 0.877121 123.016 0 126.634 0C130.581 0 133.651 0.877121 135.899 2.68618C137.982 4.3856 138.914 6.63322 139.298 9.48387C139.353 9.75797 139.078 10.0321 138.804 10.0321H132.445C132.226 10.0321 132.007 9.86761 131.952 9.59351C131.513 6.90732 129.924 5.59164 126.525 5.59164C124.88 5.59164 123.619 5.86574 122.687 6.46876C121.755 7.07178 121.262 7.89408 121.262 8.93567C121.262 9.26459 121.317 9.59351 121.481 9.92243C121.646 10.2513 121.865 10.4706 122.194 10.6899C122.523 10.9092 122.852 11.0736 123.181 11.2381C123.51 11.4026 123.948 11.5122 124.551 11.6767C125.154 11.8411 125.648 11.9508 126.086 12.0056C126.525 12.1152 127.128 12.2249 127.895 12.3345C128.663 12.499 129.266 12.5538 129.704 12.6634C130.965 12.9375 132.007 13.2116 132.829 13.3761C133.651 13.5954 134.583 13.9243 135.68 14.4177C136.776 14.911 137.598 15.4592 138.201 16.0623C138.804 16.6653 139.353 17.4876 139.791 18.5292C140.23 19.5708 140.449 20.7768 140.449 22.1473C140.449 25.1624 139.243 27.5197 136.886 29.2739C134.583 31.1378 131.458 32.0149 127.621 32.0149Z" fill="white"/>
<path d="M158.652 32.015C153.773 32.015 149.935 30.5349 147.14 27.5198C144.344 24.5047 142.973 20.6673 142.973 15.9527C142.973 11.293 144.344 7.6201 147.14 4.60499C149.935 1.53507 153.499 0.0549316 157.884 0.0549316C162.654 0.0549316 166.327 1.69953 168.903 4.98874C171.425 8.22312 172.74 12.4443 172.795 17.7618C172.795 18.0359 172.576 18.2552 172.302 18.2552H151.415C151.087 18.2552 150.867 18.5293 150.922 18.8582C151.306 20.9962 152.073 22.6408 153.279 23.8468C154.595 25.1625 156.349 25.8203 158.597 25.8203C161.448 25.8203 163.311 24.6691 164.298 22.3667C164.353 22.2022 164.572 22.0926 164.737 22.0926H171.699C172.028 22.0926 172.247 22.4215 172.192 22.6956C171.534 25.2722 170.054 27.4101 167.861 29.1644C165.449 31.0831 162.38 32.015 158.652 32.015ZM157.994 6.19478C154.266 6.19478 151.964 8.1683 151.087 12.1153C151.032 12.4443 151.251 12.7184 151.58 12.7184H163.86C164.134 12.7184 164.408 12.4443 164.353 12.1702C164.134 10.4707 163.531 9.10024 162.434 8.00384C161.338 6.7978 159.803 6.19478 157.994 6.19478Z" fill="white"/>
<path d="M30.2607 30.5895V25.1075C30.2607 24.8883 30.151 24.669 30.0414 24.5045L6.63322 1.04155C6.46876 0.877086 6.24948 0.822266 6.0302 0.822266H0.5482C0.2741 0.822266 0.0548201 1.04155 0.0548201 1.31565V6.41391C0.0548201 6.63319 0.16446 6.85247 0.2741 7.01693L8.66157 15.4044C8.88085 15.6237 8.88085 15.8978 8.66157 16.1171L0.16446 24.6142C0.05482 24.7238 0 24.8334 0 24.9431V30.5347C0 30.8088 0.21928 31.0281 0.49338 31.0281H9.70315C9.97725 31.0281 10.1965 30.8088 10.1965 30.5347V27.2455C10.1965 27.1359 10.2513 26.9714 10.361 26.9166L14.9111 22.3665C15.1303 22.1473 15.4044 22.1473 15.6237 22.3665L24.066 30.8088C24.2305 30.9733 24.4497 31.0281 24.669 31.0281H29.7673C30.0414 31.0829 30.2607 30.8636 30.2607 30.5895Z" fill="white"/>
<path d="M17.9269 8.05851H22.5318C22.8059 8.05851 23.0252 8.27779 23.0252 8.55189V13.1568C23.0252 13.5953 23.5734 13.8146 23.8475 13.4857L30.1518 7.18139C30.2614 7.07175 30.3163 6.96211 30.3163 6.85247V1.31565C30.3163 1.04155 30.097 0.822266 29.8229 0.822266H24.2312C24.1216 0.822266 23.9571 0.877086 23.9023 0.986726L17.598 7.23621C17.2691 7.51031 17.4884 8.05851 17.9269 8.05851Z" fill="white"/>
</g>
<defs>
<clipPath id="clip0_10009_368807">
<rect width="172.795" height="32.015" fill="white"/>
</clipPath>
</defs>
</svg>
