<svg width="16" height="16" viewBox="0 0 16 16" fill="none" xmlns="http://www.w3.org/2000/svg">
<mask id="mask0_6593_36571" style="mask-type:alpha" maskUnits="userSpaceOnUse" x="4" y="0" width="8" height="16">
<path d="M11.0007 10.1565C11.1332 10.1566 11.2603 10.2092 11.3541 10.303C11.4478 10.3967 11.5005 10.5238 11.5005 10.6563L11.5032 11.5376C11.5029 12.4664 11.1336 13.3571 10.4766 14.0137C9.81964 14.6702 8.92873 15.0389 7.9999 15.0386C7.07107 15.0383 6.18039 14.6691 5.52382 14.0121C4.86724 13.3551 4.49854 12.4642 4.49884 11.5354L4.49884 9.40344C4.49848 8.51064 4.83933 7.65145 5.45162 7.00169C6.06392 6.35193 6.90138 5.96073 7.79263 5.90813C7.85833 5.90418 7.92416 5.91321 7.98637 5.93471C8.04857 5.9562 8.10594 5.98974 8.15518 6.0334C8.20443 6.07707 8.24459 6.13 8.27338 6.18919C8.30217 6.24838 8.31901 6.31265 8.32296 6.37835C8.32691 6.44405 8.31787 6.50988 8.29638 6.57209C8.27488 6.63429 8.24135 6.69166 8.19768 6.7409C8.15402 6.79015 8.10108 6.83031 8.04189 6.8591C7.98271 6.88789 7.91843 6.90473 7.85273 6.90868C7.21635 6.94642 6.61842 7.22585 6.18122 7.68982C5.74403 8.1538 5.5006 8.76726 5.50072 9.40477L5.49939 11.5354C5.49939 12.1985 5.76284 12.8346 6.23178 13.3035C6.70071 13.7724 7.33673 14.0359 7.9999 14.0359C8.66308 14.0359 9.29909 13.7724 9.76803 13.3035C10.237 12.8346 10.5004 12.1985 10.5004 11.5354V10.6568C10.5004 10.5911 10.5133 10.526 10.5384 10.4653C10.5635 10.4046 10.6004 10.3494 10.6469 10.303C10.6933 10.2565 10.7485 10.2196 10.8092 10.1945C10.8699 10.1694 10.935 10.1565 11.0007 10.1565ZM7.99902 0.960588C7.0708 0.96163 6.18089 1.33083 5.52454 1.98718C4.86819 2.64353 4.499 3.53343 4.49795 4.46165L4.4984 5.34067C4.49845 5.4733 4.5512 5.60046 4.64502 5.6942C4.73884 5.78794 4.86605 5.84057 4.99867 5.84051C5.1313 5.84045 5.25847 5.78771 5.3522 5.69389C5.44594 5.60007 5.49857 5.47285 5.49851 5.34023V4.46165C5.49851 3.79847 5.76196 3.16246 6.23089 2.69353C6.69983 2.22459 7.33584 1.96114 7.99902 1.96114C8.66219 1.96114 9.29821 2.22459 9.76714 2.69353C10.2361 3.16246 10.4995 3.79847 10.4995 4.46165L10.5004 6.59446C10.5002 7.23195 10.2564 7.84527 9.81897 8.309C9.38153 8.77272 8.78346 9.05182 8.14707 9.08922C8.08137 9.09317 8.01709 9.11002 7.95791 9.1388C7.89872 9.16759 7.84578 9.20775 7.80212 9.257C7.71393 9.35646 7.66887 9.48687 7.67684 9.61955C7.68079 9.68525 7.69764 9.74953 7.72642 9.80871C7.75521 9.8679 7.79537 9.92083 7.84462 9.9645C7.94408 10.0527 8.07449 10.0977 8.20717 10.0898C9.09843 10.0374 9.93598 9.64642 10.5484 8.99682C11.1609 8.34723 11.502 7.48814 11.5018 6.59534V4.46342C11.501 3.53489 11.1318 2.64463 10.4753 1.98806C9.81869 1.33149 8.92843 0.96228 7.9999 0.961472L7.99902 0.960588Z" fill="white"/>
</mask>
<g mask="url(#mask0_6593_36571)">
<rect x="3" y="4" width="10" height="8" fill="white" fill-opacity="0.6"/>
</g>
</svg>
