<svg fill="none" height="88" viewBox="0 0 88 88" width="88" xmlns="http://www.w3.org/2000/svg"><path d="m77 30.25v38.8094c0 .6473-.2571 1.2681-.7148 1.7258s-1.0785.7148-1.7258.7148h-60.8094c-.7293 0-1.4288-.2897-1.9445-.8055-.5158-.5157-.8055-1.2152-.8055-1.9445v-46.75c0-.7293.2897-1.4288.8055-1.9445.5157-.5158 1.2152-.8055 1.9445-.8055h18.3219c.5946.0024 1.1728.1952 1.65.55l9.5562 7.15c.4772.3548 1.0554.5476 1.65.55h29.3219c.7293 0 1.4288.2897 1.9445.8055.5158.5157.8055 1.2152.8055 1.9445z" stroke="#fff" stroke-linecap="round" stroke-linejoin="round" stroke-opacity=".6" stroke-width="1.3"/><path d="m32.3333 58.25 3.7778-4.7222 3.7778 4.7222 3.7778-4.7222 3.7777 4.7222 3.7778-4.7222 3.7778 4.7222" stroke="#fff" stroke-linecap="round" stroke-linejoin="round" stroke-opacity=".6" stroke-width="1.3"/><g fill="#fff" fill-opacity=".6"><path d="m35.1677 45.03c1.0438 0 1.89-.8462 1.89-1.89s-.8462-1.89-1.89-1.89-1.89.8462-1.89 1.89.8462 1.89 1.89 1.89z"/><path d="m52.1677 45.03c1.0438 0 1.89-.8462 1.89-1.89s-.8462-1.89-1.89-1.89-1.89.8462-1.89 1.89.8462 1.89 1.89 1.89z"/></g></svg>