<svg width="164" height="170" viewBox="0 0 164 170" fill="none" xmlns="http://www.w3.org/2000/svg">
<circle cx="106.808" cy="79.1102" r="0.729657" transform="rotate(90 106.808 79.1102)" fill="#4C5187"/>
<circle cx="128.174" cy="79.1102" r="0.729657" transform="rotate(90 128.174 79.1102)" fill="#4C5187"/>
<circle cx="95.94" cy="79.1102" r="0.729657" transform="rotate(90 95.94 79.1102)" fill="#4C5187"/>
<circle cx="117.306" cy="79.1102" r="0.729657" transform="rotate(90 117.306 79.1102)" fill="#4C5187"/>
<circle cx="106.808" cy="89.9784" r="0.729657" transform="rotate(90 106.808 89.9784)" fill="#4C5187"/>
<circle cx="128.174" cy="89.9784" r="0.729657" transform="rotate(90 128.174 89.9784)" fill="#4C5187"/>
<circle cx="95.94" cy="89.9784" r="0.729657" transform="rotate(90 95.94 89.9784)" fill="#4C5187"/>
<circle cx="117.306" cy="89.9784" r="0.729657" transform="rotate(90 117.306 89.9784)" fill="#4C5187"/>
<circle cx="106.808" cy="89.9784" r="0.729657" transform="rotate(90 106.808 89.9784)" fill="#4C5187"/>
<circle cx="95.94" cy="89.9784" r="0.729657" transform="rotate(90 95.94 89.9784)" fill="#4C5187"/>
<circle cx="117.306" cy="89.9784" r="0.729657" transform="rotate(90 117.306 89.9784)" fill="#4C5187"/>
<circle cx="95.94" cy="100.846" r="0.729657" transform="rotate(90 95.94 100.846)" fill="#4C5187"/>
<circle cx="85.2401" cy="79.1102" r="0.729657" transform="rotate(90 85.2401 79.1102)" fill="#4C5187"/>
<circle cx="74.3731" cy="79.1102" r="0.729657" transform="rotate(90 74.3731 79.1102)" fill="#4C5187"/>
<circle cx="85.2401" cy="89.9784" r="0.729657" transform="rotate(90 85.2401 89.9784)" fill="#4C5187"/>
<circle cx="74.3731" cy="89.9784" r="0.729657" transform="rotate(90 74.3731 89.9784)" fill="#4C5187"/>
<circle cx="85.2401" cy="89.9784" r="0.729657" transform="rotate(90 85.2401 89.9784)" fill="#4C5187"/>
<circle cx="74.3731" cy="89.9784" r="0.729657" transform="rotate(90 74.3731 89.9784)" fill="#4C5187"/>
<circle cx="85.2401" cy="100.846" r="0.729657" transform="rotate(90 85.2401 100.846)" fill="#4C5187"/>
<circle cx="74.3731" cy="100.846" r="0.729657" transform="rotate(90 74.3731 100.846)" fill="#4C5187"/>
<circle cx="106.808" cy="46.4413" r="0.729657" transform="rotate(90 106.808 46.4413)" fill="#4C5187"/>
<circle cx="128.174" cy="46.4413" r="0.729657" transform="rotate(90 128.174 46.4413)" fill="#4C5187"/>
<circle cx="95.94" cy="46.4413" r="0.729657" transform="rotate(90 95.94 46.4413)" fill="#4C5187"/>
<circle cx="117.306" cy="46.4413" r="0.729657" transform="rotate(90 117.306 46.4413)" fill="#4C5187"/>
<circle cx="106.808" cy="57.3086" r="0.729657" transform="rotate(90 106.808 57.3086)" fill="#4C5187"/>
<circle cx="128.174" cy="57.3086" r="0.729657" transform="rotate(90 128.174 57.3086)" fill="#4C5187"/>
<circle cx="95.94" cy="57.3086" r="0.729657" transform="rotate(90 95.94 57.3086)" fill="#4C5187"/>
<circle cx="117.306" cy="57.3086" r="0.729657" transform="rotate(90 117.306 57.3086)" fill="#4C5187"/>
<circle cx="106.808" cy="57.3086" r="0.729657" transform="rotate(90 106.808 57.3086)" fill="#4C5187"/>
<circle cx="128.174" cy="57.3086" r="0.729657" transform="rotate(90 128.174 57.3086)" fill="#4C5187"/>
<circle cx="95.94" cy="57.3086" r="0.729657" transform="rotate(90 95.94 57.3086)" fill="#4C5187"/>
<circle cx="117.306" cy="57.3086" r="0.729657" transform="rotate(90 117.306 57.3086)" fill="#4C5187"/>
<circle cx="106.808" cy="68.1759" r="0.729657" transform="rotate(90 106.808 68.1759)" fill="#4C5187"/>
<circle cx="128.174" cy="68.1759" r="0.729657" transform="rotate(90 128.174 68.1759)" fill="#4C5187"/>
<circle cx="95.94" cy="68.1759" r="0.729657" transform="rotate(90 95.94 68.1759)" fill="#4C5187"/>
<circle cx="117.306" cy="68.1759" r="0.729657" transform="rotate(90 117.306 68.1759)" fill="#4C5187"/>
<circle cx="85.2401" cy="35.5739" r="0.729657" transform="rotate(90 85.2401 35.5739)" fill="#4C5187"/>
<circle cx="74.3731" cy="35.5739" r="0.729657" transform="rotate(90 74.3731 35.5739)" fill="#4C5187"/>
<circle cx="85.2401" cy="35.5739" r="0.729657" transform="rotate(90 85.2401 35.5739)" fill="#4C5187"/>
<circle cx="74.3731" cy="35.5739" r="0.729657" transform="rotate(90 74.3731 35.5739)" fill="#4C5187"/>
<circle cx="85.2401" cy="46.4413" r="0.729657" transform="rotate(90 85.2401 46.4413)" fill="#4C5187"/>
<circle cx="74.3731" cy="46.4413" r="0.729657" transform="rotate(90 74.3731 46.4413)" fill="#4C5187"/>
<circle cx="85.2401" cy="57.3086" r="0.729657" transform="rotate(90 85.2401 57.3086)" fill="#4C5187"/>
<circle cx="74.3731" cy="57.3086" r="0.729657" transform="rotate(90 74.3731 57.3086)" fill="#4C5187"/>
<circle cx="85.2401" cy="57.3086" r="0.729657" transform="rotate(90 85.2401 57.3086)" fill="#4C5187"/>
<circle cx="74.3731" cy="57.3086" r="0.729657" transform="rotate(90 74.3731 57.3086)" fill="#4C5187"/>
<circle cx="85.2401" cy="68.1759" r="0.729657" transform="rotate(90 85.2401 68.1759)" fill="#4C5187"/>
<circle cx="74.3731" cy="68.1759" r="0.729657" transform="rotate(90 74.3731 68.1759)" fill="#4C5187"/>
<circle cx="64.0323" cy="79.1102" r="0.729657" transform="rotate(90 64.0323 79.1102)" fill="#4C5187"/>
<circle cx="53.1639" cy="79.1102" r="0.729657" transform="rotate(90 53.1639 79.1102)" fill="#4C5187"/>
<circle cx="64.0323" cy="89.9784" r="0.729657" transform="rotate(90 64.0323 89.9784)" fill="#4C5187"/>
<circle cx="53.1639" cy="89.9784" r="0.729657" transform="rotate(90 53.1639 89.9784)" fill="#4C5187"/>
<circle cx="64.0323" cy="89.9784" r="0.729657" transform="rotate(90 64.0323 89.9784)" fill="#4C5187"/>
<circle cx="53.1639" cy="89.9784" r="0.729657" transform="rotate(90 53.1639 89.9784)" fill="#4C5187"/>
<circle cx="64.0323" cy="100.846" r="0.729657" transform="rotate(90 64.0323 100.846)" fill="#4C5187"/>
<circle cx="53.1639" cy="100.846" r="0.729657" transform="rotate(90 53.1639 100.846)" fill="#4C5187"/>
<circle cx="42.4637" cy="79.1102" r="0.729657" transform="rotate(90 42.4637 79.1102)" fill="#4C5187"/>
<circle cx="31.5963" cy="79.1102" r="0.729657" transform="rotate(90 31.5963 79.1102)" fill="#4C5187"/>
<circle cx="42.4637" cy="89.9784" r="0.729657" transform="rotate(90 42.4637 89.9784)" fill="#4C5187"/>
<circle cx="31.5963" cy="89.9784" r="0.729657" transform="rotate(90 31.5963 89.9784)" fill="#4C5187"/>
<circle cx="42.4637" cy="89.9784" r="0.729657" transform="rotate(90 42.4637 89.9784)" fill="#4C5187"/>
<circle cx="31.5963" cy="89.9784" r="0.729657" transform="rotate(90 31.5963 89.9784)" fill="#4C5187"/>
<circle cx="42.4637" cy="100.846" r="0.729657" transform="rotate(90 42.4637 100.846)" fill="#4C5187"/>
<circle cx="31.5963" cy="100.846" r="0.729657" transform="rotate(90 31.5963 100.846)" fill="#4C5187"/>
<circle cx="64.0323" cy="46.4413" r="0.729657" transform="rotate(90 64.0323 46.4413)" fill="#4C5187"/>
<circle cx="64.0323" cy="57.3086" r="0.729657" transform="rotate(90 64.0323 57.3086)" fill="#4C5187"/>
<circle cx="53.1639" cy="57.3086" r="0.729657" transform="rotate(90 53.1639 57.3086)" fill="#4C5187"/>
<circle cx="64.0323" cy="57.3086" r="0.729657" transform="rotate(90 64.0323 57.3086)" fill="#4C5187"/>
<circle cx="53.1639" cy="57.3086" r="0.729657" transform="rotate(90 53.1639 57.3086)" fill="#4C5187"/>
<circle cx="64.0323" cy="68.1759" r="0.729657" transform="rotate(90 64.0323 68.1759)" fill="#4C5187"/>
<circle cx="53.1639" cy="68.1759" r="0.729657" transform="rotate(90 53.1639 68.1759)" fill="#4C5187"/>
<circle cx="42.4637" cy="68.1759" r="0.729657" transform="rotate(90 42.4637 68.1759)" fill="#4C5187"/>
<circle cx="106.808" cy="144.413" r="0.729657" transform="rotate(90 106.808 144.413)" fill="#4C5187"/>
<circle cx="128.174" cy="144.413" r="0.729657" transform="rotate(90 128.174 144.413)" fill="#4C5187"/>
<circle cx="95.94" cy="144.413" r="0.729657" transform="rotate(90 95.94 144.413)" fill="#4C5187"/>
<circle cx="117.306" cy="144.413" r="0.729657" transform="rotate(90 117.306 144.413)" fill="#4C5187"/>
<circle cx="106.808" cy="155.281" r="0.729657" transform="rotate(90 106.808 155.281)" fill="#4C5187"/>
<circle cx="95.94" cy="155.281" r="0.729657" transform="rotate(90 95.94 155.281)" fill="#4C5187"/>
<circle cx="117.306" cy="155.281" r="0.729657" transform="rotate(90 117.306 155.281)" fill="#4C5187"/>
<circle cx="106.808" cy="155.281" r="0.729657" transform="rotate(90 106.808 155.281)" fill="#4C5187"/>
<circle cx="95.94" cy="155.281" r="0.729657" transform="rotate(90 95.94 155.281)" fill="#4C5187"/>
<circle cx="117.306" cy="155.281" r="0.729657" transform="rotate(90 117.306 155.281)" fill="#4C5187"/>
<circle cx="95.94" cy="166.149" r="0.729657" transform="rotate(90 95.94 166.149)" fill="#4C5187"/>
<circle cx="85.2401" cy="144.413" r="0.729657" transform="rotate(90 85.2401 144.413)" fill="#4C5187"/>
<circle cx="74.3731" cy="144.413" r="0.729657" transform="rotate(90 74.3731 144.413)" fill="#4C5187"/>
<circle cx="85.2401" cy="155.281" r="0.729657" transform="rotate(90 85.2401 155.281)" fill="#4C5187"/>
<circle cx="74.3731" cy="155.281" r="0.729657" transform="rotate(90 74.3731 155.281)" fill="#4C5187"/>
<circle cx="85.2401" cy="155.281" r="0.729657" transform="rotate(90 85.2401 155.281)" fill="#4C5187"/>
<circle cx="74.3731" cy="155.281" r="0.729657" transform="rotate(90 74.3731 155.281)" fill="#4C5187"/>
<circle cx="85.2401" cy="166.149" r="0.729657" transform="rotate(90 85.2401 166.149)" fill="#4C5187"/>
<circle cx="74.3731" cy="166.149" r="0.729657" transform="rotate(90 74.3731 166.149)" fill="#4C5187"/>
<circle cx="106.808" cy="111.744" r="0.729657" transform="rotate(90 106.808 111.744)" fill="#4C5187"/>
<circle cx="128.174" cy="111.744" r="0.729657" transform="rotate(90 128.174 111.744)" fill="#4C5187"/>
<circle cx="95.94" cy="111.744" r="0.729657" transform="rotate(90 95.94 111.744)" fill="#4C5187"/>
<circle cx="117.306" cy="111.744" r="0.729657" transform="rotate(90 117.306 111.744)" fill="#4C5187"/>
<circle cx="128.174" cy="122.612" r="0.729657" transform="rotate(90 128.174 122.612)" fill="#4C5187"/>
<circle cx="95.94" cy="122.612" r="0.729657" transform="rotate(90 95.94 122.612)" fill="#4C5187"/>
<circle cx="128.174" cy="122.612" r="0.729657" transform="rotate(90 128.174 122.612)" fill="#4C5187"/>
<circle cx="95.94" cy="122.612" r="0.729657" transform="rotate(90 95.94 122.612)" fill="#4C5187"/>
<circle cx="106.808" cy="133.479" r="0.729657" transform="rotate(90 106.808 133.479)" fill="#4C5187"/>
<circle cx="128.174" cy="133.479" r="0.729657" transform="rotate(90 128.174 133.479)" fill="#4C5187"/>
<circle cx="95.94" cy="133.479" r="0.729657" transform="rotate(90 95.94 133.479)" fill="#4C5187"/>
<circle cx="117.306" cy="133.479" r="0.729657" transform="rotate(90 117.306 133.479)" fill="#4C5187"/>
<circle cx="85.2401" cy="100.877" r="0.729657" transform="rotate(90 85.2401 100.877)" fill="#4C5187"/>
<circle cx="74.3731" cy="100.877" r="0.729657" transform="rotate(90 74.3731 100.877)" fill="#4C5187"/>
<circle cx="85.2401" cy="100.877" r="0.729657" transform="rotate(90 85.2401 100.877)" fill="#4C5187"/>
<circle cx="74.3731" cy="100.877" r="0.729657" transform="rotate(90 74.3731 100.877)" fill="#4C5187"/>
<circle cx="85.2401" cy="111.744" r="0.729657" transform="rotate(90 85.2401 111.744)" fill="#4C5187"/>
<circle cx="74.3731" cy="111.744" r="0.729657" transform="rotate(90 74.3731 111.744)" fill="#4C5187"/>
<circle cx="85.2401" cy="122.612" r="0.729657" transform="rotate(90 85.2401 122.612)" fill="#4C5187"/>
<circle cx="74.3731" cy="122.612" r="0.729657" transform="rotate(90 74.3731 122.612)" fill="#4C5187"/>
<circle cx="85.2401" cy="122.612" r="0.729657" transform="rotate(90 85.2401 122.612)" fill="#4C5187"/>
<circle cx="74.3731" cy="122.612" r="0.729657" transform="rotate(90 74.3731 122.612)" fill="#4C5187"/>
<circle cx="85.2401" cy="133.479" r="0.729657" transform="rotate(90 85.2401 133.479)" fill="#4C5187"/>
<circle cx="74.3731" cy="133.479" r="0.729657" transform="rotate(90 74.3731 133.479)" fill="#4C5187"/>
<circle cx="64.0323" cy="144.413" r="0.729657" transform="rotate(90 64.0323 144.413)" fill="#4C5187"/>
<circle cx="53.1639" cy="144.413" r="0.729657" transform="rotate(90 53.1639 144.413)" fill="#4C5187"/>
<circle cx="64.0323" cy="155.281" r="0.729657" transform="rotate(90 64.0323 155.281)" fill="#4C5187"/>
<circle cx="53.1639" cy="155.281" r="0.729657" transform="rotate(90 53.1639 155.281)" fill="#4C5187"/>
<circle cx="64.0323" cy="155.281" r="0.729657" transform="rotate(90 64.0323 155.281)" fill="#4C5187"/>
<circle cx="53.1639" cy="155.281" r="0.729657" transform="rotate(90 53.1639 155.281)" fill="#4C5187"/>
<circle cx="64.0323" cy="166.149" r="0.729657" transform="rotate(90 64.0323 166.149)" fill="#4C5187"/>
<circle cx="53.1639" cy="166.149" r="0.729657" transform="rotate(90 53.1639 166.149)" fill="#4C5187"/>
<circle cx="42.4637" cy="144.413" r="0.729657" transform="rotate(90 42.4637 144.413)" fill="#4C5187"/>
<circle cx="31.5963" cy="144.413" r="0.729657" transform="rotate(90 31.5963 144.413)" fill="#4C5187"/>
<circle cx="42.4637" cy="155.281" r="0.729657" transform="rotate(90 42.4637 155.281)" fill="#4C5187"/>
<circle cx="31.5963" cy="155.281" r="0.729657" transform="rotate(90 31.5963 155.281)" fill="#4C5187"/>
<circle cx="42.4637" cy="155.281" r="0.729657" transform="rotate(90 42.4637 155.281)" fill="#4C5187"/>
<circle cx="31.5963" cy="155.281" r="0.729657" transform="rotate(90 31.5963 155.281)" fill="#4C5187"/>
<circle cx="42.4637" cy="166.149" r="0.729657" transform="rotate(90 42.4637 166.149)" fill="#4C5187"/>
<circle cx="64.0323" cy="100.877" r="0.729657" transform="rotate(90 64.0323 100.877)" fill="#4C5187"/>
<circle cx="53.1639" cy="100.877" r="0.729657" transform="rotate(90 53.1639 100.877)" fill="#4C5187"/>
<circle cx="64.0323" cy="100.877" r="0.729657" transform="rotate(90 64.0323 100.877)" fill="#4C5187"/>
<circle cx="53.1639" cy="100.877" r="0.729657" transform="rotate(90 53.1639 100.877)" fill="#4C5187"/>
<circle cx="64.0323" cy="111.744" r="0.729657" transform="rotate(90 64.0323 111.744)" fill="#4C5187"/>
<circle cx="53.1639" cy="111.744" r="0.729657" transform="rotate(90 53.1639 111.744)" fill="#4C5187"/>
<circle cx="64.0323" cy="122.612" r="0.729657" transform="rotate(90 64.0323 122.612)" fill="#4C5187"/>
<circle cx="53.1639" cy="122.612" r="0.729657" transform="rotate(90 53.1639 122.612)" fill="#4C5187"/>
<circle cx="64.0323" cy="122.612" r="0.729657" transform="rotate(90 64.0323 122.612)" fill="#4C5187"/>
<circle cx="53.1639" cy="122.612" r="0.729657" transform="rotate(90 53.1639 122.612)" fill="#4C5187"/>
<circle cx="64.0323" cy="133.479" r="0.729657" transform="rotate(90 64.0323 133.479)" fill="#4C5187"/>
<circle cx="53.1639" cy="133.479" r="0.729657" transform="rotate(90 53.1639 133.479)" fill="#4C5187"/>
<circle cx="42.4637" cy="111.744" r="0.729657" transform="rotate(90 42.4637 111.744)" fill="#4C5187"/>
<circle cx="42.4637" cy="122.612" r="0.729657" transform="rotate(90 42.4637 122.612)" fill="#4C5187"/>
<circle cx="31.5963" cy="122.612" r="0.729657" transform="rotate(90 31.5963 122.612)" fill="#4C5187"/>
<circle cx="42.4637" cy="122.612" r="0.729657" transform="rotate(90 42.4637 122.612)" fill="#4C5187"/>
<circle cx="31.5963" cy="122.612" r="0.729657" transform="rotate(90 31.5963 122.612)" fill="#4C5187"/>
<circle cx="42.4637" cy="133.479" r="0.729657" transform="rotate(90 42.4637 133.479)" fill="#4C5187"/>
<circle cx="31.5963" cy="133.479" r="0.729657" transform="rotate(90 31.5963 133.479)" fill="#4C5187"/>
<circle cx="111.188" cy="32.727" r="32.5415" fill="url(#paint0_linear_800_45968)"/>
<circle cx="53.5859" cy="137.459" r="32.5415" fill="url(#paint1_linear_800_45968)"/>
<path fill-rule="evenodd" clip-rule="evenodd" d="M147.774 63.2859L146.448 61.9606L143.798 64.6113L145.123 65.9366C146.976 67.7897 148.017 70.303 148.017 72.9237C148.017 75.5443 146.976 78.0577 145.123 79.9107L110.074 114.96L110.074 107.99L110.074 106.116L106.325 106.116L106.325 107.99L106.325 119.473L106.325 121.347L108.199 121.347L119.682 121.347L121.556 121.347L121.556 117.599L119.682 117.599L112.737 117.599L147.774 82.5614C150.33 80.0053 151.766 76.5385 151.766 72.9237C151.766 69.3088 150.33 65.842 147.774 63.2859Z" fill="url(#paint2_linear_800_45968)"/>
<path fill-rule="evenodd" clip-rule="evenodd" d="M16.7711 107.64L18.0965 108.965L20.7471 106.315L19.4218 104.989C17.5687 103.136 16.5277 100.623 16.5277 98.0021C16.5277 95.3814 17.5687 92.8681 19.4218 91.015L54.4714 55.9655V62.9353V64.8096L58.22 64.8096L58.22 62.9353L58.22 51.4528L58.22 49.5785L56.3457 49.5785L44.8632 49.5785H42.9889V53.3271H44.8632L51.8084 53.3271L16.7711 88.3644C14.215 90.9205 12.779 94.3872 12.779 98.0021C12.779 101.617 14.215 105.084 16.7711 107.64Z" fill="url(#paint3_linear_800_45968)"/>
<path d="M121.506 29.6162C122.047 26.3964 119.635 24.6225 116.311 23.4103L117.478 19.0537L114.844 18.3479L113.708 22.5881C113.016 22.4028 112.304 22.2261 111.597 22.0528L112.741 17.7844L110.107 17.0786L108.939 21.4309C108.365 21.2893 107.801 21.1501 107.255 21.0038L107.258 20.9907L103.625 20.0152L102.866 22.847C102.866 22.847 104.823 23.331 104.78 23.3577C105.848 23.6439 106.028 24.3594 105.984 24.9247L104.655 29.8869C104.729 29.9069 104.823 29.9361 104.927 29.9801L104.65 29.9057L102.785 36.8572C102.648 37.1823 102.306 37.6676 101.56 37.4697C101.585 37.5087 99.6453 36.9566 99.6453 36.9566L98.2732 39.9819L101.703 40.9011C102.341 41.0719 102.966 41.2515 103.581 41.4201L102.402 45.8259L105.034 46.5312L106.202 42.1728C106.92 42.3811 107.617 42.5741 108.301 42.7574L107.137 47.0947L109.772 47.8005L110.949 43.4046C115.447 44.3365 118.852 44.0448 120.358 39.9619C121.572 36.6752 120.401 34.7472 118.048 33.4657C119.788 33.0957 121.114 31.9735 121.506 29.6162ZM115.294 38.0463C114.413 41.3376 108.91 39.4633 107.123 38.9843L108.687 33.1462C110.474 33.629 116.214 34.6144 115.294 38.0463ZM116.274 29.4828C115.472 32.4778 110.89 30.8743 109.402 30.4775L110.82 25.1852C112.31 25.5843 117.113 26.3608 116.274 29.4828Z" fill="white"/>
<path d="M121.506 29.6162C122.047 26.3964 119.635 24.6225 116.311 23.4103L117.478 19.0537L114.844 18.3479L113.708 22.5881C113.016 22.4028 112.304 22.2261 111.597 22.0528L112.741 17.7844L110.107 17.0786L108.939 21.4309C108.365 21.2893 107.801 21.1501 107.255 21.0038L107.258 20.9907L103.625 20.0152L102.866 22.847C102.866 22.847 104.823 23.331 104.78 23.3577C105.848 23.6439 106.028 24.3594 105.984 24.9247L104.655 29.8869C104.729 29.9069 104.823 29.9361 104.927 29.9801L104.65 29.9057L102.785 36.8572C102.648 37.1823 102.306 37.6676 101.56 37.4697C101.585 37.5087 99.6453 36.9566 99.6453 36.9566L98.2732 39.9819L101.703 40.9011C102.341 41.0719 102.966 41.2515 103.581 41.4201L102.402 45.8259L105.034 46.5312L106.202 42.1728C106.92 42.3811 107.617 42.5741 108.301 42.7574L107.137 47.0947L109.772 47.8005L110.949 43.4046C115.447 44.3365 118.852 44.0448 120.358 39.9619C121.572 36.6752 120.401 34.7472 118.048 33.4657C119.788 33.0957 121.114 31.9735 121.506 29.6162ZM115.294 38.0463C114.413 41.3376 108.91 39.4633 107.123 38.9843L108.687 33.1462C110.474 33.629 116.214 34.6144 115.294 38.0463ZM116.274 29.4828C115.472 32.4778 110.89 30.8743 109.402 30.4775L110.82 25.1852C112.31 25.5843 117.113 26.3608 116.274 29.4828Z" fill="white"/>
<path d="M66.0989 136.379L66.8437 139.158L59.8395 141.035L66.5749 146.985L62.9521 147.955L54.8431 140.771L51.4326 151.042L47.8099 152.013L50.6579 143.495L43.7642 145.342L43.0141 142.543L66.0936 136.358L66.0989 136.379Z" fill="white"/>
<path d="M65.2823 133.327L64.5376 130.548L57.5334 132.424L60.3915 123.904L56.7688 124.875L53.3382 135.151L45.2492 127.961L41.6265 128.932L48.3518 134.885L41.4581 136.732L42.2083 139.531L65.2877 133.347L65.2823 133.327Z" fill="white"/>
<path d="M65.2823 133.327L64.5376 130.548L57.5334 132.424L60.3915 123.904L56.7688 124.875L53.3382 135.151L45.2492 127.961L41.6265 128.932L48.3518 134.885L41.4581 136.732L42.2083 139.531L65.2877 133.347L65.2823 133.327Z" fill="url(#paint4_linear_800_45968)"/>
<defs>
<linearGradient id="paint0_linear_800_45968" x1="78.6465" y1="0.185547" x2="143.729" y2="65.2685" gradientUnits="userSpaceOnUse">
<stop stop-color="#FADB94"/>
<stop offset="0.859591" stop-color="#EFA701"/>
</linearGradient>
<linearGradient id="paint1_linear_800_45968" x1="86.1273" y1="104.917" x2="31.9517" y2="164.103" gradientUnits="userSpaceOnUse">
<stop stop-color="#C6C1FB"/>
<stop offset="1" stop-color="#4636FF"/>
</linearGradient>
<linearGradient id="paint2_linear_800_45968" x1="105.5" y1="123.5" x2="113.572" y2="62.155" gradientUnits="userSpaceOnUse">
<stop offset="0.137195" stop-color="white"/>
<stop offset="0.977803" stop-color="white" stop-opacity="0"/>
</linearGradient>
<linearGradient id="paint3_linear_800_45968" x1="54.5" y1="48" x2="49.7315" y2="107.012" gradientUnits="userSpaceOnUse">
<stop offset="0.137195" stop-color="white"/>
<stop offset="0.977803" stop-color="white" stop-opacity="0"/>
</linearGradient>
<linearGradient id="paint4_linear_800_45968" x1="40.8581" y1="134.492" x2="63.9376" y2="128.308" gradientUnits="userSpaceOnUse">
<stop stop-color="white"/>
<stop offset="1" stop-color="white"/>
</linearGradient>
</defs>
</svg>
