<svg fill="none" height="24" viewBox="0 0 24 24" width="24" xmlns="http://www.w3.org/2000/svg"><g stroke="#fff" stroke-linecap="round" stroke-linejoin="round" stroke-width="1.5"><path d="m12 16.5c2.4853 0 4.5-2.0147 4.5-4.5 0-2.48528-2.0147-4.5-4.5-4.5-2.48528 0-4.5 2.01472-4.5 4.5 0 2.4853 2.01472 4.5 4.5 4.5z"/><path d="m17.2182 6.10177c.2402.21266.4673.43971.6799.67989l2.5615.36577c.4154.72332.7357 1.49724.9529 2.30258l-1.552 2.06919s.0195.6412 0 .9614l1.5526 2.0699c-.2177.8052-.5385 1.5789-.9544 2.3019l-2.5606.3658s-.4396.4672-.6797.6798l-.3658 2.5615c-.7233.4154-1.4972.7356-2.3026.9528l-2.0691-1.5519c-.3202.0195-.6413.0195-.9615 0l-2.06984 1.5526c-.80519-.2177-1.5789-.5385-2.30194-.9544l-.3657-2.5605c-.24018-.2126-.46723-.4397-.67989-.6798l-2.56147-.3658c-.41539-.7233-.73565-1.4973-.95285-2.3026l1.55198-2.0692s-.01952-.6412-.00006-.9614l-1.55259-2.06986c.21774-.80519.53853-1.5789.9544-2.30194l2.56045-.3657c.21266-.24019.43971-.46723.67989-.67989l.36577-2.56147c.72332-.41539 1.49725-.73565 2.30258-.95285l2.06907 1.55192c.3202-.01946.6413-.01946.9615 0l2.0699-1.5526c.8052.21775 1.5789.53854 2.3019.95441z"/></g></svg>