<svg width="24" height="24" viewBox="0 0 24 24" fill="none" xmlns="http://www.w3.org/2000/svg">
<g opacity="0.4">
<path d="M12 16.5C14.4853 16.5 16.5 14.4853 16.5 12C16.5 9.51472 14.4853 7.5 12 7.5C9.51472 7.5 7.5 9.51472 7.5 12C7.5 14.4853 9.51472 16.5 12 16.5Z" stroke="white" stroke-width="1.5" stroke-linecap="round" stroke-linejoin="round"/>
<path d="M17.2181 6.10186C17.4583 6.31452 17.6854 6.54157 17.898 6.78175L20.4595 7.14752C20.8749 7.87084 21.1951 8.64476 21.4123 9.4501L19.8604 11.5193C19.8604 11.5193 19.8799 12.1605 19.8604 12.4807L21.413 14.5506C21.1953 15.3558 20.8745 16.1295 20.4586 16.8525L17.898 17.2183C17.898 17.2183 17.4584 17.6855 17.2183 17.8981L16.8525 20.4596C16.1292 20.875 15.3552 21.1952 14.5499 21.4124L12.4808 19.8605C12.1606 19.88 11.8395 19.88 11.5193 19.8605L9.44944 21.4131C8.64425 21.1954 7.87054 20.8746 7.1475 20.4587L6.7818 17.8982C6.54162 17.6856 6.31457 17.4585 6.10191 17.2184L3.54044 16.8526C3.12505 16.1293 2.80479 15.3553 2.58759 14.55L4.13957 12.4808C4.13957 12.4808 4.12005 11.8396 4.13951 11.5194L2.58691 9.44953C2.80466 8.64434 3.12545 7.87063 3.54132 7.14759L6.10177 6.78189C6.31443 6.54171 6.54148 6.31466 6.78166 6.102L7.14743 3.54053C7.87075 3.12514 8.64467 2.80488 9.45001 2.58768L11.5191 4.13961C11.8393 4.12014 12.1604 4.12014 12.4806 4.1396L14.5505 2.58701C15.3557 2.80475 16.1294 3.12554 16.8524 3.54141L17.2181 6.10186Z" stroke="white" stroke-width="1.5" stroke-linecap="round" stroke-linejoin="round"/>
</g>
</svg>
