<svg fill="none" height="24" viewBox="0 0 24 24" width="24" xmlns="http://www.w3.org/2000/svg"><path d="m3.75 6v12c0 .3978.15804.7794.43934 1.0607s.66284.4393 1.06066.4393h15c.1989 0 .3897-.079.5303-.2197.1407-.1406.2197-.3314.2197-.5303v-10.5c0-.19891-.079-.38968-.2197-.53033-.1406-.14065-.3314-.21967-.5303-.21967h-15c-.39782 0-.77936-.15804-1.06066-.43934s-.43934-.66284-.43934-1.06066zm0 0c0-.39782.15804-.77936.43934-1.06066s.66284-.43934 1.06066-.43934h12.75" stroke="#fff" stroke-linecap="round" stroke-linejoin="round" stroke-width="1.5"/><path d="m16.875 14.625c.6213 0 1.125-.5037 1.125-1.125s-.5037-1.125-1.125-1.125-1.125.5037-1.125 1.125.5037 1.125 1.125 1.125z" fill="#fff"/></svg>