<svg width="103" height="103" viewBox="0 0 103 103" fill="none" xmlns="http://www.w3.org/2000/svg">
    <rect width="103" height="103" rx="16" fill="#272A44" />
    <path
        d="M51.3148 56.611C61.5225 56.611 69.7975 48.6 69.7975 38.718C69.7975 28.8359 61.5225 20.825 51.3148 20.825C41.107 20.825 32.832 28.8359 32.832 38.718C32.832 48.6 41.107 56.611 51.3148 56.611Z"
        fill="#3646CC" />
    <path
        d="M51.3148 56.611C61.5225 56.611 69.7975 48.6 69.7975 38.718C69.7975 28.8359 61.5225 20.825 51.3148 20.825C41.107 20.825 32.832 28.8359 32.832 38.718C32.832 48.6 41.107 56.611 51.3148 56.611Z"
        fill="#2131B7" />
    <path d="M32.832 38.718C32.832 48.6 41.107 56.611 51.3148 56.611V20.825C41.107 20.825 32.832 28.8359 32.832 38.718Z"
        fill="#7383F5" />
    <path
        d="M51.3177 56.611C55.6924 56.611 59.2388 48.6 59.2388 38.718C59.2388 28.8359 55.6924 20.825 51.3177 20.825C46.9429 20.825 43.3965 28.8359 43.3965 38.718C43.3965 48.6 46.9429 56.611 51.3177 56.611Z"
        fill="#5565F7" />
    <ellipse opacity="0.7" cx="51.3148" cy="38.7178" rx="18.4828" ry="6.81639" fill="url(#paint0_linear_1168_61407)" />
    <path opacity="0.3"
        d="M51.3148 56.611C61.5225 56.611 69.7975 48.6 69.7975 38.718C69.7975 28.8359 61.5225 20.825 51.3148 20.825C41.107 20.825 32.832 28.8359 32.832 38.718C32.832 48.6 41.107 56.611 51.3148 56.611Z"
        fill="url(#paint1_linear_1168_61407)" />
    <path
        d="M64.4936 76.262C64.4936 77.1806 64.1286 78.0616 63.4791 78.7111C62.8296 79.3606 61.9486 79.7256 61.03 79.7256C60.1114 79.7256 59.2304 79.3606 58.5809 78.7111C57.9313 78.0616 57.5664 77.1806 57.5664 76.262V71.0666C57.5665 70.2236 57.8741 69.4095 58.4314 68.7769C58.9888 68.1444 59.7577 67.7369 60.594 67.6306C61.4304 67.5244 62.2767 67.7268 62.9745 68.2C63.6723 68.6731 64.1736 69.3845 64.3844 70.2007"
        stroke="url(#paint2_linear_1168_61407)" stroke-width="1.6" stroke-linecap="round" stroke-linejoin="round" />
    <path d="M54.9682 67.603H48.041" stroke="url(#paint3_linear_1168_61407)" stroke-width="1.6" stroke-linecap="round"
        stroke-linejoin="round" />
    <path d="M51.5059 67.603V79.7255" stroke="url(#paint4_linear_1168_61407)" stroke-width="1.6" stroke-linecap="round"
        stroke-linejoin="round" />
    <circle cx="33.3754" cy="78.4271" r="0.721779" fill="white" stroke="url(#paint5_linear_1168_61407)"
        stroke-width="0.721226" />
    <path
        d="M38.518 73.3455H42.27C43.112 73.3455 43.9195 73.6816 44.5149 74.2798C45.1102 74.8781 45.4447 75.6895 45.4447 76.5355C45.4447 77.3816 45.1102 78.193 44.5149 78.7912C43.9195 79.3895 43.112 79.7255 42.27 79.7255L38.5176 79.7252V67.603L42.4143 67.6034C43.1721 67.6034 43.8989 67.9059 44.4347 68.4443C44.9706 68.9827 45.2716 69.713 45.2716 70.4744C45.2716 71.2359 44.9706 71.9662 44.4347 72.5046C43.8989 73.043 43.1721 73.3455 42.4143 73.3455"
        stroke="url(#paint6_linear_1168_61407)" stroke-width="1.6" stroke-linecap="round" stroke-linejoin="round" />
    <defs>
        <linearGradient id="paint0_linear_1168_61407" x1="70" y1="39" x2="33" y2="39" gradientUnits="userSpaceOnUse">
            <stop stop-color="#0B18A2" />
            <stop offset="1" stop-color="#1E2FE9" stop-opacity="0.37" />
        </linearGradient>
        <linearGradient id="paint1_linear_1168_61407" x1="34.9556" y1="44.352" x2="69.5114" y2="25.9235"
            gradientUnits="userSpaceOnUse">
            <stop stop-color="white" />
            <stop offset="1" stop-color="white" stop-opacity="0" />
            <stop offset="1" stop-color="white" stop-opacity="0" />
        </linearGradient>
        <linearGradient id="paint2_linear_1168_61407" x1="61.03" y1="67.603" x2="61.03" y2="79.7256"
            gradientUnits="userSpaceOnUse">
            <stop stop-color="white" />
            <stop offset="1" stop-color="white" stop-opacity="0.51" />
        </linearGradient>
        <linearGradient id="paint3_linear_1168_61407" x1="51.5046" y1="67.603" x2="51.5046" y2="68.603"
            gradientUnits="userSpaceOnUse">
            <stop stop-color="white" />
            <stop offset="1" stop-color="white" stop-opacity="0.51" />
        </linearGradient>
        <linearGradient id="paint4_linear_1168_61407" x1="52.0059" y1="67.603" x2="52.0059" y2="79.7255"
            gradientUnits="userSpaceOnUse">
            <stop stop-color="white" />
            <stop offset="1" stop-color="white" stop-opacity="0.51" />
        </linearGradient>
        <linearGradient id="paint5_linear_1168_61407" x1="33.3754" y1="77.3447" x2="33.3754" y2="79.5095"
            gradientUnits="userSpaceOnUse">
            <stop stop-color="white" />
            <stop offset="1" stop-color="white" stop-opacity="0.51" />
        </linearGradient>
        <linearGradient id="paint6_linear_1168_61407" x1="41.9812" y1="67.603" x2="41.9812" y2="79.7255"
            gradientUnits="userSpaceOnUse">
            <stop stop-color="white" />
            <stop offset="1" stop-color="white" stop-opacity="0.51" />
        </linearGradient>
    </defs>
</svg>