<svg width="89" height="88" viewBox="0 0 89 88" fill="none" xmlns="http://www.w3.org/2000/svg">
<rect x="0.5" width="88" height="88" rx="16" fill="#272A44"/>
<path d="M26.1309 45.6055C28.949 45.6055 30.0265 46.8982 30.0265 48.8998V57.9487C30.0265 60.6176 31.85 62.369 34.7096 62.369H37.2377V59.2832H35.2898C34.2123 59.2832 33.5492 58.5742 33.5492 57.3649V48.5245C33.5492 46.1476 32.6375 44.6881 30.4824 43.9792C32.6375 43.312 33.5492 41.8942 33.5492 39.4756V30.6351C33.5492 29.4675 34.2123 28.7586 35.2898 28.7586H37.2377V25.6311H34.7096C31.85 25.6311 30.0265 27.4242 30.0265 30.093V39.1003C30.0265 41.1436 28.949 42.3946 26.1309 42.3946V45.6055Z" fill="url(#paint0_linear_619_40235)"/>
<path d="M54.3312 62.369C57.1908 62.369 59.0143 60.6176 59.0143 57.9487V48.8998C59.0143 46.8982 60.0918 45.6055 62.8685 45.6055V42.3946C60.0918 42.3946 59.0143 41.1436 59.0143 39.1003V30.093C59.0143 27.4242 57.1908 25.6311 54.3312 25.6311H51.7617V28.7586H53.7096C54.7871 28.7586 55.4502 29.4675 55.4502 30.6351V39.4756C55.4502 41.8942 56.4034 43.312 58.5584 43.9792C56.4034 44.6881 55.4502 46.1476 55.4502 48.5245V57.3649C55.4502 58.5742 54.7871 59.2832 53.7096 59.2832H51.7617V62.369H54.3312Z" fill="url(#paint1_linear_619_40235)"/>
<defs>
<linearGradient id="paint0_linear_619_40235" x1="31.6843" y1="25.6311" x2="31.6843" y2="62.369" gradientUnits="userSpaceOnUse">
<stop stop-color="white"/>
<stop offset="1" stop-color="#B6B6B6"/>
</linearGradient>
<linearGradient id="paint1_linear_619_40235" x1="57.3151" y1="25.6311" x2="57.3151" y2="62.369" gradientUnits="userSpaceOnUse">
<stop stop-color="#3A4ACE"/>
<stop offset="1" stop-color="#8A95EA"/>
</linearGradient>
</defs>
</svg>
