<svg width="103" height="103" viewBox="0 0 103 103" fill="none" xmlns="http://www.w3.org/2000/svg">
<rect width="103" height="103" rx="16" fill="#272A44"/>
<path d="M66.4367 32.7163C64.0301 32.3609 62.8268 32.1831 62.8268 31.7705C62.8268 31.3579 64.0301 31.1802 66.4367 30.8247L67.815 30.6211C68.1534 30.5712 68.3226 30.5462 68.4344 30.4344C68.5461 30.3226 68.5711 30.1534 68.6211 29.815L68.8247 28.4367C69.1802 26.0301 69.3579 24.8268 69.7705 24.8268C70.1831 24.8268 70.3608 26.0301 70.7163 28.4367L70.9199 29.815C70.9699 30.1534 70.9949 30.3226 71.1066 30.4344C71.2184 30.5462 71.3876 30.5712 71.726 30.6211L73.1043 30.8247C75.5109 31.1802 76.7142 31.3579 76.7142 31.7705C76.7142 32.1831 75.5109 32.3609 73.1043 32.7163L71.726 32.9199C71.3876 32.9699 71.2184 32.9949 71.1066 33.1067C70.9949 33.2184 70.9699 33.3876 70.9199 33.726L70.7163 35.1043C70.3608 37.5109 70.1831 38.7142 69.7705 38.7142C69.3579 38.7142 69.1802 37.5109 68.8247 35.1043L68.6211 33.726C68.5711 33.3876 68.5461 33.2184 68.4344 33.1067C68.3226 32.9949 68.1534 32.9699 67.815 32.9199L66.4367 32.7163Z" fill="url(#paint0_linear_1142_62186)"/>
<path d="M41.625 38.5H60.875L70.5 50.0652L51.25 71.75L32 50.0652L41.625 38.5Z" fill="#7383FF"/>
<path d="M51.25 38.5H60.875L70.5 50.0652L51.25 71.75V38.5Z" fill="#3646CC"/>
<path d="M60 50.0652L51.25 71.75L42.5 50.0652L51.25 38.5L60 50.0652Z" fill="#5565F7"/>
<path fill-rule="evenodd" clip-rule="evenodd" d="M60.875 38.5H41.625L32 50.0652L32.031 50.1001H70.469L70.5 50.0652L60.875 38.5Z" fill="#5565F7"/>
<path fill-rule="evenodd" clip-rule="evenodd" d="M60.875 38.5H51.25V50.1001H70.469L70.5 50.0652L60.875 38.5Z" fill="#7383FF"/>
<path fill-rule="evenodd" clip-rule="evenodd" d="M59.9859 50.1001L60 50.0652L51.25 38.5L42.5 50.0652L42.5141 50.1001H59.9859Z" fill="#3646CC"/>
<defs>
<linearGradient id="paint0_linear_1142_62186" x1="70.4607" y1="25.7695" x2="69.4541" y2="46.8405" gradientUnits="userSpaceOnUse">
<stop stop-color="white"/>
<stop offset="1" stop-color="#A5A5A5"/>
</linearGradient>
</defs>
</svg>