<svg width="89" height="88" viewBox="0 0 89 88" fill="none" xmlns="http://www.w3.org/2000/svg">
<rect x="0.5" width="88" height="88" rx="16" fill="#272A44"/>
<path d="M15.0244 57.2181C15.0244 57.2181 17.6294 53.5791 21.5369 53.5791C30.003 53.5791 29.3518 66.5757 21.5369 66.5757C16.3269 66.5757 16.3269 58.7777 24.1418 58.7777C29.3518 58.7777 32.608 62.6767 32.608 62.6767" stroke="url(#paint0_linear_193_33843)" stroke-width="1.57506" stroke-linecap="round" stroke-linejoin="round"/>
<path d="M38.9958 47.8018H47.7786V56.5846L35.1592 60.427L38.9958 47.8018Z" fill="url(#paint1_linear_193_33843)"/>
<path d="M47.7786 47.8018V56.5846L35.1592 60.427L47.7786 47.8018Z" fill="url(#paint2_linear_193_33843)"/>
<path d="M62.5583 24.1678C64.1204 22.6057 66.653 22.6057 68.2151 24.1678L68.3095 24.2621L41.9025 50.6691L38.9797 47.7464L62.5583 24.1678Z" fill="#9AA6FF"/>
<path d="M71.2656 27.2192L71.36 27.3136C72.9221 28.8757 72.9221 31.4083 71.36 32.9704L47.7454 56.585L44.8226 53.6622L71.2656 27.2192Z" fill="#4652BB"/>
<rect x="68.3086" y="24.2656" width="4.22679" height="37.341" transform="rotate(45 68.3086 24.2656)" fill="#7181FF"/>
<rect x="62.7686" y="23.9785" width="12.413" height="5.17508" transform="rotate(45 62.7686 23.9785)" fill="#070D46" fill-opacity="0.3"/>
<path d="M60.7334 25.6313L69.9988 34.8967C70.7798 35.6778 70.7798 36.9441 69.9988 37.7252L64.1509 43.5731" stroke="url(#paint3_linear_193_33843)" stroke-width="2" stroke-linecap="round"/>
<defs>
<linearGradient id="paint0_linear_193_33843" x1="12.3856" y1="56.4849" x2="42.6997" y2="67.3278" gradientUnits="userSpaceOnUse">
<stop stop-color="white"/>
<stop offset="1" stop-color="white" stop-opacity="0.19"/>
</linearGradient>
<linearGradient id="paint1_linear_193_33843" x1="39.7998" y1="49.553" x2="37.6639" y2="58.9511" gradientUnits="userSpaceOnUse">
<stop stop-color="white"/>
<stop offset="1" stop-color="#989FD5"/>
</linearGradient>
<linearGradient id="paint2_linear_193_33843" x1="42.3629" y1="53.3977" x2="39.7998" y2="60.6598" gradientUnits="userSpaceOnUse">
<stop stop-color="white"/>
<stop offset="1" stop-color="#BBC0E6"/>
</linearGradient>
<linearGradient id="paint3_linear_193_33843" x1="60.3062" y1="24.777" x2="65.8596" y2="45.2818" gradientUnits="userSpaceOnUse">
<stop stop-color="white"/>
<stop offset="0.945512" stop-color="#888888"/>
</linearGradient>
</defs>
</svg>
