<svg width="28" height="20" viewBox="0 0 28 20" fill="none" xmlns="http://www.w3.org/2000/svg">
<rect width="28" height="20" rx="2" fill="#E31D1C"/>
<path d="M5.2496 2.94336L6.27822 5.02758L8.57829 5.3618L6.91394 6.98414L7.30684 9.27492L5.2496 8.19336L3.19235 9.27492L3.58525 6.98414L1.9209 5.3618L4.22097 5.02758L5.2496 2.94336Z" fill="#FFD018"/>
<path d="M9.84601 0.851562L11.149 1.79828L10.6513 3.33009H9.04069L8.54297 1.79828L9.84601 0.851562Z" fill="#FFD018"/>
<path d="M14.0122 3.53662L14.2642 5.12744L12.8291 5.85865L11.6902 4.71976L12.4214 3.28466L14.0122 3.53662Z" fill="#FFD018"/>
<path d="M9.84638 11.8125L8.54334 10.8658L9.04105 9.33397L10.6517 9.33397L11.1494 10.8658L9.84638 11.8125Z" fill="#FFD018"/>
<path d="M14.0127 9.12842L12.4219 9.38038L11.6907 7.94528L12.8296 6.80639L14.2647 7.5376L14.0127 9.12842Z" fill="#FFD018"/>
</svg>
