<svg width="28" height="20" viewBox="0 0 28 20" fill="none" xmlns="http://www.w3.org/2000/svg">
<path d="M28 0H0V20H28V0Z" fill="#DE2910"/>
<path d="M14.0001 10.4972C10.7241 9.08799 12.177 4.74649 15.3099 4.96499C14.6752 5.29749 14.585 5.91499 14.9459 6.48816C15.3503 7.13099 14.9085 8.16016 14.361 8.41349C13.4588 8.82516 13.2783 9.92399 14.0001 10.4972Z" fill="white"/>
<path d="M13.823 7.36058L13.6394 7.65508L13.5741 7.31308L13.2412 7.22441L13.5399 7.05341L13.5181 6.70508L13.7701 6.94258L14.0905 6.81591L13.9474 7.13258L14.1652 7.40174L13.823 7.36058Z" fill="#DE2910"/>
<path d="M14.0186 10.4641C13.6235 10.2582 13.3031 9.82439 13.1631 9.31139C13.0044 8.71922 13.0946 8.08589 13.4151 7.56972L13.3466 7.52539C13.0168 8.06056 12.9204 8.71923 13.0853 9.33356C13.2315 9.87823 13.5582 10.3184 13.9813 10.5401L14.0186 10.4641Z" fill="#DE2910"/>
<path d="M14.0029 10.4974C14.3078 6.89052 18.8127 6.95702 19.5749 10.054C19.0709 9.54419 18.4643 9.64552 18.0412 10.1712C17.5683 10.7602 16.4669 10.6525 16.0625 10.1997C15.3967 9.45869 14.314 9.62336 14.0029 10.4974Z" fill="white"/>
<path d="M16.8783 9.358L16.5454 9.26933L16.8441 9.09833L16.8223 8.75L17.0743 8.9875L17.3947 8.86083L17.2516 9.1775L17.4694 9.44667L17.1303 9.4055L16.9467 9.7L16.8783 9.358Z" fill="#DE2910"/>
<path d="M14.0433 10.5035C14.1148 10.057 14.4197 9.61365 14.8584 9.31915C15.3624 8.98348 15.9846 8.87581 16.5633 9.02465L16.582 8.94548C15.9784 8.79031 15.3344 8.90115 14.8117 9.25265C14.3482 9.56298 14.0371 10.0158 13.9624 10.4908L14.0433 10.5035Z" fill="#DE2910"/>
<path d="M14.0029 10.5016C17.4656 9.68145 18.7972 14.0641 16.1372 15.7614C16.4576 15.1154 16.1745 14.5581 15.5523 14.3111C14.8554 14.0356 14.6158 12.9336 14.9145 12.4048C15.406 11.5339 14.9145 10.5364 14.0029 10.5016Z" fill="white"/>
<path d="M15.9564 12.9304L15.9346 12.582L16.1866 12.8195L16.507 12.6929L16.3639 13.0095L16.5817 13.2787L16.2426 13.2375L16.059 13.532L15.9906 13.19L15.6577 13.1014L15.9564 12.9304Z" fill="#DE2910"/>
<path d="M14.0087 10.5411C14.4474 10.4714 14.9576 10.6298 15.3652 10.9623C15.8349 11.3454 16.1274 11.9154 16.1678 12.5234L16.2487 12.5171C16.2083 11.8869 15.9034 11.2948 15.4149 10.8989C14.9825 10.5443 14.4629 10.3859 13.9932 10.4588L14.0087 10.5411Z" fill="#DE2910"/>
<path d="M14.0005 10.5039C15.836 13.6041 12.1556 16.2451 9.74756 14.1962C10.4507 14.3071 10.8831 13.8606 10.9204 13.1829C10.964 12.4229 11.916 11.8497 12.504 11.9764C13.4716 12.1791 14.2525 11.3969 14.0005 10.5039Z" fill="white"/>
<path d="M12.3321 13.1457L12.6526 13.019L12.5094 13.3357L12.7272 13.6049L12.385 13.5637L12.2014 13.8582L12.1361 13.5162L11.8032 13.4275L12.1019 13.2565L12.0801 12.9082L12.3321 13.1457Z" fill="#DE2910"/>
<path d="M13.9622 10.5243C14.1644 10.9297 14.1737 11.468 13.9871 11.9683C13.7755 12.5415 13.3337 13.0007 12.7769 13.2287L12.808 13.3047C13.3866 13.0703 13.844 12.5922 14.0649 11.9968C14.2609 11.468 14.2515 10.917 14.0369 10.4863L13.9622 10.5243Z" fill="#DE2910"/>
<path d="M13.997 10.5021C11.6699 13.2381 8.06099 10.4894 9.23388 7.52539C9.34899 8.24106 9.89654 8.51972 10.5437 8.34872C11.2685 8.15556 12.0961 8.90289 12.1614 9.51089C12.2672 10.5084 13.241 11.0214 13.997 10.5021Z" fill="white"/>
<path d="M11.0134 9.70094L11.2311 9.9701L10.892 9.92894L10.7085 10.2234L10.64 9.88144L10.3071 9.79277L10.6058 9.62177L10.584 9.27344L10.836 9.51094L11.1565 9.38427L11.0134 9.70094Z" fill="#DE2910"/>
<path d="M13.9686 10.4705C13.6543 10.7903 13.1503 10.9645 12.6277 10.9423C12.0272 10.9138 11.461 10.6288 11.0783 10.1602L11.0161 10.214C11.4143 10.7017 12.0023 10.9962 12.6246 11.0247C13.1783 11.05 13.6917 10.8695 14.0277 10.5307L13.9686 10.4705Z" fill="#DE2910"/>
</svg>
