<svg width="28" height="20" viewBox="0 0 28 20" fill="none" xmlns="http://www.w3.org/2000/svg">
<rect x="0.25" y="0.25" width="27.5" height="19.5" rx="1.75" fill="white" stroke="#F5F5F5" stroke-width="0.5"/>
<mask id="mask0" mask-type="alpha" maskUnits="userSpaceOnUse" x="0" y="0" width="28" height="20">
<rect x="0.25" y="0.25" width="27.5" height="19.5" rx="1.75" fill="white" stroke="white" stroke-width="0.5"/>
</mask>
<g mask="url(#mask0)">
<rect x="20" width="8" height="20" fill="#FF3131"/>
<path fill-rule="evenodd" clip-rule="evenodd" d="M0 20H8V0H0V20Z" fill="#FF3131"/>
<path fill-rule="evenodd" clip-rule="evenodd" d="M16.1118 9.22218C15.8786 9.45538 15.4845 9.2445 15.5492 8.92111L16 6.66732L14.6666 7.33398L14 5.33398L13.3333 7.33398L12 6.66732L12.4507 8.9211C12.5154 9.2445 12.1214 9.45538 11.8882 9.22218L11.569 8.90302C11.4388 8.77285 11.2278 8.77285 11.0976 8.90302L10.6666 9.33398L9.33331 8.66732L9.99998 10.0007L9.56901 10.4316C9.43884 10.5618 9.43884 10.7728 9.56902 10.903L11.3333 12.6673H13.3333L13.6666 14.6673H14.3333L14.6666 12.6673H16.6666L18.4309 10.903C18.5611 10.7728 18.5611 10.5618 18.4309 10.4316L18 10.0007L18.6666 8.66732L17.3333 9.33398L16.9023 8.90302C16.7722 8.77285 16.5611 8.77285 16.4309 8.90302L16.1118 9.22218Z" fill="#FF3131"/>
</g>
</svg>
