<svg width="80" height="16" viewBox="0 0 80 16" fill="none" xmlns="http://www.w3.org/2000/svg">
<g clip-path="url(#clip0_4818_3050)">
<path d="M19.6957 15.053L14.9496 1.55066C14.8988 1.39838 15.0004 1.24609 15.178 1.24609H18.4775C18.579 1.24609 18.6551 1.32223 18.7059 1.39838L20.914 8.47949L21.5485 10.6876C21.5485 10.713 21.5739 10.713 21.5739 10.713C21.5992 10.713 21.5992 10.713 21.5992 10.6876C21.7261 10.1038 21.9292 9.3678 22.2084 8.47949L24.4672 1.39838C24.4926 1.29685 24.5941 1.24609 24.6956 1.24609H27.9443C28.0966 1.24609 28.2235 1.39838 28.1727 1.55066L23.3759 15.053C23.3505 15.1545 23.249 15.2053 23.1474 15.2053H19.8988C19.7972 15.2053 19.7211 15.1545 19.6957 15.053Z" fill="white"/>
<path d="M35.7104 15.6366C33.4516 15.6366 31.675 14.9513 30.3806 13.5554C29.0862 12.1595 28.4517 10.3828 28.4517 8.20014C28.4517 6.04281 29.0862 4.34233 30.3806 2.94641C31.675 1.52511 33.3247 0.839844 35.3551 0.839844C37.5632 0.839844 39.2637 1.60125 40.4566 3.12407C41.6241 4.62151 42.2332 6.5758 42.2586 9.03769C42.2586 9.16459 42.157 9.26611 42.0301 9.26611H32.3602C32.2079 9.26611 32.1064 9.39302 32.1318 9.5453C32.3095 10.5351 32.6648 11.2965 33.2232 11.8549C33.8323 12.464 34.6445 12.7686 35.6851 12.7686C37.0048 12.7686 37.8678 12.2356 38.3246 11.1696C38.35 11.0935 38.4515 11.0427 38.5277 11.0427H41.751C41.9032 11.0427 42.0048 11.195 41.9794 11.3219C41.6748 12.5148 40.9895 13.5046 39.9743 14.3168C38.8576 15.2051 37.4363 15.6366 35.7104 15.6366ZM35.4312 3.68244C33.7054 3.68244 32.6394 4.59613 32.2333 6.42352C32.2079 6.5758 32.3095 6.7027 32.4618 6.7027H38.1469C38.2738 6.7027 38.4007 6.5758 38.3754 6.4489C38.2738 5.66211 37.9947 5.0276 37.4871 4.51999C36.9541 3.96162 36.2434 3.68244 35.4312 3.68244Z" fill="white"/>
<path d="M51.6502 4.21559C51.6502 4.34249 51.5486 4.44402 51.4217 4.44402H47.6654C47.5385 4.44402 47.437 4.54554 47.437 4.67244V15.0022C47.437 15.1291 47.3355 15.2307 47.2086 15.2307H44.0868C43.9599 15.2307 43.8584 15.1291 43.8584 15.0022V5.68765C43.8584 3.22576 45.8634 1.24609 48.3 1.24609H51.3964C51.5233 1.24609 51.6248 1.34762 51.6248 1.47452L51.6502 4.21559Z" fill="white"/>
<path d="M59.0853 15.6366C57.0549 15.6366 55.4813 15.2051 54.3392 14.3168C53.2732 13.4792 52.8163 12.3625 52.6641 10.9412C52.6641 10.8143 52.7656 10.6874 52.8925 10.6874H55.9127C56.0143 10.6874 56.1158 10.7635 56.1412 10.8651C56.4204 12.2864 57.2579 12.997 59.0091 12.997C59.8467 12.997 60.4812 12.8447 60.938 12.5655C61.3949 12.261 61.6233 11.8803 61.6233 11.3981C61.6233 11.2204 61.5979 11.0427 61.5218 10.9158C61.4457 10.7635 61.3441 10.6366 61.1919 10.5097C61.0396 10.3828 60.8873 10.3067 60.7858 10.2306C60.6589 10.1544 60.4558 10.0783 60.1766 10.0021C59.8721 9.92599 59.669 9.87523 59.4914 9.84985C59.3391 9.82447 59.0599 9.77371 58.6792 9.69757C58.2985 9.62143 58.0447 9.59605 57.8924 9.54529C57.131 9.39301 56.4965 9.24072 56.0143 9.08844C55.532 8.93616 55.0244 8.70774 54.4914 8.40317C53.9585 8.09861 53.5524 7.69252 53.2986 7.18492C53.0194 6.67731 52.8925 6.0428 52.8925 5.30677C52.8925 3.86009 53.4255 2.74336 54.5168 1.98195C55.6082 1.22054 56.9533 0.814453 58.6284 0.814453C60.4558 0.814453 61.8771 1.22054 62.9177 2.05809C63.8822 2.84488 64.3136 3.88547 64.4913 5.20525C64.5167 5.33215 64.3898 5.45905 64.2629 5.45905H61.3188C61.2172 5.45905 61.1157 5.38291 61.0903 5.25601C60.8873 4.01237 60.1513 3.40325 58.5777 3.40325C57.8163 3.40325 57.2325 3.53015 56.8011 3.80933C56.3696 4.08852 56.1412 4.46922 56.1412 4.95145C56.1412 5.10373 56.1665 5.25601 56.2427 5.40829C56.3188 5.56058 56.4204 5.6621 56.5726 5.76362C56.7249 5.86514 56.8772 5.94128 57.0295 6.01742C57.1818 6.09356 57.3848 6.14432 57.664 6.22046C57.9432 6.2966 58.1716 6.34737 58.3746 6.37275C58.5777 6.42351 58.8569 6.47427 59.2122 6.52503C59.5675 6.60117 59.8467 6.62655 60.0497 6.67731C60.6335 6.80421 61.1157 6.93111 61.4964 7.00725C61.8771 7.10878 62.3086 7.26106 62.8162 7.48948C63.3238 7.7179 63.7045 7.97171 63.9837 8.25089C64.2629 8.53007 64.5167 8.91078 64.7197 9.39301C64.9228 9.87523 65.0243 10.4336 65.0243 11.0681C65.0243 12.464 64.4659 13.5554 63.3746 14.3676C62.3086 15.2305 60.8619 15.6366 59.0853 15.6366Z" fill="white"/>
<path d="M73.4516 15.6366C71.1928 15.6366 69.4162 14.9513 68.1218 13.5554C66.8274 12.1595 66.1929 10.3828 66.1929 8.20014C66.1929 6.04281 66.8274 4.34233 68.1218 2.94641C69.4162 1.52511 71.0659 0.839844 73.0963 0.839844C75.3044 0.839844 77.0049 1.60125 78.1978 3.12407C79.3653 4.62151 79.9744 6.5758 79.9998 9.03769C79.9998 9.16459 79.8982 9.26611 79.7713 9.26611H70.1014C69.9492 9.26611 69.8476 9.39302 69.873 9.5453C70.0507 10.5351 70.406 11.2965 70.9644 11.8549C71.5735 12.464 72.3857 12.7686 73.4263 12.7686C74.746 12.7686 75.609 12.2356 76.0658 11.1696C76.0912 11.0935 76.1927 11.0427 76.2689 11.0427H79.4922C79.6444 11.0427 79.746 11.195 79.7206 11.3219C79.416 12.5148 78.7308 13.5046 77.7155 14.3168C76.5988 15.2051 75.1775 15.6366 73.4516 15.6366ZM73.1471 3.68244C71.4212 3.68244 70.3552 4.59613 69.9492 6.42352C69.9238 6.5758 70.0253 6.7027 70.1776 6.7027H75.8628C75.9897 6.7027 76.1166 6.5758 76.0912 6.4489C75.9897 5.66211 75.7105 5.0276 75.2029 4.51999C74.6953 3.96162 73.9846 3.68244 73.1471 3.68244Z" fill="white"/>
<path d="M14.0099 14.9768V12.4388C14.0099 12.3373 13.9592 12.2358 13.9084 12.1596L3.07102 1.29683C2.99488 1.22069 2.89336 1.19531 2.79184 1.19531H0.253803C0.126902 1.19531 0.0253804 1.29683 0.0253804 1.42374V3.78411C0.0253804 3.88563 0.0761411 3.98715 0.126902 4.06329L4.01009 7.94648C4.11161 8.048 4.11161 8.1749 4.01009 8.27642L0.076141 12.2104C0.0253803 12.2611 0 12.3119 0 12.3627V14.9515C0 15.0784 0.101521 15.1799 0.228423 15.1799H4.49232C4.61922 15.1799 4.72074 15.0784 4.72074 14.9515V13.4286C4.72074 13.3779 4.74612 13.3017 4.79688 13.2764L6.90345 11.1698C7.00497 11.0683 7.13187 11.0683 7.23339 11.1698L11.142 15.0784C11.2181 15.1545 11.3196 15.1799 11.4211 15.1799H13.7815C13.9084 15.2053 14.0099 15.1037 14.0099 14.9768Z" fill="white"/>
<path d="M8.29982 4.54552H10.4318C10.5587 4.54552 10.6602 4.64704 10.6602 4.77394V6.90589C10.6602 7.10893 10.914 7.21045 11.0409 7.05817L13.9596 4.13943C14.0104 4.08867 14.0358 4.03791 14.0358 3.98715V1.42374C14.0358 1.29683 13.9343 1.19531 13.8074 1.19531H11.2186C11.1678 1.19531 11.0917 1.22069 11.0663 1.27145L8.14754 4.16481C7.99526 4.29171 8.09678 4.54552 8.29982 4.54552Z" fill="#EE7A30"/>
</g>
<defs>
<clipPath id="clip0_4818_3050">
<rect width="80" height="14.8221" fill="white" transform="translate(0 0.814453)"/>
</clipPath>
</defs>
</svg>
