<svg width="112" height="30" viewBox="0 0 112 30" fill="none" xmlns="http://www.w3.org/2000/svg">
<g clip-path="url(#clip0_1581_7623)">
<path d="M43.38 14.9326L37.3335 23.7341H40.1373L44.8672 16.7612C45.4524 17.7852 46.1106 18.8579 46.7933 19.8575L49.4996 23.7341H52.3278L46.3544 14.9082L52.2546 6.10669H49.4996L44.8428 13.1284C44.3308 12.1532 43.7457 11.1779 42.9655 10.032L40.2104 6.10669H37.3579L43.38 14.9326Z" fill="white"/>
<path d="M57.5482 23.7341H59.8156L64.7893 11.8118H62.4L59.7424 18.4678C59.328 19.5162 58.9379 20.5402 58.7428 21.3204C58.5478 20.589 58.2064 19.5894 57.792 18.4678L55.1832 11.8118H52.7451L57.5482 23.7341Z" fill="white"/>
<path d="M71.6971 24.0267C74.6472 24.0267 76.6464 22.5882 77.2316 20.0282H75.0861C74.696 21.3935 73.5257 22.125 71.7459 22.125C69.4784 22.125 68.1619 20.7353 67.9912 18.224L77.2072 18.1996V17.3463C77.2072 13.8111 74.9885 11.4705 71.5996 11.4705C68.1375 11.4705 65.7725 14.0549 65.7725 17.7852C65.7725 21.4911 68.1863 24.0267 71.6971 24.0267ZM71.5996 13.3966C73.6232 13.3966 74.9154 14.7132 74.9154 16.688H68.04C68.3325 14.5913 69.6004 13.3966 71.5996 13.3966Z" fill="white"/>
<path d="M87.0813 11.7143C86.6181 11.6168 86.2767 11.568 85.8623 11.568C84.2287 11.568 83.0341 12.397 82.5464 13.6404L82.4002 11.8362H80.2546V23.7341H82.5464V17.4195C82.5464 15.1276 83.8874 13.8111 86.0573 13.8111H87.0813V11.7143Z" fill="white"/>
<path d="M88.7432 20.272C88.7432 22.5395 90.523 24.0267 93.3268 24.0267C96.155 24.0267 98.1055 22.5882 98.1055 20.3208C98.1055 18.541 97.1059 17.6145 95.0823 17.1269L92.9855 16.6149C91.8152 16.3223 91.2301 15.7859 91.2301 14.9814C91.2301 13.8842 92.0346 13.2503 93.4731 13.2503C94.8628 13.2503 95.6674 14.0061 95.7162 15.2008H97.9104C97.8617 12.9334 96.155 11.4705 93.5463 11.4705C90.9131 11.4705 89.0602 12.8602 89.0602 15.0545C89.0602 16.8099 90.0598 17.8583 92.1809 18.3703L94.2777 18.8579C95.5211 19.1749 95.9112 19.6625 95.9112 20.4671C95.9112 21.5642 94.9847 22.2225 93.3756 22.2225C91.864 22.2225 90.9375 21.4911 90.9375 20.272H88.7432Z" fill="white"/>
<path d="M106.279 24.0267C109.229 24.0267 111.228 22.5882 111.813 20.0282H109.668C109.278 21.3935 108.108 22.125 106.328 22.125C104.06 22.125 102.744 20.7353 102.573 18.224L111.789 18.1996V17.3463C111.789 13.8111 109.57 11.4705 106.181 11.4705C102.719 11.4705 100.354 14.0549 100.354 17.7852C100.354 21.4911 102.768 24.0267 106.279 24.0267ZM106.181 13.3966C108.205 13.3966 109.497 14.7132 109.497 16.688H102.622C102.914 14.5913 104.182 13.3966 106.181 13.3966Z" fill="white"/>
<path fill-rule="evenodd" clip-rule="evenodd" d="M4.91474 3.99223C10.5929 -1.15305 19.2739 -1.15301 24.9521 3.99236L23.6284 5.31604C18.6832 0.898203 11.1837 0.898162 6.23842 5.31591L4.91474 3.99223ZM26.008 5.04832L24.6843 6.372C29.1018 11.3172 29.1017 18.8164 24.6841 23.7615L26.0077 25.0852C31.1529 19.4072 31.153 10.7265 26.008 5.04832ZM6.2387 24.8176C11.1839 29.235 18.683 29.235 23.6281 24.8175L24.9518 26.1412C19.2737 31.2862 10.5931 31.2862 4.91501 26.1413L6.2387 24.8176ZM5.18273 23.7617L3.85905 25.0854C-1.28627 19.4073 -1.28635 10.7264 3.8588 5.04819L5.18249 6.37187C0.764863 11.3171 0.764946 18.8165 5.18273 23.7617ZM24.2398 8.83138C23.8407 8.23713 23.3785 7.67266 22.8532 7.14738C19.3736 3.66773 14.174 2.95633 9.99104 5.01317L10.9285 6.63682C14.3936 4.99064 18.6636 5.60143 21.5314 8.4692C21.9385 8.87625 22.3 9.31155 22.6162 9.76879L24.2398 8.83138ZM23.3637 11.0616L24.9873 10.1241C27.0443 14.3071 26.3329 19.5069 22.8532 22.9866C22.3279 23.5119 21.7633 23.9742 21.1689 24.3734L20.2315 22.7497C20.6888 22.4336 21.1243 22.0719 21.5314 21.6648C24.3992 18.7969 25.01 14.5267 23.3637 11.0616ZM18.9387 23.4972C15.4736 25.1433 11.2036 24.5325 8.33585 21.6648C7.92858 21.2575 7.56683 20.8219 7.2506 20.3644L5.62696 21.3018C6.02618 21.8964 6.48854 22.4611 7.01404 22.9866C10.4936 26.4662 15.6932 27.1776 19.8761 25.1209L18.9387 23.4972ZM4.87955 20.009L6.50321 19.0716C4.85736 15.6066 5.46824 11.3368 8.33585 8.4692C8.74297 8.06208 9.17835 7.70045 9.63567 7.3843L8.69825 5.76065C8.10392 6.1598 7.53938 6.62204 7.01403 7.14738C3.53454 10.6269 2.82305 15.8262 4.87955 20.009ZM20.2131 9.78683C21.3156 10.8893 22.0012 12.2507 22.27 13.6753L20.3953 13.8393C20.1714 12.8386 19.6701 11.8874 18.8913 11.1086C17.8646 10.0819 16.5382 9.53743 15.1936 9.47524L15.0296 7.60051C16.9083 7.62457 18.7796 8.35334 20.2131 9.78683ZM13.5419 7.72997C12.1174 7.99882 10.7561 8.68444 9.65366 9.78683C8.22025 11.2202 7.49147 13.0915 7.46734 14.9701L9.34208 14.806C9.40434 13.4616 9.9488 12.1353 10.9755 11.1086C11.7542 10.3299 12.7053 9.82863 13.7059 9.60474L13.5419 7.72997ZM7.59674 16.4578C7.86555 17.8824 8.55119 19.2438 9.65366 20.3463C11.0871 21.7797 12.9583 22.5085 14.8368 22.5326L14.6728 20.6579C13.3284 20.5956 12.0021 20.0511 10.9755 19.0245C10.1967 18.2457 9.69536 17.2945 9.47151 16.2938L7.59674 16.4578ZM20.2131 20.3463C19.1106 21.4488 17.7492 22.1344 16.3246 22.4032L16.1605 20.5285C17.1613 20.3046 18.1125 19.8033 18.8913 19.0245C19.918 17.9978 20.4625 16.6715 20.5247 15.327L22.3994 15.163C22.3753 17.0416 21.6465 18.9129 20.2131 20.3463Z" fill="url(#paint0_linear_1581_7623)"/>
</g>
<defs>
<linearGradient id="paint0_linear_1581_7623" x1="4.44029" y1="25.7302" x2="30.8208" y2="-0.650278" gradientUnits="userSpaceOnUse">
<stop stop-color="#5565F7"/>
<stop offset="1" stop-color="#9EA7FA"/>
</linearGradient>
<clipPath id="clip0_1581_7623">
<rect width="112" height="29.8667" fill="white" transform="translate(0 0.133301)"/>
</clipPath>
</defs>
</svg>
