<svg width="28" height="20" viewBox="0 0 28 20" fill="none" xmlns="http://www.w3.org/2000/svg">
<path d="M28 0H0V20H28V0Z" fill="#ED2939"/>
<path d="M28 11H0V20H28V11Z" fill="white"/>
<path d="M9.60343 5.66597C9.60343 7.60458 8.03232 9.17569 6.09371 9.17569C4.1551 9.17569 2.58398 7.60458 2.58398 5.66597C2.58398 3.72736 4.1551 2.15625 6.09371 2.15625C8.03232 2.15625 9.60343 3.72736 9.60343 5.66597Z" fill="white"/>
<path d="M10.7064 5.66618C10.7064 7.49784 9.22148 8.98275 7.38982 8.98275C5.55815 8.98275 4.07324 7.49784 4.07324 5.66618C4.07324 3.83451 5.55815 2.34961 7.38982 2.34961C9.22148 2.34961 10.7064 3.83451 10.7064 5.66618Z" fill="#ED2939"/>
<path d="M6.52812 5.75157L6.05108 5.38602L5.57469 5.75222L5.75812 5.16241L5.27979 4.79815L5.87025 4.79945L6.05108 4.20898L6.23256 4.79945L6.82303 4.79815L6.34469 5.16176L6.52812 5.75157Z" fill="white"/>
<path d="M10.2688 5.75093L9.7918 5.38537L9.31542 5.75158L9.49884 5.16176L9.02051 4.79815L9.61097 4.79945L9.7918 4.20898L9.97329 4.79945L10.5637 4.79815L10.0854 5.16176L10.2688 5.75093Z" fill="white"/>
<path d="M8.40068 4.36421L7.92364 3.99865L7.44725 4.36486L7.63068 3.77504L7.15234 3.41143L7.74281 3.41273L7.92364 2.82227L8.10512 3.41273L8.69558 3.41143L8.21725 3.77504L8.40068 4.36421Z" fill="white"/>
<path d="M7.22831 7.97358L6.75128 7.60803L6.27489 7.97423L6.45831 7.38442L5.97998 7.02081L6.57044 7.0221L6.75128 6.43164L6.93276 7.0221L7.52322 7.02081L7.04489 7.38442L7.22831 7.97358Z" fill="white"/>
<path d="M9.56913 7.97358L9.0921 7.60803L8.61571 7.97423L8.79913 7.38442L8.3208 7.02081L8.91126 7.0221L9.0921 6.43164L9.27358 7.0221L9.86404 7.02081L9.38571 7.38442L9.56913 7.97358Z" fill="white"/>
</svg>
