<svg width="24" height="24" viewBox="0 0 24 24" fill="none" xmlns="http://www.w3.org/2000/svg">
<path d="M12 3.75C10.22 3.75 8.47991 4.27784 6.99987 5.26677C5.51983 6.25571 4.36628 7.66131 3.68509 9.30585C3.0039 10.9504 2.82567 12.76 3.17294 14.5058C3.5202 16.2516 4.37737 17.8553 5.63604 19.114C6.89472 20.3726 8.49836 21.2298 10.2442 21.5771C11.99 21.9243 13.7996 21.7461 15.4442 21.0649C17.0887 20.3837 18.4943 19.2302 19.4832 17.7501C20.4722 16.2701 21 14.53 21 12.75C20.9973 10.3639 20.0482 8.07629 18.361 6.38905C16.6737 4.70182 14.3861 3.75273 12 3.75ZM12 20.25C10.5166 20.25 9.0666 19.8101 7.83323 18.986C6.59986 18.1619 5.63856 16.9906 5.07091 15.6201C4.50325 14.2497 4.35473 12.7417 4.64411 11.2868C4.9335 9.83196 5.64781 8.49559 6.6967 7.4467C7.7456 6.39781 9.08197 5.6835 10.5368 5.39411C11.9917 5.10472 13.4997 5.25325 14.8701 5.8209C16.2406 6.38856 17.4119 7.34985 18.236 8.58322C19.0601 9.81659 19.5 11.2666 19.5 12.75C19.4978 14.7384 18.7069 16.6448 17.3008 18.0508C15.8948 19.4569 13.9884 20.2478 12 20.25ZM9 1.5C9 1.30109 9.07902 1.11032 9.21967 0.96967C9.36033 0.829018 9.55109 0.75 9.75 0.75H14.25C14.4489 0.75 14.6397 0.829018 14.7803 0.96967C14.921 1.11032 15 1.30109 15 1.5C15 1.69891 14.921 1.88968 14.7803 2.03033C14.6397 2.17098 14.4489 2.25 14.25 2.25H9.75C9.55109 2.25 9.36033 2.17098 9.21967 2.03033C9.07902 1.88968 9 1.69891 9 1.5Z" fill="white" fill-opacity="0.8"/>
<path d="M12 17.6499C9.23858 17.6499 7 15.4113 7 12.6499C7 9.88848 9.23858 7.6499 12 7.6499V17.6499Z" fill="white" fill-opacity="0.8"/>
</svg>
