<svg width="40" height="24" viewBox="0 0 40 24" fill="none" xmlns="http://www.w3.org/2000/svg">
<rect x="16" width="24" height="24" rx="12" fill="white"/>
<circle cx="28" cy="12" r="7.25" stroke="#181818" stroke-width="1.5"/>
<circle cx="28" cy="12" r="4" fill="#181818"/>
<circle cx="12" cy="12" r="12" fill="#F2A900"/>
<path d="M15.902 9.99859C15.7692 8.61796 14.5774 8.15528 13.0714 8.02332V6.10742H11.906V7.97218C11.6001 7.97218 11.2866 7.97796 10.9757 7.98455V6.10742H9.81035L9.80952 8.02167C9.55715 8.02662 9.3089 8.03156 9.06725 8.03156V8.02579L7.45981 8.02497V9.27034C7.45981 9.27034 8.32085 9.25384 8.306 9.26951C8.77858 9.26951 8.93199 9.54333 8.97652 9.78003V11.9623C9.00951 11.9623 9.05158 11.964 9.09941 11.9706H8.97652L8.9757 15.0279C8.95508 15.1764 8.86766 15.4131 8.53776 15.4139C8.5526 15.4271 7.69074 15.4139 7.69074 15.4139L7.45898 16.8061H8.97652C9.25859 16.8061 9.53653 16.811 9.8087 16.8127L9.80952 18.75H10.9741V16.8333C11.2932 16.8399 11.6025 16.8424 11.9052 16.8424L11.9044 18.75H13.0698V16.8168C15.0294 16.7046 16.4026 16.2106 16.5725 14.3698C16.7102 12.8877 16.0133 12.2254 14.9007 11.9582C15.5778 11.6151 16.0009 11.0089 15.902 9.99859ZM14.2706 14.1405C14.2706 15.5879 11.7922 15.4238 11.0013 15.4238V12.8564C11.7922 12.858 14.2706 12.6312 14.2706 14.1405ZM13.7279 10.519C13.7279 11.8361 11.6594 11.6819 11.0013 11.6827V9.35529C11.6603 9.35529 13.7287 9.1458 13.7279 10.519Z" fill="white"/>
<path d="M15.902 9.99859C15.7692 8.61796 14.5774 8.15528 13.0714 8.02332V6.10742H11.906V7.97218C11.6001 7.97218 11.2866 7.97796 10.9757 7.98455V6.10742H9.81035L9.80952 8.02167C9.55715 8.02662 9.3089 8.03156 9.06725 8.03156V8.02579L7.45981 8.02497V9.27034C7.45981 9.27034 8.32085 9.25384 8.306 9.26951C8.77858 9.26951 8.93199 9.54333 8.97652 9.78003V11.9623C9.00951 11.9623 9.05158 11.964 9.09941 11.9706H8.97652L8.9757 15.0279C8.95508 15.1764 8.86766 15.4131 8.53776 15.4139C8.5526 15.4271 7.69074 15.4139 7.69074 15.4139L7.45898 16.8061H8.97652C9.25859 16.8061 9.53653 16.811 9.8087 16.8127L9.80952 18.75H10.9741V16.8333C11.2932 16.8399 11.6025 16.8424 11.9052 16.8424L11.9044 18.75H13.0698V16.8168C15.0294 16.7046 16.4026 16.2106 16.5725 14.3698C16.7102 12.8877 16.0133 12.2254 14.9007 11.9582C15.5778 11.6151 16.0009 11.0089 15.902 9.99859ZM14.2706 14.1405C14.2706 15.5879 11.7922 15.4238 11.0013 15.4238V12.8564C11.7922 12.858 14.2706 12.6312 14.2706 14.1405ZM13.7279 10.519C13.7279 11.8361 11.6594 11.6819 11.0013 11.6827V9.35529C11.6603 9.35529 13.7287 9.1458 13.7279 10.519Z" fill="white"/>
</svg>
