<svg width="160" height="37" viewBox="0 0 160 37" fill="none" xmlns="http://www.w3.org/2000/svg">
<rect x="1" y="1" width="32" height="35" rx="4" stroke="white" stroke-width="1.5"/>
<circle cx="6" cy="6" r="1" fill="white"/>
<circle cx="9.5" cy="6" r="1" fill="white"/>
<circle cx="13" cy="6" r="1" fill="white"/>
<circle cx="45.5" cy="18.5" r="1.5" fill="white"/>
<circle cx="52.5" cy="18.5" r="1.5" fill="white" fill-opacity="0.2"/>
<circle cx="59.5" cy="18.5" r="1.5" fill="white" fill-opacity="0.2"/>
<circle cx="100.5" cy="18.5" r="1.5" fill="white" fill-opacity="0.2"/>
<circle cx="107.5" cy="18.5" r="1.5" fill="white" fill-opacity="0.2"/>
<circle cx="114.5" cy="18.5" r="1.5" fill="white" fill-opacity="0.2"/>
<path d="M137 1L127 1V31C127 33.7614 129.239 36 132 36C134.761 36 137 33.7614 137 31V1Z" fill="#12151E" stroke="white" stroke-width="1.5"/>
<path d="M159 36L159 26L132 26C129.239 26 127 28.2386 127 31C127 33.7614 129.239 36 132 36L159 36Z" fill="#12151E" stroke="white" stroke-width="1.5"/>
<circle cx="1.5" cy="1.5" r="1.5" transform="matrix(-1 0 0 1 133.5 29.5)" fill="white"/>
<circle cx="80" cy="18" r="14" fill="#FC6432"/>
<path d="M86.7321 18.891V20.5121H82.647L85.4446 24.7319H83.3317L79.9666 19.6402L76.6132 24.7319H74.5003L77.2921 20.5121H73.2715V18.8794H86.7321V18.891Z" fill="white"/>
<path d="M86.7321 17.1133V15.4922H82.647L85.4446 11.2724H83.3317L79.9666 16.3642L76.6132 11.2724H74.5003L77.2921 15.4922H73.2715V17.125H86.7321V17.1133Z" fill="white"/>
<path d="M86.7321 17.1133V15.4922H82.647L85.4446 11.2724H83.3317L79.9666 16.3642L76.6132 11.2724H74.5003L77.2921 15.4922H73.2715V17.125H86.7321V17.1133Z" fill="url(#paint0_linear_7188_55937)"/>
<defs>
<linearGradient id="paint0_linear_7188_55937" x1="73.2715" y1="14.1862" x2="86.7321" y2="14.1862" gradientUnits="userSpaceOnUse">
<stop stop-color="white"/>
<stop offset="1" stop-color="white"/>
</linearGradient>
</defs>
</svg>
