<svg width="360" height="161" viewBox="0 0 360 161" fill="none" xmlns="http://www.w3.org/2000/svg">
<g clip-path="url(#clip0_303_165)">
<ellipse cx="178.692" cy="137.603" rx="1.32" ry="1.31999" transform="rotate(-180 178.692 137.603)" fill="#303354"/>
<ellipse cx="178.692" cy="105.575" rx="1.32" ry="1.31999" transform="rotate(-180 178.692 105.575)" fill="#303354"/>
<ellipse cx="162.68" cy="137.603" rx="1.32" ry="1.31999" transform="rotate(-180 162.68 137.603)" fill="#303354"/>
<ellipse cx="162.68" cy="105.575" rx="1.32" ry="1.31999" transform="rotate(-180 162.68 105.575)" fill="#303354"/>
<ellipse cx="178.692" cy="137.603" rx="1.32" ry="1.31999" transform="rotate(-180 178.692 137.603)" fill="#303354"/>
<ellipse cx="178.692" cy="105.575" rx="1.32" ry="1.31999" transform="rotate(-180 178.692 105.575)" fill="#303354"/>
<ellipse cx="146.665" cy="137.603" rx="1.32" ry="1.31999" transform="rotate(-180 146.665 137.603)" fill="#303354"/>
<ellipse cx="146.665" cy="105.575" rx="1.32" ry="1.31999" transform="rotate(-180 146.665 105.575)" fill="#303354"/>
<ellipse cx="130.651" cy="137.603" rx="1.32" ry="1.31999" transform="rotate(-180 130.651 137.603)" fill="#303354"/>
<ellipse cx="130.651" cy="105.575" rx="1.32" ry="1.31999" transform="rotate(-180 130.651 105.575)" fill="#303354"/>
<ellipse cx="114.639" cy="137.603" rx="1.32" ry="1.31999" transform="rotate(-180 114.639 137.603)" fill="#303354"/>
<ellipse cx="114.639" cy="105.575" rx="1.32" ry="1.31999" transform="rotate(-180 114.639 105.575)" fill="#303354"/>
<ellipse cx="130.651" cy="137.603" rx="1.32" ry="1.31999" transform="rotate(-180 130.651 137.603)" fill="#303354"/>
<ellipse cx="130.651" cy="105.575" rx="1.32" ry="1.31999" transform="rotate(-180 130.651 105.575)" fill="#303354"/>
<ellipse cx="98.6243" cy="137.603" rx="1.32" ry="1.31999" transform="rotate(-180 98.6243 137.603)" fill="#303354"/>
<ellipse cx="98.6243" cy="105.575" rx="1.32" ry="1.31999" transform="rotate(-180 98.6243 105.575)" fill="#303354"/>
<ellipse cx="114.639" cy="137.603" rx="1.32" ry="1.31999" transform="rotate(-180 114.639 137.603)" fill="#303354"/>
<ellipse cx="114.639" cy="105.575" rx="1.32" ry="1.31999" transform="rotate(-180 114.639 105.575)" fill="#303354"/>
<ellipse cx="82.61" cy="137.603" rx="1.32" ry="1.31999" transform="rotate(-180 82.61 137.603)" fill="#303354"/>
<ellipse cx="194.707" cy="121.589" rx="1.32" ry="1.31999" transform="rotate(-180 194.707 121.589)" fill="#303354"/>
<ellipse cx="178.692" cy="121.589" rx="1.32" ry="1.31999" transform="rotate(-180 178.692 121.589)" fill="#303354"/>
<ellipse cx="194.707" cy="121.589" rx="1.32" ry="1.31999" transform="rotate(-180 194.707 121.589)" fill="#303354"/>
<ellipse cx="162.68" cy="121.589" rx="1.32" ry="1.31999" transform="rotate(-180 162.68 121.589)" fill="#303354"/>
<ellipse cx="162.68" cy="89.5621" rx="1.32" ry="1.31999" transform="rotate(-180 162.68 89.5621)" fill="#303354"/>
<ellipse cx="178.692" cy="121.589" rx="1.32" ry="1.31999" transform="rotate(-180 178.692 121.589)" fill="#303354"/>
<ellipse cx="146.665" cy="121.589" rx="1.32" ry="1.31999" transform="rotate(-180 146.665 121.589)" fill="#303354"/>
<ellipse cx="146.665" cy="89.5621" rx="1.32" ry="1.31999" transform="rotate(-180 146.665 89.5621)" fill="#303354"/>
<ellipse cx="130.651" cy="121.589" rx="1.32" ry="1.31999" transform="rotate(-180 130.651 121.589)" fill="#303354"/>
<ellipse cx="130.651" cy="89.5618" rx="1.32" ry="1.31999" transform="rotate(-180 130.651 89.5618)" fill="#303354"/>
<ellipse cx="114.639" cy="121.589" rx="1.32" ry="1.31999" transform="rotate(-180 114.639 121.589)" fill="#303354"/>
<ellipse cx="114.639" cy="89.5621" rx="1.32" ry="1.31999" transform="rotate(-180 114.639 89.5621)" fill="#303354"/>
<ellipse cx="130.651" cy="121.589" rx="1.32" ry="1.31999" transform="rotate(-180 130.651 121.589)" fill="#303354"/>
<ellipse cx="130.651" cy="89.5618" rx="1.32" ry="1.31999" transform="rotate(-180 130.651 89.5618)" fill="#303354"/>
<ellipse cx="98.6243" cy="121.589" rx="1.32" ry="1.31999" transform="rotate(-180 98.6243 121.589)" fill="#303354"/>
<ellipse cx="114.639" cy="121.589" rx="1.32" ry="1.31999" transform="rotate(-180 114.639 121.589)" fill="#303354"/>
<ellipse cx="114.639" cy="89.5621" rx="1.32" ry="1.31999" transform="rotate(-180 114.639 89.5621)" fill="#303354"/>
<ellipse cx="82.61" cy="121.589" rx="1.32" ry="1.31999" transform="rotate(-180 82.61 121.589)" fill="#303354"/>
<ellipse cx="213.357" cy="0.984056" rx="1.32" ry="1.31999" fill="#303354"/>
<ellipse cx="213.357" cy="34.3967" rx="1.32" ry="1.31999" fill="#303354"/>
<ellipse cx="230.062" cy="0.984056" rx="1.32" ry="1.31999" fill="#303354"/>
<ellipse cx="230.062" cy="34.3967" rx="1.32" ry="1.31999" fill="#303354"/>
<ellipse cx="213.357" cy="0.984056" rx="1.32" ry="1.31999" fill="#303354"/>
<ellipse cx="213.357" cy="34.3967" rx="1.32" ry="1.31999" fill="#303354"/>
<ellipse cx="246.769" cy="0.984056" rx="1.32" ry="1.31999" fill="#303354"/>
<ellipse cx="246.769" cy="34.3967" rx="1.32" ry="1.31999" fill="#303354"/>
<ellipse cx="263.474" cy="0.984056" rx="1.32" ry="1.31999" fill="#303354"/>
<ellipse cx="263.474" cy="34.3967" rx="1.32" ry="1.31999" fill="#303354"/>
<ellipse cx="280.181" cy="0.984056" rx="1.32" ry="1.31999" fill="#303354"/>
<ellipse cx="280.181" cy="34.3967" rx="1.32" ry="1.31999" fill="#303354"/>
<ellipse cx="263.474" cy="0.984056" rx="1.32" ry="1.31999" fill="#303354"/>
<ellipse cx="263.474" cy="34.3967" rx="1.32" ry="1.31999" fill="#303354"/>
<ellipse cx="296.888" cy="0.984056" rx="1.32" ry="1.31999" fill="#303354"/>
<ellipse cx="296.888" cy="34.3967" rx="1.32" ry="1.31999" fill="#303354"/>
<ellipse cx="280.181" cy="0.984056" rx="1.32" ry="1.31999" fill="#303354"/>
<ellipse cx="280.181" cy="34.3967" rx="1.32" ry="1.31999" fill="#303354"/>
<ellipse cx="313.592" cy="34.3967" rx="1.32" ry="1.31999" fill="#303354"/>
<ellipse cx="196.651" cy="17.6899" rx="1.32" ry="1.31999" fill="#303354"/>
<ellipse cx="213.357" cy="17.6899" rx="1.32" ry="1.31999" fill="#303354"/>
<ellipse cx="196.651" cy="17.6899" rx="1.32" ry="1.31999" fill="#303354"/>
<ellipse cx="230.062" cy="17.6899" rx="1.32" ry="1.31999" fill="#303354"/>
<ellipse cx="230.062" cy="51.1025" rx="1.32" ry="1.31999" fill="#303354"/>
<ellipse cx="213.357" cy="17.6899" rx="1.32" ry="1.31999" fill="#303354"/>
<ellipse cx="246.769" cy="17.6899" rx="1.32" ry="1.31999" fill="#303354"/>
<ellipse cx="246.769" cy="51.1025" rx="1.32" ry="1.31999" fill="#303354"/>
<ellipse cx="263.474" cy="17.6899" rx="1.32" ry="1.31999" fill="#303354"/>
<ellipse cx="263.474" cy="51.1025" rx="1.32" ry="1.31999" fill="#303354"/>
<ellipse cx="280.181" cy="17.6899" rx="1.32" ry="1.31999" fill="#303354"/>
<ellipse cx="280.181" cy="51.1025" rx="1.32" ry="1.31999" fill="#303354"/>
<ellipse cx="263.474" cy="17.6899" rx="1.32" ry="1.31999" fill="#303354"/>
<ellipse cx="263.474" cy="51.1025" rx="1.32" ry="1.31999" fill="#303354"/>
<ellipse cx="296.888" cy="17.6899" rx="1.32" ry="1.31999" fill="#303354"/>
<ellipse cx="296.887" cy="51.1025" rx="1.32" ry="1.31999" fill="#303354"/>
<ellipse cx="280.181" cy="17.6899" rx="1.32" ry="1.31999" fill="#303354"/>
<ellipse cx="280.181" cy="51.1025" rx="1.32" ry="1.31999" fill="#303354"/>
<ellipse cx="313.592" cy="17.6899" rx="1.32" ry="1.31999" fill="#303354"/>
<ellipse cx="313.592" cy="51.1025" rx="1.32" ry="1.31999" fill="#303354"/>
<path d="M130.35 91.4041C126.705 91.4041 123.75 88.4491 123.75 84.8041L123.75 49.1643C123.75 45.5192 126.705 42.5643 130.35 42.5643L237.93 42.5643C251.417 42.5643 262.35 53.4974 262.35 66.9842V66.9842C262.35 80.4709 251.417 91.404 237.93 91.404L130.35 91.4041Z" fill="url(#paint0_linear_303_165)"/>
<rect x="134.97" y="53.5642" width="51.7" height="26.4" rx="2.2" fill="url(#paint1_linear_303_165)"/>
<path d="M179.565 159.877C178.019 161.424 175.511 161.424 173.965 159.877L145.03 130.942C143.484 129.396 143.484 126.889 145.03 125.342L221.101 49.272C230.637 39.7355 246.099 39.7355 255.636 49.272V49.272C265.172 58.8086 265.172 74.2704 255.636 83.807L179.565 159.877Z" fill="url(#paint2_linear_303_165)"/>
<path d="M106.762 67.644H-66.3301" stroke="#454A7B" stroke-width="5.27999"/>
<path d="M102.63 67.6441C102.63 63.27 106.176 59.7241 110.55 59.7241H121.11V75.564H110.55C106.176 75.564 102.63 72.0182 102.63 67.6441V67.6441Z" fill="#454A7B"/>
<path d="M252.01 66.1049C252.01 73.6381 245.903 79.7449 238.37 79.7449C230.837 79.7449 224.73 73.6381 224.73 66.1049C224.73 58.5718 230.837 52.4649 238.37 52.4649C245.903 52.4649 252.01 58.5718 252.01 66.1049Z" stroke="#303354" stroke-width="1.32"/>
<g opacity="0.25">
<line x1="162.859" y1="125.931" x2="178.415" y2="141.488" stroke="#120D32" stroke-width="1.1"/>
<line x1="170.637" y1="118.153" x2="186.193" y2="133.71" stroke="#120D32" stroke-width="1.1"/>
<line x1="178.415" y1="110.375" x2="193.971" y2="125.931" stroke="#120D32" stroke-width="1.1"/>
</g>
<path d="M115.17 22.764L110.382 23.6731C108.25 24.0777 106.584 25.7445 106.179 27.8755L105.27 32.6639L104.361 27.8755C103.956 25.7445 102.289 24.0777 100.158 23.6731L95.3699 22.764L100.158 21.8549C102.289 21.4503 103.956 19.7835 104.361 17.6524L105.27 12.864L106.179 17.6524C106.584 19.7835 108.25 21.4503 110.382 21.8549L115.17 22.764Z" fill="white"/>
<path d="M137.94 31.2341L131.35 40.9124C130.129 42.7054 130.129 45.0626 131.35 46.8556L137.94 56.5338L128.262 49.9441C126.469 48.7233 124.111 48.7233 122.318 49.9441L112.64 56.5338L119.23 46.8556C120.451 45.0626 120.451 42.7054 119.23 40.9124L112.64 31.2341L122.318 37.8238C124.111 39.0446 126.469 39.0446 128.262 37.8238L137.94 31.2341Z" fill="white"/>
</g>
<defs>
<linearGradient id="paint0_linear_303_165" x1="123.97" y1="42.5642" x2="258.17" y2="99.7642" gradientUnits="userSpaceOnUse">
<stop stop-color="#4C5187"/>
<stop offset="1" stop-color="#262947"/>
</linearGradient>
<linearGradient id="paint1_linear_303_165" x1="134.97" y1="48.0642" x2="186.67" y2="79.9642" gradientUnits="userSpaceOnUse">
<stop stop-color="#212532"/>
<stop offset="1"/>
</linearGradient>
<linearGradient id="paint2_linear_303_165" x1="251.57" y1="33.7641" x2="171.27" y2="161.364" gradientUnits="userSpaceOnUse">
<stop stop-color="white"/>
<stop offset="1" stop-color="#A9ABC0"/>
</linearGradient>
<clipPath id="clip0_303_165">
<rect width="360" height="161" fill="white"/>
</clipPath>
</defs>
</svg>
