<svg width="56" height="56" viewBox="0 0 56 56" fill="none" xmlns="http://www.w3.org/2000/svg">
<g clip-path="url(#clip0_23340_40043)">
<rect width="56" height="56" rx="12" fill="#0C0C0C"/>
<rect x="-3" y="-3" width="62" height="62" fill="#2A2F39"/>
<path d="M38.7075 22.2925L31.7075 15.2925C31.6146 15.1997 31.5042 15.1261 31.3829 15.0759C31.2615 15.0257 31.1314 14.9999 31 15H19C18.4696 15 17.9609 15.2107 17.5858 15.5858C17.2107 15.9609 17 16.4696 17 17V39C17 39.5304 17.2107 40.0391 17.5858 40.4142C17.9609 40.7893 18.4696 41 19 41H37C37.5304 41 38.0391 40.7893 38.4142 40.4142C38.7893 40.0391 39 39.5304 39 39V23C39.0001 22.8686 38.9743 22.7385 38.9241 22.6172C38.8739 22.4958 38.8003 22.3854 38.7075 22.2925ZM31.7075 32.7075L28.7075 35.7075C28.6146 35.8005 28.5043 35.8742 28.3829 35.9246C28.2615 35.9749 28.1314 36.0008 28 36.0008C27.8686 36.0008 27.7385 35.9749 27.6171 35.9246C27.4957 35.8742 27.3854 35.8005 27.2925 35.7075L24.2925 32.7075C24.1049 32.5199 23.9994 32.2654 23.9994 32C23.9994 31.7346 24.1049 31.4801 24.2925 31.2925C24.4801 31.1049 24.7346 30.9994 25 30.9994C25.2654 30.9994 25.5199 31.1049 25.7075 31.2925L27 32.5863V27C27 26.7348 27.1054 26.4804 27.2929 26.2929C27.4804 26.1054 27.7348 26 28 26C28.2652 26 28.5196 26.1054 28.7071 26.2929C28.8946 26.4804 29 26.7348 29 27V32.5863L30.2925 31.2925C30.4801 31.1049 30.7346 30.9994 31 30.9994C31.2654 30.9994 31.5199 31.1049 31.7075 31.2925C31.8951 31.4801 32.0006 31.7346 32.0006 32C32.0006 32.2654 31.8951 32.5199 31.7075 32.7075ZM31 23V17.5L36.5 23H31Z" fill="white" fill-opacity="0.8"/>
</g>
<defs>
<clipPath id="clip0_23340_40043">
<rect width="56" height="56" rx="12" fill="white"/>
</clipPath>
</defs>
</svg>
