<svg width="40" height="40" viewBox="0 0 40 40" fill="none" xmlns="http://www.w3.org/2000/svg">
<rect width="40" height="40" rx="8.57143" fill="#0C0C0C"/>
<g clip-path="url(#clip0_20627_27328)">
<path d="M29.2762 28.9761V25.5812C29.2762 25.4466 29.2226 25.3182 29.1272 25.2228L14.6822 10.7778C14.5869 10.6824 14.4585 10.6289 14.3238 10.6289H10.929C10.7614 10.6289 10.625 10.7653 10.625 10.9329V14.0871C10.625 14.2217 10.6785 14.35 10.7739 14.4454L15.9589 19.6304C16.0774 19.749 16.0774 19.9416 15.9589 20.0601L10.7142 25.3049C10.6571 25.3619 10.625 25.4395 10.625 25.5197V28.9761C10.625 29.1436 10.7614 29.2801 10.929 29.2801H16.6016C16.7692 29.2801 16.9056 29.1436 16.9056 28.9761V26.9399C16.9056 26.8596 16.9377 26.7821 16.9948 26.725L19.8084 23.9114C19.927 23.7929 20.1195 23.7929 20.2381 23.9114L25.4588 29.1321C25.5542 29.2275 25.6825 29.2811 25.8171 29.2811H28.9712C29.1389 29.2811 29.2752 29.1445 29.2752 28.9771L29.2762 28.9761Z" fill="white"/>
<path d="M21.7091 15.1228H24.5504C24.7189 15.1228 24.8561 15.2601 24.8561 15.4286V18.2698C24.8561 18.5426 25.186 18.679 25.3786 18.4855L29.2762 14.5816C29.3332 14.5246 29.3654 14.447 29.3654 14.3659V10.947C29.3654 10.7785 29.2289 10.6412 29.0596 10.6412L25.5899 10.6367C25.5087 10.6367 25.4312 10.6688 25.3732 10.7259L21.4925 14.6004C21.2999 14.7929 21.4363 15.1228 21.7082 15.1228H21.7091Z" fill="#EE7A30"/>
</g>
<defs>
<clipPath id="clip0_20627_27328">
<rect width="18.75" height="18.75" fill="white" transform="translate(10.625 10.6211)"/>
</clipPath>
</defs>
</svg>
