<svg width="17" height="16" viewBox="0 0 17 16" fill="none" xmlns="http://www.w3.org/2000/svg">
<path d="M14.5306 8.52927L10.0306 13.0293C9.88973 13.1702 9.69863 13.2493 9.49938 13.2493C9.30012 13.2493 9.10902 13.1702 8.96813 13.0293C8.82723 12.8884 8.74807 12.6973 8.74807 12.498C8.74807 12.2988 8.82723 12.1077 8.96813 11.9668L12.1875 8.74864H3C2.80109 8.74864 2.61032 8.66963 2.46967 8.52897C2.32902 8.38832 2.25 8.19756 2.25 7.99864C2.25 7.79973 2.32902 7.60897 2.46967 7.46831C2.61032 7.32766 2.80109 7.24864 3 7.24864H12.1875L8.96937 4.02864C8.82848 3.88775 8.74932 3.69665 8.74932 3.49739C8.74932 3.29814 8.82848 3.10704 8.96937 2.96614C9.11027 2.82525 9.30137 2.74609 9.50062 2.74609C9.69988 2.74609 9.89098 2.82525 10.0319 2.96614L14.5319 7.46614C14.6018 7.53592 14.6573 7.61881 14.6951 7.71008C14.7329 7.80135 14.7523 7.89918 14.7522 7.99797C14.752 8.09675 14.7324 8.19454 14.6944 8.28572C14.6564 8.37689 14.6007 8.45966 14.5306 8.52927Z" fill="white"/>
</svg>
