<svg fill="none" height="36" viewBox="0 0 36 36" width="36" xmlns="http://www.w3.org/2000/svg"><g fill="#f3ba2f"><path d="m11.0088 15.1275 6.9912-6.99098 6.9949 6.99468 4.068-4.068-11.0629-11.0632-11.0592 11.0595z"/><path d="m8.13602 17.9995-4.0679-4.0679-4.06811126 4.0681 4.06790126 4.068z"/><path d="m11.0088 20.8726 6.9912 6.9909 6.9946-6.9944 4.0703 4.0657-.002.0023-11.0629 11.0629-11.0595-11.0592-.00569-.0057z"/><path d="m31.9324 22.0696 4.0681-4.0681-4.0679-4.0679-4.0681 4.0681z"/><path d="m22.1263 17.9976h.0017l-4.1279-4.128-3.0506 3.0507h-.0003l-.3503.3505-.7231.7231-.0057.0057.0057.006 4.1243 4.1242 4.1279-4.1279.002-.0023z"/></g></svg>