<svg width="36" height="36" viewBox="0 0 36 36" fill="none" xmlns="http://www.w3.org/2000/svg">
<path d="M11.0088 15.1275L18 8.13652L24.9949 15.1312L29.0629 11.0632L18 0L6.9408 11.0595L11.0088 15.1275Z" fill="#F3BA2F"/>
<path d="M8.13602 17.9995L4.06812 13.9316L8.74315e-06 17.9997L4.06791 22.0677L8.13602 17.9995Z" fill="#F3BA2F"/>
<path d="M11.0088 20.8726L18 27.8635L24.9946 20.8691L29.0649 24.9348L29.0629 24.9371L18 36L6.9405 24.9408L6.93481 24.9351L11.0088 20.8726Z" fill="#F3BA2F"/>
<path d="M31.9324 22.0696L36.0005 18.0015L31.9326 13.9336L27.8645 18.0017L31.9324 22.0696Z" fill="#F3BA2F"/>
<path d="M22.1263 17.9976H22.128L18.0001 13.8696L14.9495 16.9203H14.9492L14.5989 17.2708L13.8758 17.9939L13.8701 17.9996L13.8758 18.0056L18.0001 22.1298L22.128 18.0019L22.13 17.9996L22.1263 17.9976Z" fill="#F3BA2F"/>
</svg>
