<svg fill="none" height="24" viewBox="0 0 24 24" width="24" xmlns="http://www.w3.org/2000/svg"><circle cx="12" cy="12" fill="#f2a900" r="12"/><g fill="#fff"><path d="m16.6171 9.41654c-.1575-1.63807-1.5715-2.18703-3.3583-2.34359v-2.27315h-1.3827v2.21248c-.363 0-.7349.00685-1.1038.01468v-2.22716h-1.38263l-.00098 2.27119c-.29944.00587-.59398.01174-.88069.01174v-.00685l-1.90717-.00098v1.4776s1.0216-.01958 1.00398-.00098c.5607 0 .74271.32487.79555.60571v2.58917c.03914 0 .08905.002.14581.0098h-.14581l-.00097 3.6275c-.02447.1761-.12819.4569-.51961.4579.01761.0157-1.00496 0-1.00496 0l-.27497 1.6518h1.80051c.33466 0 .66443.0059.98735.0078l.00098 2.2986h1.38171v-2.2741c.3787.0078.7456.0107 1.1048.0107l-.001 2.2634h1.3826v-2.2937c2.3251-.1331 3.9543-.7192 4.1559-2.9033.1634-1.7584-.6635-2.5442-1.9835-2.8613.8034-.407 1.3054-1.1262 1.1879-2.32496zm-1.9355 4.91426c0 1.7173-2.9405 1.5226-3.8789 1.5226v-3.0462c.9384.0019 3.8789-.2672 3.8789 1.5236zm-.6439-4.2968c0 1.5627-2.4542 1.3797-3.235 1.3807v-2.76142c.7818 0 3.236-.24854 3.235 1.38072z"/><path d="m16.6171 9.41654c-.1575-1.63807-1.5715-2.18703-3.3583-2.34359v-2.27315h-1.3827v2.21248c-.363 0-.7349.00685-1.1038.01468v-2.22716h-1.38263l-.00098 2.27119c-.29944.00587-.59398.01174-.88069.01174v-.00685l-1.90717-.00098v1.4776s1.0216-.01958 1.00398-.00098c.5607 0 .74271.32487.79555.60571v2.58917c.03914 0 .08905.002.14581.0098h-.14581l-.00097 3.6275c-.02447.1761-.12819.4569-.51961.4579.01761.0157-1.00496 0-1.00496 0l-.27497 1.6518h1.80051c.33466 0 .66443.0059.98735.0078l.00098 2.2986h1.38171v-2.2741c.3787.0078.7456.0107 1.1048.0107l-.001 2.2634h1.3826v-2.2937c2.3251-.1331 3.9543-.7192 4.1559-2.9033.1634-1.7584-.6635-2.5442-1.9835-2.8613.8034-.407 1.3054-1.1262 1.1879-2.32496zm-1.9355 4.91426c0 1.7173-2.9405 1.5226-3.8789 1.5226v-3.0462c.9384.0019 3.8789-.2672 3.8789 1.5236zm-.6439-4.2968c0 1.5627-2.4542 1.3797-3.235 1.3807v-2.76142c.7818 0 3.236-.24854 3.235 1.38072z"/></g></svg>