<svg fill="none" height="32" viewBox="0 0 32 32" width="32" xmlns="http://www.w3.org/2000/svg"><circle cx="16" cy="16" fill="#f2a900" r="16"/><g fill="#fff"><path d="m21.2026 13.3308c-.177-1.8408-1.7661-2.4577-3.7741-2.6337v-2.55452h-1.5538v2.48632c-.408 0-.8258.0077-1.2404.0165v-2.50282h-1.5538l-.0011 2.55232c-.3365.0066-.6675.0132-.9897.0132v-.0077l-2.14329-.0011v1.6605s1.14809-.022 1.12829-.0011c.6301 0 .8346.3651.894.6807v2.9097c.044 0 .1001.0022.1639.011h-.1639l-.0011 4.0765c-.0275.1979-.1441.5135-.5839.5146.0198.0176-1.1294 0-1.1294 0l-.30899 1.8563h2.02339c.3761 0 .7467.0066 1.1096.0088l.0011 2.5831h1.5527v-2.5557c.4256.0088.8379.0121 1.2415.0121l-.0011 2.5436h1.5538v-2.5776c2.6129-.1496 4.4438-.8083 4.6703-3.2628.1837-1.9761-.7455-2.8591-2.229-3.2154.9028-.4574 1.467-1.2657 1.335-2.6128zm-2.1751 5.5225c0 1.93-3.3045 1.7111-4.3591 1.7111v-3.4232c1.0546.0022 4.3591-.3003 4.3591 1.7121zm-.7236-4.8286c0 1.7562-2.758 1.5505-3.6355 1.5516v-3.1032c.8786 0 3.6366-.2793 3.6355 1.5516z"/><path d="m21.2026 13.3308c-.177-1.8408-1.7661-2.4577-3.7741-2.6337v-2.55452h-1.5538v2.48632c-.408 0-.8258.0077-1.2404.0165v-2.50282h-1.5538l-.0011 2.55232c-.3365.0066-.6675.0132-.9897.0132v-.0077l-2.14329-.0011v1.6605s1.14809-.022 1.12829-.0011c.6301 0 .8346.3651.894.6807v2.9097c.044 0 .1001.0022.1639.011h-.1639l-.0011 4.0765c-.0275.1979-.1441.5135-.5839.5146.0198.0176-1.1294 0-1.1294 0l-.30899 1.8563h2.02339c.3761 0 .7467.0066 1.1096.0088l.0011 2.5831h1.5527v-2.5557c.4256.0088.8379.0121 1.2415.0121l-.0011 2.5436h1.5538v-2.5776c2.6129-.1496 4.4438-.8083 4.6703-3.2628.1837-1.9761-.7455-2.8591-2.229-3.2154.9028-.4574 1.467-1.2657 1.335-2.6128zm-2.1751 5.5225c0 1.93-3.3045 1.7111-4.3591 1.7111v-3.4232c1.0546.0022 4.3591-.3003 4.3591 1.7121zm-.7236-4.8286c0 1.7562-2.758 1.5505-3.6355 1.5516v-3.1032c.8786 0 3.6366-.2793 3.6355 1.5516z"/></g></svg>