<svg width="32" height="33" viewBox="0 0 32 33" fill="none" xmlns="http://www.w3.org/2000/svg">
<path d="M0 15.3C0 8.91723 0 5.72584 1.71746 3.54725C2.1069 3.05325 2.55325 2.6069 3.04725 2.21746C5.22584 0.5 8.41723 0.5 14.8 0.5H17.2C23.5828 0.5 26.7742 0.5 28.9528 2.21746C29.4468 2.6069 29.8931 3.05325 30.2825 3.54725C32 5.72584 32 8.91723 32 15.3V17.7C32 24.0828 32 27.2742 30.2825 29.4528C29.8931 29.9468 29.4468 30.3931 28.9528 30.7825C26.7742 32.5 23.5828 32.5 17.2 32.5H14.8C8.41723 32.5 5.22584 32.5 3.04725 30.7825C2.55325 30.3931 2.1069 29.9468 1.71746 29.4528C0 27.2742 0 24.0828 0 17.7V15.3Z" fill="#F2A900"/>
<path d="M22.1567 13.0557C21.9466 10.8716 20.0613 10.1396 17.6789 9.93088V6.90002H15.8353V9.84999C15.3513 9.84999 14.8555 9.85912 14.3636 9.86956V6.90002H12.52L12.5187 9.92827C12.1195 9.9361 11.7268 9.94393 11.3445 9.94393V9.93479L8.8016 9.93349V11.9036C8.8016 11.9036 10.1637 11.8775 10.1402 11.9023C10.8878 11.9023 11.1305 12.3355 11.201 12.7099V16.1622C11.2532 16.1622 11.3197 16.1648 11.3954 16.1753H11.201L11.1997 21.0118C11.167 21.2467 11.0287 21.6211 10.5069 21.6224C10.5303 21.6433 9.16692 21.6224 9.16692 21.6224L8.80029 23.8248H11.201C11.6472 23.8248 12.0869 23.8326 12.5174 23.8352L12.5187 26.9H14.361V23.8679C14.8659 23.8783 15.3552 23.8822 15.834 23.8822L15.8327 26.9H17.6763V23.8418C20.7763 23.6643 22.9486 22.8828 23.2174 19.9707C23.4353 17.6261 22.3328 16.5784 20.5728 16.1557C21.6439 15.6129 22.3132 14.654 22.1567 13.0557ZM19.5759 19.608C19.5759 21.8977 15.6553 21.6381 14.4041 21.6381V17.5765C15.6553 17.5791 19.5759 17.2203 19.5759 19.608ZM18.7174 13.879C18.7174 15.9626 15.4452 15.7186 14.4041 15.7199V12.038C15.4465 12.038 18.7187 11.7066 18.7174 13.879Z" fill="white"/>
<path d="M22.1567 13.0557C21.9466 10.8716 20.0613 10.1396 17.6789 9.93088V6.90002H15.8353V9.84999C15.3513 9.84999 14.8555 9.85912 14.3636 9.86956V6.90002H12.52L12.5187 9.92827C12.1195 9.9361 11.7268 9.94393 11.3445 9.94393V9.93479L8.8016 9.93349V11.9036C8.8016 11.9036 10.1637 11.8775 10.1402 11.9023C10.8878 11.9023 11.1305 12.3355 11.201 12.7099V16.1622C11.2532 16.1622 11.3197 16.1648 11.3954 16.1753H11.201L11.1997 21.0118C11.167 21.2467 11.0287 21.6211 10.5069 21.6224C10.5303 21.6433 9.16692 21.6224 9.16692 21.6224L8.80029 23.8248H11.201C11.6472 23.8248 12.0869 23.8326 12.5174 23.8352L12.5187 26.9H14.361V23.8679C14.8659 23.8783 15.3552 23.8822 15.834 23.8822L15.8327 26.9H17.6763V23.8418C20.7763 23.6643 22.9486 22.8828 23.2174 19.9707C23.4353 17.6261 22.3328 16.5784 20.5728 16.1557C21.6439 15.6129 22.3132 14.654 22.1567 13.0557ZM19.5759 19.608C19.5759 21.8977 15.6553 21.6381 14.4041 21.6381V17.5765C15.6553 17.5791 19.5759 17.2203 19.5759 19.608ZM18.7174 13.879C18.7174 15.9626 15.4452 15.7186 14.4041 15.7199V12.038C15.4465 12.038 18.7187 11.7066 18.7174 13.879Z" fill="white"/>
</svg>
