<svg fill="none" height="24" viewBox="0 0 25 24" width="25" xmlns="http://www.w3.org/2000/svg" xmlns:xlink="http://www.w3.org/1999/xlink"><linearGradient id="a"><stop offset="0" stop-color="#02e1b3"/><stop offset=".35" stop-color="#0b54ff"/><stop offset=".43" stop-color="#1152ff"/><stop offset=".54" stop-color="#204bff"/><stop offset=".66" stop-color="#3b40fe"/><stop offset=".8" stop-color="#5f31fe"/><stop offset=".93" stop-color="#8e1efd"/><stop offset="1" stop-color="#a714fd"/></linearGradient><radialGradient id="b" cx="0" cy="0" gradientTransform="matrix(35.333 0 0 35.2601 26.1419 24.0039)" gradientUnits="userSpaceOnUse" r="1" xlink:href="#a"/><radialGradient id="c" cx="0" cy="0" gradientTransform="matrix(26.501 0 0 26.4481 22.614 20.9994)" gradientUnits="userSpaceOnUse" r="1" xlink:href="#a"/><clipPath id="d"><rect height="24" rx="12" width="24" x=".025879"/></clipPath><g clip-path="url(#d)"><path d="m24.0259 0h-24.0000211v23.9532h24.0000211z" fill="url(#b)"/><path d="m4.97224 18.0765c-.28847-.3324-.5532-.6846-.79222-1.0541l5.05592-5.0453-5.05592-5.04587c.23915-.36917.50387-.72117.79222-1.05352l6.11156 6.09939zm-1.45688-9.92693c-.19836.43855-.36194.89188-.48924 1.35593l2.47651 2.4716-2.47651 2.4716c.12739.464.29096.9174.48924 1.3559l3.83517-3.8275zm8.51144 4.77013-6.11158 6.0994c.33267.2882.68545.5524 1.05562.7907l5.05596-5.0459 5.0554 5.0459c.3702-.2383.723-.5025 1.0557-.7907zm3.8352 7.5539-3.8357-3.828-3.83516 3.8275c.43945.1978.89372.3611 1.35863.4883l2.47653-2.4716 2.477 2.4716c.4649-.128.9192-.2917 1.3587-.4899zm-3.8352-9.4376 6.1111-6.09934c-.3328-.28788-.6856-.55193-1.0557-.79017l-5.0554 5.04533-5.05596-5.04533c-.37007.23824-.72281.50229-1.05562.79017zm8.5109 4.7686c.1984-.4385.362-.8918.4893-1.3559l-2.4766-2.4716 2.4766-2.4716c-.1274-.46419-.291-.91771-.4893-1.35644l-3.8351 3.82804zm-5.7205-3.8275 5.0559-5.04587c-.2391-.36926-.5038-.72126-.7923-1.05352l-6.1095 6.09939 6.1116 6.0994c.2885-.3324.5532-.6846.7922-1.0541zm-2.7909-4.66697 3.8357-3.82749c-.4395-.19779-.8938-.36105-1.3587-.48826l-2.477 2.47159-2.47653-2.47159c-.46486.12744-.91908.29069-1.35863.48826z" fill="url(#c)"/><path d="m4.97224 18.0765c-.28847-.3324-.5532-.6846-.79222-1.0541l5.05592-5.0453-5.05592-5.04587c.23915-.36917.50387-.72117.79222-1.05352l6.11156 6.09939zm-1.45688-9.92693c-.19836.43855-.36194.89188-.48924 1.35593l2.47651 2.4716-2.47651 2.4716c.12739.464.29096.9174.48924 1.3559l3.83517-3.8275zm8.51144 4.77013-6.11158 6.0994c.33267.2882.68545.5524 1.05562.7907l5.05596-5.0459 5.0554 5.0459c.3702-.2383.723-.5025 1.0557-.7907zm3.8352 7.5539-3.8357-3.828-3.83516 3.8275c.43945.1978.89372.3611 1.35863.4883l2.47653-2.4716 2.477 2.4716c.4649-.128.9192-.2917 1.3587-.4899zm-3.8352-9.4376 6.1111-6.09934c-.3328-.28788-.6856-.55193-1.0557-.79017l-5.0554 5.04533-5.05596-5.04533c-.37007.23824-.72281.50229-1.05562.79017zm8.5109 4.7686c.1984-.4385.362-.8918.4893-1.3559l-2.4766-2.4716 2.4766-2.4716c-.1274-.46419-.291-.91771-.4893-1.35644l-3.8351 3.82804zm-5.7205-3.8275 5.0559-5.04587c-.2391-.36926-.5038-.72126-.7923-1.05352l-6.1095 6.09939 6.1116 6.0994c.2885-.3324.5532-.6846.7922-1.0541zm-2.7909-4.66697 3.8357-3.82749c-.4395-.19779-.8938-.36105-1.3587-.48826l-2.477 2.47159-2.47653-2.47159c-.46486.12744-.91908.29069-1.35863.48826z" fill="#fff"/></g></svg>