<svg width="16" height="16" viewBox="0 0 16 16" fill="none" xmlns="http://www.w3.org/2000/svg">
<path d="M3.25 10C4.2165 10 5 9.2165 5 8.25C5 7.2835 4.2165 6.5 3.25 6.5C2.2835 6.5 1.5 7.2835 1.5 8.25C1.5 9.2165 2.2835 10 3.25 10Z" stroke="white" stroke-width="1.3" stroke-linecap="round" stroke-linejoin="round"/>
<path d="M14.0625 2H11.4375C11.1959 2 11 2.19588 11 2.4375V5.0625C11 5.30412 11.1959 5.5 11.4375 5.5H14.0625C14.3041 5.5 14.5 5.30412 14.5 5.0625V2.4375C14.5 2.19588 14.3041 2 14.0625 2Z" stroke="white" stroke-width="1.3" stroke-linecap="round" stroke-linejoin="round"/>
<path d="M12.5 9.5L14.5 11.5L12.5 13.5" stroke="white" stroke-width="1.3" stroke-linecap="round" stroke-linejoin="round"/>
<path d="M5 8H7.5" stroke="white" stroke-width="1.3" stroke-linecap="round" stroke-linejoin="round"/>
<path d="M14 11.5H10C8.89544 11.5 8.00001 10.6046 8.00001 9.5L8 5.5C8 4.94772 8.44772 4.5 9 4.5L10.5 4.5" stroke="white" stroke-width="1.3" stroke-linecap="round" stroke-linejoin="round"/>
</svg>
