<svg width="25" height="24" viewBox="0 0 25 24" fill="none" xmlns="http://www.w3.org/2000/svg">
<mask id="mask0_3409_12048" style="mask-type:alpha" maskUnits="userSpaceOnUse" x="0" y="0" width="25" height="24">
<circle cx="12.0259" cy="12" r="12" fill="#FF0000"/>
</mask>
<g mask="url(#mask0_3409_12048)">
<path d="M7.81489 22.5689C7.5288 22.6325 6.5831 22.7808 6.14602 22.847C5.28774 22.1795 3.92085 19.9066 3.4043 17.4033L4.27847 17.8007L9.00694 21.4563V22.1715C8.7288 22.2775 8.10098 22.5053 7.81489 22.5689Z" fill="#6A9ABF"/>
<path d="M16.1182 0.277701C16.4997 0.786311 17.3633 2.6883 17.7474 3.57572L2.92619 15.5757C3.17785 16.7545 3.76063 18.4764 4.5156 19.9466C5.16854 21.2181 6.27718 22.3837 6.82023 23.0459L4.5156 21.8936L-0.530762 17.7611V10.1717L1.21758 2.70154L7.85334 -1.43091C10.4494 -1.07329 15.7368 -0.230908 16.1182 0.277701Z" fill="#A34F93"/>
<path d="M17.9079 4.25103C17.7807 3.806 16.6364 1.49607 16.0801 0.396729C17.2192 0.568914 19.839 1.1358 21.2059 2.02587C22.5728 2.91593 23.5768 6.50269 23.9079 8.18481C22.0324 5.95964 18.941 3.97289 18.2258 4.09209C18.1728 4.3305 18.035 4.69607 17.9079 4.25103Z" fill="#C5728A"/>
<path d="M8.56958 23.6417L9.0464 21.3768L11.351 21.2178L19.5762 17.4032L21.8808 11.8403L24.2649 13.9463L24.4636 14.5026L22.4769 20.145L18.1457 23.9595L11.0729 24.5158L8.56958 23.6417Z" fill="url(#paint0_linear_3409_12048)"/>
<path d="M17.4304 3.57544C18.9562 3.70259 21.5629 5.64166 23.5099 7.46948C24.4317 8.64564 24.3708 12.3569 24.2251 14.0655L22.1192 12.198L17.4304 3.57544Z" fill="url(#paint1_linear_3409_12048)"/>
<path d="M8.99237 21.814L8.63476 23.8007C7.38972 23.3239 5.1778 22.4179 6.29038 22.6087C7.40297 22.7994 8.55529 22.1583 8.99237 21.814Z" fill="#73A7BF"/>
</g>
<ellipse cx="12.0262" cy="12.0006" rx="10.1722" ry="10.1722" fill="black"/>
<path d="M10.7325 9.33276V14.6661H9.43337V11.4676L8.24059 14.6661H7.19215L5.99177 11.46V14.6661H4.69263V9.33276H6.22729L7.72397 13.0251L9.20545 9.33276H10.7325Z" fill="white"/>
<path d="M12.9659 9.33276V14.6661H11.6667V9.33276H12.9659Z" fill="white"/>
<path d="M17.2274 13.724H15.2369L14.9178 14.6661H13.5579L15.4876 9.33276H16.9919L18.9216 14.6661H17.5465L17.2274 13.724ZM16.8931 12.7212L16.2322 10.7687L15.5788 12.7212H16.8931Z" fill="white"/>
<defs>
<linearGradient id="paint0_linear_3409_12048" x1="23.1126" y1="13.1516" x2="9.80137" y2="23.8006" gradientUnits="userSpaceOnUse">
<stop stop-color="#7DA7C3"/>
<stop offset="0.479167" stop-color="#B3A7CC"/>
<stop offset="1" stop-color="#B7C5DA"/>
</linearGradient>
<linearGradient id="paint1_linear_3409_12048" x1="17.9867" y1="3.81385" x2="22.3973" y2="13.6682" gradientUnits="userSpaceOnUse">
<stop stop-color="#7B9DB7"/>
<stop offset="1" stop-color="#7A9FB8"/>
</linearGradient>
</defs>
</svg>
