<svg fill="none" height="24" viewBox="0 0 25 24" width="25" xmlns="http://www.w3.org/2000/svg" xmlns:xlink="http://www.w3.org/1999/xlink"><linearGradient id="a" gradientUnits="userSpaceOnUse" x1="23.1126" x2="9.80137" y1="13.1516" y2="23.8006"><stop offset="0" stop-color="#7da7c3"/><stop offset=".479167" stop-color="#b3a7cc"/><stop offset="1" stop-color="#b7c5da"/></linearGradient><linearGradient id="b" gradientUnits="userSpaceOnUse" x1="17.9867" x2="22.3973" y1="3.81385" y2="13.6682"><stop offset="0" stop-color="#7b9db7"/><stop offset="1" stop-color="#7a9fb8"/></linearGradient><mask id="c" height="24" maskUnits="userSpaceOnUse" width="25" x="0" y="0"><circle cx="12.0259" cy="12" fill="#f00" r="12"/></mask><g mask="url(#c)"><path d="m7.81489 22.5689c-.28609.0636-1.23179.2119-1.66887.2781-.85828-.6675-2.22517-2.9404-2.74172-5.4437l.87417.3974 4.72847 3.6556v.7152c-.27814.106-.90596.3338-1.19205.3974z" fill="#6a9abf"/><path d="m16.1182.277701c.3815.50861 1.2451 2.410599 1.6292 3.298019l-14.82121 11.99998c.25166 1.1788.83444 2.9007 1.58941 4.3709.65294 1.2715 1.76158 2.4371 2.30463 3.0993l-2.30463-1.1523-5.046362-4.1325v-7.5894l1.748342-7.47016 6.63576-4.13245c2.59606.35762 7.88346 1.200002 8.26486 1.708611z" fill="#a34f93"/><path d="m17.9079 4.25103c-.1272-.44503-1.2715-2.75496-1.8278-3.854301 1.1391.172185 3.7589.739071 5.1258 1.629141 1.3669.89006 2.3709 4.47682 2.702 6.15894-1.8755-2.22517-4.9669-4.21192-5.6821-4.09272-.053.23841-.1908.60398-.3179.15894z" fill="#c5728a"/><path d="m8.56958 23.6417.47682-2.2649 2.3046-.159 8.2252-3.8146 2.3046-5.5629 2.3841 2.106.1987.5563-1.9867 5.6424-4.3312 3.8145-7.0728.5563z" fill="url(#a)"/><path d="m17.4304 3.57544c1.5258.12715 4.1325 2.06622 6.0795 3.89404.9218 1.17616.8609 4.88742.7152 6.59602l-2.1059-1.8675z" fill="url(#b)"/><path d="m8.99237 21.814-.35761 1.9867c-1.24504-.4768-3.45696-1.3828-2.34438-1.192 1.11259.1907 2.26491-.4504 2.70199-.7947z" fill="#73a7bf"/></g><ellipse cx="12.0262" cy="12.0006" fill="#000" rx="10.1722" ry="10.1722"/><g fill="#fff"><path d="m10.7325 9.33276v5.33334h-1.29913v-3.1985l-1.19278 3.1985h-1.04844l-1.20038-3.2061v3.2061h-1.29914v-5.33334h1.53466l1.49668 3.69234 1.48148-3.69234z"/><path d="m12.9659 9.33276v5.33334h-1.2992v-5.33334z"/><path d="m17.2274 13.724h-1.9905l-.3191.9421h-1.3599l1.9297-5.33334h1.5043l1.9297 5.33334h-1.3751zm-.3343-1.0028-.6609-1.9525-.6534 1.9525z"/></g></svg>