<svg fill="none" height="24" viewBox="0 0 25 24" width="25" xmlns="http://www.w3.org/2000/svg" xmlns:xlink="http://www.w3.org/1999/xlink"><linearGradient id="a" gradientUnits="userSpaceOnUse" x1="6.92613" x2="12.5404" y1="22.3289" y2="23.3575"><stop offset="0" stop-color="#3b4149"/><stop offset="1" stop-color="#3b414a"/></linearGradient><linearGradient id="b" gradientUnits="userSpaceOnUse" x1="12.5408" x2="20.5979" y1="22.7565" y2="20.0565"><stop offset="0" stop-color="#1b3254"/><stop offset=".5" stop-color="#42344c"/><stop offset="1" stop-color="#713742"/></linearGradient><linearGradient id="c" gradientUnits="userSpaceOnUse" x1="19.3972" x2="22.6544" y1="20.2287" y2="17.1002"><stop offset="0" stop-color="#1b3254"/><stop offset="1" stop-color="#653645"/></linearGradient><linearGradient id="d" gradientUnits="userSpaceOnUse" x1="13.2693" x2="21.9693" y1="2.27116" y2="8.65687"><stop offset="0" stop-color="#1b3255"/><stop offset="1" stop-color="#a83836"/></linearGradient><linearGradient id="e" gradientUnits="userSpaceOnUse" x1="5.38387" x2="16.3982" y1="1.92792" y2="1.07077"><stop offset="0" stop-color="#3b414a"/><stop offset="1" stop-color="#3a414a"/></linearGradient><mask id="f" height="24" maskUnits="userSpaceOnUse" width="25" x="0" y="0"><circle cx="12.0259" cy="12" fill="#c4c4c4" r="12"/></mask><g mask="url(#f)"><path d="m6.24002 4.41443-1.11428-2.48572-2.52857 1.92857 1.07143 2.91429z" fill="#977f46"/><path d="m3.75476 7.02787-.94286-2.61428-.85714-.55714-.72857.34285-2.48571 6.8143 1.928569 6.9857 3.171431 3.6429.6-3.1286-.17143-2.9572z" fill="#e3b341"/><path d="m4.5254 18.042-.55714 3 2.44286 2.5286.9-2.7858z" fill="#947d45"/><path d="m6.49756 23.3575.85714-2.7 5.1857.9857v2.4428l-1.4143.6429z" fill="url(#a)"/><path d="m12.5408 24.5137v-2.8286l2.8714-1.0286 3.9857-2.0571v3.0857l-3.3 1.9286z" fill="url(#b)"/><path d="m19.3972 22.5002v-3.6l.9857-1.5857h2.8286l-.6429 1.2857z" fill="url(#c)"/><path d="m23.2979 17.314h-2.7l.6429-3.1714.1714-2.6143-.9429-2.82857-3.8142-4.92857-4.1143-1.8v-.85715h4.8l3.3857 1.02858 2.2286 2.95714.9428 2.52857.5143 2.8714v3.4715z" fill="url(#d)"/><path d="m5.04102 1.71363 1.11428 2.48571.47143-.12857 5.91427-1.58571v-1.37143h4.8l-.4714-.985714-3.6857-.942857-4.50003.8999996z" fill="url(#e)"/></g><ellipse cx="12.069" cy="12.0432" fill="#000" rx="10.2429" ry="10.2429"/><g fill="#fff"><path d="m4.14062 14.7851v-5.57148h1.37143l2.01429 3.64288v-3.64288h1.28571v5.57148h-1.37143l-2.01428-3.5572v3.5572z"/><path d="m11.2129 12.7279-1.97144-3.51428h1.50004l1.1571 2.18568 1.0286-2.18568h1.4571l-2.7428 5.57148h-1.5z"/><path d="m18.4977 11.3571h1.3714c-.0857-.7857-.7714-2.3571-2.8286-2.3571-2.5714 0-3 2.3571-3 3.0857s.6429 2.8714 3 2.8714c1.8857 0 2.6715-1.4285 2.8286-2.1428h-1.3714c-.1429.3-.5143.9428-1.4572.9428-1.0714 0-1.6714-.9428-1.6714-1.6714 0-.6857.3857-1.8857 1.6714-1.8857 1.0286 0 1.3715.7714 1.4572 1.1571z"/></g></svg>