<svg width="44" height="24" viewBox="0 0 44 24" fill="none" xmlns="http://www.w3.org/2000/svg">
<g clip-path="url(#clip0_4661_151780)">
<mask id="mask0_4661_151780" style="mask-type:alpha" maskUnits="userSpaceOnUse" x="22" y="0" width="22" height="24">
<path fill-rule="evenodd" clip-rule="evenodd" d="M22 18.6356C23.2637 16.735 24 14.4535 24 12C24 9.54653 23.2637 7.26502 22 5.36441C24.1498 2.13102 27.8261 0 32 0C38.6274 0 44 5.37258 44 12C44 18.6274 38.6274 24 32 24C27.8261 24 24.1498 21.869 22 18.6356Z" fill="#D9D9D9"/>
</mask>
<g mask="url(#mask0_4661_151780)">
<rect x="20" width="24" height="24" rx="12" fill="#3F4263"/>
<path d="M27.875 12H36.125" stroke="white" stroke-width="1.4" stroke-linecap="round" stroke-linejoin="round"/>
<path d="M32 7.875V16.125" stroke="white" stroke-width="1.4" stroke-linecap="round" stroke-linejoin="round"/>
</g>
<circle cx="12" cy="12" r="11.25" stroke="white" stroke-width="1.5"/>
<ellipse cx="12.0022" cy="12" rx="7" ry="7" fill="white"/>
</g>
<defs>
<clipPath id="clip0_4661_151780">
<rect width="44" height="24" fill="white"/>
</clipPath>
</defs>
</svg>
