<svg width="40" height="40" viewBox="0 0 40 40" fill="none" xmlns="http://www.w3.org/2000/svg">
<g clip-path="url(#clip0_15496_24066)">
<path d="M16.9534 10.0005C16.7168 10.0005 16.4879 10.0862 16.308 10.2422C16.1281 10.3983 16.009 10.6144 15.972 10.8517L14.341 21.3517L12.8425 30.9999L12.8416 31.008L12.8434 30.9999L14.3419 21.3517C14.4181 20.8613 14.834 20.5005 15.3227 20.5005H20.1009C24.9096 20.5005 28.991 16.9386 29.7364 12.1119C29.7932 11.7452 29.8236 11.3819 29.8305 11.0235V11.0229H29.83C28.6079 10.372 27.1729 10.0005 25.6005 10.0005H16.9534Z" fill="#001C64"/>
<path d="M29.8302 11.0229C29.8235 11.3814 29.7928 11.745 29.7361 12.1117C28.9907 16.9384 24.9093 20.5003 20.1006 20.5003H15.3224C14.8337 20.5003 14.4178 20.8612 14.3416 21.3515L12.8431 30.9997L11.9026 37.053C11.8845 37.1699 11.8916 37.2894 11.9233 37.4033C11.955 37.5172 12.0107 37.6228 12.0864 37.7128C12.1622 37.8027 12.2562 37.875 12.3621 37.9245C12.468 37.974 12.5832 37.9997 12.6998 37.9997H17.8862C18.1228 37.9998 18.3516 37.914 18.5315 37.758C18.7114 37.6019 18.8306 37.3858 18.8675 37.1485L20.2338 28.3515C20.3103 27.8611 20.7264 27.4998 21.2151 27.4998H24.2691C29.0778 27.4998 33.1587 23.938 33.9041 19.1117C34.4332 15.6854 32.7349 12.5685 29.8302 11.0229Z" fill="#0070E0"/>
<path d="M11.0609 3C10.8242 3.00001 10.5953 3.08582 10.4154 3.24197C10.2355 3.39813 10.1164 3.61437 10.0796 3.85176L6.00989 30.0527C5.99169 30.1696 5.99867 30.2892 6.03036 30.4032C6.06205 30.5171 6.11769 30.6228 6.19346 30.7128C6.26922 30.8028 6.36331 30.8751 6.46923 30.9247C6.57515 30.9743 6.6904 31 6.80703 31H12.8423L14.3409 21.3517L15.9719 10.8517C16.0088 10.6145 16.128 10.3983 16.3079 10.2423C16.4878 10.0863 16.7166 10.0005 16.9532 10.0005H25.6C27.1728 10.0005 28.6078 10.3726 29.83 11.0226C29.9133 6.62842 26.342 3 21.4312 3H11.0609Z" fill="#003087"/>
</g>
<defs>
<clipPath id="clip0_15496_24066">
<rect width="28" height="35" fill="white" transform="translate(6 3)"/>
</clipPath>
</defs>
</svg>
