<svg fill="none" height="24" viewBox="0 0 26 24" width="26" xmlns="http://www.w3.org/2000/svg" xmlns:xlink="http://www.w3.org/1999/xlink"><linearGradient id="a" gradientUnits="userSpaceOnUse" x1="7.02686" x2="19.0263" y1="8.59727" y2="8.59727"><stop offset="0" stop-color="#fff"/><stop offset="1" stop-color="#fff"/></linearGradient><circle cx="12.9836" cy="12" fill="#5546ff" r="12"/><path d="m19.0253 12.793v1.4451h-3.6416l2.4939 3.7617h-1.8835l-2.9998-4.539-2.9894 4.539h-1.88355l2.48865-3.7617h-3.58412v-1.4555h11.99942z" fill="#fff"/><path d="m19.0263 11.2066v-1.44505h-3.6416l2.4939-3.76165h-1.8835l-2.9998 4.5389-2.9895-4.5389h-1.88347l2.48867 3.76165h-3.58414v1.45545h11.99944z" fill="#fff"/><path d="m19.0263 11.2066v-1.44505h-3.6416l2.4939-3.76165h-1.8835l-2.9998 4.5389-2.9895-4.5389h-1.88347l2.48867 3.76165h-3.58414v1.45545h11.99944z" fill="url(#a)"/></svg>