<svg width="215" height="215" viewBox="0 0 215 215" fill="none" xmlns="http://www.w3.org/2000/svg">
<circle cx="107.172" cy="107.66" r="106.865" fill="#FC6432" style="fill:#FC6432;fill:color(display-p3 0.9882 0.3922 0.1961);fill-opacity:1;"/>
<path fill-rule="evenodd" clip-rule="evenodd" d="M123.242 91.9673C122.896 91.3742 122.946 90.6328 123.341 90.0397L139.829 65.5746C140.274 64.8827 140.323 64.0424 139.928 63.3505C139.533 62.6091 138.793 62.2137 138.003 62.2137H131.585C130.894 62.2137 130.203 62.5597 129.759 63.2022L110.505 91.8685C110.012 92.6098 109.222 93.0052 108.333 93.0052H105.914C105.026 93.0052 104.236 92.5604 103.742 91.8685L84.5876 63.1528C84.1926 62.5103 83.4521 62.1643 82.761 62.1643H76.3433C75.5534 62.1643 74.7635 62.6091 74.418 63.3505C74.023 64.0919 74.1218 64.9321 74.5167 65.5746L91.0053 90.0892C91.4002 90.6328 91.4496 91.3742 91.104 91.9673C90.7585 92.6098 90.1661 92.9558 89.4749 92.9558H64.2483C63.0141 92.9558 62.0762 93.9443 62.0762 95.1305V100.468C62.0762 101.704 63.0635 102.643 64.2483 102.643H150.098C151.332 102.643 152.27 101.655 152.27 100.468V95.1305C152.27 93.9937 151.431 93.1041 150.345 92.9558C150.246 92.9558 150.147 92.9558 150.048 92.9558H124.871C124.18 92.9558 123.538 92.6098 123.242 91.9673ZM103.791 123.451L84.5382 152.117C84.1433 152.759 83.4028 153.105 82.7116 153.105H76.2939C75.504 153.105 74.7635 152.661 74.3686 151.969C73.9737 151.277 74.023 150.387 74.4673 149.745L90.9066 125.279C91.3015 124.686 91.3509 123.994 91.0053 123.352C90.6597 122.759 90.0673 122.363 89.3762 122.363H64.2483C63.0635 122.363 62.0762 121.424 62.0762 120.189V114.851C62.0762 113.665 63.0141 112.676 64.2483 112.676H149.9C149.9 112.676 150.048 112.676 150.098 112.676C151.283 112.676 152.27 113.615 152.27 114.851V120.189C152.27 121.375 151.332 122.363 150.098 122.363H124.921C124.18 122.363 123.588 122.709 123.291 123.352C122.946 123.994 122.995 124.686 123.39 125.23L139.879 149.745C140.274 150.387 140.372 151.227 139.978 151.969C139.583 152.71 138.842 153.155 138.052 153.155H131.634C130.894 153.155 130.252 152.809 129.857 152.216L110.604 123.55C110.11 122.808 109.321 122.413 108.432 122.413H106.013C105.124 122.413 104.334 122.858 103.841 123.55L103.791 123.451Z" fill="white" style="fill:white;fill-opacity:1;"/>
</svg>
