<svg width="20" height="20" viewBox="0 0 20 20" fill="none" xmlns="http://www.w3.org/2000/svg">
    <path d="M13.7631 7.79031H17.5131V4.04031" stroke="#12151E" stroke-width="1.5" stroke-linecap="round" stroke-linejoin="round"/>
    <path d="M5.13867 5.13864C5.77707 4.50024 6.53497 3.99383 7.36908 3.64833C8.2032 3.30283 9.09719 3.125 10 3.125C10.9029 3.125 11.7969 3.30283 12.631 3.64833C13.4651 3.99383 14.223 4.50024 14.8614 5.13864L17.513 7.79029" stroke="#12151E" stroke-width="1.5" stroke-linecap="round" stroke-linejoin="round"/>
    <path d="M6.23694 12.2097H2.48694V15.9597" stroke="#12151E" stroke-width="1.5" stroke-linecap="round" stroke-linejoin="round"/>
    <path d="M14.8613 14.8614C14.2229 15.4998 13.465 16.0062 12.6309 16.3517C11.7968 16.6972 10.9028 16.875 9.99995 16.875C9.09711 16.875 8.20311 16.6972 7.369 16.3517C6.53489 16.0062 5.77699 15.4998 5.13859 14.8614L2.48694 12.2097" stroke="#12151E" stroke-width="1.5" stroke-linecap="round" stroke-linejoin="round"/>
</svg>
