<svg fill="none" height="40" viewBox="0 0 40 40" width="40" xmlns="http://www.w3.org/2000/svg" xmlns:xlink="http://www.w3.org/1999/xlink"><linearGradient id="a" gradientUnits="userSpaceOnUse" x1="7.8378" x2="32.1623" y1="7.83756" y2="32.1621"><stop offset=".0120873" stop-color="#3291f6"/><stop offset=".5078" stop-color="#1f74eb"/></linearGradient><linearGradient id="b" gradientUnits="userSpaceOnUse" x1="20" x2="32.1625" y1="19.9999" y2="32.1624"><stop offset=".0223464" stop-color="#3485ef"/><stop offset=".9628" stop-color="#1461e5"/></linearGradient><path d="m20.0001 37.1998c9.4993 0 17.2-7.7007 17.2-17.2s-7.7007-17.2-17.2-17.2-17.20005 7.7007-17.20005 17.2 7.70075 17.2 17.20005 17.2z" fill="url(#a)"/><path d="m32.1625 7.8374c6.7151 6.7151 6.7151 17.6099 0 24.325-6.715 6.7151-17.6099 6.7151-24.32498 0z" fill="url(#b)"/><path d="m15.6947 22.8131 7.6952-8.0015c.589-.589 1.508-.5466 2.1206.066l4.4484 4.2882c.4712.4524.4618 1.3524.0236 1.8378-.5702.5702-1.2111.6126-2.0829.0189l-3.2232-3.4919-8.1052 7.7141c-.542.4194-1.098.7728-1.9509.2309-.2922-.3958.2874-1.1639.0612-1.3948z" fill="#d1d9e6"/><path d="m15.3412 25.4993c-.6597-.0188-1.1734-.4524-1.1734-.9613l.0377-9.1466c0-.5043.476-1.1216 1.131-1.1404.8765 0 1.2582.7068 1.2582 1.2346v9.0807c.0047.523-.5608.9519-1.2535.933z" fill="#d1d9e6"/><path d="m24.323 25.749c-.8152 0-1.1545-.6032-1.1545-1.0839v-8.3879c0-.476.5042-1.0509 1.1545-1.0697.6833-.0189 1.2488.5513 1.2488 1.0461v8.2984c-.0047.5844-.41 1.197-1.2488 1.197z" fill="#d1d9e6"/><g fill="#fff"><path d="m15.0679 25.598c-.5042-.0188-.9001-.4524-.9001-.9613v-9.1419c0-.5042.3959-1.1215.9001-1.1404.5278-.0188.966.589.966 1.1168v9.1985c0 .5231-.4382.9519-.966.9283z"/><path d="m24.0638 25.6923c-.5136 0-.9377-.5985-.9377-1.1169v-9.0146c0-.5137.4194-.9378.9377-.9378.5184 0 .9378.4194.9378.9378v9.0146c-.0047.5137-.4194 1.1169-.9378 1.1169z"/><path d="m15.1056 25.5089c-.3063 0-.6126-.1178-.8388-.3534l-4.2411-4.2505c-.46181-.4665-.46181-1.2111.0047-1.6776.4665-.4618 1.2111-.4618 1.6776.0047l3.4164 3.4353 8.1665-7.7753c.4618-.4383 1.1781-.4383 1.6399.0047l4.4437 4.2882c.4713.4524.4807 1.2063.033 1.6776-.4524.4759-1.2063.4806-1.6776.033l-3.6332-3.5013-8.1806 7.7895c-.2215.2168-.5183.3251-.8105.3251z"/><path d="m23.2486 18.8831-.5183.49s.1461-.8152-.2734-.4194c-.4194.4006.6457-1.0084.6457-1.0084l.2167.2733z"/><path d="m24.9969 18.7607s.0282-.4995.5702.3534v-.6691l-.5891-.3063z"/><path d="m16.0387 21.1217s.0801.556.5655-.1603v.6692l-.5891.3063z"/></g></svg>