<svg fill="none" height="24" viewBox="0 0 24 24" width="24" xmlns="http://www.w3.org/2000/svg"><g stroke="#fff" stroke-linecap="round" stroke-linejoin="round" stroke-width="1.5"><path d="m4.5 3.75 15 16.5"/><path d="m14.5223 14.7749c-.7359.6689-1.7074 1.0181-2.7008.9708-.9934-.0474-1.92728-.4874-2.59626-1.2232-.66898-.7359-1.01826-1.7074-.971-2.7008s.48718-1.92731 1.223-2.59636"/><path d="m6.93698 6.43066c-3.82212 1.93552-5.43698 5.56934-5.43698 5.56934s3 6.7493 10.5 6.7493c1.7572.014 3.4926-.3908 5.0623-1.1808"/><path d="m19.5576 15.8531c2.0439-1.8307 2.9429-3.8531 2.9429-3.8531s-3-6.75072-10.5-6.75072c-.6496-.00106-1.2981.05175-1.939.15789"/><path d="m12.7061 8.31641c.797.15304 1.5229.56039 2.0689 1.16093.5459.60056.8824 1.36186.959 2.16986"/></g></svg>