<svg width="24" height="24" viewBox="0 0 24 24" fill="none" xmlns="http://www.w3.org/2000/svg">
<path d="M4.5 3.75L19.5 20.25" stroke="white" stroke-width="1.5" stroke-linecap="round" stroke-linejoin="round"/>
<path d="M14.5223 14.7749C13.7864 15.4438 12.8149 15.793 11.8215 15.7457C10.8281 15.6983 9.89422 15.2583 9.22524 14.5225C8.55626 13.7866 8.20698 12.8151 8.25424 11.8217C8.3015 10.8283 8.74142 9.89439 9.47724 9.22534" stroke="white" stroke-width="1.5" stroke-linecap="round" stroke-linejoin="round"/>
<path d="M6.93698 6.43066C3.11486 8.36618 1.5 12 1.5 12C1.5 12 4.5 18.7493 12 18.7493C13.7572 18.7633 15.4926 18.3585 17.0623 17.5685" stroke="white" stroke-width="1.5" stroke-linecap="round" stroke-linejoin="round"/>
<path d="M19.5576 15.8531C21.6015 14.0224 22.5005 12 22.5005 12C22.5005 12 19.5005 5.24928 12.0005 5.24928C11.3509 5.24822 10.7024 5.30103 10.0615 5.40717" stroke="white" stroke-width="1.5" stroke-linecap="round" stroke-linejoin="round"/>
<path d="M12.7061 8.31641C13.5031 8.46945 14.229 8.8768 14.775 9.47734C15.3209 10.0779 15.6574 10.8392 15.734 11.6472" stroke="white" stroke-width="1.5" stroke-linecap="round" stroke-linejoin="round"/>
</svg>
