<svg width="154" height="40" viewBox="0 0 154 40" fill="none" xmlns="http://www.w3.org/2000/svg">
<rect x="4" y="3" width="32" height="34" rx="4" stroke="white" stroke-width="1.5"/>
<circle cx="9" cy="7.88672" r="1" fill="white"/>
<circle cx="12.5" cy="7.88672" r="1" fill="white"/>
<circle cx="16" cy="7.88672" r="1" fill="white"/>
<circle cx="41.5" cy="20" r="1.5" fill="white"/>
<circle cx="48.5" cy="20" r="1.5" fill="white" fill-opacity="0.2"/>
<circle cx="55.5" cy="20" r="1.5" fill="white" fill-opacity="0.2"/>
<circle cx="77" cy="20" r="14" fill="#F2A900"/>
<path d="M81.5513 17.6647C81.3964 16.054 80.006 15.5142 78.249 15.3602V13.125H76.8894V15.3006C76.5324 15.3006 76.1668 15.3073 75.804 15.315V13.125H74.4444L74.4435 15.3583C74.149 15.3641 73.8594 15.3698 73.5775 15.3698V15.3631L71.7021 15.3621V16.8151C71.7021 16.8151 72.7067 16.7958 72.6894 16.8141C73.2407 16.8141 73.4197 17.1336 73.4716 17.4097V19.9557C73.5101 19.9557 73.5592 19.9576 73.615 19.9653H73.4716L73.4707 23.5322C73.4466 23.7054 73.3446 23.9816 72.9597 23.9826C72.9771 23.998 71.9716 23.9826 71.9716 23.9826L71.7012 25.6068H73.4716C73.8007 25.6068 74.125 25.6125 74.4425 25.6145L74.4435 27.8747H75.8021V25.6385C76.1745 25.6462 76.5353 25.6491 76.8884 25.6491L76.8875 27.8747H78.2471V25.6193C80.5333 25.4884 82.1354 24.9121 82.3336 22.7644C82.4943 21.0353 81.6812 20.2627 80.3832 19.9509C81.1732 19.5506 81.6668 18.8434 81.5513 17.6647ZM79.6481 22.4969C79.6481 24.1856 76.7566 23.9941 75.8339 23.9941V20.9988C76.7566 21.0007 79.6481 20.7361 79.6481 22.4969ZM79.0149 18.2719C79.0149 19.8085 76.6017 19.6286 75.8339 19.6295V16.9142C76.6027 16.9142 79.0159 16.6698 79.0149 18.2719Z" fill="white"/>
<path d="M81.5513 17.6647C81.3964 16.054 80.006 15.5142 78.249 15.3602V13.125H76.8894V15.3006C76.5324 15.3006 76.1668 15.3073 75.804 15.315V13.125H74.4444L74.4435 15.3583C74.149 15.3641 73.8594 15.3698 73.5775 15.3698V15.3631L71.7021 15.3621V16.8151C71.7021 16.8151 72.7067 16.7958 72.6894 16.8141C73.2407 16.8141 73.4197 17.1336 73.4716 17.4097V19.9557C73.5101 19.9557 73.5592 19.9576 73.615 19.9653H73.4716L73.4707 23.5322C73.4466 23.7054 73.3446 23.9816 72.9597 23.9826C72.9771 23.998 71.9716 23.9826 71.9716 23.9826L71.7012 25.6068H73.4716C73.8007 25.6068 74.125 25.6125 74.4425 25.6145L74.4435 27.8747H75.8021V25.6385C76.1745 25.6462 76.5353 25.6491 76.8884 25.6491L76.8875 27.8747H78.2471V25.6193C80.5333 25.4884 82.1354 24.9121 82.3336 22.7644C82.4943 21.0353 81.6812 20.2627 80.3832 19.9509C81.1732 19.5506 81.6668 18.8434 81.5513 17.6647ZM79.6481 22.4969C79.6481 24.1856 76.7566 23.9941 75.8339 23.9941V20.9988C76.7566 21.0007 79.6481 20.7361 79.6481 22.4969ZM79.0149 18.2719C79.0149 19.8085 76.6017 19.6286 75.8339 19.6295V16.9142C76.6027 16.9142 79.0159 16.6698 79.0149 18.2719Z" fill="white"/>
<circle cx="98.5" cy="20" r="1.5" fill="white" fill-opacity="0.2"/>
<circle cx="105.5" cy="20" r="1.5" fill="white" fill-opacity="0.2"/>
<circle cx="112.5" cy="20" r="1.5" fill="white" fill-opacity="0.2"/>
<rect x="121" y="2" width="26" height="36" rx="2" stroke="white" stroke-width="1.5"/>
<rect x="123" y="4" width="22" height="29" fill="white"/>
</svg>
