<svg width="64" height="64" viewBox="0 0 64 64" fill="none" xmlns="http://www.w3.org/2000/svg">
<path d="M42.0203 12H22.8203L8.82031 26.4681L32.4203 52L56.0203 26.4681L42.0203 12Z" fill="#B3B3B3"/>
<path d="M32.4219 52.0007L56.0219 26.4688L32.4219 27.7453V52.0007Z" fill="#7B7B7B"/>
<path d="M8.82031 26.4688L32.4203 52.0007V27.3198L8.82031 26.4688Z" fill="#404040"/>
<path d="M56.025 26.4681L42.025 12L33.625 27.7447L56.025 26.4681Z" fill="#E9E9E9"/>
<path d="M42.0203 12H22.8203L32.4203 30.2979L42.0203 12Z" fill="#919191"/>
<path d="M22.8203 12L8.82031 26.4681L30.8203 27.3191L22.8203 12Z" fill="#ACACAC"/>
<path d="M22.8203 12L8.82031 26.4681L30.8203 27.3191L22.8203 12Z" fill="#7B7B7B"/>
<path d="M38.4453 18.8086H26.4047L17.625 26.8846L32.425 42.6384L47.225 26.8846L38.4453 18.8086Z" fill="#B3B3B3"/>
</svg>
