<svg width="32" height="32" viewBox="0 0 32 32" fill="none" xmlns="http://www.w3.org/2000/svg">
<path d="M15.9792 3.20703L24.4583 7.87057V23.981L15.9792 28.6445L7.5 23.981V7.87057L15.9792 3.20703Z" fill="#ACACAC"/>
<path d="M15.9805 7.5612V3.20703L24.4596 7.83203L20.8763 10.1445L15.9805 7.5612Z" fill="#D6D6D6"/>
<path d="M15.9805 24.2904V28.6445L24.4596 24.0195L20.8763 21.707L15.9805 24.2904Z" fill="#535353"/>
<path d="M24.4583 24.0195V7.83203L20.875 10.1445V21.707L24.4583 24.0195Z" fill="#7B7B7B"/>
<path d="M15.9805 7.5612V3.20703L7.5013 7.83203L11.0846 10.1445L15.9805 7.5612Z" fill="#7B7B7B"/>
<path d="M15.9805 24.2904V28.6445L7.5013 24.0195L11.0846 21.707L15.9805 24.2904Z" fill="#404040"/>
<path d="M7.4987 24.0195V7.83203L11.082 10.1445V21.707L7.4987 24.0195Z" fill="#535353"/>
</svg>
