<svg width="32" height="32" viewBox="0 0 32 32" fill="none" xmlns="http://www.w3.org/2000/svg">
<path d="M21.0102 6H11.4102L4.41016 13.234L16.2102 26L28.0102 13.234L21.0102 6Z" fill="#B3B3B3"/>
<path d="M16.2109 26.0003L28.0109 13.2344L16.2109 13.8727V26.0003Z" fill="#7B7B7B"/>
<path d="M4.41016 13.2344L16.2102 26.0003V13.6599L4.41016 13.2344Z" fill="#404040"/>
<path d="M28.0086 13.234L21.0086 6L16.8086 13.8723L28.0086 13.234Z" fill="#E9E9E9"/>
<path d="M21.0102 6H11.4102L16.2102 15.1489L21.0102 6Z" fill="#919191"/>
<path d="M11.4102 6L4.41016 13.234L15.4102 13.6596L11.4102 6Z" fill="#ACACAC"/>
<path d="M11.4102 6L4.41016 13.234L15.4102 13.6596L11.4102 6Z" fill="#7B7B7B"/>
<path d="M19.2227 9.40234H13.2023L8.8125 13.4404L16.2125 21.3172L23.6125 13.4404L19.2227 9.40234Z" fill="#B3B3B3"/>
</svg>
