<svg width="64" height="64" viewBox="0 0 64 64" fill="none" xmlns="http://www.w3.org/2000/svg">
<path d="M31.9583 6.41406L48.9167 15.7411V47.962L31.9583 57.2891L15 47.962V15.7411L31.9583 6.41406Z" fill="#ACACAC"/>
<path d="M31.9609 15.1224V6.41406L48.9193 15.6641L41.7526 20.2891L31.9609 15.1224Z" fill="#D6D6D6"/>
<path d="M31.9609 48.5807V57.2891L48.9193 48.0391L41.7526 43.4141L31.9609 48.5807Z" fill="#535353"/>
<path d="M48.9167 48.0391V15.6641L41.75 20.2891V43.4141L48.9167 48.0391Z" fill="#7B7B7B"/>
<path d="M31.9609 15.1224V6.41406L15.0026 15.6641L22.1693 20.2891L31.9609 15.1224Z" fill="#7B7B7B"/>
<path d="M31.9609 48.5807V57.2891L15.0026 48.0391L22.1693 43.4141L31.9609 48.5807Z" fill="#404040"/>
<path d="M14.9974 48.0391V15.6641L22.1641 20.2891V43.4141L14.9974 48.0391Z" fill="#535353"/>
</svg>
