<svg width="64" height="64" viewBox="0 0 64 64" fill="none" xmlns="http://www.w3.org/2000/svg">
<path d="M31.9583 6.41553L48.9167 15.7426V47.9634L31.9583 57.2905L15 47.9634V15.7426L31.9583 6.41553Z" fill="#B669FE"/>
<path d="M31.959 15.1239V6.41553L48.9173 15.6655L41.7507 20.2905L31.959 15.1239Z" fill="#F2E6FC"/>
<path d="M31.959 48.5822V57.2905L48.9173 48.0405L41.7507 43.4155L31.959 48.5822Z" fill="#B669FE"/>
<path d="M48.9167 48.0405V15.6655L41.75 20.2905V43.4155L48.9167 48.0405Z" fill="#D59FF7"/>
<path d="M31.959 15.1239V6.41553L15.0007 15.6655L22.1673 20.2905L31.959 15.1239Z" fill="#B669FE"/>
<path d="M31.959 48.5822V57.2905L15.0007 48.0405L22.1673 43.4155L31.959 48.5822Z" fill="#8100E0"/>
<path d="M14.9993 48.0405V15.6655L22.166 20.2905V43.4155L14.9993 48.0405Z" fill="#953DE6"/>
</svg>
