<svg width="64" height="64" viewBox="0 0 64 64" fill="none" xmlns="http://www.w3.org/2000/svg">
<path d="M42.0198 12H22.8198L8.81982 26.4681L32.4198 52L56.0198 26.4681L42.0198 12Z" fill="#FCF093"/>
<path d="M32.4199 51.9999L56.0199 26.468L32.4199 27.7446V51.9999Z" fill="#F18169"/>
<path d="M8.81982 26.468L32.4198 51.9999V27.3191L8.81982 26.468Z" fill="#EB4824"/>
<path d="M56.0206 26.4681L42.0206 12L33.6206 27.7447L56.0206 26.4681Z" fill="#FFFAD3"/>
<path d="M42.0208 12H22.8208L32.4208 30.2979L42.0208 12Z" fill="#FFFA7D"/>
<path d="M22.8198 12L8.81982 26.4681L30.8198 27.3191L22.8198 12Z" fill="#F7BF61"/>
<path d="M22.8198 12L8.81982 26.4681L30.8198 27.3191L22.8198 12Z" fill="#FFCD78"/>
<path d="M38.4395 18.8086H26.3988L17.6191 26.8846L32.4191 42.6384L47.2191 26.8846L38.4395 18.8086Z" fill="#FFCD78"/>
</svg>
