<svg width="64" height="64" viewBox="0 0 64 64" fill="none" xmlns="http://www.w3.org/2000/svg">
<path d="M42.0203 12H22.8203L8.82031 26.4681L32.4203 52L56.0203 26.4681L42.0203 12Z" fill="#FCF093"/>
<path d="M32.4219 52.0007L56.0219 26.4688L32.4219 27.7453V52.0007Z" fill="#F18169"/>
<path d="M8.82031 26.4688L32.4203 52.0007V27.3198L8.82031 26.4688Z" fill="#EB4824"/>
<path d="M56.0172 26.4681L42.0172 12L33.6172 27.7447L56.0172 26.4681Z" fill="#FFFAD3"/>
<path d="M42.0203 12H22.8203L32.4203 30.2979L42.0203 12Z" fill="#FFFA7D"/>
<path d="M22.8203 12L8.82031 26.4681L30.8203 27.3191L22.8203 12Z" fill="#F7BF61"/>
<path d="M22.8203 12L8.82031 26.4681L30.8203 27.3191L22.8203 12Z" fill="#FFCD78"/>
<path d="M38.4375 18.8086H26.3968L17.6172 26.8846L32.4172 42.6384L47.2172 26.8846L38.4375 18.8086Z" fill="#FFCD78"/>
</svg>
