<svg width="42" height="32" viewBox="0 0 42 32" fill="none" xmlns="http://www.w3.org/2000/svg">
<path d="M30.9502 25.4739C30.5282 23.6024 29.2506 19.7733 25.4528 16.2255C25.3394 16.1201 25.3238 15.9481 25.4254 15.827C25.781 15.3933 26.578 14.3345 26.9336 13.0959C27.1407 12.3652 27.1133 11.5916 26.8906 10.8688C26.4452 9.43874 25.2183 6.41065 22.452 4.79698C21.4909 4.23434 20.3148 4.23434 19.3497 4.79698C16.5873 6.41065 15.3604 9.43874 14.915 10.8688C14.6923 11.5916 14.665 12.3652 14.872 13.0959C15.2276 14.3345 16.0247 15.3933 16.3802 15.827C16.4779 15.9481 16.4662 16.1201 16.3529 16.2255C12.5551 19.7733 11.2735 23.6024 10.8554 25.4739C10.7226 26.0717 11.1719 26.6422 11.7775 26.6422H20.9009H30.0281C30.6337 26.6422 31.083 26.0717 30.9502 25.4739Z" fill="#456B93"/>
<path d="M24.1711 10.4338C22.6122 10.1799 20.9008 10.1955 20.9008 10.1955C20.9008 10.1955 19.1894 10.1799 17.6344 10.4338C16.2043 10.6683 15.3995 12.239 16.0207 13.5596C16.0285 13.5752 16.0363 13.5909 16.0442 13.6065C16.0442 13.6065 16.5521 14.763 18.494 16.3415C18.494 16.3415 19.7247 17.3261 20.4437 18.3967C20.6625 18.7249 21.1391 18.7249 21.3579 18.3967C22.0808 17.3261 23.3115 16.3415 23.3115 16.3415C25.2534 14.763 25.7614 13.6065 25.7614 13.6065C25.7718 13.583 25.7822 13.5609 25.7926 13.5401C26.41 12.2155 25.5973 10.6683 24.1711 10.4338Z" fill="#313E54"/>
<path d="M20.8999 19.4609H14.6249C14.1287 19.4609 13.7575 19.8985 13.8669 20.3557L15.2305 26.1266C15.3008 26.4275 15.5587 26.6424 15.8518 26.6424H20.8999H25.9519C26.2449 26.6424 26.5028 26.4275 26.5731 26.1266L27.9367 20.3557C28.0422 19.8985 27.675 19.4609 27.1787 19.4609H20.8999Z" fill="#F2FFFF"/>
<path d="M26.4145 20.1523H21.3469H19.108C18.7486 20.1523 18.5767 20.6173 18.8345 20.8752L23.3747 25.4271C23.7107 25.7631 24.1522 25.9467 24.6133 25.9467H25.4221C25.6604 25.9467 25.8675 25.7748 25.9261 25.5326L27.024 20.8752C27.11 20.504 26.813 20.1523 26.4145 20.1523Z" fill="#C1E3EA"/>
</svg>
