<svg width="82" height="81" viewBox="0 0 82 81" fill="none" xmlns="http://www.w3.org/2000/svg">
<rect x="0.5" width="81" height="81" rx="40.5" fill="#EE7A30" fill-opacity="0.1"/>
<g filter="url(#filter0_d_13242_207807)">
<rect x="40.6587" y="50.9951" width="13.9182" height="13.9182" transform="rotate(-135 40.6587 50.9951)" fill="#E88036"/>
<path d="M22.0654 41.1553L30.8143 41.1553L40.6567 31.3128L40.6567 22.5641L22.0654 41.1553Z" fill="#EF883B"/>
<path d="M59.2476 41.1509L50.4987 41.1509L40.6563 50.9976L40.6563 59.7421L59.2476 41.1509Z" fill="#E88036"/>
<path d="M40.6587 22.5635V31.3124L50.499 41.1547L59.2499 41.1547L40.6587 22.5635Z" fill="#FFBA6D"/>
<path d="M40.6587 59.7461L40.6587 50.9972L30.8141 41.1549L22.0675 41.1549L40.6587 59.7461Z" fill="#C55B16"/>
</g>
<path d="M63.4876 23.53L61.3419 22.0691C60.7196 21.6454 59.9015 21.6454 59.2793 22.0691L57.1336 23.53L58.5945 21.3843C59.0182 20.7621 59.0182 19.944 58.5945 19.3217L57.1336 17.176L59.2793 18.637C59.9015 19.0607 60.7196 19.0607 61.3419 18.637L63.4876 17.176L62.0266 19.3217C61.6029 19.944 61.6029 20.7621 62.0266 21.3843L63.4876 23.53Z" fill="white"/>
<path d="M61.1138 30.4106L54.4052 31.6842C53.4796 31.8599 52.7556 32.5839 52.5799 33.5095L51.3062 40.2181L50.0326 33.5095C49.8568 32.5839 49.1329 31.8599 48.2073 31.6842L41.4987 30.4106L48.2073 29.1369C49.1329 28.9612 49.8568 28.2372 50.0326 27.3116L51.3062 20.603L52.5799 27.3116C52.7556 28.2372 53.4796 28.9612 54.4052 29.1369L61.1138 30.4106Z" fill="white"/>
<defs>
<filter id="filter0_d_13242_207807" x="6.50049" y="6.99951" width="68" height="68" filterUnits="userSpaceOnUse" color-interpolation-filters="sRGB">
<feFlood flood-opacity="0" result="BackgroundImageFix"/>
<feColorMatrix in="SourceAlpha" type="matrix" values="0 0 0 0 0 0 0 0 0 0 0 0 0 0 0 0 0 0 127 0" result="hardAlpha"/>
<feOffset/>
<feGaussianBlur stdDeviation="5"/>
<feComposite in2="hardAlpha" operator="out"/>
<feColorMatrix type="matrix" values="0 0 0 0 0.933333 0 0 0 0 0.478431 0 0 0 0 0.188235 0 0 0 0.4 0"/>
<feBlend mode="normal" in2="BackgroundImageFix" result="effect1_dropShadow_13242_207807"/>
<feBlend mode="normal" in="SourceGraphic" in2="effect1_dropShadow_13242_207807" result="shape"/>
</filter>
</defs>
</svg>
