<svg width="42" height="32" viewBox="0 0 42 32" fill="none" xmlns="http://www.w3.org/2000/svg">
<path d="M29.5397 21.2928C28.7856 21.2928 28.1722 21.9062 28.1722 22.6603V23.2464H25.3981V21.4764C26.4452 20.8122 27.3399 19.9214 28.0081 18.8625C28.8559 17.5224 29.3053 15.9712 29.3053 14.3771C29.3053 12.1343 28.4301 10.0244 26.8437 8.4381C25.2574 6.85178 23.1475 5.97656 20.9048 5.97656C18.6621 5.97656 16.5522 6.85178 14.9658 8.4381C13.3795 10.0244 12.5043 12.1343 12.5043 14.3771C12.5043 15.9712 12.9536 17.5224 13.8015 18.8625C14.4696 19.9214 15.3644 20.8122 16.4115 21.4764V23.2464H13.6374V22.6603C13.6374 21.9062 13.024 21.2928 12.2699 21.2928C11.5158 21.2928 10.9023 21.9062 10.9023 22.6603V24.6139C10.9023 25.368 11.5158 25.9814 12.2699 25.9814H17.779C18.5331 25.9814 19.1465 25.368 19.1465 24.6139V20.6794C19.1465 20.1597 18.8535 19.683 18.3885 19.4525C16.4467 18.4874 15.2393 16.5416 15.2393 14.3771C15.2393 11.2513 17.779 8.71161 20.9048 8.71161C24.0305 8.71161 26.5702 11.2513 26.5702 14.3771C26.5702 16.5416 25.3629 18.4874 23.421 19.4525C22.9561 19.683 22.663 20.1597 22.663 20.6794V24.6139C22.663 25.368 23.2765 25.9814 24.0305 25.9814H29.5397C30.2938 25.9814 30.9072 25.368 30.9072 24.6139V22.6603C30.9072 21.9062 30.2938 21.2928 29.5397 21.2928Z" fill="#46F8FF"/>
<path d="M29.5412 21.2928C28.7871 21.2928 28.1736 21.9062 28.1736 22.6603V23.2464H25.3995V21.4764C26.4467 20.8122 27.3414 19.9214 28.0095 18.8625C28.8574 17.5224 29.3067 15.9712 29.3067 14.3771C29.3067 12.1343 28.4315 10.0244 26.8452 8.4381C25.2589 6.85178 23.149 5.97656 20.9062 5.97656V8.71161C24.032 8.71161 26.5717 11.2513 26.5717 14.3771C26.5717 16.5416 25.3644 18.4874 23.4225 19.4525C22.9575 19.683 22.6645 20.1597 22.6645 20.6794V24.6139C22.6645 25.368 23.2779 25.9814 24.032 25.9814H29.5412C30.2953 25.9814 30.9087 25.368 30.9087 24.6139V22.6603C30.9087 21.9062 30.2953 21.2928 29.5412 21.2928Z" fill="#2EBEEF"/>
</svg>
