<svg width="52" height="40" viewBox="0 0 52 40" fill="none" xmlns="http://www.w3.org/2000/svg">
<path d="M31.6195 17.3203C31.6195 17.3203 35.8378 19.1935 36.3049 21.0667C36.772 22.9398 34.8988 25.018 34.8988 25.018C34.6366 26.629 33.4975 27.1581 33.4975 27.1581C32.9875 28.4259 31.6195 28.0923 31.6195 28.0923C30.6853 28.5641 29.8941 28.0017 29.2793 27.1581C28.4976 26.0809 27.9637 26.567 27.3584 25.7139C26.8675 25.0275 26 22.6777 26 21.1239C26 20.1897 26 17.3203 26 17.3203H31.6195Z" fill="#6EB4F0"/>
<path d="M26.9414 17.3203H31.622C31.622 17.3203 35.8402 19.1935 36.3073 21.0667C36.7744 22.9398 34.9012 25.018 34.9012 25.018C34.9012 25.018 29.7488 22.9398 26.9414 17.3203Z" fill="#78C8FF"/>
<path d="M27.3584 25.7139C26.8675 25.0275 26 22.6777 26 21.1239C26 20.1897 26 17.3203 26 17.3203H26.939C26.9962 21.1572 29.2793 27.1581 29.2793 27.1581C28.4976 26.0809 27.9637 26.5623 27.3584 25.7139Z" fill="#6B829B"/>
<path d="M38.0804 7.48438C39.0098 7.48438 39.5865 7.93241 39.5865 8.89045C39.5865 9.35755 39.3959 10.001 39.0146 10.7636C37.6085 13.5758 38.5475 16.855 37.1414 17.7892C35.7353 18.7282 26.9414 17.3221 26.9414 17.3221V16.3832C26.9414 16.3832 30.5686 7.48438 38.0804 7.48438Z" fill="#6EB4F0"/>
<path d="M38.0804 7.48438C39.0098 7.48438 39.5865 7.93241 39.5865 8.89045C39.5865 9.05727 39.5532 9.25746 39.5055 9.46718C36.8173 11.4881 31.7697 15.0676 26.9414 17.3221V16.3832C26.9414 16.3832 30.5686 7.48438 38.0804 7.48438Z" fill="#5F9BEB"/>
<path d="M35.3731 9.35755C30.845 10.4872 28.3046 14.8389 27.1797 17.3603C27.0272 17.3364 26.9414 17.3221 26.9414 17.3221V16.3832C26.9414 16.3832 30.5686 7.48438 38.0804 7.48438C39.0098 7.48438 39.5865 7.93241 39.5865 8.89045C39.5865 9.35279 39.4007 9.98671 39.0289 10.735C38.2234 9.46241 36.7982 9.00008 35.3731 9.35755Z" fill="#5A464B"/>
<path d="M20.3812 17.3203C20.3812 17.3203 16.163 19.1935 15.6959 21.0667C15.2288 22.9398 17.102 25.018 17.102 25.018C17.3641 26.629 18.5033 27.1581 18.5033 27.1581C19.0133 28.4259 20.3812 28.0923 20.3812 28.0923C21.3154 28.5641 22.1066 28.0017 22.7215 27.1581C23.5032 26.0809 24.037 26.567 24.6423 25.7139C25.1333 25.0275 26.0008 22.6777 26.0008 21.1239C26.0008 20.1897 26.0008 17.3203 26.0008 17.3203H20.3812Z" fill="#6EB4F0"/>
<path d="M25.0618 17.3203H20.3812C20.3812 17.3203 16.163 19.1935 15.6959 21.0667C15.2288 22.9398 17.102 25.018 17.102 25.018C17.102 25.018 22.2544 22.9398 25.0618 17.3203Z" fill="#78C8FF"/>
<path d="M24.6396 25.7139C25.1305 25.0275 25.998 22.6777 25.998 21.1239C25.998 20.1897 25.998 17.3203 25.998 17.3203H25.059C25.0018 21.1572 22.7188 27.1581 22.7188 27.1581C23.5004 26.0809 24.0343 26.5623 24.6396 25.7139Z" fill="#6B829B"/>
<path d="M26.0025 15.6795C25.8928 15.6795 25.7927 15.5985 25.7737 15.4888C25.3209 13.2439 23.9768 11.8759 23.9625 11.8616C23.8719 11.7711 23.8719 11.6233 23.9625 11.5328C24.053 11.4422 24.2008 11.4422 24.2961 11.5328C24.3438 11.5852 25.4114 12.6672 26.0025 14.5117C26.5935 12.6672 27.6564 11.5852 27.7088 11.5328C27.8041 11.4422 27.9471 11.4422 28.0425 11.5328C28.133 11.6233 28.133 11.7711 28.0425 11.8616C28.0282 11.8759 26.6793 13.2534 26.2312 15.4888C26.2074 15.5985 26.1121 15.6795 26.0025 15.6795Z" fill="#908490"/>
<path d="M13.9202 7.48438C12.9908 7.48438 12.4141 7.93241 12.4141 8.89045C12.4141 9.35755 12.6047 10.001 12.986 10.7636C14.3921 13.5758 13.4531 16.855 14.8592 17.7892C16.2653 18.7282 25.0592 17.3221 25.0592 17.3221V16.3832C25.0592 16.3832 21.432 7.48438 13.9202 7.48438Z" fill="#6EB4F0"/>
<path d="M13.9202 7.48438C12.9908 7.48438 12.4141 7.93241 12.4141 8.89045C12.4141 9.05727 12.4474 9.25746 12.4951 9.46718C15.1833 11.4881 20.2309 15.0676 25.0592 17.3221V16.3832C25.0592 16.3832 21.432 7.48438 13.9202 7.48438Z" fill="#5F9BEB"/>
<path d="M16.6275 9.35755C21.1556 10.4872 23.696 14.8389 24.8209 17.3603C24.9734 17.3364 25.0592 17.3221 25.0592 17.3221V16.3832C25.0592 16.3832 21.432 7.48438 13.9202 7.48438C12.9908 7.48438 12.4141 7.93241 12.4141 8.89045C12.4141 9.35279 12.6 9.98195 12.9717 10.735C13.7772 9.46241 15.2024 9.00008 16.6275 9.35755Z" fill="#5A464B"/>
<path d="M26.0015 19.1956C25.4819 19.1956 25.0625 18.7761 25.0625 18.2566V16.3834C25.0625 15.8687 25.4819 15.4492 26.0015 15.4492C26.5162 15.4492 26.9357 15.8687 26.9357 16.3834V18.2566C26.9357 18.7761 26.5162 19.1956 26.0015 19.1956Z" fill="#5A464B"/>
<path d="M26.0023 16.3826C25.7449 16.3826 25.5352 16.1729 25.5352 15.9155V15.4484C25.5352 15.1863 25.7449 14.9766 26.0023 14.9766C26.2596 14.9766 26.4694 15.1863 26.4694 15.4484V15.9155C26.4694 16.1729 26.2596 16.3826 26.0023 16.3826Z" fill="#463246"/>
</svg>
