<svg width="42" height="32" viewBox="0 0 42 32" fill="none" xmlns="http://www.w3.org/2000/svg">
<path d="M31.3288 17.8664L27.482 9.09864L18.7641 5.05469L10.3366 25.2979C10.1129 25.8449 10.6585 26.388 11.208 26.1653L16.0046 24.1844C16.1538 24.1258 16.3147 24.2312 16.3147 24.3914V25.2276C16.3147 25.7746 16.7622 26.2161 17.3078 26.2161C17.8574 26.2161 18.3048 25.7746 18.3048 25.2276V23.5358C18.3048 23.356 18.4147 23.1919 18.5835 23.1216L21.7355 21.8205C21.8846 21.7619 22.0495 21.8674 22.0495 22.0276V24.1531C22.0495 24.7001 22.4931 25.1416 23.0426 25.1416C23.5921 25.1416 24.0357 24.7001 24.0357 24.1531V21.1719C24.0357 20.9922 24.1456 20.8281 24.3144 20.7577L24.966 20.4921C25.1112 20.4295 25.276 20.5389 25.276 20.6991V21.1367C25.276 21.6837 25.7196 22.1292 26.2691 22.1292C26.8187 22.1292 27.2661 21.6837 27.2661 21.1367V19.8435C27.2661 19.6598 27.376 19.4957 27.5409 19.4293L31.3288 17.8664Z" fill="#FFE177"/>
<path d="M17.4018 13.7404C17.2723 13.6075 17.2723 13.3965 17.4018 13.2637C17.5353 13.1309 17.7473 13.1309 17.8807 13.2637C18.0102 13.3965 18.0102 13.6075 17.8807 13.7404C17.7473 13.8693 17.5353 13.8693 17.4018 13.7404Z" fill="#7A6D79"/>
<path d="M26.6587 16.6271C26.5252 16.4982 26.5252 16.2833 26.6587 16.1543C26.7921 16.0215 27.0041 16.0215 27.1376 16.1543C27.2671 16.2833 27.2671 16.4982 27.1376 16.6271C27.0041 16.7599 26.7921 16.7599 26.6587 16.6271Z" fill="#7A6D79"/>
<path d="M15.1665 18.0578C15.033 17.9249 15.033 17.7139 15.1665 17.5811C15.3 17.4521 15.5119 17.4521 15.6454 17.5811C15.7749 17.7139 15.7749 17.9249 15.6454 18.0578C15.5119 18.1906 15.3 18.1906 15.1665 18.0578Z" fill="#7A6D79"/>
<path d="M29.8233 18.9489C29.521 18.652 29.3365 18.2378 29.3365 17.7807C29.3365 11.9745 24.5909 7.25074 18.758 7.25074C17.8395 7.25074 17.0977 6.51227 17.0977 5.59799C17.0977 5.39091 17.1369 5.19164 17.2076 5.00409C17.447 4.38676 18.2988 4.23438 19.0053 4.23438C23.119 4.23438 26.3769 6.20751 28.8066 8.91911C30.9066 11.2634 32.4689 14.0805 32.4689 17.6126C32.4689 18.3198 32.2137 19.0857 31.5935 19.324C31.4051 19.3943 31.2049 19.4334 30.9969 19.4334C30.5377 19.4334 30.1216 19.2498 29.8233 18.9489Z" fill="#FE9738"/>
<path d="M18.7575 3.94531C18.051 3.94531 17.4465 4.38683 17.207 5.00417C17.3915 4.93384 17.5917 4.89476 17.8037 4.89476C25.4657 4.89476 31.7029 11.1033 31.7029 18.7302C31.7029 18.9412 31.6637 19.1404 31.593 19.3241C32.2132 19.0857 32.6568 18.484 32.6568 17.7807C32.6568 10.15 26.4235 3.94531 18.7575 3.94531Z" fill="#FE7701"/>
<path d="M21.3086 11.31C20.8925 11.7241 20.4882 12.0367 19.9661 11.8765C19.7346 11.8062 19.5187 11.6811 19.3381 11.5014C18.7415 10.9075 18.7415 9.94634 19.3381 9.35244C19.5187 9.17271 19.7346 9.04768 19.9661 8.97735C20.4882 8.81715 20.7983 9.1649 21.2144 9.57515C21.8071 10.169 21.9013 10.72 21.3086 11.31Z" fill="#FE646F"/>
<path d="M21.4957 9.35273C21.0835 8.94247 20.4908 8.81744 19.9688 8.97764C20.2003 9.04797 20.4162 9.173 20.5968 9.35273C21.1934 9.94662 21.1934 10.9078 20.5968 11.5017C20.4162 11.6814 20.2003 11.8065 19.9688 11.8768C20.4908 12.037 21.0835 11.9119 21.4957 11.5017C22.0923 10.9078 22.0923 9.94662 21.4957 9.35273Z" fill="#FD4755"/>
<path d="M24.2187 17.8451C23.8027 18.2593 23.3984 18.5718 22.8763 18.4116C22.6486 18.3413 22.4288 18.2163 22.2483 18.0365C21.6516 17.4426 21.6516 16.4815 22.2483 15.8876C22.4288 15.7078 22.6486 15.5789 22.8763 15.5086C23.3984 15.3484 23.7084 15.6961 24.1245 16.1103C24.7212 16.7042 24.8154 17.2512 24.2187 17.8451Z" fill="#FE646F"/>
<path d="M24.4058 15.8871C23.9898 15.4769 23.3971 15.3479 22.875 15.5081C23.1066 15.5785 23.3225 15.7074 23.503 15.8871C24.0997 16.481 24.0997 17.4422 23.503 18.0361C23.3225 18.2158 23.1066 18.3409 22.875 18.4112C23.3971 18.5714 23.9898 18.4464 24.4058 18.0361C24.9986 17.4422 24.9986 16.481 24.4058 15.8871Z" fill="#FD4755"/>
<path d="M18.9401 20.9909C18.6261 21.3034 18.3042 21.4519 17.9156 21.3073C17.7704 21.2565 17.633 21.1706 17.5191 21.0573C17.0874 20.6275 17.0874 19.932 17.5191 19.5022C17.633 19.3889 17.7704 19.3029 17.9156 19.2522C18.3042 19.1076 18.6849 19.4084 18.999 19.721C19.4307 20.1508 19.3719 20.5611 18.9401 20.9909Z" fill="#FE646F"/>
<path d="M19.0759 19.5027C18.7619 19.1901 18.3027 19.1081 17.9141 19.2526C18.0593 19.3073 18.1928 19.3894 18.3105 19.5027C18.7423 19.9325 18.7423 20.628 18.3105 21.0578C18.1928 21.1711 18.0593 21.2531 17.9141 21.3078C18.3027 21.4524 18.7619 21.3703 19.0759 21.0578C19.5077 20.628 19.5077 19.9325 19.0759 19.5027Z" fill="#FD4755"/>
<path d="M18.7891 14.1641C18.7891 14.0313 18.895 13.9297 19.0246 13.9297H19.7704C19.8999 13.9297 20.0059 14.0313 20.0059 14.1641V17.4305C20.0059 17.5595 19.8999 17.665 19.7704 17.665H19.0246C18.895 17.665 18.7891 17.5595 18.7891 17.4305V14.1641Z" fill="#97DA7B"/>
<path d="M19.9173 13.9297H19.2422C19.3678 13.9297 19.4659 14.0274 19.4659 14.1524V17.4423C19.4659 17.5634 19.3678 17.665 19.2422 17.665H19.9173C20.0429 17.665 20.1411 17.5634 20.1411 17.4423V14.1524C20.1411 14.0274 20.0429 13.9297 19.9173 13.9297Z" fill="#68CA44"/>
<path d="M23.3616 12.1271L23.9072 11.584C23.9936 11.498 24.1349 11.498 24.2252 11.584L26.5607 13.9127C26.6471 13.9987 26.6471 14.1393 26.5607 14.2292L26.019 14.7684C25.9287 14.8543 25.7874 14.8543 25.7011 14.7684L23.3616 12.4436C23.2753 12.3537 23.2753 12.2131 23.3616 12.1271Z" fill="#97DA7B"/>
<path d="M24.0023 11.4903L23.5234 11.9669C23.6137 11.881 23.755 11.881 23.8414 11.9669L26.1769 14.2917C26.2672 14.3816 26.2672 14.5222 26.1769 14.6082L26.6558 14.1315C26.7461 14.0456 26.7461 13.9049 26.6558 13.815L24.3203 11.4903C24.2339 11.4043 24.0887 11.4043 24.0023 11.4903Z" fill="#68CA44"/>
<path d="M13.474 21.3302L14.0156 20.791C14.102 20.7051 14.2472 20.7051 14.3336 20.791L15.7153 22.1664C15.8016 22.2523 15.8016 22.3969 15.7153 22.4829L15.1736 23.022C15.0833 23.1119 14.942 23.1119 14.8556 23.022L13.474 21.6467C13.3837 21.5608 13.3837 21.4201 13.474 21.3302Z" fill="#97DA7B"/>
<path d="M14.1117 20.6963L13.6328 21.1691C13.7231 21.0831 13.8644 21.0831 13.9508 21.1691L15.3324 22.5444C15.4227 22.6343 15.4227 22.7749 15.3324 22.8609L15.8113 22.3881C15.9016 22.2983 15.9016 22.1576 15.8113 22.0716L14.4296 20.6963C14.3433 20.6064 14.202 20.6064 14.1117 20.6963Z" fill="#68CA44"/>
</svg>
