<svg width="42" height="32" viewBox="0 0 42 32" fill="none" xmlns="http://www.w3.org/2000/svg">
<path d="M26.0455 6.41406V10.3095C26.0455 11.3371 25.7446 12.2944 25.225 13.0993C25.0257 13.4041 24.7952 13.6893 24.5373 13.9472C23.6074 14.8771 22.3219 15.4514 20.9036 15.4514C19.0946 15.4514 17.5004 14.5137 16.5861 13.0993C16.0665 12.2944 15.7656 11.3371 15.7656 10.3095V6.41406H26.0455Z" fill="#F1EDED"/>
<path d="M26.0443 6.41406V10.3095C26.0443 11.3371 25.7435 12.2944 25.2238 13.0993C25.0246 13.4041 24.794 13.6893 24.5362 13.9472C23.6063 14.8771 22.3208 15.4514 20.9025 15.4514C20.7358 15.4514 20.5704 15.4436 20.4062 15.428C21.6253 15.3108 22.7193 14.7677 23.5398 13.9472C23.7977 13.6893 24.0282 13.4041 24.2275 13.0993C24.7472 12.2944 25.048 11.3371 25.048 10.3095V6.41406H26.0443Z" fill="#DAD0CD"/>
<path d="M25.2248 13.1018C25.0255 13.4065 24.795 13.6918 24.5371 13.9496C23.6072 14.8795 22.3217 15.4539 20.9034 15.4539C20.7367 15.4539 20.5713 15.4461 20.4072 15.4305C18.8013 15.2742 17.4143 14.3833 16.5859 13.1018C17.6917 12.586 19.2194 12.2695 20.9034 12.2695C22.2123 12.2695 23.4235 12.4571 24.416 12.7853C24.7051 12.8791 24.9747 12.9845 25.2248 13.1018Z" fill="#CF8671"/>
<path d="M25.2238 13.1016C25.0246 13.4064 24.794 13.6916 24.5362 13.9495C23.6063 14.8794 22.3208 15.4538 20.9025 15.4538C20.7358 15.4538 20.5704 15.446 20.4062 15.4303C21.6253 15.3131 22.7193 14.77 23.5398 13.9495C23.7977 13.6916 24.0282 13.4064 24.2275 13.1016C24.2926 12.9974 24.3551 12.892 24.415 12.7852C24.7042 12.8789 24.9738 12.9844 25.2238 13.1016Z" fill="#BE7560"/>
<path d="M15.9926 6.8714C16.5005 6.8714 16.9108 7.27384 16.9108 7.77397C16.9108 8.27018 16.5005 8.67653 15.9926 8.67653C15.1369 8.67653 14.4375 7.98886 14.4375 7.141C14.4375 6.29314 15.1369 5.60547 15.9926 5.60547H25.8153C26.6749 5.60547 27.3703 6.29314 27.3703 7.141C27.3703 7.98886 26.6749 8.67653 25.8153 8.67653C25.3113 8.67653 24.901 8.27018 24.901 7.77397C24.901 7.27384 25.3113 6.8714 25.8153 6.8714H15.9926Z" fill="#F6CB43"/>
<path d="M27.3716 7.141C27.3716 7.98886 26.6762 8.67653 25.8166 8.67653C25.715 8.67653 25.6134 8.65699 25.5235 8.62964C26.1956 8.45773 26.6918 7.85602 26.6918 7.141C26.6918 6.29314 25.9963 5.60547 25.1367 5.60547H25.8166C26.6762 5.60547 27.3716 6.29314 27.3716 7.141Z" fill="#FAB03C"/>
<path d="M26.0455 20.595V24.4905H15.7656V20.595C15.7656 20.371 15.7786 20.1496 15.8047 19.9308C15.9063 19.1572 16.1798 18.4343 16.5861 17.8053C16.7815 17.5005 17.012 17.2153 17.2699 16.9574C18.1998 16.0275 19.4853 15.4531 20.9036 15.4531C22.7165 15.4531 24.3107 16.3909 25.225 17.8053C25.6313 18.4343 25.9009 19.1572 26.0025 19.9308C26.0312 20.1496 26.0455 20.371 26.0455 20.595Z" fill="#F1EDED"/>
<path d="M26.0443 20.595V24.4905H25.048V20.595C25.048 20.371 25.0337 20.1496 25.005 19.9308C24.9034 19.1572 24.6338 18.4343 24.2275 17.8053C23.3953 16.5237 22.0082 15.6329 20.4062 15.4766C20.5704 15.4609 20.7358 15.4531 20.9025 15.4531C22.7154 15.4531 24.3056 16.3909 25.2238 17.8053C25.6302 18.4343 25.9037 19.1572 26.0014 19.9308C26.03 20.1496 26.0443 20.371 26.0443 20.595Z" fill="#DAD0CD"/>
<path d="M26.0455 20.594V24.4895H15.7656V20.594C15.7656 20.37 15.7786 20.1486 15.8047 19.9298C17.3637 19.6094 19.0907 19.4297 20.9036 19.4297C22.3297 19.4297 23.7012 19.5391 24.9788 19.7423C25.3279 19.7996 25.6691 19.8621 26.0025 19.9298C26.0312 20.1486 26.0455 20.37 26.0455 20.594Z" fill="#CF8671"/>
<path d="M26.0471 20.594V24.4894H25.0508V20.594C25.0508 20.3699 25.0365 20.1485 25.0078 19.9297C25 19.8672 24.9909 19.8047 24.9805 19.7422C25.3295 19.7995 25.6707 19.862 26.0042 19.9297C26.0328 20.1485 26.0471 20.3699 26.0471 20.594Z" fill="#BE7560"/>
<path d="M15.9926 24.0317C16.5005 24.0317 16.9108 23.6292 16.9108 23.1291C16.9108 22.6329 16.5005 22.2266 15.9926 22.2266C15.1369 22.2266 14.4375 22.9142 14.4375 23.7621C14.4375 24.61 15.1369 25.2976 15.9926 25.2976H25.8153C26.6749 25.2976 27.3703 24.61 27.3703 23.7621C27.3703 22.9142 26.6749 22.2266 25.8153 22.2266C25.3113 22.2266 24.901 22.6329 24.901 23.1291C24.901 23.6292 25.3113 24.0317 25.8153 24.0317H15.9926Z" fill="#F6CB43"/>
<path d="M27.3716 23.7621C27.3716 22.9142 26.6762 22.2266 25.8166 22.2266C25.715 22.2266 25.6134 22.2461 25.5235 22.2734C26.1956 22.4454 26.6918 23.0471 26.6918 23.7621C26.6918 24.61 25.9963 25.2976 25.1367 25.2976H25.8166C26.6762 25.2976 27.3716 24.61 27.3716 23.7621Z" fill="#FAB03C"/>
<path d="M20.586 18.1259C20.4024 18.1259 20.2578 17.9774 20.2578 17.7938V14.8048C20.2578 14.6211 20.4024 14.4727 20.586 14.4727C20.7697 14.4727 20.9142 14.6211 20.9142 14.8048V17.7938C20.9142 17.9774 20.7697 18.1259 20.586 18.1259Z" fill="#BE7560"/>
<path d="M21.4415 16.6295C21.2578 16.6295 21.1094 16.4811 21.1094 16.2974V14.3399C21.1094 14.1602 21.2578 14.0117 21.4415 14.0117C21.6212 14.0117 21.7697 14.1602 21.7697 14.3399V16.2974C21.7697 16.4811 21.6212 16.6295 21.4415 16.6295Z" fill="#CF8671"/>
<path d="M21.4415 18.1252C21.2578 18.1252 21.1094 17.9768 21.1094 17.7931V17.4727C21.1094 17.293 21.2578 17.1445 21.4415 17.1445C21.6212 17.1445 21.7697 17.293 21.7697 17.4727V17.7931C21.7697 17.9768 21.6212 18.1252 21.4415 18.1252Z" fill="#BE7560"/>
<path d="M19.6641 21.8439C19.4844 21.8439 19.332 21.6954 19.332 21.5118C19.332 21.3321 19.4805 21.1836 19.6602 21.1836H19.6641C19.8478 21.1836 19.9923 21.3321 19.9923 21.5118C19.9923 21.6954 19.8478 21.8439 19.6641 21.8439Z" fill="#BE7560"/>
<path d="M22.8868 13.7541C22.7071 13.7541 22.5547 13.6056 22.5547 13.4259C22.5547 13.2422 22.7032 13.0938 22.8829 13.0938H22.8868C23.0704 13.0938 23.2189 13.2422 23.2189 13.4259C23.2189 13.6056 23.0704 13.7541 22.8868 13.7541Z" fill="#BE7560"/>
<path d="M18.8048 22.2853C18.6212 22.2853 18.4727 22.1368 18.4766 21.9532C18.4766 21.7735 18.6212 21.6289 18.8009 21.6289H18.8048H18.8088C18.9924 21.6289 19.137 21.7774 19.137 21.961C19.133 22.1407 18.9885 22.2853 18.8048 22.2853Z" fill="#BE7560"/>
<path d="M27.3353 5.73858H14.4728C14.1407 5.73858 13.8711 5.46898 13.8711 5.13687C13.8711 4.80085 14.1407 4.53125 14.4728 4.53125H27.3353C27.6674 4.53125 27.9409 4.80085 27.9409 5.13687C27.9409 5.46898 27.6674 5.73858 27.3353 5.73858Z" fill="#F8E98E"/>
<path d="M27.3353 26.3753H14.4728C14.1407 26.3753 13.8711 26.1057 13.8711 25.7697C13.8711 25.4376 14.1407 25.168 14.4728 25.168H27.3353C27.6674 25.168 27.9409 25.4376 27.9409 25.7697C27.9409 26.1057 27.6674 26.3753 27.3353 26.3753Z" fill="#F8E98E"/>
</svg>
