<svg width="311" height="255" viewBox="0 0 311 255" fill="none" xmlns="http://www.w3.org/2000/svg">
<g clip-path="url(#clip0_6528_178170)">
<g clip-path="url(#clip1_6528_178170)">
<rect width="139.5" height="232.5" transform="translate(0 21.377)" fill="#171A23"/>
<g opacity="0.2">
<rect x="7.75" y="96.5518" width="18.6" height="18.6" rx="6.2" fill="white"/>
<path d="M12.8703 123.308C12.6316 123.308 12.4224 123.266 12.2426 123.182C12.0628 123.099 11.9217 122.979 11.8194 122.824C11.7202 122.669 11.6691 122.485 11.666 122.271H12.1868C12.1899 122.444 12.2503 122.592 12.3681 122.713C12.4859 122.833 12.6518 122.894 12.8657 122.894C13.0548 122.894 13.202 122.849 13.3074 122.759C13.4159 122.666 13.4702 122.548 13.4702 122.406C13.4702 122.291 13.4438 122.198 13.3911 122.127C13.3415 122.055 13.2718 121.996 13.1819 121.95C13.0951 121.903 12.9943 121.862 12.8796 121.824C12.7649 121.787 12.644 121.747 12.5169 121.704C12.2658 121.62 12.0767 121.511 11.9496 121.378C11.8256 121.245 11.7636 121.07 11.7636 120.853C11.7605 120.67 11.8024 120.51 11.8892 120.374C11.9791 120.237 12.1031 120.132 12.2612 120.057C12.4224 119.98 12.6099 119.941 12.8238 119.941C13.0346 119.941 13.2191 119.98 13.3772 120.057C13.5384 120.135 13.6639 120.243 13.7538 120.383C13.8437 120.519 13.8902 120.679 13.8933 120.862H13.3725C13.3725 120.778 13.3508 120.699 13.3074 120.625C13.264 120.547 13.2005 120.484 13.1168 120.434C13.0331 120.384 12.9308 120.36 12.8099 120.36C12.6549 120.357 12.5262 120.395 12.4239 120.476C12.3247 120.557 12.2751 120.668 12.2751 120.811C12.2751 120.938 12.3123 121.035 12.3867 121.104C12.4611 121.172 12.5634 121.229 12.6936 121.276C12.8238 121.319 12.9726 121.37 13.14 121.429C13.3012 121.482 13.4454 121.545 13.5725 121.62C13.6996 121.694 13.8003 121.792 13.8747 121.913C13.9522 122.034 13.991 122.187 13.991 122.373C13.991 122.537 13.9491 122.691 13.8654 122.833C13.7817 122.973 13.6562 123.088 13.4888 123.178C13.3214 123.264 13.1152 123.308 12.8703 123.308ZM15.5901 123.308C15.3638 123.308 15.1623 123.258 14.9856 123.159C14.812 123.057 14.6756 122.916 14.5764 122.736C14.4772 122.556 14.4276 122.347 14.4276 122.108C14.4276 121.866 14.4756 121.654 14.5717 121.471C14.6709 121.288 14.8073 121.146 14.9809 121.043C15.1576 120.941 15.3622 120.89 15.5947 120.89C15.821 120.89 16.0179 120.941 16.1853 121.043C16.3527 121.142 16.4829 121.276 16.5759 121.443C16.6689 121.611 16.7154 121.795 16.7154 121.996C16.7154 122.027 16.7138 122.062 16.7107 122.099C16.7107 122.133 16.7092 122.172 16.7061 122.215H14.9112C14.9267 122.438 14.9995 122.609 15.1297 122.727C15.263 122.841 15.4165 122.899 15.5901 122.899C15.7296 122.899 15.8458 122.868 15.9388 122.806C16.0349 122.74 16.1062 122.654 16.1527 122.545H16.6456C16.5836 122.762 16.4596 122.944 16.2736 123.089C16.0907 123.235 15.8629 123.308 15.5901 123.308ZM15.5901 121.294C15.4258 121.294 15.2801 121.344 15.153 121.443C15.0259 121.539 14.9484 121.685 14.9205 121.88H16.2225C16.2132 121.7 16.1496 121.558 16.0318 121.452C15.914 121.347 15.7668 121.294 15.5901 121.294ZM17.2268 123.252V120.946H17.6639L17.7011 121.35C17.7724 121.208 17.8763 121.096 18.0127 121.015C18.1522 120.932 18.3118 120.89 18.4916 120.89C18.7706 120.89 18.9892 120.977 19.1473 121.15C19.3085 121.324 19.3891 121.583 19.3891 121.927V123.252H18.9008V121.978C18.9008 121.531 18.7179 121.308 18.3521 121.308C18.1692 121.308 18.0173 121.373 17.8964 121.504C17.7786 121.634 17.7197 121.82 17.7197 122.062V123.252H17.2268ZM21.0205 123.308C20.7973 123.308 20.6004 123.255 20.4299 123.15C20.2594 123.044 20.1261 122.9 20.03 122.717C19.9339 122.534 19.8859 122.327 19.8859 122.094C19.8859 121.862 19.9339 121.655 20.03 121.476C20.1261 121.293 20.2594 121.15 20.4299 121.048C20.6035 120.942 20.8019 120.89 21.0251 120.89C21.208 120.89 21.3677 120.925 21.5041 120.997C21.6436 121.068 21.7521 121.169 21.8296 121.299V119.904H22.3225V123.252H21.8807L21.8296 122.894C21.7552 123.002 21.6529 123.099 21.5227 123.182C21.3925 123.266 21.2251 123.308 21.0205 123.308ZM21.1088 122.88C21.3196 122.88 21.4917 122.807 21.625 122.661C21.7614 122.516 21.8296 122.328 21.8296 122.099C21.8296 121.866 21.7614 121.679 21.625 121.536C21.4917 121.39 21.3196 121.318 21.1088 121.318C20.898 121.318 20.7244 121.39 20.588 121.536C20.4516 121.679 20.3834 121.866 20.3834 122.099C20.3834 122.251 20.4144 122.386 20.4764 122.503C20.5384 122.621 20.6237 122.714 20.7322 122.782C20.8438 122.847 20.9693 122.88 21.1088 122.88Z" fill="white" fill-opacity="0.9"/>
<rect x="35.6504" y="96.5518" width="18.6" height="18.6" rx="6.2" fill="white"/>
<path d="M36.7245 123.252V119.997H37.8451C38.1024 119.997 38.3132 120.04 38.4775 120.127C38.6449 120.214 38.7689 120.332 38.8495 120.481C38.9301 120.626 38.9704 120.789 38.9704 120.969C38.9704 121.17 38.9162 121.353 38.8077 121.518C38.7023 121.682 38.5364 121.8 38.3101 121.871L39.003 123.252H38.431L37.7986 121.941H37.2174V123.252H36.7245ZM37.2174 121.569H37.8172C38.0404 121.569 38.2032 121.514 38.3055 121.406C38.4109 121.297 38.4636 121.156 38.4636 120.983C38.4636 120.809 38.4124 120.671 38.3101 120.569C38.2078 120.464 38.042 120.411 37.8126 120.411H37.2174V121.569ZM40.473 123.308C40.2467 123.308 40.0452 123.258 39.8685 123.159C39.6949 123.057 39.5585 122.916 39.4593 122.736C39.3601 122.556 39.3105 122.347 39.3105 122.108C39.3105 121.866 39.3585 121.654 39.4546 121.471C39.5538 121.288 39.6902 121.146 39.8638 121.043C40.0405 120.941 40.2451 120.89 40.4776 120.89C40.7039 120.89 40.9008 120.941 41.0682 121.043C41.2356 121.142 41.3658 121.276 41.4588 121.443C41.5518 121.611 41.5983 121.795 41.5983 121.996C41.5983 122.027 41.5967 122.062 41.5936 122.099C41.5936 122.133 41.5921 122.172 41.589 122.215H39.7941C39.8096 122.438 39.8824 122.609 40.0126 122.727C40.1459 122.841 40.2994 122.899 40.473 122.899C40.6125 122.899 40.7287 122.868 40.8217 122.806C40.9178 122.74 40.9891 122.654 41.0356 122.545H41.5285C41.4665 122.762 41.3425 122.944 41.1565 123.089C40.9736 123.235 40.7458 123.308 40.473 123.308ZM40.473 121.294C40.3087 121.294 40.163 121.344 40.0359 121.443C39.9088 121.539 39.8313 121.685 39.8034 121.88H41.1054C41.0961 121.7 41.0325 121.558 40.9147 121.452C40.7969 121.347 40.6497 121.294 40.473 121.294ZM43.2024 123.308C42.9761 123.308 42.7731 123.257 42.5933 123.154C42.4166 123.052 42.2771 122.911 42.1748 122.731C42.0756 122.548 42.026 122.337 42.026 122.099C42.026 121.86 42.0756 121.651 42.1748 121.471C42.2771 121.288 42.4166 121.146 42.5933 121.043C42.7731 120.941 42.9761 120.89 43.2024 120.89C43.4876 120.89 43.7263 120.964 43.9185 121.113C44.1138 121.262 44.2394 121.463 44.2952 121.717H43.779C43.748 121.59 43.6798 121.491 43.5744 121.42C43.469 121.349 43.345 121.313 43.2024 121.313C43.0815 121.313 42.9699 121.344 42.8676 121.406C42.7653 121.465 42.6832 121.553 42.6212 121.671C42.5592 121.786 42.5282 121.928 42.5282 122.099C42.5282 122.269 42.5592 122.413 42.6212 122.531C42.6832 122.646 42.7653 122.734 42.8676 122.796C42.9699 122.858 43.0815 122.889 43.2024 122.889C43.345 122.889 43.469 122.854 43.5744 122.782C43.6798 122.711 43.748 122.61 43.779 122.48H44.2952C44.2425 122.728 44.1185 122.928 43.9232 123.08C43.7279 123.232 43.4876 123.308 43.2024 123.308ZM45.9086 123.308C45.6823 123.308 45.4808 123.258 45.3041 123.159C45.1305 123.057 44.9941 122.916 44.8949 122.736C44.7957 122.556 44.7461 122.347 44.7461 122.108C44.7461 121.866 44.7941 121.654 44.8902 121.471C44.9894 121.288 45.1258 121.146 45.2994 121.043C45.4761 120.941 45.6807 120.89 45.9132 120.89C46.1395 120.89 46.3364 120.941 46.5038 121.043C46.6712 121.142 46.8014 121.276 46.8944 121.443C46.9874 121.611 47.0339 121.795 47.0339 121.996C47.0339 122.027 47.0323 122.062 47.0292 122.099C47.0292 122.133 47.0277 122.172 47.0246 122.215H45.2297C45.2452 122.438 45.318 122.609 45.4482 122.727C45.5815 122.841 45.735 122.899 45.9086 122.899C46.0481 122.899 46.1643 122.868 46.2573 122.806C46.3534 122.74 46.4247 122.654 46.4712 122.545H46.9641C46.9021 122.762 46.7781 122.944 46.5921 123.089C46.4092 123.235 46.1814 123.308 45.9086 123.308ZM45.9086 121.294C45.7443 121.294 45.5986 121.344 45.4715 121.443C45.3444 121.539 45.2669 121.685 45.239 121.88H46.541C46.5317 121.7 46.4681 121.558 46.3503 121.452C46.2325 121.347 46.0853 121.294 45.9086 121.294ZM47.8243 120.508C47.7313 120.508 47.6538 120.481 47.5918 120.425C47.5329 120.366 47.5034 120.293 47.5034 120.206C47.5034 120.119 47.5329 120.048 47.5918 119.992C47.6538 119.933 47.7313 119.904 47.8243 119.904C47.9173 119.904 47.9932 119.933 48.0521 119.992C48.1141 120.048 48.1451 120.119 48.1451 120.206C48.1451 120.293 48.1141 120.366 48.0521 120.425C47.9932 120.481 47.9173 120.508 47.8243 120.508ZM47.5778 123.252V120.946H48.0707V123.252H47.5778ZM49.3678 123.252L48.5029 120.946H49.019L49.6607 122.782L50.3024 120.946H50.8139L49.9537 123.252H49.3678ZM52.1797 123.308C51.9534 123.308 51.7519 123.258 51.5752 123.159C51.4016 123.057 51.2652 122.916 51.166 122.736C51.0668 122.556 51.0172 122.347 51.0172 122.108C51.0172 121.866 51.0653 121.654 51.1614 121.471C51.2606 121.288 51.397 121.146 51.5706 121.043C51.7473 120.941 51.9519 120.89 52.1844 120.89C52.4107 120.89 52.6075 120.941 52.7749 121.043C52.9423 121.142 53.0725 121.276 53.1655 121.443C53.2585 121.611 53.305 121.795 53.305 121.996C53.305 122.027 53.3035 122.062 53.3004 122.099C53.3004 122.133 53.2988 122.172 53.2957 122.215H51.5008C51.5163 122.438 51.5892 122.609 51.7194 122.727C51.8527 122.841 52.0061 122.899 52.1797 122.899C52.3192 122.899 52.4355 122.868 52.5285 122.806C52.6246 122.74 52.6959 122.654 52.7424 122.545H53.2353C53.1733 122.762 53.0493 122.944 52.8633 123.089C52.6804 123.235 52.4525 123.308 52.1797 123.308ZM52.1797 121.294C52.0154 121.294 51.8697 121.344 51.7426 121.443C51.6155 121.539 51.538 121.685 51.5101 121.88H52.8121C52.8028 121.7 52.7393 121.558 52.6215 121.452C52.5037 121.347 52.3564 121.294 52.1797 121.294Z" fill="white" fill-opacity="0.9"/>
<rect x="63.5508" y="96.5518" width="18.6" height="18.6" rx="6.2" fill="white"/>
<path d="M68.3442 123.308C68.1055 123.308 67.8962 123.266 67.7164 123.182C67.5366 123.099 67.3956 122.979 67.2933 122.824C67.1941 122.669 67.1429 122.485 67.1398 122.271H67.6606C67.6637 122.444 67.7242 122.592 67.842 122.713C67.9598 122.833 68.1256 122.894 68.3395 122.894C68.5286 122.894 68.6759 122.849 68.7813 122.759C68.8898 122.666 68.944 122.548 68.944 122.406C68.944 122.291 68.9177 122.198 68.865 122.127C68.8154 122.055 68.7456 121.996 68.6557 121.95C68.5689 121.903 68.4682 121.862 68.3535 121.824C68.2388 121.787 68.1179 121.747 67.9908 121.704C67.7397 121.62 67.5506 121.511 67.4235 121.378C67.2995 121.245 67.2375 121.07 67.2375 120.853C67.2344 120.67 67.2762 120.51 67.363 120.374C67.4529 120.237 67.5769 120.132 67.735 120.057C67.8962 119.98 68.0838 119.941 68.2977 119.941C68.5085 119.941 68.6929 119.98 68.851 120.057C69.0122 120.135 69.1378 120.243 69.2277 120.383C69.3176 120.519 69.3641 120.679 69.3672 120.862H68.8464C68.8464 120.778 68.8247 120.699 68.7813 120.625C68.7379 120.547 68.6743 120.484 68.5906 120.434C68.5069 120.384 68.4046 120.36 68.2837 120.36C68.1287 120.357 68.0001 120.395 67.8978 120.476C67.7986 120.557 67.749 120.668 67.749 120.811C67.749 120.938 67.7862 121.035 67.8606 121.104C67.935 121.172 68.0373 121.229 68.1675 121.276C68.2977 121.319 68.4465 121.37 68.6139 121.429C68.7751 121.482 68.9192 121.545 69.0463 121.62C69.1734 121.694 69.2742 121.792 69.3486 121.913C69.4261 122.034 69.4648 122.187 69.4648 122.373C69.4648 122.537 69.423 122.691 69.3393 122.833C69.2556 122.973 69.13 123.088 68.9626 123.178C68.7952 123.264 68.5891 123.308 68.3442 123.308ZM70.4455 123.252L69.7666 120.946H70.2595L70.7059 122.685L71.2081 120.946H71.7568L72.259 122.685L72.7054 120.946H73.1983L72.5194 123.252H72.0125L71.4824 121.438L70.9523 123.252H70.4455ZM74.2811 123.308C74.0858 123.308 73.9246 123.275 73.7975 123.21C73.6704 123.145 73.5758 123.06 73.5138 122.954C73.4518 122.846 73.4208 122.728 73.4208 122.601C73.4208 122.378 73.5076 122.201 73.6812 122.071C73.8548 121.941 74.1028 121.876 74.4252 121.876H75.0297V121.834C75.0297 121.654 74.9801 121.519 74.8809 121.429C74.7848 121.339 74.6593 121.294 74.5043 121.294C74.3679 121.294 74.2485 121.328 74.1462 121.397C74.047 121.462 73.9866 121.559 73.9649 121.69H73.472C73.4875 121.522 73.5433 121.38 73.6394 121.262C73.7386 121.141 73.8626 121.049 74.0114 120.987C74.1633 120.922 74.3291 120.89 74.5089 120.89C74.8313 120.89 75.0809 120.975 75.2576 121.146C75.4343 121.313 75.5226 121.542 75.5226 121.834V123.252H75.0948L75.053 122.857C74.9879 122.984 74.8933 123.091 74.7693 123.178C74.6453 123.264 74.4826 123.308 74.2811 123.308ZM74.3787 122.908C74.512 122.908 74.6236 122.877 74.7135 122.815C74.8065 122.75 74.8778 122.665 74.9274 122.559C74.9801 122.454 75.0127 122.337 75.0251 122.21H74.4764C74.2811 122.21 74.1416 122.244 74.0579 122.313C73.9773 122.381 73.937 122.466 73.937 122.568C73.937 122.674 73.9757 122.758 74.0532 122.82C74.1338 122.878 74.2423 122.908 74.3787 122.908ZM76.0973 124.275V120.946H76.5391L76.5902 121.304C76.6646 121.195 76.7669 121.099 76.8971 121.015C77.0273 120.932 77.1947 120.89 77.3993 120.89C77.6225 120.89 77.8194 120.942 77.9899 121.048C78.1604 121.153 78.2937 121.297 78.3898 121.48C78.489 121.663 78.5386 121.871 78.5386 122.103C78.5386 122.336 78.489 122.544 78.3898 122.727C78.2937 122.906 78.1604 123.049 77.9899 123.154C77.8194 123.257 77.621 123.308 77.3947 123.308C77.2149 123.308 77.0552 123.272 76.9157 123.201C76.7793 123.13 76.6708 123.029 76.5902 122.899V124.275H76.0973ZM77.311 122.88C77.5218 122.88 77.6954 122.809 77.8318 122.666C77.9682 122.52 78.0364 122.331 78.0364 122.099C78.0364 121.947 78.0054 121.812 77.9434 121.694C77.8814 121.576 77.7961 121.485 77.6876 121.42C77.5791 121.352 77.4536 121.318 77.311 121.318C77.1002 121.318 76.9266 121.39 76.7902 121.536C76.6569 121.682 76.5902 121.869 76.5902 122.099C76.5902 122.331 76.6569 122.52 76.7902 122.666C76.9266 122.809 77.1002 122.88 77.311 122.88Z" fill="white" fill-opacity="0.9"/>
<rect x="91.4492" y="96.5518" width="18.6" height="18.6" rx="6.2" fill="white"/>
<path d="M96.9304 123.252V119.997H98.158C98.4959 119.997 98.7516 120.076 98.9252 120.234C99.0988 120.392 99.1856 120.591 99.1856 120.829C99.1856 121.037 99.1298 121.203 99.0182 121.327C98.9066 121.448 98.7718 121.53 98.6137 121.573C98.7377 121.598 98.8477 121.648 98.9438 121.722C99.043 121.797 99.1205 121.89 99.1763 122.001C99.2321 122.113 99.26 122.234 99.26 122.364C99.26 122.531 99.2182 122.683 99.1345 122.82C99.0539 122.953 98.9345 123.058 98.7764 123.136C98.6183 123.213 98.4246 123.252 98.1952 123.252H96.9304ZM97.4233 121.392H98.0975C98.2866 121.392 98.4308 121.349 98.53 121.262C98.6292 121.172 98.6788 121.049 98.6788 120.894C98.6788 120.743 98.6292 120.622 98.53 120.532C98.4339 120.442 98.2866 120.397 98.0882 120.397H97.4233V121.392ZM97.4233 122.847H98.1301C98.3285 122.847 98.4819 122.801 98.5904 122.708C98.702 122.615 98.7578 122.485 98.7578 122.317C98.7578 122.15 98.7005 122.018 98.5858 121.922C98.4711 121.823 98.3161 121.773 98.1208 121.773H97.4233V122.847ZM100.633 123.308C100.354 123.308 100.134 123.221 99.9723 123.047C99.8142 122.874 99.7352 122.615 99.7352 122.271V120.946H100.228V122.22C100.228 122.666 100.411 122.889 100.777 122.889C100.96 122.889 101.11 122.824 101.228 122.694C101.346 122.564 101.405 122.378 101.405 122.136V120.946H101.897V123.252H101.46L101.423 122.847C101.352 122.99 101.246 123.103 101.107 123.187C100.971 123.267 100.812 123.308 100.633 123.308ZM102.794 124.275L103.348 123.061H103.213L102.301 120.946H102.836L103.543 122.652L104.282 120.946H104.803L103.315 124.275H102.794Z" fill="white" fill-opacity="0.9"/>
</g>
<rect x="6.19922" y="140.339" width="127.1" height="23.6375" rx="4.65" fill="#1D2032"/>
<circle opacity="0.2" cx="18.5984" cy="152.158" r="6.2" fill="#F2A900"/>
<rect x="6.19922" y="168.627" width="127.1" height="23.6375" rx="4.65" fill="#1D2032"/>
<circle opacity="0.2" cx="18.5984" cy="180.446" r="6.2" fill="#5546FF"/>
<rect x="6.19922" y="196.915" width="127.1" height="23.6375" rx="4.65" fill="#1D2032"/>
<circle opacity="0.2" cx="18.5984" cy="208.734" r="6.2" fill="#C5728A"/>
<rect width="139.5" height="27.9" transform="translate(0 21.377)" fill="#171A23"/>
<mask id="mask0_6528_178170" style="mask-type:alpha" maskUnits="userSpaceOnUse" x="6" y="29" width="13" height="13">
<circle cx="12.3992" cy="35.327" r="6.2" fill="url(#paint0_angular_6528_178170)"/>
</mask>
<g mask="url(#mask0_6528_178170)">
<g filter="url(#filter0_f_6528_178170)">
<circle cx="12.4009" cy="35.3277" r="7.30714" fill="url(#paint1_angular_6528_178170)"/>
</g>
</g>
<rect x="23.25" y="33.002" width="18.6" height="4.65" rx="2.325" fill="#5D5F65"/>
<line x1="139.5" y1="49.4701" y2="49.4701" stroke="#303354" stroke-width="0.3875"/>
<rect opacity="0.2" x="6.19922" y="60.5142" width="18.6" height="4.65" rx="2.325" fill="#575757"/>
<rect opacity="0.2" x="5.42578" y="72.1392" width="79.825" height="12.0125" rx="6.00625" fill="#9D9D9D"/>
</g>
<rect x="7.75" y="118.694" width="18.6" height="4.98214" rx="2.49107" fill="#575757"/>
<rect x="35.6504" y="118.694" width="18.6" height="4.98214" rx="2.49107" fill="#575757"/>
<rect x="64.3242" y="118.694" width="18.6" height="4.98214" rx="2.49107" fill="#575757"/>
<rect x="91.8379" y="118.694" width="18.6" height="4.98214" rx="2.49107" fill="#575757"/>
</g>
<rect x="0.276786" y="21.6537" width="138.946" height="231.946" rx="5.25893" stroke="#303354" stroke-width="0.553571"/>
<g clip-path="url(#clip2_6528_178170)">
<rect x="170.5" y="21.377" width="139.5" height="232.5" rx="5.53571" fill="#171A23"/>
<rect width="139.5" height="24.025" transform="translate(170.5 21.377)" fill="#171A23"/>
<g opacity="0.5">
<path d="M183.238 34.5518H177.91" stroke="white" stroke-width="0.62" stroke-linecap="round" stroke-linejoin="round"/>
<path d="M180.09 32.3721L177.91 34.5518L180.09 36.7314" stroke="white" stroke-width="0.62" stroke-linecap="round" stroke-linejoin="round"/>
</g>
<rect x="230.562" y="32.2266" width="18.6" height="4.65" rx="2.325" fill="#575757"/>
<mask id="mask1_6528_178170" style="mask-type:alpha" maskUnits="userSpaceOnUse" x="176" y="51" width="17" height="17">
<circle cx="184.449" cy="59.3516" r="7.75" fill="url(#paint2_angular_6528_178170)"/>
</mask>
<g mask="url(#mask1_6528_178170)">
<g filter="url(#filter1_f_6528_178170)">
<circle cx="184.45" cy="59.3527" r="9.13393" fill="url(#paint3_angular_6528_178170)"/>
</g>
</g>
<rect x="196.85" y="54.5908" width="18.6" height="4.65" rx="2.325" fill="white" fill-opacity="0.5"/>
<rect x="218.549" y="52.4873" width="19.0429" height="6.75357" rx="3.37679" fill="white" fill-opacity="0.6"/>
<rect x="196.85" y="61.5659" width="43.7875" height="4.65" rx="2.325" fill="white" fill-opacity="0.1"/>
<line x1="176.699" y1="74.6578" x2="303.799" y2="74.6578" stroke="#272A44" stroke-width="0.3875"/>
<g opacity="0.3">
<mask id="mask2_6528_178170" style="mask-type:alpha" maskUnits="userSpaceOnUse" x="176" y="81" width="17" height="16">
<circle cx="184.451" cy="88.8013" r="7.75" fill="url(#paint4_angular_6528_178170)"/>
</mask>
<g mask="url(#mask2_6528_178170)">
<g filter="url(#filter2_f_6528_178170)">
<circle cx="184.452" cy="88.8019" r="9.13393" fill="url(#paint5_angular_6528_178170)"/>
</g>
</g>
<rect x="196.852" y="82.9888" width="18.6" height="4.65" rx="2.325" fill="white" fill-opacity="0.3"/>
<rect x="196.852" y="89.9639" width="43.7875" height="4.65" rx="2.325" fill="white" fill-opacity="0.1"/>
</g>
<line x1="176.699" y1="103.333" x2="303.799" y2="103.333" stroke="#272A44" stroke-width="0.3875"/>
<g opacity="0.3">
<mask id="mask3_6528_178170" style="mask-type:alpha" maskUnits="userSpaceOnUse" x="176" y="109" width="17" height="17">
<circle cx="184.449" cy="117.477" r="7.75" fill="url(#paint6_angular_6528_178170)"/>
</mask>
<g mask="url(#mask3_6528_178170)">
<g filter="url(#filter3_f_6528_178170)">
<circle cx="184.45" cy="117.478" r="9.13393" fill="url(#paint7_angular_6528_178170)"/>
</g>
</g>
<rect x="196.85" y="111.664" width="18.6" height="4.65" rx="2.325" fill="white" fill-opacity="0.3"/>
<rect x="196.85" y="118.639" width="43.7875" height="4.65" rx="2.325" fill="white" fill-opacity="0.1"/>
<line x1="176.699" y1="131.233" x2="303.799" y2="131.233" stroke="#272A44" stroke-width="0.3875"/>
</g>
<g opacity="0.3">
<mask id="mask4_6528_178170" style="mask-type:alpha" maskUnits="userSpaceOnUse" x="176" y="136" width="17" height="16">
<circle cx="184.449" cy="143.827" r="7.75" fill="url(#paint8_angular_6528_178170)"/>
</mask>
<g mask="url(#mask4_6528_178170)">
<g filter="url(#filter4_f_6528_178170)">
<circle cx="184.45" cy="143.828" r="9.13393" fill="url(#paint9_angular_6528_178170)"/>
</g>
</g>
<rect x="196.85" y="138.014" width="18.6" height="4.65" rx="2.325" fill="white" fill-opacity="0.3"/>
<rect x="196.85" y="144.989" width="43.7875" height="4.65" rx="2.325" fill="white" fill-opacity="0.1"/>
</g>
<g filter="url(#filter5_b_6528_178170)">
<rect x="170.5" y="190.327" width="139.5" height="63.55" fill="#171A23"/>
</g>
<rect x="176.699" y="199.627" width="127.1" height="17.05" rx="3.1" fill="#1D2032"/>
<rect x="214.287" y="205.827" width="51.925" height="4.65" rx="2.325" fill="white" fill-opacity="0.1"/>
<rect x="176.699" y="221.327" width="127.1" height="17.05" rx="3.1" fill="#1D2032"/>
<rect x="213.125" y="227.527" width="51.925" height="4.65" rx="2.325" fill="white" fill-opacity="0.1"/>
</g>
<rect x="170.223" y="21.1002" width="140.054" height="233.054" rx="5.8125" stroke="#303354" stroke-width="0.553571"/>
<path d="M49.3162 34.2728C48.7961 35.4691 49.3443 36.8605 50.5405 37.3806C51.7368 37.9007 53.1282 37.3526 53.6483 36.1563C54.1684 34.9601 53.6203 33.5687 52.424 33.0486C51.2278 32.5284 49.8364 33.0766 49.3162 34.2728ZM162.564 58.7787C162.737 58.6058 162.737 58.3254 162.564 58.1524L159.746 55.3341C159.573 55.1612 159.293 55.1612 159.12 55.3341C158.947 55.507 158.947 55.7875 159.12 55.9604L161.625 58.4656L159.12 60.9708C158.947 61.1437 158.947 61.4241 159.12 61.5971C159.293 61.77 159.573 61.77 159.746 61.5971L162.564 58.7787ZM147.787 52.9299L147.344 52.9299L147.787 52.9299ZM153.323 58.4656L153.323 58.9084L153.323 58.4656ZM142.251 35.2147L142.251 34.7718L142.251 35.2147ZM147.787 40.7504L148.23 40.7504L147.787 40.7504ZM51.4823 35.6574L142.251 35.6576L142.251 34.7718L51.4823 34.7717L51.4823 35.6574ZM147.344 40.7504L147.344 52.9299L148.23 52.9299L148.23 40.7504L147.344 40.7504ZM153.323 58.9084L162.251 58.9084L162.251 58.0227L153.323 58.0227L153.323 58.9084ZM147.344 52.9299C147.344 56.2317 150.021 58.9084 153.323 58.9084L153.323 58.0227C150.51 58.0227 148.23 55.7426 148.23 52.9299L147.344 52.9299ZM142.251 35.6576C145.064 35.6576 147.344 37.9377 147.344 40.7504L148.23 40.7504C148.23 37.4485 145.553 34.7718 142.251 34.7718L142.251 35.6576Z" fill="white"/>
<defs>
<filter id="filter0_f_6528_178170" x="0.44375" y="23.3705" width="23.9152" height="23.9143" filterUnits="userSpaceOnUse" color-interpolation-filters="sRGB">
<feFlood flood-opacity="0" result="BackgroundImageFix"/>
<feBlend mode="normal" in="SourceGraphic" in2="BackgroundImageFix" result="shape"/>
<feGaussianBlur stdDeviation="2.325" result="effect1_foregroundBlur_6528_178170"/>
</filter>
<filter id="filter1_f_6528_178170" x="170.666" y="45.5687" width="27.5676" height="27.5681" filterUnits="userSpaceOnUse" color-interpolation-filters="sRGB">
<feFlood flood-opacity="0" result="BackgroundImageFix"/>
<feBlend mode="normal" in="SourceGraphic" in2="BackgroundImageFix" result="shape"/>
<feGaussianBlur stdDeviation="2.325" result="effect1_foregroundBlur_6528_178170"/>
</filter>
<filter id="filter2_f_6528_178170" x="170.668" y="75.018" width="27.5676" height="27.5681" filterUnits="userSpaceOnUse" color-interpolation-filters="sRGB">
<feFlood flood-opacity="0" result="BackgroundImageFix"/>
<feBlend mode="normal" in="SourceGraphic" in2="BackgroundImageFix" result="shape"/>
<feGaussianBlur stdDeviation="2.325" result="effect1_foregroundBlur_6528_178170"/>
</filter>
<filter id="filter3_f_6528_178170" x="170.666" y="103.694" width="27.5676" height="27.5681" filterUnits="userSpaceOnUse" color-interpolation-filters="sRGB">
<feFlood flood-opacity="0" result="BackgroundImageFix"/>
<feBlend mode="normal" in="SourceGraphic" in2="BackgroundImageFix" result="shape"/>
<feGaussianBlur stdDeviation="2.325" result="effect1_foregroundBlur_6528_178170"/>
</filter>
<filter id="filter4_f_6528_178170" x="170.666" y="130.044" width="27.5676" height="27.5681" filterUnits="userSpaceOnUse" color-interpolation-filters="sRGB">
<feFlood flood-opacity="0" result="BackgroundImageFix"/>
<feBlend mode="normal" in="SourceGraphic" in2="BackgroundImageFix" result="shape"/>
<feGaussianBlur stdDeviation="2.325" result="effect1_foregroundBlur_6528_178170"/>
</filter>
<filter id="filter5_b_6528_178170" x="161.2" y="181.027" width="158.1" height="82.1498" filterUnits="userSpaceOnUse" color-interpolation-filters="sRGB">
<feFlood flood-opacity="0" result="BackgroundImageFix"/>
<feGaussianBlur in="BackgroundImageFix" stdDeviation="4.65"/>
<feComposite in2="SourceAlpha" operator="in" result="effect1_backgroundBlur_6528_178170"/>
<feBlend mode="normal" in="SourceGraphic" in2="effect1_backgroundBlur_6528_178170" result="shape"/>
</filter>
<radialGradient id="paint0_angular_6528_178170" cx="0" cy="0" r="1" gradientUnits="userSpaceOnUse" gradientTransform="translate(12.3992 35.327) rotate(90) scale(6.2)">
<stop stop-color="#E5A78E"/>
<stop offset="0.173939" stop-color="#EA603E"/>
<stop offset="0.394914" stop-color="#A54CB6"/>
<stop offset="0.609194" stop-color="#4D52EF"/>
<stop offset="0.819396" stop-color="#4A9BE3"/>
</radialGradient>
<radialGradient id="paint1_angular_6528_178170" cx="0" cy="0" r="1" gradientUnits="userSpaceOnUse" gradientTransform="translate(12.4009 35.3277) rotate(90) scale(7.30714)">
<stop offset="0.100633" stop-color="#E5A78E"/>
<stop offset="0.303762" stop-color="#EA603E"/>
<stop offset="0.819396" stop-color="#4D52EF"/>
</radialGradient>
<radialGradient id="paint2_angular_6528_178170" cx="0" cy="0" r="1" gradientUnits="userSpaceOnUse" gradientTransform="translate(184.449 59.3516) rotate(90) scale(7.75)">
<stop stop-color="#E5A78E"/>
<stop offset="0.173939" stop-color="#EA603E"/>
<stop offset="0.394914" stop-color="#A54CB6"/>
<stop offset="0.609194" stop-color="#4D52EF"/>
<stop offset="0.819396" stop-color="#4A9BE3"/>
</radialGradient>
<radialGradient id="paint3_angular_6528_178170" cx="0" cy="0" r="1" gradientUnits="userSpaceOnUse" gradientTransform="translate(184.45 59.3527) rotate(90) scale(9.13393)">
<stop offset="0.100633" stop-color="#C0BB9E"/>
<stop offset="0.303762" stop-color="#3ED5EA"/>
<stop offset="0.819396" stop-color="#EC6395"/>
</radialGradient>
<radialGradient id="paint4_angular_6528_178170" cx="0" cy="0" r="1" gradientUnits="userSpaceOnUse" gradientTransform="translate(184.451 88.8013) rotate(90) scale(7.75)">
<stop stop-color="#E5A78E"/>
<stop offset="0.173939" stop-color="#EA603E"/>
<stop offset="0.394914" stop-color="#A54CB6"/>
<stop offset="0.609194" stop-color="#4D52EF"/>
<stop offset="0.819396" stop-color="#4A9BE3"/>
</radialGradient>
<radialGradient id="paint5_angular_6528_178170" cx="0" cy="0" r="1" gradientUnits="userSpaceOnUse" gradientTransform="translate(184.452 88.8019) rotate(90) scale(9.13393)">
<stop offset="0.100633" stop-color="#E5A78E"/>
<stop offset="0.303762" stop-color="#EA603E"/>
<stop offset="0.819396" stop-color="#4D52EF"/>
</radialGradient>
<radialGradient id="paint6_angular_6528_178170" cx="0" cy="0" r="1" gradientUnits="userSpaceOnUse" gradientTransform="translate(184.449 117.477) rotate(90) scale(7.75)">
<stop stop-color="#E5A78E"/>
<stop offset="0.173939" stop-color="#EA603E"/>
<stop offset="0.394914" stop-color="#A54CB6"/>
<stop offset="0.609194" stop-color="#4D52EF"/>
<stop offset="0.819396" stop-color="#4A9BE3"/>
</radialGradient>
<radialGradient id="paint7_angular_6528_178170" cx="0" cy="0" r="1" gradientUnits="userSpaceOnUse" gradientTransform="translate(184.45 117.478) rotate(90) scale(9.13393)">
<stop offset="0.100633" stop-color="#9A8EE5"/>
<stop offset="0.303762" stop-color="#3EEAAC"/>
<stop offset="0.819396" stop-color="#4D53EF"/>
</radialGradient>
<radialGradient id="paint8_angular_6528_178170" cx="0" cy="0" r="1" gradientUnits="userSpaceOnUse" gradientTransform="translate(184.449 143.827) rotate(90) scale(7.75)">
<stop stop-color="#E5A78E"/>
<stop offset="0.173939" stop-color="#EA603E"/>
<stop offset="0.394914" stop-color="#A54CB6"/>
<stop offset="0.609194" stop-color="#4D52EF"/>
<stop offset="0.819396" stop-color="#4A9BE3"/>
</radialGradient>
<radialGradient id="paint9_angular_6528_178170" cx="0" cy="0" r="1" gradientUnits="userSpaceOnUse" gradientTransform="translate(184.45 143.828) rotate(90) scale(9.13393)">
<stop offset="0.100633" stop-color="#E28EE5"/>
<stop offset="0.303762" stop-color="#3E9AEA"/>
<stop offset="0.819396" stop-color="#CB8DF0"/>
</radialGradient>
<clipPath id="clip0_6528_178170">
<rect y="21.377" width="139.5" height="232.5" rx="5.53571" fill="white"/>
</clipPath>
<clipPath id="clip1_6528_178170">
<rect width="139.5" height="232.5" fill="white" transform="translate(0 21.377)"/>
</clipPath>
<clipPath id="clip2_6528_178170">
<rect x="170.5" y="21.377" width="139.5" height="232.5" rx="5.53571" fill="white"/>
</clipPath>
</defs>
</svg>
