<svg fill="none" height="199" viewBox="0 0 208 199" width="208" xmlns="http://www.w3.org/2000/svg" xmlns:xlink="http://www.w3.org/1999/xlink"><linearGradient id="a" gradientUnits="userSpaceOnUse" x1="72.2744" x2="147.58" y1="186.984" y2="186.984"><stop offset="0" stop-color="#f2a900"/><stop offset="1" stop-color="#f9d277"/></linearGradient><linearGradient id="b" gradientUnits="userSpaceOnUse" x1="171.294" x2="60.7741" y1="20.1888" y2="146.621"><stop offset=".0001" stop-color="#a2acc8"/><stop offset="1" stop-color="#7b87ad"/></linearGradient><path clip-rule="evenodd" d="m90.5399 185.782c0 4.114-3.3357 7.45-7.4504 7.45s-7.4504-3.336-7.4504-7.45c0-4.115 3.3357-7.451 7.4504-7.451s7.4504 3.336 7.4504 7.451zm3.2988 1.201c-.5975 5.408-5.1821 9.614-10.7492 9.614-5.973 0-10.8151-4.842-10.8151-10.815s4.8421-10.815 10.8151-10.815c5.2321 0 9.5964 3.715 10.5987 8.651h53.8918v3.365h-3.846v12.018h-3.365v-12.018h-2.402v12.018h-3.364v-12.018z" fill="url(#a)" fill-rule="evenodd"/><g fill="#4c5187"><circle cx="166.007" cy="69.0957" r=".902241" transform="matrix(0 -1 1 0 96.9113 235.1027)"/><circle cx="193.284" cy="69.0957" r=".902241" transform="matrix(0 -1 1 0 124.1883 262.3797)"/><circle cx="166.007" cy="55.457" r=".902241" transform="matrix(0 -1 1 0 110.55 221.464)"/><circle cx="193.284" cy="55.457" r=".902241" transform="matrix(0 -1 1 0 137.827 248.741)"/><circle cx="166.007" cy="41.8183" r=".902241" transform="matrix(0 -1 1 0 124.1887 207.8253)"/><circle cx="193.284" cy="41.8183" r=".902241" transform="matrix(0 -1 1 0 151.4657 235.1023)"/><circle cx="166.007" cy="28.1806" r=".902241" transform="matrix(0 -1 1 0 137.8264 194.1876)"/><circle cx="193.284" cy="28.1806" r=".902241" transform="matrix(0 -1 1 0 165.1034 221.4646)"/><circle cx="166.007" cy="41.8183" r=".902241" transform="matrix(0 -1 1 0 124.1887 207.8253)"/><circle cx="193.284" cy="41.8183" r=".902241" transform="matrix(0 -1 1 0 151.4657 235.1023)"/><circle cx="166.007" cy="14.542" r=".902241" transform="matrix(0 -1 1 0 151.465 180.549)"/><circle cx="193.284" cy="14.542" r=".902241" transform="matrix(0 -1 1 0 178.742 207.826)"/><circle cx="166.007" cy="28.1806" r=".902241" transform="matrix(0 -1 1 0 137.8264 194.1876)"/><circle cx="193.284" cy="28.1806" r=".902241" transform="matrix(0 -1 1 0 165.1034 221.4646)"/><circle cx="166.007" cy=".902203" r=".902241" transform="matrix(0 -1 1 0 165.104797 166.909203)"/><circle cx="193.284" cy=".902203" r=".902241" transform="matrix(0 -1 1 0 192.381797 194.186203)"/><circle cx="179.644" cy="69.0957" r=".902241" transform="matrix(0 -1 1 0 110.5483 248.7397)"/><circle cx="206.921" cy="69.0957" r=".902241" transform="matrix(0 -1 1 0 137.8253 276.0167)"/><circle cx="179.644" cy="55.457" r=".902241" transform="matrix(0 -1 1 0 124.187 235.101)"/><circle cx="206.921" cy="55.457" r=".902241" transform="matrix(0 -1 1 0 151.464 262.378)"/><circle cx="179.644" cy="41.8183" r=".902241" transform="matrix(0 -1 1 0 137.8257 221.4623)"/><circle cx="206.921" cy="41.8183" r=".902241" transform="matrix(0 -1 1 0 165.1027 248.7393)"/><circle cx="179.644" cy="28.1806" r=".902241" transform="matrix(0 -1 1 0 151.4634 207.8246)"/><circle cx="206.921" cy="28.1806" r=".902241" transform="matrix(0 -1 1 0 178.7404 235.1016)"/><circle cx="179.644" cy="41.8183" r=".902241" transform="matrix(0 -1 1 0 137.8257 221.4623)"/><circle cx="206.921" cy="41.8183" r=".902241" transform="matrix(0 -1 1 0 165.1027 248.7393)"/><circle cx="179.644" cy="14.542" r=".902241" transform="matrix(0 -1 1 0 165.102 194.186)"/><circle cx="206.921" cy="14.542" r=".902241" transform="matrix(0 -1 1 0 192.379 221.463)"/><circle cx="179.644" cy="28.1806" r=".902241" transform="matrix(0 -1 1 0 151.4634 207.8246)"/><circle cx="206.921" cy="28.1806" r=".902241" transform="matrix(0 -1 1 0 178.7404 235.1016)"/><circle cx="179.644" cy=".902203" r=".902241" transform="matrix(0 -1 1 0 178.741797 180.546203)"/><circle cx="206.921" cy=".902203" r=".902241" transform="matrix(0 -1 1 0 206.018797 207.823203)"/><circle cx="69.2687" cy="166.021" r=".902241" transform="matrix(-1 0 0 -1 138.5374 332.042)"/><circle cx="69.2687" cy="138.744" r=".902241" transform="matrix(-1 0 0 -1 138.5374 277.488)"/><circle cx="55.6305" cy="166.021" r=".902241" transform="matrix(-1 0 0 -1 111.261 332.042)"/><circle cx="55.6305" cy="138.744" r=".902241" transform="matrix(-1 0 0 -1 111.261 277.488)"/><circle cx="41.9913" cy="166.021" r=".902241" transform="matrix(-1 0 0 -1 83.9826 332.042)"/><circle cx="41.9913" cy="138.744" r=".902241" transform="matrix(-1 0 0 -1 83.9826 277.488)"/><circle cx="28.3541" cy="166.021" r=".902241" transform="matrix(-1 0 0 -1 56.7082 332.042)"/><circle cx="28.3541" cy="138.744" r=".902241" transform="matrix(-1 0 0 -1 56.7082 277.488)"/><circle cx="41.9913" cy="166.021" r=".902241" transform="matrix(-1 0 0 -1 83.9826 332.042)"/><circle cx="41.9913" cy="138.744" r=".902241" transform="matrix(-1 0 0 -1 83.9826 277.488)"/><circle cx="14.7149" cy="166.021" r=".902241" transform="matrix(-1 0 0 -1 29.4298 332.042)"/><circle cx="14.7149" cy="138.744" r=".902241" transform="matrix(-1 0 0 -1 29.4298 277.488)"/><circle cx="28.3541" cy="166.021" r=".902241" transform="matrix(-1 0 0 -1 56.7082 332.042)"/><circle cx="28.3541" cy="138.744" r=".902241" transform="matrix(-1 0 0 -1 56.7082 277.488)"/><circle cx="1.07481" cy="166.021" r=".902241" transform="matrix(-1 0 0 -1 2.14962 332.042)"/><circle cx="1.07481" cy="138.744" r=".902241" transform="matrix(-1 0 0 -1 2.14962 277.488)"/><circle cx="69.2687" cy="152.384" r=".902241" transform="matrix(-1 0 0 -1 138.5374 304.768)"/><circle cx="69.2687" cy="125.106" r=".902241" transform="matrix(-1 0 0 -1 138.5374 250.212)"/><circle cx="55.6305" cy="152.384" r=".902241" transform="matrix(-1 0 0 -1 111.261 304.768)"/><circle cx="55.6305" cy="125.106" r=".902241" transform="matrix(-1 0 0 -1 111.261 250.212)"/><circle cx="41.9913" cy="152.384" r=".902241" transform="matrix(-1 0 0 -1 83.9826 304.768)"/><circle cx="41.9913" cy="125.106" r=".902241" transform="matrix(-1 0 0 -1 83.9826 250.212)"/><circle cx="28.3541" cy="152.384" r=".902241" transform="matrix(-1 0 0 -1 56.7082 304.768)"/><circle cx="28.3541" cy="125.106" r=".902241" transform="matrix(-1 0 0 -1 56.7082 250.212)"/><circle cx="41.9913" cy="152.384" r=".902241" transform="matrix(-1 0 0 -1 83.9826 304.768)"/><circle cx="41.9913" cy="125.106" r=".902241" transform="matrix(-1 0 0 -1 83.9826 250.212)"/><circle cx="14.7149" cy="152.384" r=".902241" transform="matrix(-1 0 0 -1 29.4298 304.768)"/><circle cx="14.7149" cy="125.106" r=".902241" transform="matrix(-1 0 0 -1 29.4298 250.212)"/><circle cx="28.3541" cy="152.384" r=".902241" transform="matrix(-1 0 0 -1 56.7082 304.768)"/><circle cx="28.3541" cy="125.106" r=".902241" transform="matrix(-1 0 0 -1 56.7082 250.212)"/><circle cx="1.07481" cy="152.384" r=".902241" transform="matrix(-1 0 0 -1 2.14962 304.768)"/><circle cx="1.07481" cy="125.106" r=".902241" transform="matrix(-1 0 0 -1 2.14962 250.212)"/></g><path d="m50.1631 27.8797c0-4.2476 3.4433-7.6909 7.6908-7.6909h105.7491c4.247 0 7.691 3.4433 7.691 7.6909v106.0323c0 4.248-3.444 7.691-7.691 7.691h-105.7491c-4.2475 0-7.6908-3.443-7.6908-7.691z" fill="url(#b)"/><path d="m56.0718 50.9004c0-1.2418 1.0066-2.2484 2.2484-2.2484h2.2484v14.6147h-2.2484c-1.2418 0-2.2484-1.0067-2.2484-2.2484z" fill="#12151e"/><path d="m56.0718 92.8685c0-1.2417 1.0066-2.2484 2.2484-2.2484h2.2484v14.6149h-2.2484c-1.2418 0-2.2484-1.007-2.2484-2.249z" fill="#12151e"/><path d="m60.5454 38.4545c0-3.8228 3.099-6.9217 6.9218-6.9217h86.5218c3.823 0 6.922 3.0989 6.922 6.9217v76.9085c0 3.822-3.099 6.921-6.922 6.921h-86.5218c-3.8228 0-6.9218-3.099-6.9218-6.921z" stroke="#12151e" stroke-width="1.53816"/><path d="m108.208 97.2154c9.546 0 17.284-7.7387 17.284-17.2847 0-9.5461-7.738-17.2847-17.284-17.2847-9.5465 0-17.2851 7.7386-17.2851 17.2847 0 9.546 7.7386 17.2847 17.2851 17.2847z" fill="#12151e" fill-opacity=".5"/><path d="m111.719 93.9831c9.546 0 17.284-7.7387 17.284-17.2847 0-9.5461-7.738-17.2847-17.284-17.2847s-17.2849 7.7386-17.2849 17.2847c0 9.546 7.7389 17.2847 17.2849 17.2847z" fill="#fff" fill-opacity=".6"/><path d="m113.76 77.399c.832-.4534 1.489-1.1709 1.868-2.0394.378-.8684.457-1.8381.223-2.7561-.234-.9181-.767-1.732-1.515-2.3133s-1.668-.8969-2.616-.8969c-.947 0-1.867.3156-2.615.8969s-1.282 1.3952-1.515 2.3133c-.234.918-.156 1.8877.223 2.7561.378.8685 1.035 1.586 1.867 2.0394l-2.101 4.9021c-.08.185-.114.3871-.097.5883.017.2011.083.3949.193.564.11.169.261.3081.438.4046s.376.1474.578.1482h6.059c.202-.0008.4-.0517.577-.1482.178-.0965.328-.2356.438-.4046.111-.1691.177-.3629.194-.564.016-.2012-.017-.4033-.098-.5883z" fill="#12151e"/><path d="m50.1631 134.59h121.1309c0 4.778-3.874 8.652-8.653 8.652h-103.8257c-4.7785 0-8.6522-3.874-8.6522-8.652z" fill="#647094"/></svg>