<svg width="28" height="28" viewBox="0 0 28 28" fill="none" xmlns="http://www.w3.org/2000/svg">
<rect width="28" height="28" rx="14" fill="#EA4848" />
<path d="M19.0306 13.5307C18.9609 13.6006 18.8781 13.656 18.787 13.6939C18.6958 13.7318 18.5981 13.7512 18.4993 13.7512C18.4006 13.7512 18.3029 13.7318 18.2117 13.6939C18.1206 13.656 18.0378 13.6006 17.9681 13.5307L14.75 10.3125V19.5C14.75 19.6989 14.671 19.8897 14.5303 20.0304C14.3897 20.171 14.1989 20.25 14 20.25C13.8011 20.25 13.6103 20.171 13.4696 20.0304C13.329 19.8897 13.25 19.6989 13.25 19.5V10.3125L10.0306 13.5307C9.8897 13.6715 9.69861 13.7507 9.49935 13.7507C9.30009 13.7507 9.10899 13.6715 8.9681 13.5307C8.8272 13.3898 8.74805 13.1987 8.74805 12.9994C8.74805 12.8001 8.8272 12.609 8.9681 12.4682L13.4681 7.96815C13.5378 7.89823 13.6206 7.84275 13.7117 7.8049C13.8029 7.76704 13.9006 7.74756 13.9993 7.74756C14.0981 7.74756 14.1958 7.76704 14.287 7.8049C14.3781 7.84275 14.4609 7.89823 14.5306 7.96815L19.0306 12.4682C19.1005 12.5378 19.156 12.6206 19.1938 12.7118C19.2317 12.8029 19.2512 12.9007 19.2512 12.9994C19.2512 13.0981 19.2317 13.1959 19.1938 13.287C19.156 13.3782 19.1005 13.461 19.0306 13.5307Z" fill="#181818"/>
</svg>
