<svg width="14" height="14" viewBox="0 0 14 14" fill="none" xmlns="http://www.w3.org/2000/svg">
<circle cx="7.00004" cy="6.99858" r="6.54545" fill="#F7931A"/>
<path d="M9.88609 6.06662C10.0164 5.19567 9.35325 4.72747 8.4465 4.41513L8.74064 3.23531L8.02248 3.05633L7.73612 4.20506C7.54732 4.15801 7.35341 4.11362 7.16073 4.06965L7.44914 2.91335L6.73139 2.73438L6.43705 3.91378C6.28078 3.87819 6.12737 3.84301 5.97846 3.80599L5.97928 3.80231L4.98887 3.55501L4.79782 4.32206C4.79782 4.32206 5.33066 4.44417 5.31941 4.45174C5.61028 4.52435 5.66284 4.71683 5.65405 4.86942L5.319 6.21349C5.33905 6.2186 5.36503 6.22597 5.39366 6.23742C5.36973 6.23149 5.34416 6.22494 5.31778 6.2186L4.84814 8.10144C4.81255 8.18981 4.72234 8.32235 4.51903 8.27203C4.52618 8.28247 3.99703 8.14174 3.99703 8.14174L3.6405 8.96381L4.57507 9.19678C4.74893 9.24035 4.91932 9.28597 5.08705 9.32892L4.78984 10.5222L5.50718 10.7012L5.80153 9.52058C5.99748 9.57376 6.18771 9.62285 6.37384 9.66908L6.08053 10.8442L6.79868 11.0232L7.09589 9.8321C8.3205 10.0639 9.24137 9.97037 9.62898 8.86276C9.94132 7.97094 9.61343 7.45651 8.96912 7.12106C9.43834 7.01285 9.7918 6.70419 9.88609 6.06662ZM8.24523 8.36756C8.0233 9.25937 6.52173 8.77726 6.03491 8.65637L6.42928 7.07544C6.91609 7.19694 8.47718 7.43749 8.24523 8.36756ZM8.46737 6.05374C8.26487 6.86497 7.01509 6.45281 6.60968 6.35176L6.96723 4.9179C7.37264 5.01894 8.67825 5.20753 8.46737 6.05374Z" fill="white"/>
</svg>
