<svg width="28" height="28" viewBox="0 0 28 28" fill="none" xmlns="http://www.w3.org/2000/svg">
<rect width="28" height="28" rx="14" fill="#EA4848"/>
<path d="M17.0431 9.04521C16.2502 8.20997 15.3577 7.4753 14.3856 6.85771C14.2691 6.78787 14.1358 6.75098 14 6.75098C13.8642 6.75098 13.7309 6.78787 13.6144 6.85771C12.6423 7.4753 11.7498 8.20997 10.9569 9.04521C9.1875 10.9046 8.25 12.964 8.25 15.0002C8.25 16.5252 8.8558 17.9877 9.93414 19.0661C11.0125 20.1444 12.475 20.7502 14 20.7502C15.525 20.7502 16.9875 20.1444 18.0659 19.0661C19.1442 17.9877 19.75 16.5252 19.75 15.0002C19.75 12.964 18.8125 10.9046 17.0431 9.04521ZM12.25 17.5002C12.25 16.6671 12.5956 15.859 13.2781 15.0971C13.4991 14.8513 13.7406 14.6249 14 14.4202C14.2594 14.6249 14.5009 14.8513 14.7219 15.0971C15.4044 15.859 15.75 16.6671 15.75 17.5002C15.75 17.9643 15.5656 18.4095 15.2374 18.7376C14.9092 19.0658 14.4641 19.2502 14 19.2502C13.5359 19.2502 13.0908 19.0658 12.7626 18.7376C12.4344 18.4095 12.25 17.9643 12.25 17.5002ZM17.24 17.7465C17.2456 17.6652 17.25 17.5833 17.25 17.5002C17.25 14.609 14.5 12.9271 14.3856 12.8571C14.2691 12.7872 14.1358 12.7504 14 12.7504C13.8642 12.7504 13.7309 12.7872 13.6144 12.8571C13.5 12.9271 10.75 14.609 10.75 17.5002C10.75 17.5833 10.7544 17.6652 10.76 17.7465C10.1074 16.9803 9.74925 16.0066 9.75 15.0002C9.75 13.3427 10.5131 11.6965 12.0175 10.1065C12.6207 9.47381 13.2847 8.9021 14 8.39958C15.1137 9.17896 18.25 11.6696 18.25 15.0002C18.2508 16.0066 17.8926 16.9803 17.24 17.7465Z" fill="#181818"/>
</svg>
