<svg width="14" height="14" viewBox="0 0 14 14" fill="none" xmlns="http://www.w3.org/2000/svg">
<g opacity="0.6">
<path d="M11.3748 4.8125H2.62476C2.38313 4.8125 2.18726 5.00838 2.18726 5.25V11.375C2.18726 11.6166 2.38313 11.8125 2.62476 11.8125H11.3748C11.6164 11.8125 11.8123 11.6166 11.8123 11.375V5.25C11.8123 5.00838 11.6164 4.8125 11.3748 4.8125Z" stroke="white" stroke-width="1.3" stroke-linecap="round" stroke-linejoin="round"/>
<path d="M5.03101 4.8125V2.84375C5.03101 2.32161 5.23843 1.82085 5.60764 1.45163C5.97685 1.08242 6.47761 0.875 6.99976 0.875C7.5219 0.875 8.02266 1.08242 8.39187 1.45163C8.76108 1.82085 8.96851 2.32161 8.96851 2.84375V4.8125" stroke="white" stroke-width="1.3" stroke-linecap="round" stroke-linejoin="round"/>
</g>
</svg>
