<svg width="28" height="28" viewBox="0 0 28 28" fill="none" xmlns="http://www.w3.org/2000/svg">
<rect width="28" height="28" rx="14" fill="white" fill-opacity="0.4"/>
<path d="M19.0306 15.5306L14.5306 20.0306C14.4609 20.1005 14.3781 20.156 14.287 20.1939C14.1958 20.2317 14.0981 20.2512 13.9993 20.2512C13.9006 20.2512 13.8029 20.2317 13.7117 20.1939C13.6206 20.156 13.5378 20.1005 13.4681 20.0306L8.9681 15.5306C8.8272 15.3897 8.74805 15.1986 8.74805 14.9994C8.74805 14.8001 8.8272 14.609 8.9681 14.4681C9.10899 14.3272 9.30009 14.2481 9.49935 14.2481C9.69861 14.2481 9.8897 14.3272 10.0306 14.4681L13.25 17.6875V8.5C13.25 8.30109 13.329 8.11032 13.4696 7.96967C13.6103 7.82902 13.8011 7.75 14 7.75C14.1989 7.75 14.3897 7.82902 14.5303 7.96967C14.671 8.11032 14.75 8.30109 14.75 8.5V17.6875L17.9693 14.4675C18.1102 14.3266 18.3013 14.2474 18.5006 14.2474C18.6999 14.2474 18.891 14.3266 19.0318 14.4675C19.1727 14.6084 19.2519 14.7995 19.2519 14.9987C19.2519 15.198 19.1727 15.3891 19.0318 15.53L19.0306 15.5306Z" fill="#181818"/>
</svg>
