<svg fill="none" height="17" viewBox="0 0 17 17" width="17" xmlns="http://www.w3.org/2000/svg"><g stroke="#fff" stroke-linecap="round" stroke-linejoin="round" stroke-width="1.80911"><path d="m7.87286 4.52777 1.24369-1.2437c.25662-.25684.56132-.46062.89675-.59968.3353-.13906.6948-.21067 1.0579-.21076.3631-.00008.7226.07137 1.0581.21027.3354.1389.6402.34253.8969.59926.2568.25673.4604.56153.5993.89698s.2103.69498.2103 1.05805c-.0001.36307-.0717.72257-.2108 1.05795-.1391.33539-.3428.64009-.5997.8967l-1.7767 1.77671c-.2566.25665-.5613.46024-.8967.59914-.3353.1389-.69471.21039-1.05767.21039-.36297 0-.72238-.07149-1.05771-.21039s-.64002-.34249-.89668-.59914"/><path d="m8.584 11.6341-1.2437 1.2437c-.25661.2569-.56131.4606-.8967.5997-.33538.1391-.69488.2107-1.05795.2108-.36307 0-.7226-.0714-1.05805-.2103s-.64025-.3425-.89698-.5993c-.25672-.2567-.46036-.5615-.59926-.8969-.1389-.3355-.21035-.695-.21027-1.0581.00009-.3631.07171-.7226.21076-1.05795.13906-.33538.34284-.64008.59969-.89669l1.77671-1.77672c.25665-.25665.56134-.46024.89667-.59914.33534-.1389.69475-.21039 1.05771-.21039s.72237.07149 1.0577.21039.64003.34249.89668.59914"/></g></svg>