<svg fill="none" height="12" viewBox="0 0 15 12" width="15" xmlns="http://www.w3.org/2000/svg"><path d="m5.1181 11.56c5.4376 0 8.4107-4.43305 8.4107-8.27506 0-.12666 0-.25332-.0061-.37395.5762-.41013 1.0789-.9228 1.4774-1.50785-.5272.22919-1.0973.38601-1.6981.45839.613-.36189 1.0789-.928842 1.2996-1.610391-.5701.331727-1.2015.572984-1.8758.705675-.5395-.566953-1.3058-.9167749-2.1579-.9167749-1.63064 0-2.95478 1.3027809-2.95478 2.9071409 0 .22919.02452.45236.0797.66346-2.45824-.12063-4.63448-1.27866-6.09349-3.039836-.25134.42823-.39847.928836-.39847 1.459606 0 1.00724.52108 1.89989 1.31801 2.41859-.48429-.01206-.93793-.14475-1.3364-.36188v.03619c0 1.41135 1.01763 2.58144 2.37242 2.85285-.24521.06635-.50882.10254-.77855.10254-.19004 0-.37394-.0181-.55785-.05428.37394 1.15803 1.46513 1.99639 2.75862 2.02052-1.01149.77805-2.28659 1.24246-3.67203 1.24246-.23908 0-.472032-.0121-.704982-.0422 1.293482.8323 2.850572 1.3148 4.518002 1.3148z" fill="#fff"/></svg>