<svg width="60" height="45" viewBox="0 0 60 45" fill="none" xmlns="http://www.w3.org/2000/svg">
<g clip-path="url(#clip0_1_24935)">
<path d="M0 0H60V45H0V0Z" fill="#74ACDF"/>
<path d="M0 15H60V30H0V15Z" fill="white"/>
<path d="M29.7119 22.617L32.2769 28.197C32.2769 28.197 32.3219 28.305 32.3939 28.278C32.4659 28.242 32.4209 28.134 32.4209 28.134L30.2879 22.374M30.2249 24.552C30.1889 25.398 30.7109 25.866 30.6479 26.622C30.5759 27.387 30.9899 27.81 31.0979 28.107C31.1879 28.404 30.9899 28.575 31.0709 28.62C31.1609 28.665 31.3409 28.431 31.2869 28.008C31.2239 27.594 30.9089 27.468 30.9809 26.541C31.0529 25.614 30.6029 25.398 30.7109 24.561" fill="#F6B40E"/>
<path fill-rule="evenodd" clip-rule="evenodd" d="M32.4672 28.1162L30.3344 22.3568L30.2416 22.3912L32.3749 28.1521L32.3752 28.1528L32.3752 28.1529L32.3753 28.153L32.3753 28.1532C32.3755 28.1536 32.3758 28.1544 32.3762 28.1555C32.377 28.1577 32.3781 28.161 32.3793 28.1652C32.3818 28.1738 32.3843 28.1848 32.3851 28.196C32.3867 28.2181 32.3817 28.2275 32.3742 28.2324C32.3686 28.2336 32.3602 28.2319 32.3461 28.2154C32.3388 28.207 32.3328 28.1974 32.3285 28.1896C32.3264 28.1857 32.3248 28.1826 32.3238 28.1804C32.3234 28.1796 32.3231 28.179 32.3229 28.1785L32.3228 28.1782L32.3227 28.178L32.3226 28.1779L32.3223 28.1771L30.7449 24.7456C30.7471 24.6894 30.752 24.6302 30.7601 24.5673L30.6619 24.5547C30.6615 24.5574 30.6612 24.56 30.6609 24.5627L29.7569 22.5963L29.667 22.6377L30.6452 24.7658C30.6373 25.0795 30.7107 25.3048 30.7854 25.5327L30.7865 25.5358C30.8757 25.8078 30.9667 26.0855 30.9316 26.5372C30.8951 27.0073 30.9566 27.2781 31.0372 27.4849C31.0631 27.5511 31.0915 27.6122 31.1181 27.6692C31.1318 27.6987 31.1451 27.727 31.1572 27.7545C31.1935 27.8368 31.2231 27.9177 31.2379 28.0149C31.2638 28.2185 31.233 28.3728 31.1881 28.4685C31.1655 28.5168 31.1405 28.5478 31.12 28.5637C31.1124 28.5696 31.1062 28.5728 31.1018 28.5744C31.1019 28.5739 31.102 28.5735 31.1021 28.573C31.1043 28.5628 31.1083 28.5499 31.1144 28.5325C31.1161 28.5276 31.118 28.5223 31.1199 28.5167C31.1246 28.5036 31.1298 28.4888 31.1349 28.4735C31.1646 28.3832 31.1945 28.2549 31.1453 28.0926L31.145 28.0914L31.1445 28.0901C31.1158 28.0112 31.0673 27.9252 31.015 27.8329L31.0111 27.8259C30.9591 27.7342 30.9022 27.6336 30.8506 27.5196C30.7452 27.2868 30.6623 26.9985 30.6973 26.6266L30.6973 26.6261C30.7296 26.2388 30.6127 25.925 30.4959 25.6113L30.493 25.6035C30.3748 25.286 30.2569 24.966 30.2744 24.5541L30.1755 24.5499C30.157 24.984 30.2822 25.321 30.4002 25.638L30.4005 25.6388C30.5189 25.9567 30.629 26.2526 30.5987 26.6176C30.5617 27.0106 30.6498 27.3162 30.7604 27.5604C30.8139 27.6786 30.8727 27.7825 30.9244 27.8737L30.9289 27.8816C30.982 27.9755 31.0256 28.0534 31.051 28.1226C31.0913 28.2568 31.0673 28.3621 31.0408 28.4425C31.0361 28.4568 31.0315 28.4698 31.0271 28.4824C31.025 28.4883 31.0229 28.4941 31.0209 28.5C31.0148 28.5174 31.0089 28.5355 31.0053 28.5523C31.0018 28.5686 30.9993 28.5891 31.0047 28.6098C31.0108 28.6332 31.0258 28.6515 31.0469 28.6633L31.0479 28.6638L31.0488 28.6643C31.0957 28.6877 31.1447 28.6698 31.1806 28.642C31.2174 28.6135 31.2509 28.5679 31.2778 28.5105C31.3319 28.3948 31.364 28.2209 31.3361 28.0017L31.3359 28.0006C31.3192 27.891 31.2859 27.801 31.2477 27.7145C31.2339 27.6832 31.2199 27.6531 31.2058 27.6229C31.1801 27.5679 31.1543 27.5126 31.1295 27.4489C31.0548 27.2574 30.9948 27.0017 31.0303 26.5448C31.0669 26.0735 30.9709 25.7806 30.8808 25.5057L30.8795 25.5018C30.8268 25.3412 30.7766 25.187 30.7549 25.0043L32.2317 28.2171L32.2322 28.2182C32.2325 28.2188 32.2328 28.2195 32.2331 28.2202C32.2335 28.221 32.2339 28.2218 32.2343 28.2227C32.236 28.2264 32.2385 28.2315 32.2418 28.2373C32.2481 28.2489 32.2578 28.2646 32.2709 28.2798C32.2951 28.3081 32.345 28.3492 32.4114 28.3243L32.4138 28.3234L32.4161 28.3223C32.4793 28.2907 32.4866 28.2276 32.4838 28.189C32.4824 28.1687 32.4781 28.1505 32.4744 28.1377C32.4725 28.1312 32.4707 28.1258 32.4693 28.1219C32.4686 28.12 32.468 28.1184 32.4676 28.1172L32.4672 28.1162Z" fill="#85340A"/>
<path d="M30.387 24.696C30.432 25.506 30.891 25.866 30.801 26.613C30.999 26.028 30.522 25.569 30.549 24.705M29.856 22.563L31.611 26.397L30.144 22.446" fill="#85340A"/>
<path d="M30 25.0031C31.3824 25.0031 32.5031 23.8824 32.5031 22.5C32.5031 21.1176 31.3824 19.9969 30 19.9969C28.6175 19.9969 27.4968 21.1176 27.4968 22.5C27.4968 23.8824 28.6175 25.0031 30 25.0031Z" fill="#F6B40E"/>
<path fill-rule="evenodd" clip-rule="evenodd" d="M30 20.0625C28.6538 20.0625 27.5625 21.1538 27.5625 22.5C27.5625 23.8462 28.6538 24.9375 30 24.9375C31.3462 24.9375 32.4375 23.8462 32.4375 22.5C32.4375 21.1538 31.3462 20.0625 30 20.0625ZM27.4313 22.5C27.4313 21.0813 28.5813 19.9313 30 19.9313C31.4187 19.9313 32.5688 21.0813 32.5688 22.5C32.5688 23.9187 31.4187 25.0688 30 25.0688C28.5813 25.0688 27.4313 23.9187 27.4313 22.5Z" fill="#85340A"/>
<path d="M30.8438 21.9656C30.6844 21.9656 30.5156 22.0406 30.4219 22.1906C30.6094 22.3688 31.0406 22.3781 31.3313 22.1719C31.2698 22.1067 31.1957 22.0548 31.1135 22.0193C31.0313 21.9838 30.9427 21.9656 30.8531 21.9656H30.8438ZM30.8438 22.0031C31.0125 22.0031 31.1719 22.0781 31.1906 22.1531C31.0031 22.3688 30.6937 22.3406 30.4969 22.1906C30.5906 22.0594 30.7219 22.0031 30.8531 22.0031H30.8438Z" fill="#843511"/>
<path d="M29.625 22.8469C29.599 22.853 29.5748 22.8653 29.5544 22.8826C29.534 22.9 29.5181 22.9219 29.5079 22.9467C29.4977 22.9714 29.4935 22.9982 29.4957 23.0249C29.4978 23.0516 29.5063 23.0774 29.5205 23.1001C29.5346 23.1228 29.5539 23.1419 29.5768 23.1557C29.5998 23.1695 29.6256 23.1776 29.6524 23.1795C29.6791 23.1813 29.7058 23.1767 29.7304 23.1662C29.755 23.1556 29.7767 23.1394 29.7938 23.1188C29.8556 23.1571 29.9273 23.1767 30 23.175H30.0188C30.075 23.175 30.1688 23.1656 30.2344 23.1188C30.2625 23.1656 30.3188 23.1844 30.375 23.1844C30.4198 23.1881 30.4642 23.1739 30.4985 23.1449C30.5328 23.1159 30.5541 23.0744 30.5579 23.0297C30.5616 22.9849 30.5474 22.9405 30.5184 22.9062C30.4894 22.872 30.4479 22.8506 30.4032 22.8469C30.45 22.8656 30.4782 22.9031 30.4782 22.9594C30.4782 22.9892 30.4663 23.0178 30.4452 23.0389C30.4241 23.06 30.3955 23.0719 30.3657 23.0719C30.3358 23.0719 30.3072 23.06 30.2861 23.0389C30.265 23.0178 30.2532 22.9892 30.2532 22.9594C30.231 23.0057 30.1965 23.045 30.1535 23.0731C30.1106 23.1012 30.0607 23.117 30.0094 23.1188C29.9597 23.1153 29.9119 23.0987 29.8707 23.0707C29.8295 23.0427 29.7965 23.0043 29.775 22.9594C29.775 23.025 29.7188 23.0719 29.6532 23.0719C29.5969 23.0719 29.5407 23.0156 29.5407 22.9594C29.5407 22.9031 29.5688 22.8656 29.6157 22.8469H29.625ZM29.8125 23.3531C29.6157 23.3531 29.5313 23.5406 29.3625 23.6437C29.4563 23.6062 29.5313 23.5312 29.6719 23.4562C29.8032 23.3812 29.9157 23.475 30 23.475C30.075 23.475 30.1875 23.3812 30.3282 23.4562C30.4594 23.5312 30.5438 23.6062 30.6375 23.6437C30.4594 23.5312 30.3844 23.3625 30.1875 23.3625C30.15 23.3625 30.075 23.3812 30 23.4187L29.8125 23.3531Z" fill="#85340A"/>
<path d="M29.7375 23.5875C29.6625 23.5875 29.5687 23.6062 29.4187 23.6437C29.7656 23.5687 29.8406 23.6906 30 23.6906C30.15 23.6906 30.2343 23.5687 30.5718 23.6437C30.1968 23.5312 30.1125 23.6063 30 23.6063C29.925 23.6063 29.8687 23.5781 29.7375 23.5875Z" fill="#85340A"/>
<path d="M29.4375 23.6438H29.3625C29.7657 23.6906 29.5782 23.925 30 23.925C30.4219 23.925 30.2344 23.6906 30.6375 23.6438C30.2157 23.6063 30.3469 23.8594 30 23.8594C29.6719 23.8594 29.775 23.6438 29.4375 23.6438Z" fill="#85340A"/>
<path d="M30.3468 24.2719C30.3468 24.1799 30.3103 24.0916 30.2452 24.0266C30.1802 23.9615 30.0919 23.925 30 23.925C29.908 23.925 29.8197 23.9615 29.7547 24.0266C29.6896 24.0916 29.6531 24.1799 29.6531 24.2719C29.6714 24.1936 29.7156 24.1239 29.7786 24.0739C29.8416 24.024 29.9196 23.9968 30 23.9968C30.0803 23.9968 30.1583 24.024 30.2213 24.0739C30.2843 24.1239 30.3285 24.1936 30.3468 24.2719Z" fill="#85340A"/>
<path d="M28.4437 21.9656C28.8844 21.5813 29.4469 21.5156 29.7562 21.8063C29.8275 21.9 29.8756 22.0092 29.8969 22.125C29.9344 22.35 29.8687 22.5844 29.7 22.8281L29.775 22.8656C29.925 22.575 29.9812 22.275 29.925 21.9844L29.8687 21.7688C29.4469 21.4219 28.8656 21.3938 28.4437 21.9563V21.9656Z" fill="#85340A"/>
<path d="M29.1375 21.8438C29.3906 21.8438 29.4469 21.9 29.5594 22.0031C29.6719 22.0969 29.7375 22.0781 29.7469 22.0969C29.775 22.1156 29.7469 22.1719 29.7188 22.1531C29.6719 22.1344 29.5969 22.0969 29.4844 22.0031C29.3719 21.9094 29.25 21.9094 29.1375 21.9094C28.7906 21.9094 28.6031 22.1906 28.5656 22.1719C28.5188 22.1531 28.7531 21.8438 29.1375 21.8438Z" fill="#85340A"/>
<path d="M29.1469 22.3219C29.2401 22.3219 29.3156 22.2463 29.3156 22.1531C29.3156 22.0599 29.2401 21.9844 29.1469 21.9844C29.0537 21.9844 28.9781 22.0599 28.9781 22.1531C28.9781 22.2463 29.0537 22.3219 29.1469 22.3219Z" fill="#85340A"/>
<path d="M28.6781 22.2656C29.0062 22.5188 29.3344 22.5 29.5219 22.3875C29.7094 22.2656 29.7094 22.2281 29.6719 22.2281C29.6344 22.2281 29.5969 22.2656 29.4469 22.35C29.2875 22.425 29.0625 22.425 28.6781 22.2656Z" fill="#85340A"/>
</g>
<defs>
<clipPath id="clip0_1_24935">
<rect width="60" height="45" fill="white"/>
</clipPath>
</defs>
</svg>
