<svg width="60" height="45" viewBox="0 0 60 45" fill="none" xmlns="http://www.w3.org/2000/svg">
<g clip-path="url(#clip0_1_25028)">
<path d="M0 0H60V45H0V0Z" fill="#00008B"/>
<path d="M3.51562 0L14.9531 8.48438L26.3438 0H30V2.90625L18.75 11.2969L30 19.6406V22.5H26.25L15 14.1094L3.79688 22.5H0V19.6875L11.2031 11.3438L0 3V0H3.51562Z" fill="white"/>
<path d="M19.875 13.1719L30 20.625V22.5L17.2969 13.1719H19.875ZM11.25 14.1094L11.5312 15.75L2.53125 22.5H0L11.25 14.1094ZM30 0V0.140625L18.3281 8.95312L18.4219 6.89062L27.6562 0H30ZM0 0L11.2031 8.25H8.39062L0 1.96875V0Z" fill="#FF0000"/>
<path d="M11.2969 0V22.5H18.7969V0H11.2969ZM0 7.5V15H30V7.5H0Z" fill="white"/>
<path d="M0 9.04688V13.5469H30V9.04688H0ZM12.7969 0V22.5H17.2969V0H12.7969Z" fill="#FF0000"/>
<path d="M49.4062 37.1906L47.4843 37.4344L47.6905 39.3562L46.303 38.0062L44.9249 39.3656L45.1124 37.4437L43.1905 37.2188L44.8124 36.1687L43.7905 34.5281L45.628 35.1375L46.2749 33.3094L46.9405 35.1281L48.7687 34.5L47.7655 36.15L49.3968 37.1906H49.4062ZM49.0593 26.2031L49.3124 24.9844L48.3937 24.1406L49.6312 24L50.1468 22.8656L50.6624 24L51.8999 24.1406L50.9812 24.9844L51.2343 26.2031L50.1468 25.5844L49.0593 26.2031ZM39.2999 20.5781L37.3968 20.7844L37.5655 22.6875L36.2155 21.3281L34.828 22.65L35.053 20.7469L33.1593 20.4937L34.7812 19.4812L33.7968 17.8406L35.6062 18.4781L36.2812 16.6875L36.9093 18.4969L38.728 17.9062L37.7062 19.5281L39.3093 20.5781H39.2999ZM58.4062 17.5031L56.4468 17.7562L56.6624 19.7156L55.2468 18.3375L53.8405 19.725L54.0374 17.7562L52.078 17.5312L53.7374 16.4531L52.6968 14.775L54.5718 15.4031L55.228 13.5469L55.903 15.4031L57.7687 14.7562L56.7374 16.4437L58.4062 17.5031ZM49.3968 9.675L47.4562 9.89062L47.6343 11.8406L46.2561 10.4531L44.8405 11.8031L45.0655 9.8625L43.1249 9.6L44.7843 8.56875L43.7812 6.89062L45.628 7.5375L46.3124 5.70937L46.9499 7.55625L48.8061 6.94687L47.7655 8.59687L49.3968 9.675ZM21.9374 36.1594L17.6437 36.6656L18.0749 40.9688L14.9999 37.9313L11.9062 40.95L12.3655 36.6469L8.07178 36.1031L11.7187 33.7781L9.46865 30.0844L13.5562 31.4906L15.0374 27.4219L16.4905 31.5L20.5874 30.1219L18.3093 33.7969L21.9468 36.15L21.9374 36.1594Z" fill="white"/>
</g>
<defs>
<clipPath id="clip0_1_25028">
<rect width="60" height="45" fill="white"/>
</clipPath>
</defs>
</svg>
