<svg width="60" height="45" viewBox="0 0 60 45" fill="none" xmlns="http://www.w3.org/2000/svg">
<g clip-path="url(#clip0_1_26416)">
<path fill-rule="evenodd" clip-rule="evenodd" d="M0 0H60V45H0V0Z" fill="#229E45"/>
<path fill-rule="evenodd" clip-rule="evenodd" d="M30.1312 40.875L58.3968 22.5281L29.9624 4.125L1.60303 22.5656L30.1312 40.875Z" fill="#F8E509"/>
<path fill-rule="evenodd" clip-rule="evenodd" d="M42.45 22.5C42.45 29.0906 37.0969 34.4344 30.4875 34.4344C28.1257 34.4307 25.8179 33.7268 23.8561 32.4117C21.8942 31.0967 20.3662 29.2295 19.4654 27.0462C18.5646 24.8629 18.3313 22.4615 18.795 20.1456C19.2587 17.8297 20.3986 15.7033 22.0707 14.0352C23.7427 12.3671 25.8718 11.2322 28.1888 10.7739C30.5057 10.3156 32.9066 10.5546 35.0877 11.4605C37.2689 12.3665 39.1325 13.8989 40.443 15.8638C41.7534 17.8288 42.4519 20.1382 42.45 22.5Z" fill="#2B49A3"/>
<path fill-rule="evenodd" clip-rule="evenodd" d="M26.5595 29.6531L26.1845 29.4375L25.8095 29.625L25.8938 29.2031L25.5938 28.8844L26.0157 28.8375L26.222 28.4625L26.4001 28.8563L26.8126 28.9313L26.5032 29.2125M34.5657 31.6781L34.2001 31.4625L33.8251 31.65L33.9001 31.2281L33.6095 30.9188L34.0313 30.8719L34.2282 30.4875L34.4157 30.8813L34.8282 30.9563L34.5095 31.2469M31.1157 28.4344L30.797 28.2469L30.4688 28.4156L30.5438 28.05L30.2813 27.7781L30.6563 27.7406L30.8251 27.4031L30.9751 27.75L31.3407 27.8156L31.0595 28.0688M39.2157 27.2719L38.897 27.0844L38.5688 27.2531L38.6438 26.8875L38.3907 26.625L38.7563 26.5875L38.9251 26.2594L39.0751 26.5969L39.4313 26.6625L39.1595 26.9063M30.9751 24.8438L30.6001 24.6375L30.2251 24.825L30.3001 24.3938L30.0095 24.0844L30.4313 24.0375L30.6282 23.6531L30.8157 24.0469L31.2282 24.1219L30.9095 24.4219M21.1032 21.1406L20.7282 20.9344L20.3532 21.1219L20.447 20.6906L20.1376 20.3813L20.5688 20.3344L20.7563 19.95L20.9438 20.3438L21.3563 20.4188L21.047 20.7094M22.2938 26.0719L21.9188 25.8563L21.5438 26.0438L21.6282 25.6219L21.3282 25.3125L21.7501 25.2563L21.947 24.8813L22.1345 25.275L22.547 25.35L22.2376 25.6406M34.6126 19.3313L34.2751 19.1438L33.9376 19.3125L34.0126 18.9375L33.7501 18.6563L34.1251 18.6094L34.3032 18.2719L34.4626 18.6281L34.8376 18.6938L34.5563 18.9469M33.9282 22.5375L33.6751 22.3875L33.4032 22.5188L33.4595 22.2188L33.2532 22.0031L33.5532 21.9656L33.6938 21.7031L33.8157 21.9844L34.097 22.0313L33.8907 22.2375M20.5595 26.9625L20.3063 26.8219L20.0532 26.9438L20.1095 26.6625L19.9126 26.4563L20.1938 26.4188L20.3251 26.1656L20.447 26.4281L20.7282 26.4844L20.5126 26.6719M39.2813 28.1063L39.0751 28.0031L38.8688 28.0969L38.9157 27.8813L38.7563 27.7313L38.9813 27.7031L39.0938 27.5156L39.1876 27.7031L39.422 27.75L39.2438 27.8906" fill="#FFFFEF"/>
<path fill-rule="evenodd" clip-rule="evenodd" d="M20.5595 26.9625L20.3063 26.8219L20.0532 26.9437L20.1095 26.6625L19.9126 26.4562L20.1938 26.4187L20.3251 26.1656L20.447 26.4281L20.7282 26.4844L20.5126 26.6719" fill="#FFFFEF"/>
<path fill-rule="evenodd" clip-rule="evenodd" d="M20.5595 26.9625L20.3063 26.8219L20.0532 26.9438L20.1095 26.6625L19.9126 26.4563L20.1938 26.4188L20.3251 26.1656L20.447 26.4281L20.7282 26.4844L20.5126 26.6719M24.4782 26.9531L24.2345 26.8219L23.9813 26.9438L24.0376 26.6625L23.8407 26.4563L24.122 26.4188L24.2532 26.1656L24.3751 26.4281L24.6563 26.475L24.4407 26.6719M23.9907 28.2656L23.747 28.125L23.4938 28.2563L23.5501 27.975L23.3532 27.7594L23.6345 27.7219L23.7657 27.4688L23.8876 27.7313L24.1688 27.7875L23.9532 27.975M32.147 25.8938L31.9032 25.7438L31.6407 25.875L31.697 25.5938L31.5095 25.3781L31.7907 25.35L31.922 25.0969L32.0345 25.3594L32.3157 25.4063L32.1095 25.6031M29.7563 25.8844L29.5032 25.7438L29.2501 25.875L29.3063 25.5938L29.1188 25.3781L29.4001 25.35L29.5313 25.0875L29.6438 25.3594L29.9251 25.4063L29.7188 25.6031M23.2688 25.0594L23.1095 24.9656L22.9501 25.0406L22.9876 24.8625L22.8657 24.7313L23.0438 24.7125L23.1188 24.5531L23.1938 24.7219L23.372 24.75L23.2407 24.8719M38.972 29.1281L38.7282 28.9875L38.4751 29.1188L38.5313 28.8375L38.3345 28.6219L38.6157 28.5844L38.747 28.3313L38.8688 28.5938L39.1501 28.65L38.9345 28.8375M36.9845 29.4L36.7782 29.2688L36.5626 29.3813L36.6095 29.1375L36.4501 28.9688L36.6845 28.9406L36.797 28.725L36.8907 28.95L37.1251 28.9875L36.947 29.1563M37.922 29.3719L37.7345 29.2594L37.5376 29.3531L37.5751 29.1375L37.4251 28.9781L37.6407 28.95L37.7438 28.7625L37.8376 28.95L38.0532 28.9969L37.8938 29.1469M40.622 27.0094L40.4345 26.9156L40.247 27.0094L40.2938 26.7938L40.1438 26.6344L40.3595 26.6063L40.4532 26.4188L40.547 26.6156L40.7438 26.6531L40.5938 26.8031M36.9563 30.7219L36.722 30.5906L36.4688 30.7031L36.5251 30.4406L36.3376 30.2531L36.6188 30.225L36.7407 29.9906L36.8532 30.2344L37.1345 30.2813L36.9188 30.4594M36.9751 31.7906L36.7501 31.6594L36.5251 31.7813L36.5813 31.5188L36.4032 31.3313L36.6563 31.2938L36.7688 31.0594L36.872 31.3031L37.1251 31.35L36.9376 31.5375M35.1563 29.3719L34.9782 29.2594L34.7907 29.3531L34.8282 29.1469L34.6876 28.9875L34.8938 28.9688L34.9876 28.7813L35.0813 28.9688L35.2876 29.0063L35.1376 29.1563M33.4688 29.3719L33.2813 29.2594L33.0938 29.3531L33.1407 29.1469L32.9907 28.9875L33.2063 28.9688L33.3001 28.7813L33.3938 28.9688L33.5907 29.0063L33.4407 29.1563M30.5907 26.85L30.4032 26.7469L30.2157 26.8406L30.2626 26.625L30.1126 26.475L30.3188 26.4469L30.4126 26.2594L30.5063 26.4469L30.7126 26.4938L30.5626 26.6344M30.9095 31.9781L30.7595 31.8938L30.5907 31.9781L30.6282 31.7906L30.5063 31.6594L30.6845 31.6406L30.7688 31.4813L30.8438 31.65L31.022 31.6781L30.8907 31.8M26.5595 23.6813L26.1845 23.4656L25.8095 23.6531L25.8938 23.2313L25.5938 22.9219L26.0157 22.8656L26.222 22.4906L26.4001 22.8844L26.8126 22.9594L26.5032 23.25" fill="#FFFFEF"/>
<path fill-rule="evenodd" clip-rule="evenodd" d="M41.6625 26.7938C41.8948 26.1911 42.0766 25.5702 42.2063 24.9375C35.85 19.3594 28.7719 16.5 19.8281 17.0906C19.5037 17.7183 19.237 18.3741 19.0312 19.05C29.625 18.0375 37.4062 22.725 41.6625 26.7938Z" fill="white"/>
<path d="M38.8125 23.6625L39.0282 23.7844C38.996 23.848 38.9861 23.9207 39 23.9906C39.022 24.0585 39.0689 24.1154 39.1313 24.15C39.1969 24.1969 39.2625 24.225 39.3188 24.2156C39.375 24.2156 39.4125 24.1875 39.4407 24.15C39.457 24.1251 39.4637 24.0951 39.4594 24.0656C39.4517 24.031 39.4356 23.9988 39.4125 23.9719C39.3938 23.9437 39.3469 23.8781 39.2719 23.8031C39.1948 23.7236 39.1371 23.6273 39.1032 23.5219C39.0798 23.4421 39.0858 23.3565 39.1203 23.2808C39.1547 23.2051 39.2152 23.1442 39.2907 23.1094C39.3589 23.0809 39.4342 23.0744 39.5063 23.0906C39.5944 23.1109 39.6774 23.1492 39.75 23.2031C39.8813 23.2969 39.9657 23.3906 39.9938 23.5031C40.0068 23.5557 40.0085 23.6105 39.9988 23.6638C39.9891 23.7171 39.9682 23.7678 39.9375 23.8125L39.7125 23.6719C39.7407 23.6156 39.75 23.5594 39.7313 23.5125C39.7219 23.4656 39.6844 23.4187 39.6188 23.3812C39.5706 23.3425 39.5117 23.3196 39.45 23.3156C39.4331 23.3151 39.4162 23.3191 39.4014 23.3274C39.3865 23.3356 39.3742 23.3478 39.3657 23.3625C39.3469 23.3906 39.3469 23.4187 39.3563 23.4562C39.3657 23.4937 39.4125 23.5687 39.5063 23.6625C39.6 23.7562 39.6563 23.8406 39.6938 23.8969C39.7273 23.9583 39.7424 24.0281 39.7374 24.0979C39.7325 24.1677 39.7075 24.2346 39.6657 24.2906C39.6218 24.3544 39.5597 24.4034 39.4875 24.4313C39.4172 24.4636 39.3387 24.4734 39.2625 24.4594C39.1782 24.4406 39.0938 24.4031 39 24.3375C38.8594 24.2438 38.775 24.1406 38.7469 24.0281C38.7164 23.9006 38.7365 23.7661 38.8032 23.6531L38.8125 23.6625ZM37.725 22.95L37.9594 23.0719C37.9304 23.1366 37.9238 23.2092 37.9407 23.2781C37.9646 23.3425 38.0113 23.3958 38.0719 23.4281C38.1469 23.475 38.2032 23.4938 38.2594 23.4844C38.3157 23.4844 38.3532 23.4562 38.3813 23.4094C38.3955 23.3871 38.4021 23.3607 38.4 23.3344C38.4 23.3062 38.3813 23.2687 38.3532 23.2406C38.3051 23.1827 38.2551 23.1264 38.2032 23.0719C38.1 22.9688 38.0344 22.8844 38.0157 22.8094C38.0003 22.7611 37.9957 22.7101 38.0022 22.6599C38.0087 22.6097 38.0261 22.5615 38.0532 22.5187C38.0888 22.4609 38.1411 22.4152 38.2032 22.3875C38.2676 22.3578 38.3394 22.348 38.4094 22.3594C38.4961 22.374 38.579 22.4059 38.6532 22.4531C38.7938 22.5469 38.8782 22.6406 38.9063 22.7438C38.9234 22.7964 38.9289 22.8522 38.9224 22.9072C38.9159 22.9622 38.8976 23.0152 38.8688 23.0625L38.6344 22.9313C38.6625 22.8656 38.6719 22.8187 38.6532 22.7719C38.6344 22.725 38.5969 22.6781 38.5313 22.6406C38.4794 22.6034 38.417 22.5837 38.3532 22.5844C38.3378 22.5854 38.3229 22.5902 38.3098 22.5984C38.2967 22.6066 38.2859 22.6179 38.2782 22.6312C38.2594 22.6594 38.2594 22.6875 38.2688 22.725C38.2782 22.7625 38.3344 22.8375 38.4282 22.9313C38.5219 23.025 38.5875 23.1 38.6157 23.1562C38.6532 23.215 38.6732 23.2834 38.6732 23.3531C38.6732 23.4229 38.6532 23.4912 38.6157 23.55C38.5753 23.6154 38.5166 23.6675 38.4469 23.7C38.3766 23.7324 38.298 23.7422 38.2219 23.7281C38.1254 23.7118 38.0331 23.6768 37.95 23.625C37.8289 23.5604 37.7355 23.4537 37.6875 23.325C37.6513 23.1998 37.6648 23.0655 37.725 22.95ZM36.3938 22.5938L37.0782 21.4688L37.9032 21.9844L37.7907 22.1719L37.1907 21.7969L37.0407 22.05L37.6032 22.3969L37.4813 22.5844L36.9188 22.2375L36.7313 22.5469L37.3594 22.9219L37.2469 23.1094L36.4032 22.5938H36.3938ZM34.4532 21L34.5563 20.8125L35.0625 21.0656L34.8282 21.5344C34.7532 21.5531 34.6594 21.5625 34.5469 21.5531C34.4389 21.5412 34.334 21.5094 34.2375 21.4594C34.1241 21.4041 34.0271 21.3201 33.9563 21.2156C33.8918 21.1186 33.8591 21.0039 33.8625 20.8875C33.8673 20.7663 33.8994 20.6477 33.9563 20.5406C34.0126 20.4279 34.0965 20.3312 34.2 20.2594C34.2991 20.1909 34.4171 20.1548 34.5375 20.1562C34.6313 20.1562 34.725 20.1844 34.8375 20.25C34.9875 20.3156 35.0813 20.4094 35.1282 20.5125C35.1769 20.6149 35.1869 20.7314 35.1563 20.8406L34.9032 20.7656C34.9187 20.7028 34.912 20.6366 34.8844 20.5781C34.8563 20.5219 34.8094 20.4844 34.7344 20.4469C34.6907 20.4219 34.6422 20.4065 34.5921 20.4017C34.542 20.3968 34.4915 20.4026 34.4438 20.4188C34.35 20.4469 34.2657 20.5312 34.2 20.6625C34.1344 20.7937 34.1063 20.9156 34.1344 21.0187C34.1474 21.0677 34.1709 21.1131 34.2033 21.152C34.2356 21.1909 34.2762 21.2222 34.3219 21.2438C34.3688 21.2719 34.425 21.2906 34.4813 21.2906C34.5372 21.2991 34.5941 21.2991 34.65 21.2906L34.725 21.1406L34.4532 21ZM25.9969 18.9094L26.1844 17.5969L26.5782 17.6625L26.6813 18.5812L27.0469 17.7375L27.4407 17.7938L27.2532 19.0875L27 19.05L27.1594 18.0281L26.7469 19.0125L26.4938 18.975L26.3907 17.9156L26.2407 18.9469L25.9969 18.9094ZM24.675 18.75L24.7969 17.4375L25.7625 17.5312L25.7438 17.7562L25.0407 17.6906L25.0125 17.9719L25.6688 18.0375L25.6407 18.2625L24.9844 18.1969L24.9563 18.5531L25.6875 18.6188L25.6688 18.8438L24.675 18.75Z" fill="#309E3A"/>
<path d="M20.2969 17.9344C20.2969 17.7937 20.325 17.6906 20.3625 17.5969C20.3954 17.5302 20.4398 17.4699 20.4938 17.4187C20.5419 17.3702 20.5993 17.332 20.6625 17.3062C20.7563 17.2781 20.85 17.2594 20.9438 17.2594C21.1407 17.2594 21.2907 17.3344 21.4125 17.4469C21.4705 17.5185 21.5137 17.601 21.5394 17.6896C21.5652 17.7781 21.5731 17.8709 21.5625 17.9625C21.5625 18.1687 21.4969 18.3375 21.375 18.4594C21.3124 18.5173 21.2383 18.5614 21.1576 18.5888C21.0768 18.6163 20.9912 18.6265 20.9063 18.6187C20.8225 18.6196 20.7394 18.6034 20.662 18.5712C20.5847 18.5389 20.5147 18.4913 20.4563 18.4312C20.3396 18.2932 20.2823 18.1145 20.2969 17.9344Z" fill="#309E3A"/>
<path d="M20.5688 17.9344C20.5688 18.075 20.597 18.1875 20.6626 18.2719C20.7282 18.3469 20.8126 18.3937 20.9251 18.3937C20.9738 18.3971 21.0226 18.3897 21.068 18.3718C21.1134 18.354 21.1543 18.3262 21.1876 18.2906C21.2532 18.2156 21.2813 18.1031 21.2907 17.9437C21.2907 17.7937 21.272 17.6812 21.197 17.6062C21.1664 17.5685 21.1279 17.5379 21.0841 17.5168C21.0403 17.4958 20.9924 17.4847 20.9438 17.4844C20.8945 17.4828 20.8455 17.492 20.8001 17.5115C20.7548 17.5309 20.7142 17.5601 20.6813 17.5969C20.6063 17.6719 20.5782 17.7844 20.5688 17.9344Z" fill="#F7FFFF"/>
<path d="M21.8438 18.6094L21.8625 17.2969H22.425C22.5656 17.2969 22.6594 17.3156 22.725 17.3438C22.7906 17.3625 22.8375 17.4094 22.875 17.4656C22.9125 17.5219 22.9313 17.5969 22.9313 17.6813C22.932 17.7714 22.8985 17.8585 22.8375 17.925C22.7682 17.9899 22.679 18.0296 22.5844 18.0375L22.725 18.15C22.7625 18.1875 22.8094 18.2625 22.8656 18.3656L23.025 18.6281H22.7062L22.5187 18.3281L22.3875 18.1406C22.3648 18.1148 22.3357 18.0954 22.3031 18.0844C22.2605 18.0719 22.2163 18.0656 22.1719 18.0656H22.1156V18.6094H21.8438Z" fill="#309E3A"/>
<path d="M22.125 17.8594H22.3125C22.4437 17.8594 22.5281 17.8594 22.5563 17.8406C22.5844 17.8406 22.6125 17.8125 22.6312 17.7938C22.65 17.775 22.6594 17.7281 22.6594 17.7C22.6594 17.6438 22.65 17.6063 22.6219 17.5875C22.6031 17.5594 22.5656 17.5406 22.5281 17.5313H22.3406L22.125 17.5219V17.85V17.8594Z" fill="white"/>
<path d="M23.3437 17.3625L23.8312 17.3906C23.9343 17.3906 24.0187 17.4 24.0749 17.4188C24.1479 17.4452 24.2126 17.4905 24.2624 17.55C24.3165 17.6155 24.3549 17.6925 24.375 17.775C24.4031 17.8594 24.4124 17.9625 24.4031 18.0844C24.403 18.1801 24.3872 18.2751 24.3562 18.3656C24.3187 18.4594 24.2625 18.5344 24.1968 18.5906C24.1422 18.6356 24.0781 18.6677 24.0093 18.6844C23.9531 18.7031 23.8687 18.7031 23.775 18.7031L23.2781 18.675L23.3437 17.3625Z" fill="#309E3A"/>
<path d="M23.5969 17.5969L23.55 18.4688H23.9063C23.9532 18.4688 23.9907 18.45 24.0188 18.4219C24.0469 18.3938 24.075 18.3563 24.0938 18.3C24.1125 18.2438 24.1313 18.1594 24.1313 18.0563L24.1219 17.8219C24.1085 17.7724 24.0827 17.7273 24.0469 17.6906C24.0158 17.6593 23.977 17.6367 23.9344 17.625C23.8635 17.6092 23.7914 17.5998 23.7188 17.5969H23.5969Z" fill="white"/>
<path d="M29.7749 19.7062L30.0843 18.4312L30.4968 18.525L30.7968 18.6187C30.8624 18.6562 30.9187 18.7125 30.9468 18.7969C30.9843 18.8719 30.9843 18.9562 30.9655 19.0594C30.9468 19.1344 30.9187 19.2 30.8718 19.2469C30.8374 19.288 30.7944 19.3211 30.7458 19.3438C30.6972 19.3665 30.6442 19.3782 30.5905 19.3781C30.5249 19.3781 30.4312 19.3594 30.3093 19.3312L30.1499 19.2844L30.0374 19.7719L29.7749 19.7062Z" fill="#309E3A"/>
<path d="M30.2811 18.7125L30.2061 19.0687L30.3467 19.1062C30.4404 19.125 30.5154 19.1437 30.5529 19.1344C30.5894 19.1293 30.6234 19.1131 30.6503 19.0879C30.6771 19.0627 30.6955 19.0298 30.7029 18.9937C30.7029 18.9469 30.7029 18.9094 30.6842 18.8719C30.6636 18.8338 30.6305 18.8039 30.5904 18.7875L30.4123 18.7406L30.2904 18.7125H30.2811Z" fill="white"/>
<path d="M30.9937 20.0719L31.4343 18.8344L31.9499 19.0219C32.0905 19.0688 32.1749 19.1156 32.2312 19.1531C32.278 19.2 32.3155 19.2469 32.3249 19.3219C32.3343 19.3969 32.3437 19.4625 32.3249 19.5375C32.2874 19.6313 32.2312 19.6969 32.1562 19.7438C32.0812 19.7813 31.9874 19.7906 31.8749 19.7719C31.9124 19.8188 31.9499 19.8656 31.9687 19.9219L32.0437 20.175L32.0999 20.4656L31.8093 20.3625L31.7155 20.025C31.6985 19.9487 31.6766 19.8735 31.6499 19.8C31.6375 19.7708 31.6182 19.7451 31.5937 19.725C31.5749 19.6969 31.5374 19.6781 31.4718 19.6594L31.4249 19.6406L31.2374 20.1656L30.9937 20.0719Z" fill="#309E3A"/>
<path d="M31.4999 19.4438L31.678 19.5094C31.7999 19.5563 31.8749 19.575 31.9124 19.575C31.9405 19.575 31.9686 19.575 31.9967 19.5469C32.0249 19.5281 32.0436 19.5 32.053 19.4625C32.0717 19.425 32.0717 19.3875 32.053 19.35C32.0391 19.3137 32.0124 19.2837 31.978 19.2656L31.7905 19.2L31.603 19.1344L31.4905 19.4438H31.4999Z" fill="white"/>
<path d="M32.5312 20.025C32.5635 19.9152 32.6177 19.8132 32.6906 19.725C32.738 19.6684 32.7952 19.6208 32.8594 19.5844C32.9175 19.5516 32.981 19.5293 33.0469 19.5188C33.1406 19.5188 33.2344 19.5188 33.3375 19.5563C33.4213 19.577 33.4997 19.6153 33.5676 19.6686C33.6355 19.722 33.6913 19.7891 33.7312 19.8656C33.8062 20.0156 33.8062 20.1938 33.75 20.4C33.7036 20.5772 33.589 20.7288 33.4312 20.8219C33.2906 20.9063 33.1219 20.9156 32.9437 20.8594C32.8602 20.8381 32.782 20.7996 32.7142 20.7463C32.6464 20.693 32.5904 20.6262 32.55 20.55C32.5124 20.468 32.4914 20.3795 32.4882 20.2894C32.485 20.1993 32.4996 20.1094 32.5312 20.025Z" fill="#309E3A"/>
<path d="M32.7937 20.1C32.7562 20.2406 32.7468 20.3625 32.7937 20.4563C32.8406 20.55 32.9062 20.6063 33.0093 20.6438C33.1031 20.6719 33.1968 20.6625 33.2906 20.6063C33.3843 20.5594 33.4406 20.4563 33.4875 20.3063C33.5343 20.1656 33.5343 20.0531 33.4875 19.9594C33.4689 19.9149 33.4409 19.875 33.4052 19.8426C33.3696 19.8102 33.3272 19.7861 33.2812 19.7719C33.2351 19.756 33.186 19.7502 33.1375 19.7551C33.0889 19.7599 33.042 19.7753 33 19.8C32.9062 19.8563 32.8406 19.95 32.7937 20.1Z" fill="white"/>
<path d="M35.0906 21.8531L35.6906 20.6906L36.1875 20.9438C36.2811 20.9887 36.3667 21.0489 36.4406 21.1219C36.4875 21.1688 36.5156 21.225 36.5156 21.3C36.5156 21.375 36.5156 21.4406 36.4781 21.5063C36.442 21.5906 36.3749 21.6577 36.2906 21.6938C36.1968 21.7125 36.1031 21.7125 36 21.675C36.0375 21.7313 36.0562 21.7875 36.075 21.8344C36.0937 21.8906 36.1031 21.975 36.1125 22.0969L36.1312 22.3969L35.85 22.2563L35.8125 21.9094C35.808 21.8307 35.7986 21.7525 35.7843 21.675C35.7779 21.6399 35.7617 21.6074 35.7375 21.5813L35.625 21.5156L35.5781 21.4875L35.325 21.975L35.0906 21.8531Z" fill="#309E3A"/>
<path d="M35.6719 21.3L35.85 21.3937C35.9625 21.45 36.0375 21.4875 36.0656 21.4875C36.0938 21.4875 36.1313 21.4875 36.1594 21.4688C36.1875 21.4594 36.2062 21.4312 36.225 21.3937C36.2437 21.3562 36.2531 21.3187 36.2438 21.2812C36.2322 21.2439 36.2092 21.2111 36.1781 21.1875C36.1233 21.1538 36.067 21.1225 36.0094 21.0938L35.8219 21L35.6719 21.3Z" fill="white"/>
<path d="M39.9468 24.2531C40.0075 24.1567 40.0873 24.0738 40.1812 24.0094C40.2443 23.969 40.3142 23.9404 40.3875 23.925C40.4555 23.9111 40.5257 23.9111 40.5937 23.925C40.6875 23.9437 40.7718 23.9812 40.8562 24.0375C40.9292 24.0829 40.9919 24.1431 41.0403 24.2141C41.0887 24.2851 41.1218 24.3655 41.1375 24.45C41.1656 24.6094 41.1187 24.7875 41.0062 24.9656C40.9121 25.1205 40.7604 25.2318 40.5843 25.275C40.5004 25.2931 40.4136 25.2933 40.3296 25.2755C40.2456 25.2578 40.1662 25.2224 40.0968 25.1719C40.0239 25.1264 39.9612 25.0663 39.9128 24.9952C39.8643 24.9242 39.8312 24.8439 39.8156 24.7594C39.7875 24.5906 39.8343 24.4219 39.9468 24.2531Z" fill="#309E3A"/>
<path d="M40.1811 24.4031C40.0874 24.525 40.0592 24.6375 40.078 24.7406C40.0849 24.7881 40.1018 24.8336 40.1277 24.874C40.1536 24.9144 40.1878 24.9488 40.228 24.975C40.3217 25.0406 40.4155 25.0594 40.5092 25.0313C40.603 25.0031 40.6967 24.9375 40.7811 24.8063C40.8655 24.675 40.903 24.5625 40.8842 24.4688C40.8749 24.375 40.8186 24.2906 40.7342 24.225C40.6499 24.1594 40.5467 24.15 40.453 24.1781C40.3592 24.1969 40.2655 24.2719 40.1717 24.4031H40.1811Z" fill="white"/>
<path d="M28.2937 19.1719L28.5093 18.2531L29.1843 18.4125L29.1562 18.5625L28.6593 18.45L28.6125 18.6563L29.0718 18.7594L29.0343 18.9188L28.575 18.8063L28.5187 19.0594L29.0343 19.1813L28.9968 19.3313L28.2937 19.1719Z" fill="#309E3A"/>
</g>
<defs>
<clipPath id="clip0_1_26416">
<rect width="60" height="45" fill="white"/>
</clipPath>
</defs>
</svg>
