<svg width="60" height="45" viewBox="0 0 60 45" fill="none" xmlns="http://www.w3.org/2000/svg">
<g clip-path="url(#clip0_1_35697)">
<path d="M0 0H60V45H0V0Z" fill="#003399"/>
<path d="M30.2895 8.1107L30.6698 9.25076L31.8715 9.2601C32.0272 9.26129 32.0916 9.4598 31.9665 9.55229L30.9997 10.2662L31.3621 11.412C31.409 11.5602 31.2402 11.6831 31.1135 11.5925L30.1359 10.8937L29.1582 11.5925C29.0317 11.683 28.8627 11.5603 28.9097 11.412L29.2721 10.2662L28.3053 9.55229C28.1802 9.4598 28.2446 9.26129 28.4003 9.2601L29.602 9.25076L29.9823 8.1107C30.0314 7.9631 30.2403 7.9631 30.2895 8.1107Z" fill="#FFE15A"/>
<path d="M30.2895 32.5882L30.6698 33.7283L31.8715 33.7376C32.0272 33.7388 32.0916 33.9373 31.9665 34.0298L30.9997 34.7438L31.3621 35.8895C31.409 36.0377 31.2402 36.1606 31.1135 36.0701L30.1359 35.3712L29.1582 36.0701C29.0317 36.1605 28.8627 36.0379 28.9097 35.8895L29.2721 34.7438L28.3053 34.0298C28.1802 33.9373 28.2446 33.7388 28.4003 33.7376L29.602 33.7283L29.9823 32.5882C30.0314 32.4406 30.2403 32.4406 30.2895 32.5882Z" fill="#FFE15A"/>
<path d="M42.528 20.35L42.9083 21.49L44.11 21.4994C44.2657 21.5005 44.3301 21.6991 44.205 21.7915L43.2382 22.5055L43.6006 23.6512C43.6476 23.7995 43.4787 23.9224 43.3521 23.8318L42.3744 23.1329L41.3968 23.8318C41.2702 23.9222 41.1012 23.7996 41.1482 23.6512L41.5106 22.5055L40.5438 21.7915C40.4187 21.6991 40.4831 21.5005 40.6388 21.4994L41.8405 21.49L42.2208 20.35C42.2699 20.2024 42.4788 20.2024 42.528 20.35Z" fill="#FFE15A"/>
<path d="M18.0502 20.35L18.4305 21.49L19.6322 21.4994C19.7879 21.5005 19.8524 21.6991 19.7272 21.7915L18.7604 22.5055L19.1228 23.6512C19.1698 23.7995 19.0009 23.9224 18.8743 23.8318L17.8966 23.1329L16.919 23.8318C16.7924 23.9222 16.6235 23.7996 16.6704 23.6512L17.0328 22.5055L16.066 21.7915C15.9409 21.6991 16.0053 21.5005 16.161 21.4994L17.3627 21.49L17.743 20.35C17.7922 20.2024 18.0011 20.2024 18.0502 20.35Z" fill="#FFE15A"/>
<path d="M19.8876 13.9584L20.2679 15.0984L21.4696 15.1078C21.6253 15.1089 21.6898 15.3075 21.5646 15.3999L20.5978 16.1139L20.9602 17.2596C21.0072 17.4079 20.8383 17.5308 20.7117 17.4402L19.734 16.7413L18.7564 17.4402C18.6298 17.5306 18.4609 17.408 18.5078 17.2596L18.8702 16.1139L17.9034 15.3999C17.7783 15.3075 17.8428 15.1089 17.9984 15.1078L19.2001 15.0984L19.5804 13.9584C19.6296 13.8108 19.8383 13.8108 19.8876 13.9584Z" fill="#FFE15A"/>
<path d="M41.0859 26.1966L41.4662 27.3367L42.6679 27.346C42.8235 27.3472 42.888 27.5457 42.7628 27.6382L41.796 28.3522L42.1585 29.4979C42.2054 29.6461 42.0366 29.769 41.9099 29.6785L40.9323 28.9796L39.9546 29.6785C39.8281 29.7689 39.6591 29.6463 39.706 29.4979L40.0685 28.3522L39.1017 27.6382C38.9765 27.5457 39.041 27.3472 39.1966 27.346L40.3984 27.3367L40.7787 26.1966C40.8279 26.049 41.0367 26.049 41.0859 26.1966Z" fill="#FFE15A"/>
<path d="M36.6064 9.47886L36.9867 10.6189L38.1884 10.6283C38.344 10.6294 38.4085 10.828 38.2834 10.9205L37.3166 11.6344L37.679 12.7801C37.7259 12.9284 37.5571 13.0513 37.4304 12.9607L36.4528 12.2618L35.4751 12.9607C35.3486 13.0511 35.1796 12.9285 35.2265 12.7801L35.589 11.6344L34.6222 10.9205C34.497 10.828 34.5615 10.6294 34.7172 10.6283L35.9189 10.6189L36.2992 9.47886C36.3483 9.33126 36.557 9.33126 36.6064 9.47886Z" fill="#FFE15A"/>
<path d="M24.3671 30.6761L24.7474 31.8162L25.9491 31.8255C26.1048 31.8267 26.1692 32.0252 26.0441 32.1177L25.0773 32.8316L25.4397 33.9774C25.4867 34.1256 25.3178 34.2485 25.1912 34.158L24.2135 33.4591L23.2359 34.158C23.1093 34.2484 22.9403 34.1257 22.9873 33.9774L23.3497 32.8316L22.3829 32.1177C22.2578 32.0252 22.3222 31.8267 22.4779 31.8255L23.6796 31.8162L24.0599 30.6761C24.1091 30.5285 24.3178 30.5285 24.3671 30.6761Z" fill="#FFE15A"/>
<path d="M40.7787 13.9584L40.3984 15.0984L39.1966 15.1078C39.041 15.1089 38.9765 15.3075 39.1017 15.3999L40.0685 16.1139L39.706 17.2596C39.6591 17.4079 39.828 17.5308 39.9546 17.4402L40.9323 16.7413L41.9099 17.4402C42.0365 17.5306 42.2054 17.408 42.1585 17.2596L41.796 16.1139L42.7628 15.3999C42.888 15.3075 42.8235 15.1089 42.6679 15.1078L41.4662 15.0984L41.0859 13.9584C41.0367 13.8108 40.8279 13.8108 40.7787 13.9584Z" fill="#FFE15A"/>
<path d="M19.5804 26.1966L19.2001 27.3367L17.9984 27.346C17.8428 27.3472 17.7783 27.5457 17.9034 27.6382L18.8702 28.3522L18.5078 29.4979C18.4609 29.6461 18.6297 29.769 18.7564 29.6785L19.734 28.9796L20.7117 29.6785C20.8382 29.7689 21.0072 29.6463 20.9602 29.4979L20.5978 28.3522L21.5646 27.6382C21.6898 27.5457 21.6253 27.3472 21.4696 27.346L20.2679 27.3367L19.8876 26.1966C19.8383 26.049 19.6296 26.049 19.5804 26.1966Z" fill="#FFE15A"/>
<path d="M24.0599 9.47886L23.6796 10.6189L22.4779 10.6283C22.3222 10.6294 22.2578 10.828 22.3829 10.9205L23.3497 11.6344L22.9873 12.7801C22.9403 12.9284 23.1092 13.0513 23.2359 12.9607L24.2135 12.2618L25.1912 12.9607C25.3177 13.0511 25.4867 12.9285 25.4397 12.7801L25.0773 11.6344L26.0441 10.9205C26.1692 10.828 26.1048 10.6294 25.9491 10.6283L24.7474 10.6189L24.3671 9.47886C24.3178 9.33126 24.1091 9.33126 24.0599 9.47886Z" fill="#FFE15A"/>
<path d="M36.2987 30.6761L35.9184 31.8162L34.7167 31.8255C34.561 31.8267 34.4966 32.0252 34.6217 32.1177L35.5885 32.8316L35.2261 33.9774C35.1791 34.1256 35.348 34.2485 35.4746 34.158L36.4523 33.4591L37.4299 34.158C37.5565 34.2484 37.7254 34.1257 37.6785 33.9774L37.3161 32.8316L38.2829 32.1177C38.408 32.0252 38.3436 31.8267 38.1879 31.8255L36.9862 31.8162L36.6059 30.6761C36.5566 30.5285 36.3479 30.5285 36.2987 30.6761Z" fill="#FFE15A"/>
</g>
<defs>
<clipPath id="clip0_1_35697">
<rect width="60" height="45" fill="white"/>
</clipPath>
</defs>
</svg>
