<svg width="60" height="45" viewBox="0 0 60 45" fill="none" xmlns="http://www.w3.org/2000/svg">
<g clip-path="url(#clip0_1_37098)">
<path d="M0 0H60V15H0V0Z" fill="#FF9933"/>
<path d="M0 15H60V30H0V15Z" fill="white"/>
<path d="M0 30H60V45H0V30Z" fill="#128807"/>
<path d="M30 28.5C33.3137 28.5 36 25.8137 36 22.5C36 19.1863 33.3137 16.5 30 16.5C26.6863 16.5 24 19.1863 24 22.5C24 25.8137 26.6863 28.5 30 28.5Z" fill="#000088"/>
<path d="M30 27.75C32.8995 27.75 35.25 25.3995 35.25 22.5C35.25 19.6005 32.8995 17.25 30 17.25C27.1005 17.25 24.75 19.6005 24.75 22.5C24.75 25.3995 27.1005 27.75 30 27.75Z" fill="white"/>
<path d="M30 23.55C30.5799 23.55 31.05 23.0799 31.05 22.5C31.05 21.9201 30.5799 21.45 30 21.45C29.4201 21.45 28.95 21.9201 28.95 22.5C28.95 23.0799 29.4201 23.55 30 23.55Z" fill="#000088"/>
<path d="M35.1697 23.4549C35.3176 23.4744 35.4532 23.3703 35.4727 23.2225C35.4921 23.0746 35.3881 22.939 35.2402 22.9195C35.0924 22.9001 34.9568 23.0041 34.9373 23.152C34.9178 23.2998 35.0219 23.4354 35.1697 23.4549Z" fill="#000088"/>
<path d="M30 27.75L30.18 24.6L30 23.1L29.82 24.6L30 27.75Z" fill="#000088"/>
</g>
<defs>
<clipPath id="clip0_1_37098">
<rect width="60" height="45" fill="white"/>
</clipPath>
</defs>
</svg>
