<svg width="60" height="45" viewBox="0 0 60 45" fill="none" xmlns="http://www.w3.org/2000/svg">
<g clip-path="url(#clip0_1_37761)">
<rect width="60" height="45" fill="white"/>
<path fill-rule="evenodd" clip-rule="evenodd" d="M45.6344 39.2035L48.5917 34.8192L50.3454 36.0021L47.3881 40.3865L45.6344 39.2035Z" fill="black"/>
<path fill-rule="evenodd" clip-rule="evenodd" d="M49.0649 34.1182L52.0222 29.7339L53.7759 30.9168L50.8187 35.3011L49.0649 34.1182Z" fill="black"/>
<path fill-rule="evenodd" clip-rule="evenodd" d="M43.1792 37.5472L46.1365 33.1628L47.8902 34.3457L44.9329 38.7301L43.1792 37.5472Z" fill="black"/>
<path fill-rule="evenodd" clip-rule="evenodd" d="M46.6097 32.4617L49.567 28.0774L51.3207 29.2603L48.3635 33.6446L46.6097 32.4617Z" fill="black"/>
<path fill-rule="evenodd" clip-rule="evenodd" d="M40.7241 35.8918L43.6814 31.5074L45.4351 32.6904L42.4779 37.0747L40.7241 35.8918Z" fill="black"/>
<path fill-rule="evenodd" clip-rule="evenodd" d="M44.1547 30.8053L47.1119 26.421L48.8657 27.6039L45.9084 31.9883L44.1547 30.8053Z" fill="black"/>
<path fill-rule="evenodd" clip-rule="evenodd" d="M7.75373 29.7339L14.1414 39.204L12.3877 40.3869L6 30.9168L7.75373 29.7339Z" fill="black"/>
<path fill-rule="evenodd" clip-rule="evenodd" d="M13.6394 33.1628L16.5966 37.5472L14.8429 38.7301L11.8856 34.3457L13.6394 33.1628Z" fill="black"/>
<path fill-rule="evenodd" clip-rule="evenodd" d="M10.2088 28.0774L13.1661 32.4617L11.4123 33.6446L8.45508 29.2603L10.2088 28.0774Z" fill="black"/>
<path fill-rule="evenodd" clip-rule="evenodd" d="M12.664 26.421L19.0517 35.8912L17.298 37.0741L10.9103 27.6039L12.664 26.421Z" fill="black"/>
<path fill-rule="evenodd" clip-rule="evenodd" d="M30.0908 33.1163C23.6699 33.1163 18.4647 27.9069 18.4647 21.4808C18.4647 19.4055 19.0076 17.4572 19.959 15.7701C19.5538 16.581 19.3259 17.496 19.3259 18.4642C19.3259 21.7963 22.0249 24.0665 25.3543 24.0665C26.7924 24.0665 27.9781 23.7779 29.0143 22.5058C29.0871 22.4088 29.1596 22.3133 29.232 22.2195L29.4488 21.9432C29.521 21.8527 29.5931 21.764 29.6653 21.677L29.8817 21.4213C31.2536 19.8357 32.6557 18.8952 34.6121 18.8952C37.8225 18.8952 40.8474 20.638 40.4251 25.1438C40.2759 26.736 39.7826 28.1867 38.7421 29.2379L38.7567 29.2377C36.6278 31.6182 33.5341 33.1163 30.0908 33.1163Z" fill="#0047A0"/>
<path fill-rule="evenodd" clip-rule="evenodd" d="M29.6851 10.2701C36.106 10.2701 41.3112 15.4795 41.3112 21.9056C41.3112 23.9809 40.7683 25.9293 39.8169 27.6163C40.222 26.8054 40.45 25.8904 40.45 24.9222C40.45 21.5901 37.751 19.3199 34.4216 19.3199C32.9834 19.3199 31.7977 19.6085 30.7615 20.8806C29.088 23.113 27.5321 24.4912 25.1638 24.4912C21.9533 24.4912 18.9284 22.7484 19.3507 18.2426C19.5 16.6504 19.9933 15.1998 21.0337 14.1486L21.0192 14.1487C23.148 11.7683 26.2417 10.2701 29.6851 10.2701Z" fill="#CD2E3A"/>
<path fill-rule="evenodd" clip-rule="evenodd" d="M45.9084 11.3981L48.8657 15.7824L47.1119 16.9653L44.1547 12.581L45.9084 11.3981Z" fill="black"/>
<path fill-rule="evenodd" clip-rule="evenodd" d="M42.4779 6.31165L45.4351 10.696L43.6814 11.8789L40.7241 7.49455L42.4779 6.31165Z" fill="black"/>
<path fill-rule="evenodd" clip-rule="evenodd" d="M44.9329 4.65515L51.3206 14.1253L49.5669 15.3082L43.1792 5.83806L44.9329 4.65515Z" fill="black"/>
<path fill-rule="evenodd" clip-rule="evenodd" d="M50.8187 8.08521L53.7759 12.4695L52.0222 13.6524L49.0649 9.26811L50.8187 8.08521Z" fill="black"/>
<path fill-rule="evenodd" clip-rule="evenodd" d="M47.3881 2.99988L50.3454 7.38421L48.5917 8.56711L45.6344 4.18278L47.3881 2.99988Z" fill="black"/>
<path fill-rule="evenodd" clip-rule="evenodd" d="M10.9103 15.7818L17.298 6.31165L19.0517 7.49455L12.664 16.9647L10.9103 15.7818Z" fill="black"/>
<path fill-rule="evenodd" clip-rule="evenodd" d="M8.45508 14.1253L14.8428 4.65515L16.5965 5.83806L10.2088 15.3082L8.45508 14.1253Z" fill="black"/>
<path fill-rule="evenodd" clip-rule="evenodd" d="M6 12.4701L12.3877 3L14.1414 4.18291L7.75373 13.6531L6 12.4701Z" fill="black"/>
</g>
<defs>
<clipPath id="clip0_1_37761">
<rect width="60" height="45" fill="white"/>
</clipPath>
</defs>
</svg>
