<svg width="60" height="45" viewBox="0 0 60 45" fill="none" xmlns="http://www.w3.org/2000/svg">
<g clip-path="url(#clip0_1_39738)">
<path fill-rule="evenodd" clip-rule="evenodd" d="M-3.75586 0H63.7441V45H-3.75586V0Z" fill="#0C590B"/>
<path fill-rule="evenodd" clip-rule="evenodd" d="M-3.75586 0H13.1631V45H-3.75586V0Z" fill="white"/>
<path fill-rule="evenodd" clip-rule="evenodd" d="M40.0752 19.8105L37.333 19.2305L35.8916 21.6299L35.5928 18.8525L32.8682 18.2197L35.417 17.0771L35.1797 14.291L37.0605 16.3652L39.6357 15.2754L38.2383 17.7012L40.084 19.8105H40.0752Z" fill="white"/>
<path fill-rule="evenodd" clip-rule="evenodd" d="M41.1035 26.8945C40.5186 28.1709 39.6871 29.319 38.6569 30.2729C37.6268 31.2268 36.4182 31.9676 35.1007 32.4528C33.7832 32.938 32.3828 33.1579 30.98 33.1C29.5772 33.0421 28.1997 32.7074 26.9267 32.1152C24.344 30.9194 22.342 28.7466 21.3613 26.0748C20.3806 23.4029 20.5014 20.4509 21.6972 17.8682C22.2911 16.5405 23.1562 15.3518 24.237 14.3785C25.3177 13.4052 26.5902 12.6689 27.9726 12.2168C27.6107 12.5181 27.2646 12.8379 26.9355 13.1748C25.2208 15.0738 24.3105 17.5646 24.3966 20.1218C24.4827 22.679 25.5585 25.1028 27.3972 26.8821C29.2358 28.6615 31.6936 29.6573 34.2522 29.6596C36.8109 29.662 39.2704 28.6706 41.1123 26.8945H41.1035Z" fill="white"/>
</g>
<defs>
<clipPath id="clip0_1_39738">
<rect width="60" height="45" fill="white"/>
</clipPath>
</defs>
</svg>
