<svg width="60" height="45" viewBox="0 0 60 45" fill="none" xmlns="http://www.w3.org/2000/svg">
<g clip-path="url(#clip0_1_39733)">
<path d="M0 0H60V22.5H0V0Z" fill="#0038A8"/>
<path d="M0 22.5H60V45H0V22.5Z" fill="#CE1126"/>
<path d="M38.9719 22.5L0 45V0" fill="white"/>
<path d="M2.50313 3.97498L3.84375 5.15623L5.4 4.29373L4.70625 5.93435L6.01875 7.1531L4.2375 7.0031L3.47812 8.6156L3.075 6.88123L1.3125 6.65623L2.84062 5.71873L2.50313 3.97498ZM32.8594 20.1281L32.8969 21.9093L34.5844 22.5L32.8969 23.0812L32.8594 24.8625L31.7812 23.4469L30.075 23.9625L31.0875 22.5L30.075 21.0375L31.7812 21.5531L32.8594 20.1281ZM3.4875 36.3844L4.2375 37.9968L6.01875 37.8469L4.71562 39.0656L5.40938 40.7062L3.85312 39.8531L2.50313 41.0156L2.84062 39.2625L1.3125 38.3437L3.08438 38.1187L3.4875 36.3844ZM14.1937 13.0406L13.6125 13.6219L13.9031 18.0281L13.6219 18.0562L13.0875 14.0344L12.6094 14.5031L13.3219 18.1031C12.7457 18.2165 12.1977 18.4427 11.7094 18.7687L9.675 15.7312H9L11.475 18.9469C11.398 19.0069 11.3229 19.0694 11.25 19.1344L8.33438 15.8062H7.50937V16.6312L10.8281 19.5375L10.6406 19.7719L7.425 17.3062V17.9718L10.4719 20.0062C10.1531 20.4937 9.91875 21.0375 9.80625 21.6187L6.21563 20.9062L5.7375 21.375L9.75937 21.9093C9.74062 22.0031 9.73125 22.1062 9.73125 22.2L5.325 21.9187L4.74375 22.5L5.325 23.0812L9.73125 22.7906L9.75937 23.0812L5.7375 23.6156L6.20625 24.0844L9.80625 23.3718C9.91964 23.948 10.1459 24.496 10.4719 24.9844L7.425 27.0187V27.6937L10.6406 25.2281C10.7007 25.3051 10.7632 25.3802 10.8281 25.4531L7.50937 28.3594V29.1843H8.34375L11.25 25.8656L11.4844 26.0531L9 29.2687H9.675L11.7094 26.2219C12.1875 26.5406 12.7406 26.775 13.3219 26.8875L12.6094 30.4875L13.0781 30.9562L13.6125 26.9343C13.7062 26.9531 13.8 26.9625 13.9031 26.9625L13.6219 31.3687L14.1937 31.95L14.7844 31.3687L14.4938 26.9625L14.775 26.9343L15.3094 30.9656L15.7875 30.4875L15.075 26.8875C15.6511 26.7741 16.1991 26.5479 16.6875 26.2219L18.7219 29.2687H19.3969L16.9219 26.0531C16.9989 25.9931 17.0739 25.9305 17.1469 25.8656L20.0625 29.1843H20.8875V28.3594L17.5687 25.4531L17.7562 25.2281L20.9719 27.6937V27.0187L17.925 24.9844C18.2437 24.5062 18.4781 23.9531 18.5906 23.3718L22.1813 24.0844L22.6594 23.6156L18.6375 23.0812C18.6562 22.9875 18.6656 22.8937 18.6656 22.7906L23.0719 23.0719L23.6531 22.5L23.0719 21.9187L18.6656 22.2L18.6375 21.9187L22.6594 21.3844L22.1906 20.9156L18.5906 21.6187C18.4772 21.0426 18.251 20.4946 17.925 20.0062L20.9719 17.9718V17.3062L17.7562 19.7719C17.6962 19.6948 17.6337 19.6198 17.5687 19.5469L20.8875 16.6406V15.8062H20.0625L17.1562 19.1344C17.0802 19.0693 17.0021 19.0067 16.9219 18.9469L19.3969 15.7312H18.7219L16.6875 18.7687C16.2094 18.45 15.6562 18.2156 15.075 18.1031L15.7875 14.5125L15.3187 14.0437L14.7844 18.0562L14.4938 18.0281L14.775 13.6219L14.1937 13.0406Z" fill="#FCD116"/>
</g>
<defs>
<clipPath id="clip0_1_39733">
<rect width="60" height="45" fill="white"/>
</clipPath>
</defs>
</svg>
