<svg width="60" height="45" viewBox="0 0 60 45" fill="none" xmlns="http://www.w3.org/2000/svg">
<g clip-path="url(#clip0_1_40588)">
<path fill-rule="evenodd" clip-rule="evenodd" d="M-1.875 0H65.625V45H-1.875V0Z" fill="white"/>
<path fill-rule="evenodd" clip-rule="evenodd" d="M-1.875 0H65.625V22.5H-1.875V0Z" fill="#DF0000"/>
<path fill-rule="evenodd" clip-rule="evenodd" d="M13.6875 3.76876C11.9117 4.15039 10.3213 5.13136 9.18321 6.54697C8.04515 7.96258 7.42878 9.72663 7.43758 11.543C7.44637 13.3593 8.0798 15.1173 9.23152 16.5218C10.3832 17.9263 11.9831 18.8919 13.7625 19.2563C12.7431 19.5512 11.6756 19.6421 10.621 19.5235C9.56646 19.405 8.54567 19.0795 7.6172 18.5656C6.68873 18.0517 5.87084 17.3596 5.21044 16.529C4.55004 15.6983 4.06011 14.7454 3.76877 13.725C3.19011 11.6738 3.44714 9.47701 4.48364 7.61481C5.52015 5.75261 7.25181 4.37656 9.30002 3.78751C10.8 3.35626 12.1875 3.34689 13.6969 3.76876H13.6875Z" fill="white"/>
<path fill-rule="evenodd" clip-rule="evenodd" d="M12.4688 10.3125L12.9281 11.7188L11.7094 10.8563L10.5094 11.7375L10.95 10.3125L9.75 9.44067L11.2406 9.42192L11.7094 8.01567L12.1781 9.42192H13.6594L12.4688 10.3125ZM14.1094 15.1875L14.5781 16.6032L13.3594 15.7407L12.15 16.6125L12.6 15.1969L11.4 14.3157L12.8906 14.3063L13.35 12.8907L13.8187 14.2969H15.3187L14.1094 15.1875ZM19.5938 15.15L20.0531 16.575L18.8344 15.7032L17.6344 16.575L18.075 15.1594L16.875 14.2875L18.3656 14.2688L18.8344 12.8625L19.3031 14.2688H20.7844L19.5938 15.15ZM21.225 10.3125L21.6844 11.7282L20.4656 10.8657L19.2656 11.7375L19.7156 10.3219L18.5062 9.44067L20.0062 9.4313L20.4562 8.01567L20.925 9.42192H22.425L21.225 10.3125ZM16.8844 7.09692L17.3531 8.52192L16.1344 7.65005L14.925 8.5313L15.375 7.1063L14.175 6.22505L15.6562 6.21567L16.125 4.80005L16.5938 6.2063H18.0938L16.8844 7.09692Z" fill="white"/>
</g>
<defs>
<clipPath id="clip0_1_40588">
<rect width="60" height="45" fill="white"/>
</clipPath>
</defs>
</svg>
