<svg width="60" height="45" viewBox="0 0 60 45" fill="none" xmlns="http://www.w3.org/2000/svg">
<g clip-path="url(#clip0_1_42014)">
<path d="M0 0H67.5V45H0V0Z" fill="#FF0000"/>
<path d="M0 0H33.75V22.5H0V0Z" fill="#000095"/>
<path d="M14.4375 11.8969L14.2031 12.7969L15.0844 13.0406L14.9156 12.375L14.4375 11.8969ZM18.8344 12.375L18.6656 13.0406L19.5469 12.7969L19.3125 11.8969L18.8344 12.375ZM14.9156 10.125L14.4375 10.6031L14.6156 11.25L14.9156 10.125Z" fill="white"/>
<path d="M14.6156 11.25L14.4375 11.8969L14.9156 12.375L14.6156 11.25Z" fill="white"/>
<path d="M14.4375 10.6031L13.7906 11.25L14.4375 11.8969L14.6156 11.25L14.4375 10.6031ZM15.75 13.2094L16.2281 13.6875L16.875 13.5094L15.75 13.2094ZM17.5219 13.6875L18.4219 13.9219L18.6656 13.0407L18 13.2094L17.5219 13.6875Z" fill="white"/>
<path d="M18 13.2094L18.6656 13.0406L18.8344 12.375L18 13.2094ZM15.0844 13.0406L15.3281 13.9219L16.2281 13.6875L15.75 13.2094L15.0844 13.0406ZM16.875 13.5094L17.5219 13.6875L18 13.2094L16.875 13.5094Z" fill="white"/>
<path d="M16.2281 13.6875L16.875 14.3344L17.5219 13.6875L16.875 13.5094L16.2281 13.6875ZM15.0844 9.45935L14.2031 9.7031L14.4375 10.6031L14.9156 10.125L15.0844 9.45935ZM14.9156 12.375L15.0844 13.0406L15.75 13.2094L14.9156 12.375ZM19.1344 11.25L19.3125 10.6031L18.8344 10.125L19.1344 11.25Z" fill="white"/>
<path d="M15.75 9.29065L15.0844 9.4594L14.9156 10.125L15.75 9.29065ZM18.8344 10.125L18.6656 9.4594L18 9.29065L18.8344 10.125ZM19.3125 11.8969L19.9594 11.25L19.3125 10.6031L19.1344 11.25L19.3125 11.8969Z" fill="white"/>
<path d="M18.8344 10.125L18 9.2906L16.875 8.9906L15.75 9.2906L14.9156 10.125L14.6156 11.25L14.9156 12.375L15.75 13.2093L16.875 13.5094L18 13.2093L18.8344 12.375L19.1344 11.25L18.8344 10.125Z" fill="white"/>
<path d="M18.8344 12.375L19.3125 11.8969L19.1344 11.25L18.8344 12.375ZM19.3125 10.6031L19.5469 9.70312L18.6656 9.45938L18.8344 10.125L19.3125 10.6031ZM18.6656 9.45938L18.4219 8.57812L17.5219 8.8125L18 9.29062L18.6656 9.45938ZM16.2281 8.8125L15.3281 8.57812L15.0844 9.45938L15.75 9.29062L16.2281 8.8125ZM16.875 8.99063L16.2281 8.8125L15.75 9.29062L16.875 8.99063Z" fill="white"/>
<path d="M17.5219 8.81252L16.875 8.16565L16.2281 8.81252L16.875 8.99065L17.5219 8.81252Z" fill="white"/>
<path d="M18 9.29062L17.5219 8.8125L16.875 8.99063L18 9.29062ZM16.2281 13.6875L15.3281 13.9219L15.75 15.4781L16.875 14.3344L16.2281 13.6875ZM15.75 15.4781L16.875 19.6875L18 15.4781L16.875 14.3344L15.75 15.4781ZM15.0844 13.0406L14.2031 12.7969L13.7906 14.3344L15.3281 13.9219L15.0844 13.0406Z" fill="white"/>
<path d="M13.7906 14.3344L12.6656 18.5625L15.75 15.4781L15.3281 13.9219L13.7906 14.3344ZM12.6656 12.375L9.5625 15.4781L13.7906 14.3344L14.2031 12.7969L12.6656 12.375Z" fill="white"/>
<path d="M14.4375 11.8969L13.7906 11.25L12.6656 12.375L14.2031 12.7969L14.4375 11.8969ZM14.4375 10.6031L14.2031 9.70312L12.6656 10.125L13.7906 11.25L14.4375 10.6031Z" fill="white"/>
<path d="M12.6656 10.125L8.4375 11.25L12.6656 12.375L13.7906 11.25L12.6656 10.125ZM21.1031 12.375L19.5469 12.7969L19.9594 14.3344L24.1875 15.4781L21.1031 12.375Z" fill="white"/>
<path d="M18.6656 13.0406L18.4219 13.9219L19.9594 14.3344L19.5469 12.7969L18.6656 13.0406ZM17.5219 13.6875L16.875 14.3344L18 15.4781L18.4219 13.9219L17.5219 13.6875ZM19.3125 11.8969L19.5469 12.7969L21.1031 12.375L19.9594 11.25L19.3125 11.8969Z" fill="white"/>
<path d="M18 15.4782L21.1031 18.5625L19.9594 14.3344L18.4219 13.9219L18 15.4782ZM18.6656 9.4594L19.5469 9.70315L19.9594 8.16565L18.4219 8.57815L18.6656 9.4594Z" fill="white"/>
<path d="M21.1031 10.125L24.1875 7.04062L19.9594 8.16562L19.5469 9.70312L21.1031 10.125ZM19.9594 8.16562L21.1031 3.9375L18 7.04062L18.4219 8.57812L19.9594 8.16562ZM21.1031 12.375L25.3125 11.25L21.1031 10.125L19.9594 11.25L21.1031 12.375Z" fill="white"/>
<path d="M19.3125 10.6031L19.9594 11.25L21.1031 10.125L19.5469 9.70312L19.3125 10.6031ZM15.75 7.04062L12.6656 3.9375L13.7906 8.16562L15.3281 8.57812L15.75 7.04062Z" fill="white"/>
<path d="M15.0844 9.4594L15.3281 8.57815L13.7906 8.16565L14.2031 9.70315L15.0844 9.4594Z" fill="white"/>
<path d="M13.7906 8.16565L9.5625 7.04065L12.6656 10.125L14.2031 9.70315L13.7906 8.16565ZM17.5219 8.81252L18.4219 8.57815L18 7.04065L16.875 8.16565L17.5219 8.81252Z" fill="white"/>
<path d="M18 7.04062L16.875 2.8125L15.75 7.04062L16.875 8.16562L18 7.04062Z" fill="white"/>
<path d="M16.2281 8.81252L16.875 8.16565L15.75 7.04065L15.3281 8.57815L16.2281 8.81252Z" fill="white"/>
<path d="M16.875 16.0406C19.5208 16.0406 21.6656 13.8958 21.6656 11.25C21.6656 8.60419 19.5208 6.45935 16.875 6.45935C14.2292 6.45935 12.0844 8.60419 12.0844 11.25C12.0844 13.8958 14.2292 16.0406 16.875 16.0406Z" fill="#000095"/>
<path d="M16.875 15.4781C19.2101 15.4781 21.1031 13.5851 21.1031 11.25C21.1031 8.91485 19.2101 7.02185 16.875 7.02185C14.5399 7.02185 12.6469 8.91485 12.6469 11.25C12.6469 13.5851 14.5399 15.4781 16.875 15.4781Z" fill="white"/>
</g>
<defs>
<clipPath id="clip0_1_42014">
<rect width="60" height="45" fill="white"/>
</clipPath>
</defs>
</svg>
