<svg width="24" height="24" viewBox="0 0 24 24" fill="none" xmlns="http://www.w3.org/2000/svg">
<circle cx="12" cy="12" r="12" fill="#F2A900"/>
<path d="M16.6174 9.41654C16.4598 7.77847 15.0459 7.22951 13.2591 7.07295V4.7998H11.8764V7.01228C11.5133 7.01228 11.1415 7.01913 10.7726 7.02696V4.7998H9.38991L9.38893 7.07099C9.0895 7.07686 8.79496 7.08273 8.50825 7.08273V7.07588L6.60108 7.0749V8.5525C6.60108 8.5525 7.62267 8.53292 7.60506 8.55152C8.16576 8.55152 8.34777 8.87639 8.40061 9.15723V11.7464C8.43975 11.7464 8.48966 11.7484 8.54641 11.7562H8.40061L8.39963 15.3837C8.37517 15.5598 8.27144 15.8406 7.88003 15.8416C7.89764 15.8573 6.87507 15.8416 6.87507 15.8416L6.6001 17.4934H8.40061C8.73527 17.4934 9.06504 17.4993 9.38795 17.5012L9.38893 19.7998H10.7706V17.5257C11.1493 17.5335 11.5163 17.5364 11.8754 17.5364L11.8744 19.7998H13.2571V17.5061C15.5821 17.373 17.2114 16.7869 17.4129 14.6028C17.5764 12.8444 16.7495 12.0586 15.4294 11.7415C16.2328 11.3345 16.7348 10.6153 16.6174 9.41654ZM14.6818 14.3308C14.6818 16.0481 11.7413 15.8534 10.8029 15.8534V12.8072C11.7413 12.8091 14.6818 12.54 14.6818 14.3308ZM14.038 10.034C14.038 11.5967 11.5838 11.4137 10.8029 11.4147V8.65328C11.5848 8.65328 14.0389 8.40474 14.038 10.034Z" fill="white"/>
<path d="M16.6174 9.41654C16.4598 7.77847 15.0459 7.22951 13.2591 7.07295V4.7998H11.8764V7.01228C11.5133 7.01228 11.1415 7.01913 10.7726 7.02696V4.7998H9.38991L9.38893 7.07099C9.0895 7.07686 8.79496 7.08273 8.50825 7.08273V7.07588L6.60108 7.0749V8.5525C6.60108 8.5525 7.62267 8.53292 7.60506 8.55152C8.16576 8.55152 8.34777 8.87639 8.40061 9.15723V11.7464C8.43975 11.7464 8.48966 11.7484 8.54641 11.7562H8.40061L8.39963 15.3837C8.37517 15.5598 8.27144 15.8406 7.88003 15.8416C7.89764 15.8573 6.87507 15.8416 6.87507 15.8416L6.6001 17.4934H8.40061C8.73527 17.4934 9.06504 17.4993 9.38795 17.5012L9.38893 19.7998H10.7706V17.5257C11.1493 17.5335 11.5163 17.5364 11.8754 17.5364L11.8744 19.7998H13.2571V17.5061C15.5821 17.373 17.2114 16.7869 17.4129 14.6028C17.5764 12.8444 16.7495 12.0586 15.4294 11.7415C16.2328 11.3345 16.7348 10.6153 16.6174 9.41654ZM14.6818 14.3308C14.6818 16.0481 11.7413 15.8534 10.8029 15.8534V12.8072C11.7413 12.8091 14.6818 12.54 14.6818 14.3308ZM14.038 10.034C14.038 11.5967 11.5838 11.4137 10.8029 11.4147V8.65328C11.5848 8.65328 14.0389 8.40474 14.038 10.034Z" fill="white"/>
</svg>
