<svg width="38.2" height="24" viewBox="0 0 64 40" fill="none" xmlns="http://www.w3.org/2000/svg">
<circle cx="47.6016" cy="20" r="14.9" stroke="white" stroke-width="2.2"/>
<circle cx="47.6016" cy="20" r="8" fill="white"/>
<circle cx="20" cy="20" r="16" fill="#F2A900"/>
<path d="M25.2026 17.3313C25.0256 15.4905 23.4365 14.8735 21.4285 14.6976V12.1431H19.8747V14.6294C19.4667 14.6294 19.0489 14.6371 18.6343 14.6459V12.1431H17.0805L17.0794 14.6954C16.7429 14.702 16.4119 14.7086 16.0897 14.7086V14.7009L13.9464 14.6998V16.3603C13.9464 16.3603 15.0945 16.3383 15.0747 16.3592C15.7048 16.3592 15.9093 16.7243 15.9687 17.0399V19.9496C16.0127 19.9496 16.0688 19.9518 16.1326 19.9606H15.9687L15.9676 24.0371C15.9401 24.235 15.8235 24.5506 15.3837 24.5517C15.4035 24.5693 14.2543 24.5517 14.2543 24.5517L13.9453 26.4079H15.9687C16.3448 26.4079 16.7154 26.4145 17.0783 26.4167L17.0794 28.9999H18.6321V26.4442C19.0577 26.453 19.47 26.4563 19.8736 26.4563L19.8725 28.9999H21.4263V26.4222C24.0392 26.2727 25.8701 25.614 26.0966 23.1595C26.2803 21.1834 25.3511 20.3004 23.8676 19.9441C24.7704 19.4866 25.3346 18.6784 25.2026 17.3313ZM23.0275 22.8538C23.0275 24.7837 19.723 24.5649 18.6684 24.5649V21.1416C19.723 21.1438 23.0275 20.8414 23.0275 22.8538ZM22.3039 18.0252C22.3039 19.7814 19.5459 19.5757 18.6684 19.5768V16.4736C19.547 16.4736 22.305 16.1942 22.3039 18.0252Z" fill="white"/>
<path d="M25.2026 17.3313C25.0256 15.4905 23.4365 14.8735 21.4285 14.6976V12.1431H19.8747V14.6294C19.4667 14.6294 19.0489 14.6371 18.6343 14.6459V12.1431H17.0805L17.0794 14.6954C16.7429 14.702 16.4119 14.7086 16.0897 14.7086V14.7009L13.9464 14.6998V16.3603C13.9464 16.3603 15.0945 16.3383 15.0747 16.3592C15.7048 16.3592 15.9093 16.7243 15.9687 17.0399V19.9496C16.0127 19.9496 16.0688 19.9518 16.1326 19.9606H15.9687L15.9676 24.0371C15.9401 24.235 15.8235 24.5506 15.3837 24.5517C15.4035 24.5693 14.2543 24.5517 14.2543 24.5517L13.9453 26.4079H15.9687C16.3448 26.4079 16.7154 26.4145 17.0783 26.4167L17.0794 28.9999H18.6321V26.4442C19.0577 26.453 19.47 26.4563 19.8736 26.4563L19.8725 28.9999H21.4263V26.4222C24.0392 26.2727 25.8701 25.614 26.0966 23.1595C26.2803 21.1834 25.3511 20.3004 23.8676 19.9441C24.7704 19.4866 25.3346 18.6784 25.2026 17.3313ZM23.0275 22.8538C23.0275 24.7837 19.723 24.5649 18.6684 24.5649V21.1416C19.723 21.1438 23.0275 20.8414 23.0275 22.8538ZM22.3039 18.0252C22.3039 19.7814 19.5459 19.5757 18.6684 19.5768V16.4736C19.547 16.4736 22.305 16.1942 22.3039 18.0252Z" fill="white"/>
<rect x="2.3" y="2.3" width="35.4" height="35.4" rx="17.7" stroke="#12151E" stroke-width="3.4"/>
</svg>