<svg width="277" height="240" viewBox="0 0 277 240" fill="none" xmlns="http://www.w3.org/2000/svg">
<ellipse cx="91.084" cy="183.917" rx="1.23438" ry="1.23437" transform="rotate(-180 91.084 183.917)" fill="#303354"/>
<ellipse cx="91.084" cy="153.967" rx="1.23438" ry="1.23437" transform="rotate(-180 91.084 153.967)" fill="#303354"/>
<ellipse cx="76.1113" cy="183.917" rx="1.23438" ry="1.23437" transform="rotate(-180 76.1113 183.917)" fill="#303354"/>
<ellipse cx="76.1113" cy="153.967" rx="1.23438" ry="1.23437" transform="rotate(-180 76.1113 153.967)" fill="#303354"/>
<ellipse cx="91.084" cy="183.917" rx="1.23438" ry="1.23437" transform="rotate(-180 91.084 183.917)" fill="#303354"/>
<ellipse cx="91.084" cy="153.967" rx="1.23438" ry="1.23437" transform="rotate(-180 91.084 153.967)" fill="#303354"/>
<ellipse cx="61.1328" cy="183.917" rx="1.23438" ry="1.23437" transform="rotate(-180 61.1328 183.917)" fill="#303354"/>
<ellipse cx="61.1328" cy="153.967" rx="1.23438" ry="1.23437" transform="rotate(-180 61.1328 153.967)" fill="#303354"/>
<ellipse cx="46.1602" cy="183.917" rx="1.23438" ry="1.23437" transform="rotate(-180 46.1602 183.917)" fill="#303354"/>
<ellipse cx="46.1602" cy="153.967" rx="1.23438" ry="1.23437" transform="rotate(-180 46.1602 153.967)" fill="#303354"/>
<ellipse cx="31.1875" cy="183.917" rx="1.23438" ry="1.23437" transform="rotate(-180 31.1875 183.917)" fill="#303354"/>
<ellipse cx="31.1875" cy="153.967" rx="1.23438" ry="1.23437" transform="rotate(-180 31.1875 153.967)" fill="#303354"/>
<ellipse cx="46.1602" cy="183.917" rx="1.23438" ry="1.23437" transform="rotate(-180 46.1602 183.917)" fill="#303354"/>
<ellipse cx="46.1602" cy="153.967" rx="1.23438" ry="1.23437" transform="rotate(-180 46.1602 153.967)" fill="#303354"/>
<ellipse cx="16.2109" cy="183.917" rx="1.23438" ry="1.23437" transform="rotate(-180 16.2109 183.917)" fill="#303354"/>
<ellipse cx="16.2109" cy="153.967" rx="1.23438" ry="1.23437" transform="rotate(-180 16.2109 153.967)" fill="#303354"/>
<ellipse cx="31.1875" cy="183.917" rx="1.23438" ry="1.23437" transform="rotate(-180 31.1875 183.917)" fill="#303354"/>
<ellipse cx="31.1875" cy="153.967" rx="1.23438" ry="1.23437" transform="rotate(-180 31.1875 153.967)" fill="#303354"/>
<ellipse cx="1.23437" cy="183.917" rx="1.23438" ry="1.23437" transform="rotate(-180 1.23437 183.917)" fill="#303354"/>
<ellipse cx="106.061" cy="168.941" rx="1.23438" ry="1.23437" transform="rotate(-180 106.061 168.941)" fill="#303354"/>
<ellipse cx="91.084" cy="168.941" rx="1.23438" ry="1.23437" transform="rotate(-180 91.084 168.941)" fill="#303354"/>
<ellipse cx="106.061" cy="168.941" rx="1.23438" ry="1.23437" transform="rotate(-180 106.061 168.941)" fill="#303354"/>
<ellipse cx="76.1113" cy="168.941" rx="1.23438" ry="1.23437" transform="rotate(-180 76.1113 168.941)" fill="#303354"/>
<ellipse cx="76.1113" cy="138.991" rx="1.23438" ry="1.23437" transform="rotate(-180 76.1113 138.991)" fill="#303354"/>
<ellipse cx="91.084" cy="168.941" rx="1.23438" ry="1.23437" transform="rotate(-180 91.084 168.941)" fill="#303354"/>
<ellipse cx="61.1328" cy="168.941" rx="1.23438" ry="1.23437" transform="rotate(-180 61.1328 168.941)" fill="#303354"/>
<ellipse cx="61.1328" cy="138.991" rx="1.23438" ry="1.23437" transform="rotate(-180 61.1328 138.991)" fill="#303354"/>
<ellipse cx="46.1602" cy="168.941" rx="1.23438" ry="1.23437" transform="rotate(-180 46.1602 168.941)" fill="#303354"/>
<ellipse cx="46.1602" cy="138.991" rx="1.23438" ry="1.23437" transform="rotate(-180 46.1602 138.991)" fill="#303354"/>
<ellipse cx="31.1875" cy="168.941" rx="1.23438" ry="1.23437" transform="rotate(-180 31.1875 168.941)" fill="#303354"/>
<ellipse cx="31.1875" cy="138.991" rx="1.23438" ry="1.23437" transform="rotate(-180 31.1875 138.991)" fill="#303354"/>
<ellipse cx="46.1602" cy="168.941" rx="1.23438" ry="1.23437" transform="rotate(-180 46.1602 168.941)" fill="#303354"/>
<ellipse cx="46.1602" cy="138.991" rx="1.23438" ry="1.23437" transform="rotate(-180 46.1602 138.991)" fill="#303354"/>
<ellipse cx="16.2109" cy="168.941" rx="1.23438" ry="1.23437" transform="rotate(-180 16.2109 168.941)" fill="#303354"/>
<ellipse cx="31.1875" cy="168.941" rx="1.23438" ry="1.23437" transform="rotate(-180 31.1875 168.941)" fill="#303354"/>
<ellipse cx="31.1875" cy="138.991" rx="1.23438" ry="1.23437" transform="rotate(-180 31.1875 138.991)" fill="#303354"/>
<ellipse cx="1.23437" cy="168.941" rx="1.23438" ry="1.23437" transform="rotate(-180 1.23437 168.941)" fill="#303354"/>
<ellipse cx="181.43" cy="15.5542" rx="1.23438" ry="1.23437" fill="#303354"/>
<ellipse cx="181.43" cy="46.7983" rx="1.23438" ry="1.23437" fill="#303354"/>
<ellipse cx="197.049" cy="15.5542" rx="1.23438" ry="1.23437" fill="#303354"/>
<ellipse cx="197.049" cy="46.7983" rx="1.23438" ry="1.23437" fill="#303354"/>
<ellipse cx="181.43" cy="15.5542" rx="1.23438" ry="1.23437" fill="#303354"/>
<ellipse cx="181.43" cy="46.7983" rx="1.23438" ry="1.23437" fill="#303354"/>
<ellipse cx="212.672" cy="15.5542" rx="1.23438" ry="1.23437" fill="#303354"/>
<ellipse cx="212.672" cy="46.7983" rx="1.23438" ry="1.23437" fill="#303354"/>
<ellipse cx="228.295" cy="15.5542" rx="1.23438" ry="1.23437" fill="#303354"/>
<ellipse cx="228.295" cy="46.7983" rx="1.23438" ry="1.23437" fill="#303354"/>
<ellipse cx="243.918" cy="15.5542" rx="1.23438" ry="1.23437" fill="#303354"/>
<ellipse cx="243.918" cy="46.7983" rx="1.23438" ry="1.23437" fill="#303354"/>
<ellipse cx="228.295" cy="15.5542" rx="1.23438" ry="1.23437" fill="#303354"/>
<ellipse cx="228.295" cy="46.7983" rx="1.23438" ry="1.23437" fill="#303354"/>
<ellipse cx="259.541" cy="15.5542" rx="1.23438" ry="1.23437" fill="#303354"/>
<ellipse cx="259.541" cy="46.7983" rx="1.23438" ry="1.23437" fill="#303354"/>
<ellipse cx="243.918" cy="15.5542" rx="1.23438" ry="1.23437" fill="#303354"/>
<ellipse cx="243.918" cy="46.7983" rx="1.23438" ry="1.23437" fill="#303354"/>
<ellipse cx="275.164" cy="46.7983" rx="1.23438" ry="1.23437" fill="#303354"/>
<ellipse cx="165.807" cy="31.1753" rx="1.23438" ry="1.23437" fill="#303354"/>
<ellipse cx="181.43" cy="31.1753" rx="1.23438" ry="1.23437" fill="#303354"/>
<ellipse cx="165.807" cy="31.1753" rx="1.23438" ry="1.23437" fill="#303354"/>
<ellipse cx="197.049" cy="31.1753" rx="1.23438" ry="1.23437" fill="#303354"/>
<ellipse cx="197.049" cy="62.4214" rx="1.23438" ry="1.23437" fill="#303354"/>
<ellipse cx="181.43" cy="31.1753" rx="1.23438" ry="1.23437" fill="#303354"/>
<ellipse cx="212.672" cy="31.1753" rx="1.23438" ry="1.23437" fill="#303354"/>
<ellipse cx="212.672" cy="62.4214" rx="1.23438" ry="1.23437" fill="#303354"/>
<ellipse cx="228.295" cy="31.1753" rx="1.23438" ry="1.23437" fill="#303354"/>
<ellipse cx="228.295" cy="62.4214" rx="1.23438" ry="1.23437" fill="#303354"/>
<ellipse cx="243.918" cy="31.1753" rx="1.23438" ry="1.23437" fill="#303354"/>
<ellipse cx="243.918" cy="62.4214" rx="1.23438" ry="1.23437" fill="#303354"/>
<ellipse cx="228.295" cy="31.1753" rx="1.23438" ry="1.23437" fill="#303354"/>
<ellipse cx="228.295" cy="62.4214" rx="1.23438" ry="1.23437" fill="#303354"/>
<ellipse cx="259.541" cy="31.1753" rx="1.23438" ry="1.23437" fill="#303354"/>
<ellipse cx="259.541" cy="62.4214" rx="1.23438" ry="1.23437" fill="#303354"/>
<ellipse cx="243.918" cy="31.1753" rx="1.23438" ry="1.23437" fill="#303354"/>
<ellipse cx="243.918" cy="62.4214" rx="1.23438" ry="1.23437" fill="#303354"/>
<ellipse cx="275.164" cy="31.1753" rx="1.23438" ry="1.23437" fill="#303354"/>
<ellipse cx="275.164" cy="62.4214" rx="1.23438" ry="1.23437" fill="#303354"/>
<path d="M206.467 9.55075L201.989 10.4009C199.996 10.7792 198.437 12.3379 198.059 14.3308L197.209 18.8085L196.359 14.3308C195.98 12.3379 194.422 10.7792 192.429 10.4009L187.951 9.55075L192.429 8.70061C194.422 8.32226 195.98 6.76358 196.359 4.77074L197.209 0.292968L198.059 4.77074C198.437 6.76358 199.996 8.32226 201.989 8.70062L206.467 9.55075Z" fill="white"/>
<path d="M31.243 142.843C28.4434 142.843 26.1738 140.573 26.1738 137.774L26.1738 34.3514C26.1738 31.5518 28.4434 29.2822 31.2431 29.2822L177.015 29.2822C179.815 29.2822 182.085 31.5518 182.085 34.3514L182.085 137.774C182.085 140.573 179.815 142.843 177.015 142.843L31.243 142.843Z" fill="url(#paint0_linear_58_2388)"/>
<circle cx="33.392" cy="36.4987" r="1.88222" fill="white"/>
<circle cx="41.2963" cy="36.4987" r="1.88222" fill="white"/>
<circle cx="49.2006" cy="36.4987" r="1.88222" fill="white"/>
<path d="M82.436 90.0669H88.6197C91.8321 90.0669 93.5988 88.6013 93.5988 85.9712C93.5988 84.2847 92.8158 83.1403 91.3502 82.6585C92.6954 82.0762 93.4181 80.9118 93.4181 79.3257C93.4181 76.7759 91.6112 75.2099 88.6197 75.2099H82.436V90.0669ZM88.2784 78.0608C89.463 78.0608 90.0854 78.6029 90.0854 79.6469C90.0854 80.711 89.4429 81.2932 88.2784 81.2932H85.6885V78.0608H88.2784ZM88.439 84.0237C89.6236 84.0237 90.2661 84.5658 90.2661 85.5696C90.2661 86.6739 89.6437 87.216 88.439 87.216H85.6885V84.0237H88.439ZM100.76 86.0113H107.626V83.2808H100.76V86.0113ZM110.034 86.0113H116.9V83.2808H110.034V86.0113ZM119.308 86.0113H126.174V83.2808H119.308V86.0113Z" fill="white"/>
<rect x="84.8398" y="73.2021" width="1.88222" height="2.50963" fill="white"/>
<rect x="87.9805" y="73.2021" width="1.88222" height="2.50963" fill="white"/>
<rect x="84.8398" y="90.144" width="1.88222" height="2.50963" fill="white"/>
<rect x="87.9805" y="90.144" width="1.88222" height="2.50963" fill="white"/>
<path d="M148.735 131.608C146.045 130.055 145.124 126.616 146.677 123.926L161.859 97.6304C163.412 94.9409 166.851 94.0195 169.54 95.5722L248.916 141.4C258.867 147.145 262.276 159.869 256.531 169.82C250.786 179.771 238.062 183.18 228.111 177.435L148.735 131.608Z" fill="url(#paint1_linear_58_2388)"/>
<rect x="168.256" y="105.654" width="44.047" height="22.4921" rx="1.87434" transform="rotate(30 168.256 105.654)" fill="url(#paint2_linear_58_2388)"/>
<path d="M155.871 203.093C154.071 203.575 152.221 202.507 151.739 200.707L142.716 167.033C142.233 165.233 143.302 163.383 145.101 162.901L233.633 139.179C244.732 136.205 256.14 142.791 259.114 153.89C262.088 164.989 255.502 176.397 244.403 179.371L155.871 203.093Z" fill="url(#paint3_linear_58_2388)"/>
<path d="M249.275 164.766C246.066 170.324 238.959 172.228 233.401 169.019C227.843 165.81 225.938 158.703 229.147 153.145C232.356 147.586 239.464 145.682 245.022 148.891C250.58 152.1 252.484 159.207 249.275 164.766Z" stroke="#303354" stroke-width="1.1246"/>
<g opacity="0.25">
<line x1="158.009" y1="170.93" x2="162.86" y2="189.034" stroke="#120D32" stroke-width="0.93717"/>
<line x1="167.062" y1="168.504" x2="171.913" y2="186.609" stroke="#120D32" stroke-width="0.93717"/>
<line x1="176.113" y1="166.081" x2="180.964" y2="184.186" stroke="#120D32" stroke-width="0.93717"/>
</g>
<path d="M190.706 20.5386L184.544 29.589C183.402 31.2657 183.402 33.47 184.544 35.1467L190.706 44.1972L181.656 38.0349C179.979 36.8933 177.775 36.8933 176.098 38.0349L167.048 44.1972L173.21 35.1467C174.351 33.47 174.351 31.2657 173.21 29.589L167.048 20.5386L176.098 26.7008C177.775 27.8424 179.979 27.8424 181.656 26.7008L190.706 20.5386Z" fill="white"/>
<defs>
<linearGradient id="paint0_linear_58_2388" x1="176.502" y1="13.0012" x2="150.666" y2="157.755" gradientUnits="userSpaceOnUse">
<stop offset="0.032752" stop-color="#4C5187"/>
<stop offset="1" stop-color="#262947"/>
</linearGradient>
<linearGradient id="paint1_linear_58_2388" x1="164.833" y1="92.8543" x2="239.483" y2="192.226" gradientUnits="userSpaceOnUse">
<stop stop-color="#4C5187"/>
<stop offset="1" stop-color="#262947"/>
</linearGradient>
<linearGradient id="paint2_linear_58_2388" x1="168.256" y1="100.968" x2="212.303" y2="128.146" gradientUnits="userSpaceOnUse">
<stop stop-color="#212532"/>
<stop offset="1"/>
</linearGradient>
<linearGradient id="paint3_linear_58_2388" x1="262.721" y1="140.716" x2="149.117" y2="200.656" gradientUnits="userSpaceOnUse">
<stop stop-color="white"/>
<stop offset="1" stop-color="#A9ABC0"/>
</linearGradient>
</defs>
</svg>
