<svg width="160" height="37" viewBox="0 0 160 37" fill="none" xmlns="http://www.w3.org/2000/svg">
<rect x="1" y="1" width="32" height="35" rx="4" stroke="white" stroke-width="1.5"/>
<circle cx="6" cy="6" r="1" fill="white"/>
<circle cx="9.5" cy="6" r="1" fill="white"/>
<circle cx="13" cy="6" r="1" fill="white"/>
<circle cx="45.5" cy="18.5" r="1.5" fill="white"/>
<circle cx="52.5" cy="18.5" r="1.5" fill="white" fill-opacity="0.2"/>
<circle cx="59.5" cy="18.5" r="1.5" fill="white" fill-opacity="0.2"/>
<circle cx="100.5" cy="18.5" r="1.5" fill="white" fill-opacity="0.2"/>
<circle cx="107.5" cy="18.5" r="1.5" fill="white" fill-opacity="0.2"/>
<circle cx="114.5" cy="18.5" r="1.5" fill="white" fill-opacity="0.2"/>
<path d="M137 1L127 1V31C127 33.7614 129.239 36 132 36C134.761 36 137 33.7614 137 31V1Z" fill="#12151E" stroke="white" stroke-width="1.5"/>
<path d="M159 36L159 26L132 26C129.239 26 127 28.2386 127 31C127 33.7614 129.239 36 132 36L159 36Z" fill="#12151E" stroke="white" stroke-width="1.5"/>
<circle cx="1.5" cy="1.5" r="1.5" transform="matrix(-1 0 0 1 133.5 29.5)" fill="white"/>
<circle cx="80" cy="18" r="14" fill="#F2A900"/>
<path d="M85.3866 14.9863C85.2028 13.0752 83.5531 12.4348 81.4685 12.2521V9.6001H79.8554V12.1813C79.4318 12.1813 78.998 12.1893 78.5676 12.1984V9.6001H76.9545L76.9533 12.2498C76.604 12.2567 76.2604 12.2635 75.9259 12.2635V12.2555L73.7008 12.2544V13.9782C73.7008 13.9782 74.8927 13.9554 74.8722 13.9771C75.5263 13.9771 75.7387 14.3561 75.8003 14.6838V17.7045C75.846 17.7045 75.9042 17.7068 75.9704 17.7159H75.8003L75.7992 21.9479C75.7706 22.1534 75.6496 22.4811 75.193 22.4822C75.2135 22.5005 74.0205 22.4822 74.0205 22.4822L73.6997 24.4093H75.8003C76.1907 24.4093 76.5755 24.4161 76.9522 24.4184L76.9533 27.1001H78.5653V24.447C79.0071 24.4561 79.4352 24.4595 79.8542 24.4595L79.8531 27.1001H81.4662V24.4241C84.1787 24.2689 86.0795 23.585 86.3147 21.0369C86.5053 18.9854 85.5407 18.0687 84.0006 17.6988C84.9379 17.2239 85.5235 16.3848 85.3866 14.9863ZM83.1284 20.7195C83.1284 22.7231 79.6978 22.4959 78.603 22.4959V18.942C79.6978 18.9443 83.1284 18.6304 83.1284 20.7195ZM82.3772 15.7067C82.3772 17.5298 79.514 17.3164 78.603 17.3175V14.0958C79.5152 14.0958 82.3784 13.8059 82.3772 15.7067Z" fill="white"/>
<path d="M85.3866 14.9863C85.2028 13.0752 83.5531 12.4348 81.4685 12.2521V9.6001H79.8554V12.1813C79.4318 12.1813 78.998 12.1893 78.5676 12.1984V9.6001H76.9545L76.9533 12.2498C76.604 12.2567 76.2604 12.2635 75.9259 12.2635V12.2555L73.7008 12.2544V13.9782C73.7008 13.9782 74.8927 13.9554 74.8722 13.9771C75.5263 13.9771 75.7387 14.3561 75.8003 14.6838V17.7045C75.846 17.7045 75.9042 17.7068 75.9704 17.7159H75.8003L75.7992 21.9479C75.7706 22.1534 75.6496 22.4811 75.193 22.4822C75.2135 22.5005 74.0205 22.4822 74.0205 22.4822L73.6997 24.4093H75.8003C76.1907 24.4093 76.5755 24.4161 76.9522 24.4184L76.9533 27.1001H78.5653V24.447C79.0071 24.4561 79.4352 24.4595 79.8542 24.4595L79.8531 27.1001H81.4662V24.4241C84.1787 24.2689 86.0795 23.585 86.3147 21.0369C86.5053 18.9854 85.5407 18.0687 84.0006 17.6988C84.9379 17.2239 85.5235 16.3848 85.3866 14.9863ZM83.1284 20.7195C83.1284 22.7231 79.6978 22.4959 78.603 22.4959V18.942C79.6978 18.9443 83.1284 18.6304 83.1284 20.7195ZM82.3772 15.7067C82.3772 17.5298 79.514 17.3164 78.603 17.3175V14.0958C79.5152 14.0958 82.3784 13.8059 82.3772 15.7067Z" fill="white"/>
</svg>
