<svg fill="none" height="17" viewBox="0 0 17 17" width="17" xmlns="http://www.w3.org/2000/svg"><path d="m14.375 8.25h-1.125v-3c0-.825-.675-1.5-1.5-1.5h-3v-1.125c0-1.035-.84-1.875-1.875-1.875s-1.875.84-1.875 1.875v1.125h-3c-.825 0-1.4925.675-1.4925 1.5v2.85h1.1175c1.1175 0 2.025.9075 2.025 2.025s-.9075 2.025-2.025 2.025h-1.125v2.85c0 .825.675 1.5 1.5 1.5h2.85v-1.125c0-1.1175.9075-2.025 2.025-2.025s2.025.9075 2.025 2.025v1.125h2.85c.825 0 1.5-.675 1.5-1.5v-3h1.125c1.035 0 1.875-.84 1.875-1.875s-.84-1.875-1.875-1.875z" fill="#fff"/></svg>