<svg fill="none" height="18" viewBox="0 0 18 18" width="18" xmlns="http://www.w3.org/2000/svg" xmlns:xlink="http://www.w3.org/1999/xlink"><linearGradient id="a" gradientUnits="userSpaceOnUse" x1="2.67607" x2="18.575" y1="15.4267" y2="-.472247"><stop offset="0" stop-color="#5565f7"/><stop offset="1" stop-color="#9ea7fa"/></linearGradient><path clip-rule="evenodd" d="m2.96201 2.3257c3.42212-3.100956 8.65399-3.100932 12.07609.00007l-.7978.79775c-2.9804-2.66253-7.50013-2.662554-10.48053-.00007zm12.71249.63648-.7978.79775c2.6623 2.98038 2.6623 7.49997-.0001 10.48027l.7977.7978c3.1009-3.4221 3.1009-8.65373.0002-12.07582zm-11.91457 11.91452c2.98035 2.6623 7.49987 2.6623 10.48027-.0001l.7977.7978c-3.422 3.1008-8.65366 3.1008-12.07573 0zm-.63641-.6364-.79775.7978c-3.100976-3.4221-3.101026-8.65389-.00015-12.076l.79775.79775c-2.662404 2.9804-2.662354 7.50015.00015 10.48045zm11.48528-8.99816c-.2405-.35814-.5191-.69833-.8356-1.01491-2.0972-2.0971-5.23085-2.52585-7.75181-1.28624l.56496.97854c2.08835-.99212 4.66185-.62401 6.39015 1.10433.2453.24533.4633.50767.6538.78325zm-.528 1.34409.9785-.56496c1.2397 2.52099.811 5.65473-1.2861 7.75193-.3167.3166-.6569.5952-1.0152.8358l-.5649-.9786c.2756-.1905.538-.4085.7834-.6539 1.7284-1.7283 2.0965-4.3019 1.1043-6.39027zm-2.6669 7.49467c-2.08831.9921-4.66174.624-6.39006-1.1044-.24545-.2454-.46347-.5079-.65406-.7836l-.97853.5649c.2406.3583.51925.6987.83596 1.0154 2.09708 2.0971 5.23073 2.5258 7.75169 1.2863zm-8.4731-2.1022.97854-.565c-.99191-2.08829-.62375-4.66159 1.1045-6.38984.24536-.24536.50775-.4633.78337-.65384l-.56496-.97854c-.35819.24056-.69843.51914-1.01504.83576-2.09702 2.09701-2.52582 5.23051-1.28641 7.75146zm9.2412-6.16072c.6644.66442 1.0777 1.48493 1.2397 2.3435l-1.1299.09885c-.1349-.60312-.4371-1.17637-.9064-1.64572-.6188-.6188-1.4182-.94694-2.22853-.98442l-.09885-1.12986c1.13228.0145 2.26008.45371 3.12398 1.31765zm-4.0206-1.23963c-.85851.16203-1.67896.57524-2.34334 1.23963-.86389.86388-1.30311 1.99163-1.31765 3.12382l1.12986-.09885c.03752-.81027.36566-1.60959.98442-2.22834.46931-.46932 1.0425-.77144 1.64557-.90638zm-3.58301 5.26006c.16201.85859.57523 1.67909 1.23966 2.34349.86388.8639 1.99162 1.3031 3.12379 1.3177l-.09885-1.1299c-.81025-.0375-1.60956-.3656-2.2283-.9844-.46937-.4694-.7715-1.0426-.90642-1.64574zm7.60361 2.34349c-.6644.6645-1.485 1.0777-2.34354 1.2397l-.09885-1.1299c.60309-.1349 1.17639-.437 1.64579-.9064.6187-.6188.9469-1.41808.9844-2.22835l1.1299-.09886c-.0146 1.13221-.4538 2.25991-1.3177 3.12381z" fill="url(#a)" fill-rule="evenodd"/></svg>