<svg width="20" height="20" viewBox="0 0 20 20" fill="none" xmlns="http://www.w3.org/2000/svg">
<rect width="20" height="20" rx="10" fill="#EE7A30"/>
<rect width="20" height="20" rx="10" fill="#181818"/>
<g clip-path="url(#clip0_4502_144105)">
<path d="M14.2391 14.1032V12.5513C14.2391 12.4897 14.2147 12.4311 14.1711 12.3875L7.56763 5.784C7.52403 5.7404 7.46533 5.71594 7.40379 5.71594H5.85186C5.77525 5.71594 5.71289 5.7783 5.71289 5.85492V7.29681C5.71289 7.35835 5.73734 7.41704 5.78095 7.46064L8.15124 9.83092C8.20544 9.88513 8.20544 9.97316 8.15124 10.0274L5.75365 12.425C5.72756 12.451 5.71289 12.4865 5.71289 12.5232V14.1032C5.71289 14.1798 5.77525 14.2422 5.85186 14.2422H8.44507C8.52169 14.2422 8.58404 14.1798 8.58404 14.1032V13.1724C8.58404 13.1357 8.59872 13.1003 8.6248 13.0742L9.91102 11.788C9.96522 11.7338 10.0532 11.7338 10.1075 11.788L12.494 14.1746C12.5376 14.2182 12.5963 14.2426 12.6579 14.2426H14.0997C14.1764 14.2426 14.2387 14.1802 14.2387 14.1037L14.2391 14.1032Z" fill="white"/>
<path d="M10.7809 7.77122H12.0797C12.1567 7.77122 12.2195 7.83399 12.2195 7.91101V9.20986C12.2195 9.33457 12.3703 9.39692 12.4583 9.30849L14.2401 7.52385C14.2662 7.49776 14.2809 7.46231 14.2809 7.42522V5.86228C14.2809 5.78526 14.2185 5.7225 14.1411 5.7225L12.5549 5.72046C12.5178 5.72046 12.4824 5.73513 12.4559 5.76121L10.6818 7.53241C10.5938 7.62043 10.6562 7.77122 10.7805 7.77122H10.7809Z" fill="white"/>
</g>
<defs>
<clipPath id="clip0_4502_144105">
<rect width="8.57143" height="8.57143" fill="white" transform="translate(5.71289 5.71436)"/>
</clipPath>
</defs>
</svg>
