<svg width="44" height="44" viewBox="0 0 44 44" fill="none" xmlns="http://www.w3.org/2000/svg">
<path d="M12.1566 16.2387L5.13774 22.0875L12.1566 27.9362C12.2578 28.0192 12.3416 28.1214 12.4032 28.2369C12.4647 28.3524 12.5028 28.479 12.5152 28.6093C12.5276 28.7396 12.5141 28.871 12.4754 28.9961C12.4368 29.1211 12.3737 29.2373 12.29 29.3378C12.2062 29.4384 12.1033 29.5214 11.9873 29.582C11.8713 29.6426 11.7445 29.6797 11.6141 29.6911C11.4837 29.7024 11.3524 29.6878 11.2276 29.6482C11.1029 29.6085 10.9872 29.5446 10.8873 29.46L2.95458 22.8494C2.84287 22.7563 2.75299 22.6398 2.69131 22.5082C2.62963 22.3765 2.59766 22.2329 2.59766 22.0875C2.59766 21.9421 2.62963 21.7985 2.69131 21.6668C2.75299 21.5352 2.84287 21.4187 2.95458 21.3256L10.8873 14.715C11.0897 14.5491 11.3494 14.47 11.6098 14.4948C11.8702 14.5196 12.1103 14.6463 12.2778 14.8473C12.4452 15.0483 12.5264 15.3073 12.5037 15.568C12.481 15.8286 12.3563 16.0697 12.1566 16.2387ZM41.2434 21.3256L33.3106 14.715C33.2107 14.6304 33.0951 14.5664 32.9704 14.5268C32.8456 14.4871 32.7143 14.4726 32.5839 14.4839C32.4535 14.4953 32.3266 14.5323 32.2106 14.593C32.0946 14.6536 31.9918 14.7366 31.908 14.8371C31.8242 14.9377 31.7612 15.0539 31.7226 15.1789C31.6839 15.3039 31.6704 15.4354 31.6828 15.5657C31.6952 15.696 31.7332 15.8226 31.7948 15.9381C31.8563 16.0536 31.9401 16.1558 32.0414 16.2387L39.0602 22.0875L32.0414 27.9362C31.9401 28.0192 31.8563 28.1214 31.7948 28.2369C31.7332 28.3524 31.6952 28.479 31.6828 28.6093C31.6704 28.7396 31.6839 28.871 31.7226 28.9961C31.7612 29.1211 31.8242 29.2373 31.908 29.3378C31.9918 29.4384 32.0946 29.5214 32.2106 29.582C32.3266 29.6426 32.4535 29.6797 32.5839 29.6911C32.7143 29.7024 32.8456 29.6878 32.9704 29.6482C33.0951 29.6085 33.2107 29.5446 33.3106 29.46L41.2434 22.8494C41.3551 22.7563 41.445 22.6398 41.5067 22.5082C41.5683 22.3765 41.6003 22.2329 41.6003 22.0875C41.6003 21.9421 41.5683 21.7985 41.5067 21.6668C41.445 21.5352 41.3551 21.4187 41.2434 21.3256ZM27.7263 6.61694C27.6037 6.57251 27.4735 6.5527 27.3432 6.55865C27.213 6.5646 27.0851 6.59618 26.9671 6.6516C26.849 6.70702 26.7431 6.78518 26.6553 6.88161C26.5675 6.97804 26.4995 7.09084 26.4554 7.21355L15.8784 36.3004C15.7914 36.5476 15.8059 36.8192 15.9186 37.0558C16.0314 37.2924 16.2332 37.4747 16.4799 37.563C16.5861 37.601 16.6978 37.6211 16.8105 37.6225C17.0141 37.6225 17.2127 37.5599 17.3795 37.4431C17.5462 37.3263 17.673 37.161 17.7426 36.9697L28.3196 7.88288C28.3641 7.76048 28.3841 7.6305 28.3783 7.50038C28.3726 7.37026 28.3413 7.24255 28.2862 7.12453C28.2311 7.00651 28.1533 6.9005 28.0572 6.81256C27.9612 6.72461 27.8487 6.65646 27.7263 6.61199V6.61694Z" fill="#3A4056"/>
</svg>
