<svg width="17" height="16" viewBox="0 0 17 16" fill="none" xmlns="http://www.w3.org/2000/svg">
<path d="M8.5 1.5C7.21442 1.5 5.95772 1.88122 4.8888 2.59545C3.81988 3.30968 2.98676 4.32484 2.49479 5.51256C2.00282 6.70028 1.87409 8.00721 2.1249 9.26809C2.3757 10.529 2.99477 11.6872 3.90381 12.5962C4.81285 13.5052 5.97104 14.1243 7.23192 14.3751C8.49279 14.6259 9.79973 14.4972 10.9874 14.0052C12.1752 13.5132 13.1903 12.6801 13.9046 11.6112C14.6188 10.5423 15 9.28558 15 8C14.9982 6.27665 14.3128 4.62441 13.0942 3.40582C11.8756 2.18722 10.2234 1.50182 8.5 1.5ZM6.85188 10.5H10.1481C9.8125 11.6463 9.25 12.6794 8.5 13.4931C7.75 12.6794 7.1875 11.6463 6.85188 10.5ZM6.625 9.5C6.45917 8.50688 6.45917 7.49312 6.625 6.5H10.375C10.5408 7.49312 10.5408 8.50688 10.375 9.5H6.625ZM3 8C2.99957 7.49277 3.06961 6.98795 3.20813 6.5H5.61188C5.46271 7.49444 5.46271 8.50556 5.61188 9.5H3.20813C3.06961 9.01205 2.99957 8.50723 3 8ZM10.1481 5.5H6.85188C7.1875 4.35375 7.75 3.32063 8.5 2.50688C9.25 3.32063 9.8125 4.35375 10.1481 5.5ZM11.3881 6.5H13.7919C14.0694 7.48075 14.0694 8.51925 13.7919 9.5H11.3881C11.5373 8.50556 11.5373 7.49444 11.3881 6.5ZM13.3981 5.5H11.1838C10.9286 4.49594 10.5001 3.54415 9.9175 2.6875C10.6618 2.88751 11.356 3.24108 11.9554 3.72546C12.5549 4.20984 13.0463 4.81431 13.3981 5.5ZM7.0825 2.6875C6.49994 3.54415 6.07142 4.49594 5.81625 5.5H3.60188C3.95371 4.81431 4.44515 4.20984 5.04459 3.72546C5.64404 3.24108 6.33822 2.88751 7.0825 2.6875ZM3.60188 10.5H5.81625C6.07142 11.5041 6.49994 12.4558 7.0825 13.3125C6.33822 13.1125 5.64404 12.7589 5.04459 12.2745C4.44515 11.7902 3.95371 11.1857 3.60188 10.5ZM9.9175 13.3125C10.5001 12.4558 10.9286 11.5041 11.1838 10.5H13.3981C13.0463 11.1857 12.5549 11.7902 11.9554 12.2745C11.356 12.7589 10.6618 13.1125 9.9175 13.3125Z" fill="white"/>
</svg>
