<svg fill="none" height="22" viewBox="0 0 22 22" width="22" xmlns="http://www.w3.org/2000/svg"><g stroke="#fff" stroke-linecap="round" stroke-linejoin="round" stroke-width="1.5"><path d="m8.9375 4.125h-4.125c-.3797 0-.6875.3078-.6875.6875v4.125c0 .3797.3078.6875.6875.6875h4.125c.3797 0 .6875-.3078.6875-.6875v-4.125c0-.3797-.3078-.6875-.6875-.6875z"/><path d="m8.9375 12.375h-4.125c-.3797 0-.6875.3078-.6875.6875v4.125c0 .3797.3078.6875.6875.6875h4.125c.3797 0 .6875-.3078.6875-.6875v-4.125c0-.3797-.3078-.6875-.6875-.6875z"/><path d="m17.1875 4.125h-4.125c-.3797 0-.6875.3078-.6875.6875v4.125c0 .3797.3078.6875.6875.6875h4.125c.3797 0 .6875-.3078.6875-.6875v-4.125c0-.3797-.3078-.6875-.6875-.6875z"/><path d="m12.375 12.375v2.75"/><path d="m12.375 17.875h2.75v-5.5"/><path d="m15.125 13.75h2.75"/><path d="m17.875 16.5v1.375"/></g></svg>