<svg width="47" height="47" viewBox="0 0 47 47" fill="none" xmlns="http://www.w3.org/2000/svg">
<path d="M17.2104 33.7859C15.1827 39.8691 7.07178 39.8691 7.07178 39.8691C7.07178 39.8691 7.07178 31.7582 13.155 29.7305" stroke="#4C5187" stroke-width="2.29412" stroke-linecap="round" stroke-linejoin="round"/>
<path d="M35.4599 19.5917L23.2935 31.7581L15.1826 23.6471L27.349 11.4807C31.9559 6.87383 36.5628 6.91877 38.5275 7.21191C38.83 7.257 39.1101 7.39808 39.3263 7.61434C39.5426 7.83061 39.6837 8.11063 39.7288 8.41314C40.0219 10.3779 40.0668 14.9848 35.4599 19.5917Z" stroke="#4C5187" stroke-width="2.29412" stroke-linecap="round" stroke-linejoin="round"/>
<path d="M33.4326 21.6194V33.1919C33.4326 33.3802 33.3955 33.5666 33.3235 33.7406C33.2514 33.9145 33.1458 34.0726 33.0127 34.2057L27.2161 40.0023C27.0326 40.1858 26.8027 40.3161 26.551 40.3792C26.2993 40.4423 26.0351 40.4359 25.7867 40.3607C25.5384 40.2855 25.315 40.1443 25.1406 39.9521C24.9662 39.76 24.8472 39.5241 24.7963 39.2696L23.2939 31.758" stroke="#4C5187" stroke-width="2.29412" stroke-linecap="round" stroke-linejoin="round"/>
<path d="M25.3214 13.5085H13.7489C13.5606 13.5085 13.3742 13.5456 13.2002 13.6177C13.0263 13.6897 12.8682 13.7954 12.7351 13.9285L6.93851 19.725C6.755 19.9086 6.62474 20.1384 6.56162 20.3902C6.49849 20.6419 6.50487 20.906 6.58008 21.1544C6.65528 21.4028 6.79649 21.6261 6.98865 21.8006C7.1808 21.975 7.4167 22.094 7.67118 22.1449L15.1827 23.6472" stroke="#4C5187" stroke-width="2.29412" stroke-linecap="round" stroke-linejoin="round"/>
</svg>
