<svg fill="none" height="16" viewBox="0 0 16 16" width="16" xmlns="http://www.w3.org/2000/svg"><g stroke="#fff" stroke-linecap="round" stroke-linejoin="round"><path d="m4 10c1.10457 0 2-.89543 2-2s-.89543-2-2-2-2 .89543-2 2 .89543 2 2 2z" stroke-width="1.7"/><path d="m11 14.5c1.1046 0 2-.8954 2-2s-.8954-2-2-2c-1.10457 0-2 .8954-2 2s.89543 2 2 2z" stroke-width="1.7"/><g stroke-width="1.6"><path d="m11 5.5c1.1046 0 2-.89543 2-2s-.8954-2-2-2c-1.10457 0-2 .89543-2 2s.89543 2 2 2z"/><path d="m9.31782 4.58142-3.63569 2.33723"/><path d="m5.68213 9.0813 3.63569 2.3372"/></g></g></svg>