<svg fill="none" height="24" viewBox="0 0 26 24" width="26" xmlns="http://www.w3.org/2000/svg" xmlns:xlink="http://www.w3.org/1999/xlink"><linearGradient id="a" gradientUnits="userSpaceOnUse" x1="7.02734" x2="19.0268" y1="8.59703" y2="8.59703"><stop offset="0" stop-color="#fff"/><stop offset="1" stop-color="#fff"/></linearGradient><circle cx="12.9844" cy="12" fill="#5546ff" r="12"/><path d="m19.0258 12.7928v1.4451h-3.6416l2.4939 3.7616h-1.8835l-2.9998-4.5389-2.9894 4.5389h-1.88356l2.48866-3.7616h-3.58413v-1.4555h11.99943z" fill="#fff"/><path d="m19.0268 11.2064v-1.44509h-3.6416l2.4939-3.76166h-1.8835l-2.9999 4.53895-2.9894-4.53895h-1.88348l2.48868 3.76166h-3.58416v1.45549h11.99946z" fill="#fff"/><path d="m19.0268 11.2064v-1.44509h-3.6416l2.4939-3.76166h-1.8835l-2.9999 4.53895-2.9894-4.53895h-1.88348l2.48868 3.76166h-3.58416v1.45549h11.99946z" fill="url(#a)"/></svg>