<svg width="235" height="181" viewBox="0 0 146 193" fill="none" xmlns="http://www.w3.org/2000/svg">
<path d="M20.3309 188.216C19.2509 188.216 18.3329 188.006 17.5769 187.586C16.8209 187.166 16.2449 186.578 15.8489 185.822C15.4529 185.054 15.2549 184.172 15.2549 183.176C15.2549 182.036 15.4409 180.986 15.8129 180.026C16.1849 179.054 16.7009 178.208 17.3609 177.488C18.0209 176.756 18.7949 176.192 19.6829 175.796C20.5709 175.388 21.5369 175.184 22.5809 175.184C24.0569 175.184 25.2029 175.544 26.0189 176.264C26.8349 176.984 27.2549 177.992 27.2789 179.288H25.1369C25.1129 178.544 24.8609 177.962 24.3809 177.542C23.9129 177.11 23.2169 176.894 22.2929 176.894C21.3329 176.894 20.4689 177.164 19.7009 177.704C18.9449 178.232 18.3449 178.958 17.9009 179.882C17.4569 180.794 17.2349 181.826 17.2349 182.978C17.2349 184.094 17.5289 184.964 18.1169 185.588C18.7169 186.2 19.5509 186.506 20.6189 186.506C21.5429 186.506 22.3109 186.302 22.9229 185.894C23.5349 185.486 23.9849 184.928 24.2729 184.22H26.4149C25.9349 185.48 25.1669 186.464 24.1109 187.172C23.0549 187.868 21.7949 188.216 20.3309 188.216ZM32.039 188.216C31.283 188.216 30.611 188.048 30.023 187.712C29.447 187.364 28.991 186.896 28.655 186.308C28.331 185.708 28.169 185.03 28.169 184.274C28.169 183.506 28.301 182.792 28.565 182.132C28.841 181.472 29.219 180.896 29.699 180.404C30.191 179.912 30.755 179.534 31.391 179.27C32.039 178.994 32.735 178.856 33.479 178.856C34.247 178.856 34.919 179.024 35.495 179.36C36.083 179.684 36.545 180.14 36.881 180.728C37.217 181.304 37.385 181.976 37.385 182.744C37.385 183.512 37.247 184.232 36.971 184.904C36.695 185.564 36.311 186.146 35.819 186.65C35.339 187.142 34.775 187.526 34.127 187.802C33.491 188.078 32.795 188.216 32.039 188.216ZM32.291 186.578C32.879 186.578 33.407 186.416 33.875 186.092C34.355 185.756 34.733 185.312 35.009 184.76C35.285 184.196 35.423 183.56 35.423 182.852C35.423 182.108 35.207 181.532 34.775 181.124C34.355 180.704 33.851 180.494 33.263 180.494C32.675 180.494 32.141 180.662 31.661 180.998C31.193 181.322 30.821 181.766 30.545 182.33C30.269 182.882 30.131 183.512 30.131 184.22C30.131 184.964 30.341 185.546 30.761 185.966C31.193 186.374 31.703 186.578 32.291 186.578ZM38.6019 188L40.1679 179.072H41.8599L41.7879 180.422C42.1359 179.942 42.5559 179.564 43.0479 179.288C43.5519 179 44.1099 178.856 44.7219 178.856C45.3819 178.856 45.9459 179 46.4139 179.288C46.8819 179.576 47.2179 180.008 47.4219 180.584C47.8179 180.044 48.3039 179.624 48.8799 179.324C49.4559 179.012 50.0619 178.856 50.6979 178.856C51.7419 178.856 52.5399 179.192 53.0919 179.864C53.6439 180.536 53.8059 181.538 53.5779 182.87L52.6599 188H50.7519L51.6339 183.068C51.7779 182.216 51.7119 181.574 51.4359 181.142C51.1599 180.698 50.7159 180.476 50.1039 180.476C49.5159 180.476 48.9759 180.704 48.4839 181.16C48.0039 181.604 47.6619 182.246 47.4579 183.086L46.5939 188H44.6859L45.5499 183.068C45.7059 182.216 45.6459 181.574 45.3699 181.142C45.1059 180.698 44.6619 180.476 44.0379 180.476C43.4259 180.476 42.8619 180.728 42.3459 181.232C41.8299 181.736 41.4879 182.456 41.3199 183.392L40.5099 188H38.6019ZM58.0644 177.416C57.7044 177.416 57.4044 177.302 57.1644 177.074C56.9364 176.846 56.8224 176.564 56.8224 176.228C56.8224 175.892 56.9364 175.61 57.1644 175.382C57.4044 175.154 57.7044 175.04 58.0644 175.04C58.4244 175.04 58.7184 175.154 58.9464 175.382C59.1864 175.61 59.3064 175.892 59.3064 176.228C59.3064 176.564 59.1864 176.846 58.9464 177.074C58.7184 177.302 58.4244 177.416 58.0644 177.416ZM55.0404 188L56.6064 179.072H58.5144L56.9484 188H55.0404ZM59.5199 188L61.0859 179.072H62.7779L62.6699 180.62C63.0419 180.08 63.5159 179.654 64.0919 179.342C64.6799 179.018 65.3219 178.856 66.0179 178.856C66.9299 178.856 67.6379 179.108 68.1419 179.612C68.6579 180.116 68.9159 180.842 68.9159 181.79C68.9159 182.138 68.8799 182.498 68.8079 182.87L67.8899 188H65.9999L66.8639 183.068C66.8879 182.912 66.9059 182.768 66.9179 182.636C66.9419 182.504 66.9539 182.372 66.9539 182.24C66.9539 181.064 66.3719 180.476 65.2079 180.476C64.5119 180.476 63.8939 180.716 63.3539 181.196C62.8139 181.676 62.4539 182.36 62.2739 183.248L61.4279 188H59.5199ZM74.2227 185.264C73.7427 185.264 73.3107 185.204 72.9267 185.084L72.1347 185.714C72.3867 185.858 72.6747 185.978 72.9987 186.074C73.3347 186.158 73.8147 186.224 74.4387 186.272C75.6267 186.368 76.4547 186.644 76.9227 187.1C77.3907 187.544 77.6247 188.078 77.6247 188.702C77.6247 189.374 77.4267 189.968 77.0307 190.484C76.6467 191.012 76.1067 191.426 75.4107 191.726C74.7267 192.026 73.9407 192.176 73.0527 192.176C71.9247 192.176 71.0127 191.96 70.3167 191.528C69.6327 191.096 69.2907 190.472 69.2907 189.656C69.2907 189.116 69.4407 188.624 69.7407 188.18C70.0407 187.736 70.4607 187.34 71.0007 186.992C70.5927 186.8 70.2687 186.566 70.0287 186.29L70.1007 185.876L71.8107 184.418C71.3547 183.95 71.1267 183.362 71.1267 182.654C71.1267 181.946 71.3127 181.304 71.6847 180.728C72.0687 180.152 72.5787 179.696 73.2147 179.36C73.8507 179.024 74.5647 178.856 75.3567 178.856C75.8607 178.856 76.3167 178.928 76.7247 179.072H80.0547L79.8207 180.332L78.2187 180.422C78.3507 180.746 78.4167 181.094 78.4167 181.466C78.4167 182.174 78.2307 182.816 77.8587 183.392C77.4867 183.968 76.9827 184.424 76.3467 184.76C75.7107 185.096 75.0027 185.264 74.2227 185.264ZM74.4927 183.77C75.1287 183.77 75.6507 183.578 76.0587 183.194C76.4787 182.798 76.6887 182.3 76.6887 181.7C76.6887 181.268 76.5447 180.938 76.2567 180.71C75.9687 180.482 75.5787 180.368 75.0867 180.368C74.4267 180.368 73.8867 180.56 73.4667 180.944C73.0587 181.328 72.8547 181.826 72.8547 182.438C72.8547 182.87 72.9987 183.2 73.2867 183.428C73.5867 183.656 73.9887 183.77 74.4927 183.77ZM71.1447 189.278C71.1447 189.734 71.3367 190.082 71.7207 190.322C72.1047 190.562 72.6267 190.682 73.2867 190.682C74.0067 190.682 74.6007 190.52 75.0687 190.196C75.5487 189.884 75.7887 189.452 75.7887 188.9C75.7887 188.6 75.6687 188.33 75.4287 188.09C75.2007 187.862 74.7387 187.724 74.0427 187.676C73.4787 187.64 72.9627 187.574 72.4947 187.478C72.0387 187.718 71.6967 187.988 71.4687 188.288C71.2527 188.6 71.1447 188.93 71.1447 189.278ZM88.6605 188.216C87.4965 188.216 86.5905 187.922 85.9425 187.334C85.3065 186.746 85.0245 185.978 85.0965 185.03H87.0225C86.9985 185.498 87.1365 185.894 87.4365 186.218C87.7485 186.542 88.2465 186.704 88.9305 186.704C89.4945 186.704 89.9445 186.578 90.2805 186.326C90.6165 186.074 90.7845 185.738 90.7845 185.318C90.7845 184.97 90.6165 184.718 90.2805 184.562C89.9565 184.394 89.5305 184.256 89.0025 184.148C88.5345 184.04 88.0785 183.896 87.6345 183.716C87.1905 183.524 86.8185 183.278 86.5185 182.978C86.2305 182.666 86.0865 182.264 86.0865 181.772C86.0865 181.22 86.2485 180.722 86.5725 180.278C86.9085 179.834 87.3585 179.486 87.9225 179.234C88.4985 178.982 89.1525 178.856 89.8845 178.856C90.8925 178.856 91.6905 179.102 92.2785 179.594C92.8665 180.074 93.1425 180.752 93.1065 181.628H91.2525C91.2645 181.244 91.1265 180.938 90.8385 180.71C90.5625 180.482 90.1785 180.368 89.6865 180.368C89.1945 180.368 88.7925 180.482 88.4805 180.71C88.1685 180.938 88.0125 181.208 88.0125 181.52C88.0125 181.844 88.1745 182.084 88.4985 182.24C88.8345 182.396 89.2785 182.54 89.8305 182.672C90.3465 182.792 90.8265 182.942 91.2705 183.122C91.7145 183.302 92.0685 183.548 92.3325 183.86C92.6085 184.172 92.7465 184.574 92.7465 185.066C92.7465 185.714 92.5665 186.272 92.2065 186.74C91.8585 187.208 91.3725 187.574 90.7485 187.838C90.1365 188.09 89.4405 188.216 88.6605 188.216ZM98.2909 188.216C97.5349 188.216 96.8629 188.048 96.2749 187.712C95.6989 187.364 95.2429 186.896 94.9069 186.308C94.5829 185.708 94.4209 185.03 94.4209 184.274C94.4209 183.506 94.5529 182.792 94.8169 182.132C95.0929 181.472 95.4709 180.896 95.9509 180.404C96.4429 179.912 97.0069 179.534 97.6429 179.27C98.2909 178.994 98.9869 178.856 99.7309 178.856C100.499 178.856 101.171 179.024 101.747 179.36C102.335 179.684 102.797 180.14 103.133 180.728C103.469 181.304 103.637 181.976 103.637 182.744C103.637 183.512 103.499 184.232 103.223 184.904C102.947 185.564 102.563 186.146 102.071 186.65C101.591 187.142 101.027 187.526 100.379 187.802C99.7429 188.078 99.0469 188.216 98.2909 188.216ZM98.5429 186.578C99.1309 186.578 99.6589 186.416 100.127 186.092C100.607 185.756 100.985 185.312 101.261 184.76C101.537 184.196 101.675 183.56 101.675 182.852C101.675 182.108 101.459 181.532 101.027 181.124C100.607 180.704 100.103 180.494 99.5149 180.494C98.9269 180.494 98.3929 180.662 97.9129 180.998C97.4449 181.322 97.0729 181.766 96.7969 182.33C96.5209 182.882 96.3829 183.512 96.3829 184.22C96.3829 184.964 96.5929 185.546 97.0129 185.966C97.4449 186.374 97.9549 186.578 98.5429 186.578ZM109.084 188.216C108.328 188.216 107.656 188.048 107.068 187.712C106.492 187.364 106.036 186.896 105.7 186.308C105.376 185.708 105.214 185.03 105.214 184.274C105.214 183.506 105.346 182.792 105.61 182.132C105.886 181.472 106.264 180.896 106.744 180.404C107.236 179.912 107.8 179.534 108.436 179.27C109.084 178.994 109.78 178.856 110.524 178.856C111.292 178.856 111.964 179.024 112.54 179.36C113.128 179.684 113.59 180.14 113.926 180.728C114.262 181.304 114.43 181.976 114.43 182.744C114.43 183.512 114.292 184.232 114.016 184.904C113.74 185.564 113.356 186.146 112.864 186.65C112.384 187.142 111.82 187.526 111.172 187.802C110.536 188.078 109.84 188.216 109.084 188.216ZM109.336 186.578C109.924 186.578 110.452 186.416 110.92 186.092C111.4 185.756 111.778 185.312 112.054 184.76C112.33 184.196 112.468 183.56 112.468 182.852C112.468 182.108 112.252 181.532 111.82 181.124C111.4 180.704 110.896 180.494 110.308 180.494C109.72 180.494 109.186 180.662 108.706 180.998C108.238 181.322 107.866 181.766 107.59 182.33C107.314 182.882 107.176 183.512 107.176 184.22C107.176 184.964 107.386 185.546 107.806 185.966C108.238 186.374 108.748 186.578 109.336 186.578ZM115.647 188L117.213 179.072H118.905L118.797 180.62C119.169 180.08 119.643 179.654 120.219 179.342C120.807 179.018 121.449 178.856 122.145 178.856C123.057 178.856 123.765 179.108 124.269 179.612C124.785 180.116 125.043 180.842 125.043 181.79C125.043 182.138 125.007 182.498 124.935 182.87L124.017 188H122.127L122.991 183.068C123.015 182.912 123.033 182.768 123.045 182.636C123.069 182.504 123.081 182.372 123.081 182.24C123.081 181.064 122.499 180.476 121.335 180.476C120.639 180.476 120.021 180.716 119.481 181.196C118.941 181.676 118.581 182.36 118.401 183.248L117.555 188H115.647ZM127.218 184.274L128.568 175.4H130.62L128.82 184.274H127.218ZM127.722 188.108C127.362 188.108 127.062 187.994 126.822 187.766C126.594 187.526 126.48 187.244 126.48 186.92C126.48 186.584 126.594 186.302 126.822 186.074C127.062 185.834 127.362 185.714 127.722 185.714C128.082 185.714 128.376 185.834 128.604 186.074C128.844 186.302 128.964 186.584 128.964 186.92C128.964 187.244 128.844 187.526 128.604 187.766C128.376 187.994 128.082 188.108 127.722 188.108Z" fill="white"/>
<line y1="38.0833" x2="145.911" y2="38.0833" stroke="white" stroke-opacity="0.5" stroke-width="0.744444" stroke-dasharray="2.98 2.98"/>
<line y1="42.6278" x2="145.911" y2="42.6278" stroke="white" stroke-opacity="0.5" stroke-width="0.744444" stroke-dasharray="2.98 2.98"/>
<line y1="58.0833" x2="145.911" y2="58.0833" stroke="white" stroke-opacity="0.5" stroke-width="0.744444" stroke-dasharray="2.98 2.98"/>
<line y1="107.083" x2="145.911" y2="107.083" stroke="white" stroke-opacity="0.5" stroke-width="0.744444" stroke-dasharray="2.98 2.98"/>
<line y1="87.0833" x2="145.911" y2="87.0833" stroke="white" stroke-opacity="0.5" stroke-width="0.744444" stroke-dasharray="2.98 2.98"/>
<line y1="102.628" x2="145.911" y2="102.628" stroke="white" stroke-opacity="0.5" stroke-width="0.744444" stroke-dasharray="2.98 2.98"/>
<line x1="103.328" y1="0.0444946" x2="103.328" y2="145.956" stroke="white" stroke-opacity="0.5" stroke-width="0.744444" stroke-dasharray="2.98 2.98"/>
<line x1="43.3278" y1="0.0444946" x2="43.3278" y2="145.956" stroke="white" stroke-opacity="0.5" stroke-width="0.744444" stroke-dasharray="2.98 2.98"/>
<line x1="87.8278" y1="1.62704e-08" x2="87.8278" y2="145.911" stroke="white" stroke-opacity="0.5" stroke-width="0.744444" stroke-dasharray="2.98 2.98"/>
<line x1="58.8278" y1="1.62704e-08" x2="58.8278" y2="145.911" stroke="white" stroke-opacity="0.5" stroke-width="0.744444" stroke-dasharray="2.98 2.98"/>
<line x1="107.828" y1="1.62704e-08" x2="107.828" y2="145.911" stroke="white" stroke-opacity="0.5" stroke-width="0.744444" stroke-dasharray="2.98 2.98"/>
<line x1="38.8278" y1="1.62704e-08" x2="38.8278" y2="145.911" stroke="white" stroke-opacity="0.5" stroke-width="0.744444" stroke-dasharray="2.98 2.98"/>
<rect x="57.9995" y="57.4557" width="30" height="30" fill="white"/>
<rect x="40.8" y="40.2557" width="64.3999" height="64.3999" stroke="white" stroke-width="5.59999"/>
</svg>
