<svg width="235" height="181" viewBox="0 0 235 181" fill="none" xmlns="http://www.w3.org/2000/svg">
<path d="M65.3309 175.216C64.2509 175.216 63.3329 175.006 62.5769 174.586C61.8209 174.166 61.2449 173.578 60.8489 172.822C60.4529 172.054 60.2549 171.172 60.2549 170.176C60.2549 169.036 60.4409 167.986 60.8129 167.026C61.1849 166.054 61.7009 165.208 62.3609 164.488C63.0209 163.756 63.7949 163.192 64.6829 162.796C65.5709 162.388 66.5369 162.184 67.5809 162.184C69.0569 162.184 70.2029 162.544 71.0189 163.264C71.8349 163.984 72.2549 164.992 72.2789 166.288H70.1369C70.1129 165.544 69.8609 164.962 69.3809 164.542C68.9129 164.11 68.2169 163.894 67.2929 163.894C66.3329 163.894 65.4689 164.164 64.7009 164.704C63.9449 165.232 63.3449 165.958 62.9009 166.882C62.4569 167.794 62.2349 168.826 62.2349 169.978C62.2349 171.094 62.5289 171.964 63.1169 172.588C63.7169 173.2 64.5509 173.506 65.6189 173.506C66.5429 173.506 67.3109 173.302 67.9229 172.894C68.5349 172.486 68.9849 171.928 69.2729 171.22H71.4149C70.9349 172.48 70.1669 173.464 69.1109 174.172C68.0549 174.868 66.7949 175.216 65.3309 175.216ZM77.039 175.216C76.283 175.216 75.611 175.048 75.023 174.712C74.447 174.364 73.991 173.896 73.655 173.308C73.331 172.708 73.169 172.03 73.169 171.274C73.169 170.506 73.301 169.792 73.565 169.132C73.841 168.472 74.219 167.896 74.699 167.404C75.191 166.912 75.755 166.534 76.391 166.27C77.039 165.994 77.735 165.856 78.479 165.856C79.247 165.856 79.919 166.024 80.495 166.36C81.083 166.684 81.545 167.14 81.881 167.728C82.217 168.304 82.385 168.976 82.385 169.744C82.385 170.512 82.247 171.232 81.971 171.904C81.695 172.564 81.311 173.146 80.819 173.65C80.339 174.142 79.775 174.526 79.127 174.802C78.491 175.078 77.795 175.216 77.039 175.216ZM77.291 173.578C77.879 173.578 78.407 173.416 78.875 173.092C79.355 172.756 79.733 172.312 80.009 171.76C80.285 171.196 80.423 170.56 80.423 169.852C80.423 169.108 80.207 168.532 79.775 168.124C79.355 167.704 78.851 167.494 78.263 167.494C77.675 167.494 77.141 167.662 76.661 167.998C76.193 168.322 75.821 168.766 75.545 169.33C75.269 169.882 75.131 170.512 75.131 171.22C75.131 171.964 75.341 172.546 75.761 172.966C76.193 173.374 76.703 173.578 77.291 173.578ZM83.6019 175L85.1679 166.072H86.8599L86.7879 167.422C87.1359 166.942 87.5559 166.564 88.0479 166.288C88.5519 166 89.1099 165.856 89.7219 165.856C90.3819 165.856 90.9459 166 91.4139 166.288C91.8819 166.576 92.2179 167.008 92.4219 167.584C92.8179 167.044 93.3039 166.624 93.8799 166.324C94.4559 166.012 95.0619 165.856 95.6979 165.856C96.7419 165.856 97.5399 166.192 98.0919 166.864C98.6439 167.536 98.8059 168.538 98.5779 169.87L97.6599 175H95.7519L96.6339 170.068C96.7779 169.216 96.7119 168.574 96.4359 168.142C96.1599 167.698 95.7159 167.476 95.1039 167.476C94.5159 167.476 93.9759 167.704 93.4839 168.16C93.0039 168.604 92.6619 169.246 92.4579 170.086L91.5939 175H89.6859L90.5499 170.068C90.7059 169.216 90.6459 168.574 90.3699 168.142C90.1059 167.698 89.6619 167.476 89.0379 167.476C88.4259 167.476 87.8619 167.728 87.3459 168.232C86.8299 168.736 86.4879 169.456 86.3199 170.392L85.5099 175H83.6019ZM103.064 164.416C102.704 164.416 102.404 164.302 102.164 164.074C101.936 163.846 101.822 163.564 101.822 163.228C101.822 162.892 101.936 162.61 102.164 162.382C102.404 162.154 102.704 162.04 103.064 162.04C103.424 162.04 103.718 162.154 103.946 162.382C104.186 162.61 104.306 162.892 104.306 163.228C104.306 163.564 104.186 163.846 103.946 164.074C103.718 164.302 103.424 164.416 103.064 164.416ZM100.04 175L101.606 166.072H103.514L101.948 175H100.04ZM104.52 175L106.086 166.072H107.778L107.67 167.62C108.042 167.08 108.516 166.654 109.092 166.342C109.68 166.018 110.322 165.856 111.018 165.856C111.93 165.856 112.638 166.108 113.142 166.612C113.658 167.116 113.916 167.842 113.916 168.79C113.916 169.138 113.88 169.498 113.808 169.87L112.89 175H111L111.864 170.068C111.888 169.912 111.906 169.768 111.918 169.636C111.942 169.504 111.954 169.372 111.954 169.24C111.954 168.064 111.372 167.476 110.208 167.476C109.512 167.476 108.894 167.716 108.354 168.196C107.814 168.676 107.454 169.36 107.274 170.248L106.428 175H104.52ZM119.223 172.264C118.743 172.264 118.311 172.204 117.927 172.084L117.135 172.714C117.387 172.858 117.675 172.978 117.999 173.074C118.335 173.158 118.815 173.224 119.439 173.272C120.627 173.368 121.455 173.644 121.923 174.1C122.391 174.544 122.625 175.078 122.625 175.702C122.625 176.374 122.427 176.968 122.031 177.484C121.647 178.012 121.107 178.426 120.411 178.726C119.727 179.026 118.941 179.176 118.053 179.176C116.925 179.176 116.013 178.96 115.317 178.528C114.633 178.096 114.291 177.472 114.291 176.656C114.291 176.116 114.441 175.624 114.741 175.18C115.041 174.736 115.461 174.34 116.001 173.992C115.593 173.8 115.269 173.566 115.029 173.29L115.101 172.876L116.811 171.418C116.355 170.95 116.127 170.362 116.127 169.654C116.127 168.946 116.313 168.304 116.685 167.728C117.069 167.152 117.579 166.696 118.215 166.36C118.851 166.024 119.565 165.856 120.357 165.856C120.861 165.856 121.317 165.928 121.725 166.072H125.055L124.821 167.332L123.219 167.422C123.351 167.746 123.417 168.094 123.417 168.466C123.417 169.174 123.231 169.816 122.859 170.392C122.487 170.968 121.983 171.424 121.347 171.76C120.711 172.096 120.003 172.264 119.223 172.264ZM119.493 170.77C120.129 170.77 120.651 170.578 121.059 170.194C121.479 169.798 121.689 169.3 121.689 168.7C121.689 168.268 121.545 167.938 121.257 167.71C120.969 167.482 120.579 167.368 120.087 167.368C119.427 167.368 118.887 167.56 118.467 167.944C118.059 168.328 117.855 168.826 117.855 169.438C117.855 169.87 117.999 170.2 118.287 170.428C118.587 170.656 118.989 170.77 119.493 170.77ZM116.145 176.278C116.145 176.734 116.337 177.082 116.721 177.322C117.105 177.562 117.627 177.682 118.287 177.682C119.007 177.682 119.601 177.52 120.069 177.196C120.549 176.884 120.789 176.452 120.789 175.9C120.789 175.6 120.669 175.33 120.429 175.09C120.201 174.862 119.739 174.724 119.043 174.676C118.479 174.64 117.963 174.574 117.495 174.478C117.039 174.718 116.697 174.988 116.469 175.288C116.253 175.6 116.145 175.93 116.145 176.278ZM133.66 175.216C132.496 175.216 131.59 174.922 130.942 174.334C130.306 173.746 130.024 172.978 130.096 172.03H132.022C131.998 172.498 132.136 172.894 132.436 173.218C132.748 173.542 133.246 173.704 133.93 173.704C134.494 173.704 134.944 173.578 135.28 173.326C135.616 173.074 135.784 172.738 135.784 172.318C135.784 171.97 135.616 171.718 135.28 171.562C134.956 171.394 134.53 171.256 134.002 171.148C133.534 171.04 133.078 170.896 132.634 170.716C132.19 170.524 131.818 170.278 131.518 169.978C131.23 169.666 131.086 169.264 131.086 168.772C131.086 168.22 131.248 167.722 131.572 167.278C131.908 166.834 132.358 166.486 132.922 166.234C133.498 165.982 134.152 165.856 134.884 165.856C135.892 165.856 136.69 166.102 137.278 166.594C137.866 167.074 138.142 167.752 138.106 168.628H136.252C136.264 168.244 136.126 167.938 135.838 167.71C135.562 167.482 135.178 167.368 134.686 167.368C134.194 167.368 133.792 167.482 133.48 167.71C133.168 167.938 133.012 168.208 133.012 168.52C133.012 168.844 133.174 169.084 133.498 169.24C133.834 169.396 134.278 169.54 134.83 169.672C135.346 169.792 135.826 169.942 136.27 170.122C136.714 170.302 137.068 170.548 137.332 170.86C137.608 171.172 137.746 171.574 137.746 172.066C137.746 172.714 137.566 173.272 137.206 173.74C136.858 174.208 136.372 174.574 135.748 174.838C135.136 175.09 134.44 175.216 133.66 175.216ZM143.291 175.216C142.535 175.216 141.863 175.048 141.275 174.712C140.699 174.364 140.243 173.896 139.907 173.308C139.583 172.708 139.421 172.03 139.421 171.274C139.421 170.506 139.553 169.792 139.817 169.132C140.093 168.472 140.471 167.896 140.951 167.404C141.443 166.912 142.007 166.534 142.643 166.27C143.291 165.994 143.987 165.856 144.731 165.856C145.499 165.856 146.171 166.024 146.747 166.36C147.335 166.684 147.797 167.14 148.133 167.728C148.469 168.304 148.637 168.976 148.637 169.744C148.637 170.512 148.499 171.232 148.223 171.904C147.947 172.564 147.563 173.146 147.071 173.65C146.591 174.142 146.027 174.526 145.379 174.802C144.743 175.078 144.047 175.216 143.291 175.216ZM143.543 173.578C144.131 173.578 144.659 173.416 145.127 173.092C145.607 172.756 145.985 172.312 146.261 171.76C146.537 171.196 146.675 170.56 146.675 169.852C146.675 169.108 146.459 168.532 146.027 168.124C145.607 167.704 145.103 167.494 144.515 167.494C143.927 167.494 143.393 167.662 142.913 167.998C142.445 168.322 142.073 168.766 141.797 169.33C141.521 169.882 141.383 170.512 141.383 171.22C141.383 171.964 141.593 172.546 142.013 172.966C142.445 173.374 142.955 173.578 143.543 173.578ZM154.084 175.216C153.328 175.216 152.656 175.048 152.068 174.712C151.492 174.364 151.036 173.896 150.7 173.308C150.376 172.708 150.214 172.03 150.214 171.274C150.214 170.506 150.346 169.792 150.61 169.132C150.886 168.472 151.264 167.896 151.744 167.404C152.236 166.912 152.8 166.534 153.436 166.27C154.084 165.994 154.78 165.856 155.524 165.856C156.292 165.856 156.964 166.024 157.54 166.36C158.128 166.684 158.59 167.14 158.926 167.728C159.262 168.304 159.43 168.976 159.43 169.744C159.43 170.512 159.292 171.232 159.016 171.904C158.74 172.564 158.356 173.146 157.864 173.65C157.384 174.142 156.82 174.526 156.172 174.802C155.536 175.078 154.84 175.216 154.084 175.216ZM154.336 173.578C154.924 173.578 155.452 173.416 155.92 173.092C156.4 172.756 156.778 172.312 157.054 171.76C157.33 171.196 157.468 170.56 157.468 169.852C157.468 169.108 157.252 168.532 156.82 168.124C156.4 167.704 155.896 167.494 155.308 167.494C154.72 167.494 154.186 167.662 153.706 167.998C153.238 168.322 152.866 168.766 152.59 169.33C152.314 169.882 152.176 170.512 152.176 171.22C152.176 171.964 152.386 172.546 152.806 172.966C153.238 173.374 153.748 173.578 154.336 173.578ZM160.647 175L162.213 166.072H163.905L163.797 167.62C164.169 167.08 164.643 166.654 165.219 166.342C165.807 166.018 166.449 165.856 167.145 165.856C168.057 165.856 168.765 166.108 169.269 166.612C169.785 167.116 170.043 167.842 170.043 168.79C170.043 169.138 170.007 169.498 169.935 169.87L169.017 175H167.127L167.991 170.068C168.015 169.912 168.033 169.768 168.045 169.636C168.069 169.504 168.081 169.372 168.081 169.24C168.081 168.064 167.499 167.476 166.335 167.476C165.639 167.476 165.021 167.716 164.481 168.196C163.941 168.676 163.581 169.36 163.401 170.248L162.555 175H160.647ZM172.218 171.274L173.568 162.4H175.62L173.82 171.274H172.218ZM172.722 175.108C172.362 175.108 172.062 174.994 171.822 174.766C171.594 174.526 171.48 174.244 171.48 173.92C171.48 173.584 171.594 173.302 171.822 173.074C172.062 172.834 172.362 172.714 172.722 172.714C173.082 172.714 173.376 172.834 173.604 173.074C173.844 173.302 173.964 173.584 173.964 173.92C173.964 174.244 173.844 174.526 173.604 174.766C173.376 174.994 173.082 175.108 172.722 175.108Z" fill="white"/>
<g opacity="0.6">
<mask id="mask0_13440_9890" style="mask-type:alpha" maskUnits="userSpaceOnUse" x="4" y="-3" width="238" height="150">
<line x1="104.228" y1="146.956" x2="104.228" y2="1.04446" stroke="white" stroke-width="0.744444" stroke-dasharray="2.98 2.98"/>
<line x1="134.006" y1="146.956" x2="134.006" y2="1.04446" stroke="white" stroke-width="0.744444" stroke-dasharray="2.98 2.98"/>
<line x1="111.672" y1="146.956" x2="111.672" y2="1.04446" stroke="white" stroke-width="0.744444" stroke-dasharray="2.98 2.98"/>
<line x1="141.45" y1="146.956" x2="141.45" y2="1.04446" stroke="white" stroke-width="0.744444" stroke-dasharray="2.98 2.98"/>
<line x1="49.5112" y1="104.895" x2="195.422" y2="104.895" stroke="white" stroke-width="0.744444" stroke-dasharray="2.98 2.98"/>
<line x1="49.5112" y1="73.6278" x2="195.422" y2="73.6278" stroke="white" stroke-width="0.744444" stroke-dasharray="2.98 2.98"/>
<line x1="49.5112" y1="34.9167" x2="195.422" y2="34.9167" stroke="white" stroke-width="0.744444" stroke-dasharray="2.98 2.98"/>
<line x1="48.0389" y1="-2.24064" x2="198.61" y2="100.493" stroke="white" stroke-width="0.744444" stroke-dasharray="2.98 2.98"/>
<line x1="4.46404" y1="139.19" x2="241.39" y2="0.723075" stroke="white" stroke-width="0.744444" stroke-dasharray="2.98 2.98"/>
</mask>
<g mask="url(#mask0_13440_9890)">
<rect x="55.4077" y="0.828918" width="136.645" height="138.408" fill="#D9D9D9"/>
</g>
</g>
<path d="M107.578 105.267V74.6559M107.578 74.6559V42.7333L133.159 59.7879L107.578 74.6559ZM107.578 74.6559C107.578 74.6559 138.188 81.2154 138.188 105.267" stroke="white" stroke-width="8.74592"/>
</svg>
