<svg width="28" height="28" viewBox="0 0 28 28" fill="none" xmlns="http://www.w3.org/2000/svg">
<path d="M0 12.95C0 7.36507 0 4.57261 1.50278 2.66634C1.84354 2.23409 2.23409 1.84354 2.66634 1.50278C4.57261 0 7.36507 0 12.95 0H15.05C20.6349 0 23.4274 0 25.3337 1.50278C25.7659 1.84354 26.1565 2.23409 26.4972 2.66634C28 4.57261 28 7.36507 28 12.95V15.05C28 20.6349 28 23.4274 26.4972 25.3337C26.1565 25.7659 25.7659 26.1565 25.3337 26.4972C23.4274 28 20.6349 28 15.05 28H12.95C7.36507 28 4.57261 28 2.66634 26.4972C2.23409 26.1565 1.84354 25.7659 1.50278 25.3337C0 23.4274 0 20.6349 0 15.05V12.95Z" fill="#F2A900"/>
<path d="M19.3861 10.9862C19.2023 9.07509 17.5526 8.43464 15.468 8.25198V5.59998H13.8549V8.18119C13.4313 8.18119 12.9975 8.18919 12.5671 8.19832V5.59998H10.954L10.9529 8.24969C10.6035 8.25654 10.2599 8.26339 9.92539 8.26339V8.2554L7.70036 8.25426V9.97812C7.70036 9.97812 8.89222 9.95528 8.87167 9.97697C9.52582 9.97697 9.73816 10.356 9.79981 10.6836V13.7044C9.84548 13.7044 9.9037 13.7067 9.96992 13.7158H9.79981L9.79867 17.9478C9.77013 18.1533 9.64912 18.481 9.19247 18.4821C9.21302 18.5004 8.02002 18.4821 8.02002 18.4821L7.69922 20.4092H9.79981C10.1902 20.4092 10.575 20.416 10.9517 20.4183L10.9529 23.1H12.5648V20.4468C13.0066 20.456 13.4348 20.4594 13.8537 20.4594L13.8526 23.1H15.4657V20.424C18.1782 20.2687 20.079 19.5849 20.3142 17.0368C20.5048 14.9853 19.5402 14.0686 18.0001 13.6987C18.9374 13.2238 19.5231 12.3847 19.3861 10.9862ZM17.1279 16.7194C17.1279 18.723 13.6973 18.4958 12.6025 18.4958V14.9419C13.6973 14.9442 17.1279 14.6302 17.1279 16.7194ZM16.3767 11.7065C16.3767 13.5297 13.5135 13.3162 12.6025 13.3174V10.0957C13.5147 10.0957 16.3779 9.80573 16.3767 11.7065Z" fill="white"/>
<path d="M19.3861 10.9862C19.2023 9.07509 17.5526 8.43464 15.468 8.25198V5.59998H13.8549V8.18119C13.4313 8.18119 12.9975 8.18919 12.5671 8.19832V5.59998H10.954L10.9529 8.24969C10.6035 8.25654 10.2599 8.26339 9.92539 8.26339V8.2554L7.70036 8.25426V9.97812C7.70036 9.97812 8.89222 9.95528 8.87167 9.97697C9.52582 9.97697 9.73816 10.356 9.79981 10.6836V13.7044C9.84548 13.7044 9.9037 13.7067 9.96992 13.7158H9.79981L9.79867 17.9478C9.77013 18.1533 9.64912 18.481 9.19247 18.4821C9.21302 18.5004 8.02002 18.4821 8.02002 18.4821L7.69922 20.4092H9.79981C10.1902 20.4092 10.575 20.416 10.9517 20.4183L10.9529 23.1H12.5648V20.4468C13.0066 20.456 13.4348 20.4594 13.8537 20.4594L13.8526 23.1H15.4657V20.424C18.1782 20.2687 20.079 19.5849 20.3142 17.0368C20.5048 14.9853 19.5402 14.0686 18.0001 13.6987C18.9374 13.2238 19.5231 12.3847 19.3861 10.9862ZM17.1279 16.7194C17.1279 18.723 13.6973 18.4958 12.6025 18.4958V14.9419C13.6973 14.9442 17.1279 14.6302 17.1279 16.7194ZM16.3767 11.7065C16.3767 13.5297 13.5135 13.3162 12.6025 13.3174V10.0957C13.5147 10.0957 16.3779 9.80573 16.3767 11.7065Z" fill="white"/>
</svg>
