<svg width="70" height="69" viewBox="0 0 70 69" fill="none" xmlns="http://www.w3.org/2000/svg">
<path d="M35 0.125C28.2013 0.125 21.5552 2.14106 15.9023 5.91823C10.2493 9.69541 5.84342 15.064 3.24166 21.3453C0.639894 27.6265 -0.0408453 34.5381 1.28552 41.2062C2.61189 47.8743 5.88579 53.9994 10.6932 58.8068C15.5007 63.6142 21.6257 66.8881 28.2938 68.2145C34.9619 69.5409 41.8735 68.8601 48.1548 66.2584C54.436 63.6566 59.8046 59.2507 63.5818 53.5977C67.359 47.9448 69.375 41.2987 69.375 34.5C69.365 25.3863 65.7402 16.6487 59.2958 10.2043C52.8514 3.75986 44.1138 0.135009 35 0.125ZM35 66.125C28.7452 66.125 22.6308 64.2702 17.4301 60.7952C12.2294 57.3202 8.17595 52.3811 5.78232 46.6024C3.3887 40.8237 2.76242 34.4649 3.98268 28.3303C5.20294 22.1956 8.21493 16.5606 12.6378 12.1377C17.0606 7.71491 22.6956 4.70292 28.8303 3.48267C34.9649 2.26241 41.3237 2.88869 47.1024 5.28231C52.8811 7.67593 57.8202 11.7294 61.2952 16.9301C64.7702 22.1308 66.625 28.2452 66.625 34.5C66.6159 42.8847 63.2811 50.9233 57.3522 56.8522C51.4233 62.7811 43.3847 66.1159 35 66.125ZM33.625 37.25V18C33.625 17.6353 33.7699 17.2856 34.0277 17.0277C34.2856 16.7699 34.6353 16.625 35 16.625C35.3647 16.625 35.7144 16.7699 35.9723 17.0277C36.2302 17.2856 36.375 17.6353 36.375 18V37.25C36.375 37.6147 36.2302 37.9644 35.9723 38.2223C35.7144 38.4801 35.3647 38.625 35 38.625C34.6353 38.625 34.2856 38.4801 34.0277 38.2223C33.7699 37.9644 33.625 37.6147 33.625 37.25ZM37.75 49.625C37.75 50.1689 37.5887 50.7006 37.2866 51.1528C36.9844 51.6051 36.5549 51.9575 36.0524 52.1657C35.5499 52.3738 34.997 52.4283 34.4635 52.3222C33.9301 52.216 33.4401 51.9541 33.0555 51.5695C32.6709 51.185 32.409 50.695 32.3029 50.1615C32.1967 49.6281 32.2512 49.0751 32.4593 48.5726C32.6675 48.0701 33.02 47.6406 33.4722 47.3385C33.9244 47.0363 34.4561 46.875 35 46.875C35.7294 46.875 36.4288 47.1647 36.9446 47.6805C37.4603 48.1962 37.75 48.8957 37.75 49.625Z" fill="#F2A900"/>
</svg>
