<svg width="32" height="32" viewBox="0 0 32 32" fill="none" xmlns="http://www.w3.org/2000/svg">
<rect width="32" height="32" rx="16" fill="#303354"/>
<path d="M10.9375 12.6625H22.1875C22.3267 12.6625 22.4603 12.7178 22.5587 12.8163C22.6572 12.9147 22.7125 13.0483 22.7125 13.1875V21.0625C22.7125 21.2017 22.6572 21.3353 22.5587 21.4337C22.4603 21.5322 22.3267 21.5875 22.1875 21.5875H10.9388C10.6505 21.586 10.3744 21.4708 10.1706 21.2669C9.96667 21.063 9.85148 20.7869 9.85 20.4986V11.9108C9.90776 12.0637 9.99768 12.2042 10.1155 12.322C10.3335 12.54 10.6292 12.6625 10.9375 12.6625ZM18.8541 18.3254C19.0916 18.4841 19.3707 18.5688 19.6562 18.5688C20.0392 18.5688 20.4064 18.4166 20.6771 18.1459C20.9479 17.8751 21.1 17.5079 21.1 17.125C21.1 16.8395 21.0153 16.5603 20.8567 16.3229C20.698 16.0855 20.4726 15.9004 20.2087 15.7911C19.9449 15.6819 19.6547 15.6533 19.3746 15.709C19.0945 15.7647 18.8373 15.9022 18.6354 16.1041C18.4335 16.306 18.2959 16.5633 18.2402 16.8433C18.1845 17.1234 18.2131 17.4137 18.3224 17.6775C18.4317 17.9413 18.6167 18.1668 18.8541 18.3254Z" fill="white" stroke="white" stroke-width="1.2"/>
</svg>
